G04 DipTrace 5.2.0.4*
G04 1 - Top.gbr*
%MOIN*%
G04 #@! TF.FileFunction,Copper,L1,Top*
G04 #@! TF.Part,Single*
G04 #@! TA.AperFunction,Conductor*
%ADD16C,0.01*%
%ADD17C,0.007*%
%ADD18C,0.012*%
%ADD21R,0.041339X0.04252*%
%ADD22R,0.04252X0.041339*%
%ADD24R,0.011811X0.051181*%
%ADD26R,0.055118X0.03937*%
G04 #@! TA.AperFunction,ComponentPad*
%ADD27O,0.06X0.12*%
%ADD30R,0.07874X0.07874*%
%ADD32C,0.07874*%
%ADD33C,0.094488*%
%ADD35R,0.043307X0.03937*%
%ADD36R,0.03937X0.043307*%
G04 #@! TA.AperFunction,ComponentPad*
%ADD37C,0.13*%
%ADD39R,0.070866X0.070866*%
%ADD41C,0.070866*%
%ADD44R,0.033465X0.011811*%
G04 #@! TA.AperFunction,ViaPad*
%ADD45C,0.03*%
%FSLAX26Y26*%
G04*
G70*
G90*
G75*
G01*
G04 Top*
%LPD*%
G36*
X-1295000Y1567992D2*
X-1272441Y1533115D1*
Y1529178D1*
X-1327559D1*
Y1533115D1*
X-1305000Y1567992D1*
X-1295000D1*
G37*
G36*
X1105000D2*
X1127559Y1533115D1*
Y1529178D1*
X1072441D1*
Y1533115D1*
X1095000Y1567992D1*
X1105000D1*
G37*
X-1300000Y1505000D2*
D16*
Y1950000D1*
X-1250000Y2000000D1*
X-500000D1*
X300000D1*
X1050000D1*
X1100000Y1950000D1*
Y1505000D1*
G36*
X-495000Y1567992D2*
X-472441Y1533115D1*
Y1529178D1*
X-527559D1*
Y1533115D1*
X-505000Y1567992D1*
X-495000D1*
G37*
G36*
X-485000Y1995000D2*
X-486564Y1994877D1*
X-488091Y1994510D1*
X-489539Y1993909D1*
X-490878Y1993091D1*
X-492071Y1992071D1*
X-493091Y1990878D1*
X-493909Y1989539D1*
X-494510Y1988091D1*
X-494877Y1986564D1*
X-495000Y1985000D1*
X-505000D1*
X-505123Y1986564D1*
X-505490Y1988091D1*
X-506091Y1989539D1*
X-506909Y1990878D1*
X-507929Y1992071D1*
X-509122Y1993091D1*
X-510461Y1993909D1*
X-511909Y1994510D1*
X-513436Y1994877D1*
X-515000Y1995000D1*
X-500000Y2005000D1*
X-485000Y1995000D1*
G37*
X-500000Y1505000D2*
D16*
Y2000000D1*
G36*
X305000Y1567992D2*
X327559Y1533115D1*
Y1529178D1*
X272441D1*
Y1533115D1*
X295000Y1567992D1*
X305000D1*
G37*
G36*
X315000Y1995000D2*
X313436Y1994877D1*
X311909Y1994510D1*
X310461Y1993909D1*
X309122Y1993091D1*
X307929Y1992071D1*
X306909Y1990878D1*
X306091Y1989539D1*
X305490Y1988091D1*
X305123Y1986564D1*
X305000Y1985000D1*
X295000D1*
X294877Y1986564D1*
X294510Y1988091D1*
X293909Y1989539D1*
X293091Y1990878D1*
X292071Y1992071D1*
X290878Y1993091D1*
X289539Y1993909D1*
X288091Y1994510D1*
X286564Y1994877D1*
X285000Y1995000D1*
X300000Y2005000D1*
X315000Y1995000D1*
G37*
X300000Y1505000D2*
D16*
Y2000000D1*
G36*
X-604260Y-1083972D2*
X-611260Y-1085722D1*
X-612933D1*
Y-1075222D1*
X-611260D1*
X-604260Y-1076972D1*
Y-1083972D1*
G37*
G36*
X-568260Y-1076972D2*
X-561260Y-1073946D1*
X-559172Y-1073549D1*
Y-1083797D1*
X-561260Y-1084194D1*
X-568260Y-1083972D1*
Y-1076972D1*
G37*
X-627992Y-1080472D2*
D17*
X-583609D1*
X-544921D1*
D16*
X-540000Y-1075551D1*
G36*
X-508740Y-1085000D2*
X-518740Y-1085678D1*
X-520841Y-1085352D1*
Y-1070722D1*
X-518740Y-1071049D1*
X-508740Y-1075000D1*
Y-1085000D1*
G37*
G36*
X-501654Y-1075000D2*
X-491654Y-1071379D1*
X-489504Y-1071121D1*
Y-1085835D1*
X-491654Y-1086092D1*
X-501654Y-1085000D1*
Y-1075000D1*
G37*
X-540000Y-1075551D2*
D16*
Y-1080000D1*
X-470000D1*
Y-1076535D1*
G36*
X-604260Y-1103657D2*
X-611260Y-1105407D1*
X-612933D1*
Y-1094907D1*
X-611260D1*
X-604260Y-1096657D1*
Y-1103657D1*
G37*
G36*
X-575159Y-1083972D2*
X-576486Y-1084025D1*
X-577803Y-1084181D1*
X-579104Y-1084440D1*
X-580382Y-1084799D1*
X-581626Y-1085259D1*
X-582832Y-1085815D1*
X-583990Y-1086463D1*
X-585092Y-1087199D1*
X-586135Y-1088021D1*
X-587109Y-1088923D1*
X-597008D1*
X-596587Y-1088387D1*
X-596301Y-1087768D1*
X-596168Y-1087100D1*
X-596194Y-1086419D1*
X-596379Y-1085762D1*
X-596713Y-1085168D1*
X-597176Y-1084667D1*
X-597743Y-1084289D1*
X-598382Y-1084052D1*
X-599059Y-1083972D1*
X-583609Y-1076972D1*
X-575159Y-1083972D1*
G37*
X-627992Y-1100157D2*
D17*
X-603294D1*
X-583609Y-1080472D1*
G36*
X-201693Y-1036457D2*
X-200787Y-1046457D1*
Y-1049016D1*
X-206693Y-1072047D1*
X-212598Y-1046457D1*
X-211693Y-1036457D1*
X-201693D1*
G37*
G36*
X-465000Y-1046850D2*
X-462500Y-1056850D1*
Y-1058819D1*
X-477500D1*
Y-1056850D1*
X-475000Y-1046850D1*
X-465000D1*
G37*
X-206693Y-1072047D2*
D16*
Y-993307D1*
X-230000Y-970000D1*
X-270000D1*
X-460000D1*
X-470000Y-980000D1*
Y-1076535D1*
G36*
X-310000Y845000D2*
X-353581Y804500D1*
X-360081D1*
Y895500D1*
X-353581D1*
X-310000Y855000D1*
Y845000D1*
G37*
G36*
X-270000Y-975000D2*
X-285000Y-965000D1*
X-283436Y-964877D1*
X-281909Y-964510D1*
X-280461Y-963909D1*
X-279122Y-963091D1*
X-277929Y-962071D1*
X-276909Y-960878D1*
X-276091Y-959539D1*
X-275490Y-958091D1*
X-275123Y-956564D1*
X-275000Y-955000D1*
X-265000D1*
X-264877Y-956564D1*
X-264510Y-958091D1*
X-263909Y-959539D1*
X-263091Y-960878D1*
X-262071Y-962071D1*
X-260878Y-963091D1*
X-259539Y-963909D1*
X-258091Y-964510D1*
X-256564Y-964877D1*
X-255000Y-965000D1*
X-270000Y-975000D1*
G37*
X-400000Y850000D2*
D16*
X-310000D1*
X-270000Y810000D1*
Y-787618D1*
Y-970000D1*
G36*
X-1445000Y-1130000D2*
X-1429000Y-1148576D1*
Y-1154576D1*
X-1471000D1*
Y-1148576D1*
X-1455000Y-1130000D1*
X-1445000D1*
G37*
G36*
X-275000Y-802618D2*
X-275123Y-801054D1*
X-275490Y-799528D1*
X-276091Y-798079D1*
X-276909Y-796740D1*
X-277929Y-795547D1*
X-279122Y-794528D1*
X-280461Y-793709D1*
X-281909Y-793108D1*
X-283436Y-792741D1*
X-285000Y-792618D1*
Y-782618D1*
X-283436Y-782495D1*
X-281909Y-782129D1*
X-280461Y-781528D1*
X-279122Y-780709D1*
X-277929Y-779689D1*
X-276909Y-778496D1*
X-276091Y-777157D1*
X-275490Y-775709D1*
X-275123Y-774182D1*
X-275000Y-772618D1*
X-265000Y-787618D1*
X-275000Y-802618D1*
G37*
X-1450000Y-1200000D2*
D16*
Y-1130000D1*
X-1350000Y-1030000D1*
X-1050000D1*
X-1000000Y-980000D1*
Y-840000D1*
X-947618Y-787618D1*
X-270000D1*
G36*
X-210193Y-1104638D2*
X-211944Y-1097638D1*
Y-1095079D1*
X-201442D1*
Y-1097638D1*
X-203193Y-1104638D1*
X-210193D1*
G37*
G36*
X203193D2*
X201442Y-1097638D1*
Y-1095079D1*
X211944D1*
Y-1097638D1*
X210193Y-1104638D1*
X203193D1*
G37*
X-206693Y-1072047D2*
D17*
Y-1160101D1*
X-196794Y-1170000D1*
X196794D1*
X206693Y-1160101D1*
Y-1072047D1*
G36*
X-543499Y-1040150D2*
X-545249Y-1033150D1*
Y-1031181D1*
X-534749D1*
Y-1033150D1*
X-536499Y-1040150D1*
X-543499D1*
G37*
G36*
X-536500Y-1047882D2*
X-534749Y-1054882D1*
Y-1056949D1*
X-545249D1*
Y-1054882D1*
X-543500Y-1047882D1*
X-536500D1*
G37*
X-539999Y-1013465D2*
D17*
X-540000Y-1075551D1*
G36*
X-104768Y-1039457D2*
X-103017Y-1046457D1*
Y-1049016D1*
X-113518D1*
Y-1046457D1*
X-111768Y-1039457D1*
X-104768D1*
G37*
G36*
X-111768Y-871516D2*
X-113643Y-856234D1*
X-113043Y-854858D1*
X-93441Y-862391D1*
X-94041Y-863765D1*
X-104768Y-871516D1*
X-111768D1*
G37*
X-108268Y-1072047D2*
D17*
Y-858268D1*
X-100000Y-850000D1*
G36*
X-651724Y-1136028D2*
X-644724Y-1134277D1*
X-643051D1*
Y-1144777D1*
X-644724D1*
X-651724Y-1143028D1*
Y-1136028D1*
G37*
G36*
X-644000Y-1036500D2*
X-630713Y-1029500D1*
X-629213D1*
Y-1050500D1*
X-630713D1*
X-644000Y-1043500D1*
Y-1036500D1*
G37*
X-627992Y-1139528D2*
D17*
X-670472D1*
X-690000Y-1120000D1*
Y-1059629D1*
X-670371Y-1040000D1*
X-620000D1*
G36*
X-65398Y-1039457D2*
X-63647Y-1046457D1*
Y-1049016D1*
X-74148D1*
Y-1046457D1*
X-72398Y-1039457D1*
X-65398D1*
G37*
G36*
X-77888Y-769966D2*
X-92589Y-773041D1*
X-94031Y-772629D1*
X-88255Y-752438D1*
X-86814Y-752852D1*
X-75963Y-763236D1*
X-77888Y-769966D1*
G37*
X-68898Y-1072047D2*
D17*
Y-768898D1*
X-100000Y-760000D1*
G36*
X699445Y-745504D2*
X694999Y-759850D1*
X693938Y-760911D1*
X679089Y-746062D1*
X680150Y-745001D1*
X694496Y-740555D1*
X699445Y-745504D1*
G37*
G36*
X723465Y-713035D2*
X728346Y-711286D1*
X730512D1*
Y-721786D1*
X728346D1*
X723465Y-720035D1*
Y-713035D1*
G37*
X680000Y-760000D2*
D17*
X723465Y-716535D1*
X750000D1*
G36*
X-1317134Y1281402D2*
X-1329134Y1278402D1*
X-1331890D1*
Y1296402D1*
X-1329134D1*
X-1317134Y1293402D1*
Y1281402D1*
G37*
G36*
X-867134Y444000D2*
X-879134Y436786D1*
X-881740Y435890D1*
Y453639D1*
X-879134Y454535D1*
X-867134Y456000D1*
Y444000D1*
G37*
X-1356693Y1287402D2*
D18*
X-1212598D1*
X-1150000Y1350000D1*
X-850000D1*
X-800000Y1300000D1*
Y1200000D1*
Y650000D1*
Y500000D1*
X-850000Y450000D1*
X-894094D1*
X-906693Y437402D1*
G36*
X-852362Y673528D2*
X-883751Y654724D1*
X-887294D1*
Y704331D1*
X-883751D1*
X-852362Y685528D1*
Y673528D1*
G37*
G36*
X-806000Y635514D2*
X-806089Y637787D1*
X-806357Y640047D1*
X-806801Y642278D1*
X-807417Y644467D1*
X-808205Y646601D1*
X-809157Y648667D1*
X-810269Y650652D1*
X-811533Y652543D1*
X-812941Y654329D1*
X-814486Y656000D1*
Y672971D1*
X-813568Y672247D1*
X-812507Y671759D1*
X-811361Y671530D1*
X-810193Y671576D1*
X-809068Y671894D1*
X-808049Y672465D1*
X-807190Y673257D1*
X-806542Y674228D1*
X-806138Y675325D1*
X-806000Y676486D1*
X-794000Y650000D1*
X-806000Y635514D1*
G37*
X-909055Y679528D2*
D18*
X-829528D1*
X-800000Y650000D1*
G36*
X-867134Y1206598D2*
X-879134Y1203598D1*
X-881890D1*
Y1221598D1*
X-879134D1*
X-867134Y1218598D1*
Y1206598D1*
G37*
G36*
X-806000Y1185698D2*
X-806088Y1187936D1*
X-806352Y1190160D1*
X-806789Y1192358D1*
X-807396Y1194513D1*
X-808172Y1196615D1*
X-809109Y1198650D1*
X-810203Y1200604D1*
X-811449Y1202466D1*
X-812835Y1204226D1*
X-814356Y1205870D1*
X-808356Y1216841D1*
X-808101Y1216640D1*
X-807806Y1216504D1*
X-807488Y1216441D1*
X-807164Y1216454D1*
X-806852Y1216542D1*
X-806568Y1216701D1*
X-806331Y1216921D1*
X-806151Y1217190D1*
X-806038Y1217495D1*
X-806000Y1217816D1*
X-794000Y1200000D1*
X-806000Y1185698D1*
G37*
X-906693Y1212598D2*
D18*
X-812598D1*
X-800000Y1200000D1*
G36*
X-124453Y-1039457D2*
X-122702Y-1046457D1*
Y-1049016D1*
X-133203D1*
Y-1046457D1*
X-131453Y-1039457D1*
X-124453D1*
G37*
G36*
X-63500Y526000D2*
X-70500Y539287D1*
Y540787D1*
X-49500D1*
Y539287D1*
X-56500Y526000D1*
X-63500D1*
G37*
X-127953Y-1072047D2*
D17*
Y272047D1*
X-60000Y340000D1*
Y550000D1*
G36*
X-1262728Y821213D2*
X-1250150Y814999D1*
X-1249089Y813938D1*
X-1263938Y799089D1*
X-1264999Y800150D1*
X-1271213Y812728D1*
X-1262728Y821213D1*
G37*
G36*
X-1274891Y816406D2*
X-1283350Y817717D1*
X-1285164Y818483D1*
X-1280948Y835241D1*
X-1279134Y834475D1*
X-1266406Y824891D1*
X-1274891Y816406D1*
G37*
X-1250000Y800000D2*
D18*
X-1287402Y837402D1*
X-1306693D1*
G36*
X-1317134Y356598D2*
X-1329134Y353598D1*
X-1331890D1*
Y371598D1*
X-1329134D1*
X-1317134Y368598D1*
Y356598D1*
G37*
G36*
X-1271213Y387272D2*
X-1264999Y399850D1*
X-1263938Y400911D1*
X-1249089Y386062D1*
X-1250150Y385001D1*
X-1262728Y378787D1*
X-1271213Y387272D1*
G37*
X-1356693Y362598D2*
D18*
X-1287402D1*
X-1250000Y400000D1*
G36*
X-144138Y-1039457D2*
X-142387Y-1046457D1*
Y-1049016D1*
X-152888D1*
Y-1046457D1*
X-151138Y-1039457D1*
X-144138D1*
G37*
G36*
X-103500Y1129820D2*
X-104164Y1145064D1*
X-103420Y1146366D1*
X-84604Y1137042D1*
X-85348Y1135740D1*
X-96500Y1129820D1*
X-103500D1*
G37*
X-147638Y-1072047D2*
D17*
Y277362D1*
X-100000Y325000D1*
Y1150000D1*
X-90000D1*
G36*
X-944900Y964803D2*
X-909409Y955904D1*
X-906904Y953398D1*
X-941980Y918322D1*
X-944487Y920827D1*
X-953386Y956318D1*
X-944900Y964803D1*
G37*
G36*
X-945012Y1263474D2*
X-934252Y1274858D1*
X-932730Y1276108D1*
X-914713Y1268965D1*
X-916235Y1267717D1*
X-936526Y1254988D1*
X-945012Y1263474D1*
G37*
X-909055Y920472D2*
D18*
X-950000Y961417D1*
Y1250000D1*
X-912598Y1287402D1*
X-906693D1*
G36*
X-1280185Y861329D2*
X-1282433Y857087D1*
X-1283636Y855529D1*
X-1303728D1*
X-1302525Y857087D1*
X-1288671Y869815D1*
X-1280185Y861329D1*
G37*
G36*
X-959235Y906000D2*
X-941854Y933879D1*
X-938623Y935336D1*
X-919885Y889406D1*
X-923115Y887949D1*
X-959235Y894000D1*
Y906000D1*
G37*
X-1306693Y837402D2*
D18*
Y843307D1*
X-1250000Y900000D1*
X-929528D1*
X-909055Y920472D1*
G36*
X-1362693Y1180913D2*
X-1365693Y1192913D1*
Y1194882D1*
X-1347693D1*
Y1192913D1*
X-1350693Y1180913D1*
X-1362693D1*
G37*
G36*
X-1352450Y1130227D2*
X-1322008Y1126377D1*
X-1319503Y1123870D1*
X-1354579Y1088794D1*
X-1357085Y1091299D1*
X-1360936Y1121741D1*
X-1352450Y1130227D1*
G37*
X-1356693Y1212598D2*
D18*
Y1125984D1*
X-1321654Y1090945D1*
G36*
X-163823Y-1039457D2*
X-162072Y-1046457D1*
Y-1049016D1*
X-172573D1*
Y-1046457D1*
X-170823Y-1039457D1*
X-163823D1*
G37*
G36*
X-159445Y335504D2*
X-154999Y349850D1*
X-153938Y350911D1*
X-139089Y336062D1*
X-140150Y335001D1*
X-154496Y330555D1*
X-159445Y335504D1*
G37*
X-167323Y-1072047D2*
D17*
Y322677D1*
X-140000Y350000D1*
G36*
X-872134Y346500D2*
X-879134Y347655D1*
X-881699Y348663D1*
Y359146D1*
X-879134Y358138D1*
X-872134Y353500D1*
Y346500D1*
G37*
G36*
X-874000Y353500D2*
X-860713Y360500D1*
X-859213D1*
Y339500D1*
X-860713D1*
X-874000Y346500D1*
Y353500D1*
G37*
X-906693Y362598D2*
D17*
X-894094Y350000D1*
X-850000D1*
G36*
X-1288671Y730185D2*
X-1302525Y742913D1*
X-1303728Y744471D1*
X-1283636D1*
X-1282433Y742913D1*
X-1280185Y738671D1*
X-1288671Y730185D1*
G37*
G36*
X-936526Y395012D2*
X-916235Y382283D1*
X-914713Y381035D1*
X-932730Y373892D1*
X-934252Y375142D1*
X-945012Y386526D1*
X-936526Y395012D1*
G37*
X-1306693Y762598D2*
D18*
X-1300000Y750000D1*
X-1250000Y700000D1*
X-1050000D1*
X-950000Y600000D1*
Y400000D1*
X-912598Y362598D1*
X-906693D1*
G36*
X-1356000Y1044652D2*
X-1356020Y1082318D1*
X-1354020Y1085241D1*
X-1311714Y1059337D1*
X-1313715Y1056412D1*
X-1344000Y1044652D1*
X-1356000D1*
G37*
G36*
X-1336526Y795012D2*
X-1316235Y782283D1*
X-1314713Y781035D1*
X-1332730Y773892D1*
X-1334252Y775142D1*
X-1345012Y786526D1*
X-1336526Y795012D1*
G37*
X-1321654Y1090945D2*
D18*
X-1350000Y1062598D1*
Y800000D1*
X-1312598Y762598D1*
X-1306693D1*
G36*
X-183508Y-1039457D2*
X-181757Y-1046457D1*
Y-1049016D1*
X-192259D1*
Y-1046457D1*
X-190508Y-1039457D1*
X-183508D1*
G37*
G36*
X-296000Y1031500D2*
X-353581Y989500D1*
X-360081D1*
Y1080500D1*
X-353581D1*
X-296000Y1038500D1*
Y1031500D1*
G37*
X-187008Y-1072047D2*
D17*
Y962008D1*
X-260000Y1035000D1*
X-400000D1*
G36*
X1212051Y1371740D2*
X1210301Y1378740D1*
Y1380866D1*
X1220802D1*
Y1378740D1*
X1219051Y1371740D1*
X1212051D1*
G37*
G36*
X190508Y-1039457D2*
X192259Y-1046457D1*
Y-1049016D1*
X181757D1*
Y-1046457D1*
X183508Y-1039457D1*
X190508D1*
G37*
X1215551Y1400000D2*
D17*
Y1360000D1*
X785000D1*
X750000Y1325000D1*
Y400000D1*
X700000Y350000D1*
X325000D1*
X300000Y325000D1*
Y-900000D1*
X187008Y-1012992D1*
Y-1072047D1*
G36*
X1206000Y1433260D2*
X1215528Y1421260D1*
X1216483Y1419361D1*
X1198167D1*
X1197211Y1421260D1*
X1194000Y1433260D1*
X1206000D1*
G37*
G36*
X1194000Y1442008D2*
X1172441Y1476885D1*
Y1480822D1*
X1227559D1*
Y1476885D1*
X1206000Y1442008D1*
X1194000D1*
G37*
X1215551Y1400000D2*
D18*
X1200000D1*
Y1505000D1*
G36*
X394000Y1442008D2*
X372441Y1476885D1*
Y1480822D1*
X427559D1*
Y1476885D1*
X406000Y1442008D1*
X394000D1*
G37*
G36*
X406000Y1433260D2*
X415528Y1421260D1*
X416483Y1419361D1*
X398167D1*
X397211Y1421260D1*
X394000Y1433260D1*
X406000D1*
G37*
X400000Y1505000D2*
D18*
Y1415551D1*
X415551Y1400000D1*
G36*
X396500Y1371740D2*
X398900Y1378740D1*
X399978Y1380573D1*
X410875D1*
X409798Y1378740D1*
X403500Y1371740D1*
X396500D1*
G37*
G36*
X170823Y-1039457D2*
X172573Y-1046457D1*
Y-1049016D1*
X162072D1*
Y-1046457D1*
X163823Y-1039457D1*
X170823D1*
G37*
X415551Y1400000D2*
D17*
X400000Y1384449D1*
Y1350000D1*
X425000Y1325000D1*
X695000D1*
X725000Y1295000D1*
Y415000D1*
X685000Y375000D1*
X315000D1*
X275000Y335000D1*
Y-900000D1*
X167323Y-1007677D1*
Y-1072047D1*
G36*
X-403500Y1442008D2*
X-427559Y1476885D1*
Y1480822D1*
X-372441D1*
Y1476885D1*
X-396500Y1442008D1*
X-403500D1*
G37*
G36*
X-396500Y1428260D2*
X-390202Y1421260D1*
X-389125Y1419427D1*
X-400022D1*
X-401100Y1421260D1*
X-403500Y1428260D1*
X-396500D1*
G37*
X-400000Y1505000D2*
D17*
Y1415551D1*
D18*
X-384449Y1400000D1*
G36*
X151138Y-1039457D2*
X152888Y-1046457D1*
Y-1049016D1*
X142387D1*
Y-1046457D1*
X144138Y-1039457D1*
X151138D1*
G37*
G36*
X-387949Y1371740D2*
X-389698Y1378740D1*
Y1380866D1*
X-379198D1*
Y1378740D1*
X-380949Y1371740D1*
X-387949D1*
G37*
X147638Y-1072047D2*
D17*
Y-1002362D1*
X250000Y-900000D1*
Y350000D1*
X300000Y400000D1*
X675000D1*
X700000Y425000D1*
Y1260000D1*
X660000Y1300000D1*
X-375000D1*
X-384449Y1309449D1*
Y1400000D1*
G36*
X-1206000Y1442008D2*
X-1227559Y1476885D1*
Y1480822D1*
X-1172441D1*
Y1476885D1*
X-1194000Y1442008D1*
X-1206000D1*
G37*
G36*
X-1194000Y1433260D2*
X-1184472Y1421260D1*
X-1183517Y1419361D1*
X-1201833D1*
X-1202789Y1421260D1*
X-1206000Y1433260D1*
X-1194000D1*
G37*
X-1200000Y1505000D2*
D18*
Y1415551D1*
X-1184449Y1400000D1*
G36*
X131453Y-1039457D2*
X133203Y-1046457D1*
Y-1049016D1*
X122702D1*
Y-1046457D1*
X124453Y-1039457D1*
X131453D1*
G37*
G36*
X-1196500Y1567992D2*
X-1172441Y1533115D1*
Y1529178D1*
X-1227559D1*
Y1533115D1*
X-1203500Y1567992D1*
X-1196500D1*
G37*
X127953Y-1072047D2*
D17*
Y-997047D1*
X225000Y-900000D1*
Y365000D1*
X285000Y425000D1*
X665000D1*
X675000Y435000D1*
Y1235000D1*
X640000Y1270000D1*
X-660000D1*
X-690000Y1300000D1*
Y1560000D1*
X-740000Y1610000D1*
X-1170000D1*
X-1200000Y1580000D1*
Y1505000D1*
G36*
X1194000Y542008D2*
X1172441Y576885D1*
Y580822D1*
X1227559D1*
Y576885D1*
X1206000Y542008D1*
X1194000D1*
G37*
G36*
X1206000Y533260D2*
X1215528Y521260D1*
X1216483Y519361D1*
X1198167D1*
X1197211Y521260D1*
X1194000Y533260D1*
X1206000D1*
G37*
X1200000Y605000D2*
D18*
Y515551D1*
X1215551Y500000D1*
G36*
X111768Y-1039457D2*
X113518Y-1046457D1*
Y-1049016D1*
X103017D1*
Y-1046457D1*
X104768Y-1039457D1*
X111768D1*
G37*
G36*
X230555Y435504D2*
X235001Y449850D1*
X236062Y450911D1*
X250911Y436062D1*
X249850Y435001D1*
X235504Y430555D1*
X230555Y435504D1*
G37*
X108268Y-1072047D2*
D17*
Y-991732D1*
X200000Y-900000D1*
Y400000D1*
X250000Y450000D1*
G36*
X394000Y542008D2*
X372441Y576885D1*
Y580822D1*
X427559D1*
Y576885D1*
X406000Y542008D1*
X394000D1*
G37*
G36*
X406000Y533260D2*
X415528Y521260D1*
X416483Y519361D1*
X398167D1*
X397211Y521260D1*
X394000Y533260D1*
X406000D1*
G37*
G36*
X406718Y500348D2*
X405286Y501571D1*
X403680Y502555D1*
X401941Y503276D1*
X400109Y503715D1*
X398232Y503864D1*
X396356Y503715D1*
X394524Y503276D1*
X392785Y502555D1*
X391178Y501571D1*
X389747Y500348D1*
X385514Y506016D1*
X387059Y507686D1*
X388467Y509472D1*
X389731Y511364D1*
X390843Y513349D1*
X391795Y515415D1*
X392583Y517549D1*
X393199Y519738D1*
X393643Y521969D1*
X393911Y524228D1*
X394000Y526501D1*
X406000Y530037D1*
X406089Y527764D1*
X406357Y525504D1*
X406801Y523273D1*
X407417Y521084D1*
X408205Y518950D1*
X409157Y516885D1*
X410269Y514899D1*
X411533Y513008D1*
X412941Y511222D1*
X414486Y509551D1*
X406718Y500348D1*
G37*
X400000Y605000D2*
D18*
Y515551D1*
X415551Y500000D1*
G36*
X92083Y-1039457D2*
X93833Y-1046457D1*
Y-1049016D1*
X83332D1*
Y-1046457D1*
X85083Y-1039457D1*
X92083D1*
G37*
G36*
X387457Y507958D2*
X394882Y509562D1*
X396688Y508555D1*
Y495018D1*
X394882Y496025D1*
X392407Y503008D1*
X387457Y507958D1*
G37*
X88583Y-1072047D2*
D17*
Y-986417D1*
X175000Y-900000D1*
Y450000D1*
X225000Y500000D1*
X384449D1*
X400000Y515551D1*
X415551Y500000D1*
G36*
X72398Y-1039457D2*
X74148Y-1046457D1*
Y-1049016D1*
X63647D1*
Y-1046457D1*
X65398Y-1039457D1*
X72398D1*
G37*
G36*
X126500Y-394000D2*
X119500Y-380713D1*
Y-379213D1*
X140500D1*
Y-380713D1*
X133500Y-394000D1*
X126500D1*
G37*
X68898Y-1072047D2*
D17*
Y-956102D1*
X130000Y-895000D1*
Y-370000D1*
G36*
X52713Y-1039457D2*
X54463Y-1046457D1*
Y-1049016D1*
X43962D1*
Y-1046457D1*
X45713Y-1039457D1*
X52713D1*
G37*
G36*
X105555Y-64496D2*
X110001Y-50150D1*
X111062Y-49089D1*
X125911Y-63938D1*
X124850Y-64999D1*
X110504Y-69445D1*
X105555Y-64496D1*
G37*
X49213Y-1072047D2*
D17*
Y-950787D1*
X100000Y-900000D1*
Y-75000D1*
X125000Y-50000D1*
G36*
X33028Y-1039457D2*
X34778Y-1046457D1*
Y-1049016D1*
X24277D1*
Y-1046457D1*
X26028Y-1039457D1*
X33028D1*
G37*
G36*
X71064Y-126014D2*
X650Y-114997D1*
X-3946Y-110400D1*
X60400Y-46054D1*
X64997Y-50650D1*
X76014Y-121064D1*
X71064Y-126014D1*
G37*
X29528Y-1072047D2*
D17*
Y-945472D1*
X75000Y-900000D1*
Y-125000D1*
X0Y-50000D1*
G36*
X13343Y-1039457D2*
X15093Y-1046457D1*
Y-1049016D1*
X4592D1*
Y-1046457D1*
X6343Y-1039457D1*
X13343D1*
G37*
G36*
X16500Y-384000D2*
X9500Y-370713D1*
Y-369213D1*
X30500D1*
Y-370713D1*
X23500Y-384000D1*
X16500D1*
G37*
X9843Y-1072047D2*
D17*
Y-940157D1*
X20000Y-930000D1*
Y-360000D1*
G36*
X-92083Y-1104638D2*
X-93833Y-1097638D1*
Y-1095079D1*
X-83332D1*
Y-1097638D1*
X-85083Y-1104638D1*
X-92083D1*
G37*
G36*
X-85083Y-1116067D2*
X-78885Y-1129928D1*
X-78983Y-1131424D1*
X-99946Y-1130182D1*
X-99848Y-1128686D1*
X-92083Y-1116067D1*
X-85083D1*
G37*
X-88583Y-1072047D2*
D17*
Y-1138583D1*
X-90000Y-1140000D1*
G36*
X-26028Y-1039457D2*
X-24277Y-1046457D1*
Y-1049016D1*
X-34778D1*
Y-1046457D1*
X-33028Y-1039457D1*
X-26028D1*
G37*
G36*
X-35504Y-649445D2*
X-49850Y-644999D1*
X-50911Y-643938D1*
X-36062Y-629089D1*
X-35001Y-630150D1*
X-30555Y-644496D1*
X-35504Y-649445D1*
G37*
X-29528Y-1072047D2*
D17*
Y-767028D1*
X-20000Y-757500D1*
Y-660000D1*
X-50000Y-630000D1*
G36*
X-974000Y-646500D2*
X-960713Y-639500D1*
X-959213D1*
Y-660500D1*
X-960713D1*
X-974000Y-653500D1*
Y-646500D1*
G37*
G36*
X-1146500Y-689850D2*
X-1144751Y-696850D1*
Y-698819D1*
X-1155251D1*
Y-696850D1*
X-1153500Y-689850D1*
X-1146500D1*
G37*
X-950000Y-650000D2*
D17*
X-1125000D1*
X-1150000Y-675000D1*
Y-716535D1*
G36*
X-45713Y-1039457D2*
X-43962Y-1046457D1*
Y-1049016D1*
X-54463D1*
Y-1046457D1*
X-52713Y-1039457D1*
X-45713D1*
G37*
G36*
X-52713Y-719423D2*
X-63978Y-714463D1*
X-64794Y-713203D1*
X-46436Y-703008D1*
X-45619Y-704266D1*
X-45713Y-719423D1*
X-52713D1*
G37*
X-49213Y-1072047D2*
D17*
Y-700000D1*
X-60000D1*
G36*
X1224000Y-703500D2*
X1210713Y-710500D1*
X1209213D1*
Y-689500D1*
X1210713D1*
X1224000Y-696500D1*
Y-703500D1*
G37*
G36*
X1221346Y-696500D2*
X1228346Y-699049D1*
X1230190Y-700184D1*
Y-711219D1*
X1228346Y-710084D1*
X1221346Y-703500D1*
Y-696500D1*
G37*
X1200000Y-700000D2*
D17*
X1237500D1*
X1250000Y-712500D1*
Y-716535D1*
G36*
X488710Y1444030D2*
X470096Y1479392D1*
X470395Y1483318D1*
X525303Y1478516D1*
X525005Y1474591D1*
X500386Y1441261D1*
X488710Y1444030D1*
G37*
G36*
X498100Y1431551D2*
X497850Y1421260D1*
X497360Y1419192D1*
X479759D1*
X480249Y1421260D1*
X486424Y1434320D1*
X498100Y1431551D1*
G37*
X500000Y1505000D2*
D18*
Y1465551D1*
X484449Y1400000D1*
G36*
X-306000Y1442008D2*
X-327559Y1476885D1*
Y1480822D1*
X-272441D1*
Y1476885D1*
X-294000Y1442008D1*
X-306000D1*
G37*
G36*
X-294000Y1433260D2*
X-297211Y1421260D1*
X-298167Y1419361D1*
X-316483D1*
X-315528Y1421260D1*
X-306000Y1433260D1*
X-294000D1*
G37*
X-300000Y1505000D2*
D18*
Y1415551D1*
X-315551Y1400000D1*
G36*
X-1106000Y1442008D2*
X-1127559Y1476885D1*
Y1480822D1*
X-1072441D1*
Y1476885D1*
X-1094000Y1442008D1*
X-1106000D1*
G37*
G36*
X-1094000Y1433260D2*
X-1097211Y1421260D1*
X-1098167Y1419361D1*
X-1116483D1*
X-1115528Y1421260D1*
X-1106000Y1433260D1*
X-1094000D1*
G37*
X-1100000Y1505000D2*
D18*
Y1415551D1*
X-1115551Y1400000D1*
G36*
X1294000Y1442008D2*
X1272441Y1476885D1*
Y1480822D1*
X1327559D1*
Y1476885D1*
X1306000Y1442008D1*
X1294000D1*
G37*
G36*
X1306000Y1433260D2*
X1302789Y1421260D1*
X1301833Y1419361D1*
X1283517D1*
X1284472Y1421260D1*
X1294000Y1433260D1*
X1306000D1*
G37*
X1300000Y1505000D2*
D18*
Y1415551D1*
X1284449Y1400000D1*
G36*
X1294000Y542008D2*
X1272441Y576885D1*
Y580822D1*
X1327559D1*
Y576885D1*
X1306000Y542008D1*
X1294000D1*
G37*
G36*
X1306000Y533260D2*
X1302789Y521260D1*
X1301833Y519361D1*
X1283517D1*
X1284472Y521260D1*
X1294000Y533260D1*
X1306000D1*
G37*
X1300000Y605000D2*
D18*
Y515551D1*
X1284449Y500000D1*
G36*
X494000Y542008D2*
X472441Y576885D1*
Y580822D1*
X527559D1*
Y576885D1*
X506000Y542008D1*
X494000D1*
G37*
G36*
X506000Y533260D2*
X502789Y521260D1*
X501833Y519361D1*
X483517D1*
X484472Y521260D1*
X494000Y533260D1*
X506000D1*
G37*
X500000Y605000D2*
D18*
Y515551D1*
X484449Y500000D1*
G36*
X-237953Y-1068547D2*
X-232283Y-1066798D1*
X-231693D1*
Y-1077298D1*
X-232283D1*
X-237953Y-1075547D1*
Y-1068547D1*
G37*
G36*
X-245504Y-1069445D2*
X-259850Y-1064999D1*
X-260911Y-1063938D1*
X-246062Y-1049089D1*
X-245001Y-1050150D1*
X-240555Y-1064496D1*
X-245504Y-1069445D1*
G37*
X-226378Y-1072047D2*
D17*
X-237953D1*
X-260000Y-1050000D1*
G36*
X237953Y-1075547D2*
X232283Y-1077298D1*
X231693D1*
Y-1066798D1*
X232283D1*
X237953Y-1068547D1*
Y-1075547D1*
G37*
G36*
X240555Y-1064496D2*
X245001Y-1050150D1*
X246062Y-1049089D1*
X260911Y-1063938D1*
X259850Y-1064999D1*
X245504Y-1069445D1*
X240555Y-1064496D1*
G37*
X226378Y-1072047D2*
D17*
X237953D1*
X260000Y-1050000D1*
G36*
X-926000Y-1043500D2*
X-939287Y-1050500D1*
X-940787D1*
Y-1029500D1*
X-939287D1*
X-926000Y-1036500D1*
Y-1043500D1*
G37*
G36*
X-932118Y-1036500D2*
X-925118Y-1034751D1*
X-923051D1*
Y-1045251D1*
X-925118D1*
X-932118Y-1043500D1*
Y-1036500D1*
G37*
X-950000Y-1040000D2*
D17*
X-904449D1*
Y-1040001D1*
G36*
X-776554Y-1141604D2*
X-768740Y-1137992D1*
X-768171Y-1137837D1*
X-759469Y-1145278D1*
X-760038Y-1145433D1*
X-771604Y-1146554D1*
X-776554Y-1141604D1*
G37*
G36*
X-770555Y-1145504D2*
X-775001Y-1159850D1*
X-776062Y-1160911D1*
X-790911Y-1146062D1*
X-789850Y-1145001D1*
X-775504Y-1140555D1*
X-770555Y-1145504D1*
G37*
X-752008Y-1139528D2*
D17*
X-769528D1*
X-790000Y-1160000D1*
G36*
X-536500Y-1166000D2*
X-529500Y-1179287D1*
Y-1180787D1*
X-550500D1*
Y-1179287D1*
X-543500Y-1166000D1*
X-536500D1*
G37*
G36*
X-543500Y-1172118D2*
X-545251Y-1165118D1*
Y-1163051D1*
X-534751D1*
Y-1165118D1*
X-536500Y-1172118D1*
X-543500D1*
G37*
X-540000Y-1190000D2*
D17*
Y-1144449D1*
G36*
X-1194000Y-1076500D2*
X-1180713Y-1069500D1*
X-1179213D1*
Y-1090500D1*
X-1180713D1*
X-1194000Y-1083500D1*
Y-1076500D1*
G37*
G36*
X-1199850Y-1083500D2*
X-1206850Y-1085251D1*
X-1208819D1*
Y-1074751D1*
X-1206850D1*
X-1199850Y-1076500D1*
Y-1083500D1*
G37*
X-1170000Y-1080000D2*
D17*
X-1226535D1*
G36*
X-364000Y-1066500D2*
X-350713Y-1059500D1*
X-349213D1*
Y-1080500D1*
X-350713D1*
X-364000Y-1073500D1*
Y-1066500D1*
G37*
G36*
X-361740Y-1073500D2*
X-368740Y-1076711D1*
X-370819Y-1077157D1*
Y-1066894D1*
X-368740Y-1066448D1*
X-361740Y-1066500D1*
Y-1073500D1*
G37*
X-340000Y-1070000D2*
D17*
X-384449D1*
X-390000Y-1075551D1*
G36*
X746500Y-810150D2*
X744749Y-803150D1*
Y-801181D1*
X755249D1*
Y-803150D1*
X753500Y-810150D1*
X746500D1*
G37*
G36*
X753500Y-887008D2*
X777559Y-910630D1*
Y-914567D1*
X722441D1*
Y-910630D1*
X746500Y-887008D1*
X753500D1*
G37*
X750000Y-783465D2*
D17*
Y-950000D1*
G36*
X-999307Y1218315D2*
X-1002307Y1230315D1*
Y1232283D1*
X-984307D1*
Y1230315D1*
X-987307Y1218315D1*
X-999307D1*
G37*
G36*
X-1035197Y1126790D2*
X-1044096Y1091299D1*
X-1046602Y1088794D1*
X-1081678Y1123870D1*
X-1079173Y1126377D1*
X-1043682Y1135276D1*
X-1035197Y1126790D1*
G37*
X-993307Y1250000D2*
D18*
Y1177165D1*
X-1079528Y1090945D1*
G36*
X1246500Y-810150D2*
X1244749Y-803150D1*
Y-801181D1*
X1255251D1*
Y-803150D1*
X1253500Y-810150D1*
X1246500D1*
G37*
G36*
X1253500Y-887008D2*
X1277559Y-910630D1*
Y-914567D1*
X1222441D1*
Y-910630D1*
X1246500Y-887008D1*
X1253500D1*
G37*
X1250000Y-783465D2*
D17*
Y-950000D1*
G36*
X-1449307Y1218315D2*
X-1452307Y1230315D1*
Y1232283D1*
X-1434307D1*
Y1230315D1*
X-1437307Y1218315D1*
X-1449307D1*
G37*
G36*
X-1446614Y956318D2*
X-1455513Y920827D1*
X-1458020Y918322D1*
X-1493096Y953398D1*
X-1490591Y955904D1*
X-1455100Y964803D1*
X-1446614Y956318D1*
G37*
X-1443307Y1250000D2*
D18*
Y968110D1*
X-1490945Y920472D1*
G36*
X-1432866Y806000D2*
X-1420866Y809000D1*
X-1418110D1*
Y791000D1*
X-1420866D1*
X-1432866Y794000D1*
Y806000D1*
G37*
G36*
X-1494000Y735043D2*
X-1470538Y708495D1*
X-1469920Y705005D1*
X-1518879Y697020D1*
X-1519497Y700509D1*
X-1506000Y735043D1*
X-1494000D1*
G37*
X-1393307Y800000D2*
D18*
X-1450000D1*
X-1500000Y750000D1*
Y688583D1*
X-1490945Y679528D1*
G36*
X-1437307Y431685D2*
X-1434307Y419685D1*
Y417717D1*
X-1452307D1*
Y419685D1*
X-1449307Y431685D1*
X-1437307D1*
G37*
G36*
X-1375988Y506000D2*
X-1349440Y529462D1*
X-1345950Y530080D1*
X-1337965Y481121D1*
X-1341454Y480503D1*
X-1375988Y494000D1*
Y506000D1*
G37*
X-1443307Y400000D2*
D18*
Y456693D1*
X-1400000Y500000D1*
X-1329528D1*
X-1320472Y509055D1*
G36*
X-1263780Y503055D2*
X-1295168Y484252D1*
X-1298711D1*
Y533858D1*
X-1295168D1*
X-1263780Y515055D1*
Y503055D1*
G37*
G36*
X-1032866Y406000D2*
X-1020866Y409000D1*
X-1018110D1*
Y391000D1*
X-1020866D1*
X-1032866Y394000D1*
Y406000D1*
G37*
X-1320472Y509055D2*
D18*
X-1209055D1*
X-1100000Y400000D1*
X-993307D1*
G36*
X-1153500Y-810150D2*
X-1155251Y-803150D1*
Y-801181D1*
X-1144751D1*
Y-803150D1*
X-1146500Y-810150D1*
X-1153500D1*
G37*
G36*
X-1146500Y-887008D2*
X-1122441Y-910630D1*
Y-914567D1*
X-1177559D1*
Y-910630D1*
X-1153500Y-887008D1*
X-1146500D1*
G37*
X-1150000Y-783465D2*
D17*
Y-950000D1*
G36*
X-775740Y-1076972D2*
X-768740Y-1075222D1*
X-767067D1*
Y-1085722D1*
X-768740D1*
X-775740Y-1083972D1*
Y-1076972D1*
G37*
G36*
X-833035Y-1091345D2*
X-831286Y-1098345D1*
Y-1100510D1*
X-841786D1*
Y-1098345D1*
X-840035Y-1091345D1*
X-833035D1*
G37*
X-752008Y-1080472D2*
D17*
X-836535D1*
Y-1119999D1*
G36*
X-833035Y-1091345D2*
X-831286Y-1098345D1*
Y-1100510D1*
X-841786D1*
Y-1098345D1*
X-840035Y-1091345D1*
X-833035D1*
G37*
G36*
X-840035Y-1068259D2*
X-841457Y-1061259D1*
X-841375Y-1059134D1*
X-830961D1*
X-831043Y-1061259D1*
X-833035Y-1068259D1*
X-840035D1*
G37*
G36*
X-826035Y-1083972D2*
X-827130Y-1084059D1*
X-828198Y-1084315D1*
X-829214Y-1084735D1*
X-830150Y-1085310D1*
X-830986Y-1086022D1*
X-831698Y-1086858D1*
X-832273Y-1087794D1*
X-832693Y-1088810D1*
X-832949Y-1089878D1*
X-833035Y-1090972D1*
X-840035Y-1080472D1*
X-833035Y-1069972D1*
X-832949Y-1071067D1*
X-832693Y-1072135D1*
X-832273Y-1073151D1*
X-831698Y-1074087D1*
X-830986Y-1074923D1*
X-830150Y-1075635D1*
X-829214Y-1076210D1*
X-828198Y-1076630D1*
X-827130Y-1076886D1*
X-826035Y-1076972D1*
Y-1083972D1*
G37*
X-836535Y-1119999D2*
D17*
Y-1039999D1*
X-835551D1*
G36*
X-587008Y-953500D2*
X-610630Y-977559D1*
X-614567D1*
Y-922441D1*
X-610630D1*
X-587008Y-946500D1*
Y-953500D1*
G37*
G36*
X-568655Y-946500D2*
X-561655Y-943862D1*
X-559508Y-943576D1*
Y-953891D1*
X-561655Y-954177D1*
X-568655Y-953500D1*
Y-946500D1*
G37*
X-650000Y-950000D2*
D17*
X-543466D1*
X-540001Y-946535D1*
G36*
X-775740Y-1096657D2*
X-768740Y-1094907D1*
X-767067D1*
Y-1105407D1*
X-768740D1*
X-775740Y-1103657D1*
Y-1096657D1*
G37*
G36*
Y-1116500D2*
X-768740Y-1114707D1*
X-767067Y-1114696D1*
Y-1125173D1*
X-768740Y-1125186D1*
X-775740Y-1123500D1*
Y-1116500D1*
G37*
X-752008Y-1100157D2*
D17*
X-790000D1*
Y-1120000D1*
X-752165D1*
X-752008Y-1119843D1*
G36*
X-728276Y-1103657D2*
X-735276Y-1105407D1*
X-736949D1*
Y-1094907D1*
X-735276D1*
X-728276Y-1096657D1*
Y-1103657D1*
G37*
G36*
X-753500Y-1012992D2*
X-777559Y-978115D1*
Y-974178D1*
X-722441D1*
Y-978115D1*
X-746500Y-1012992D1*
X-753500D1*
G37*
X-752008Y-1100157D2*
D17*
X-720157D1*
X-710000Y-1090000D1*
Y-1040000D1*
X-720000Y-1030000D1*
X-740000D1*
X-750000Y-1020000D1*
Y-950000D1*
G36*
X-930150Y-1116501D2*
X-923150Y-1114752D1*
X-921181D1*
Y-1125252D1*
X-923150D1*
X-930150Y-1123501D1*
Y-1116501D1*
G37*
G36*
X-1296965Y-1108654D2*
X-1298715Y-1101654D1*
Y-1099488D1*
X-1288215D1*
Y-1101654D1*
X-1289965Y-1108654D1*
X-1296965D1*
G37*
X-903465Y-1120001D2*
D17*
X-1293465D1*
Y-1080000D1*
G36*
X-1346500Y-1122000D2*
X-1329000Y-1148576D1*
Y-1154576D1*
X-1371000D1*
Y-1148576D1*
X-1353500Y-1122000D1*
X-1346500D1*
G37*
G36*
X-1293465Y-1123501D2*
X-1303965Y-1116501D1*
X-1302870Y-1116415D1*
X-1301802Y-1116159D1*
X-1300786Y-1115739D1*
X-1299850Y-1115164D1*
X-1299014Y-1114451D1*
X-1298302Y-1113615D1*
X-1297727Y-1112680D1*
X-1297307Y-1111664D1*
X-1297051Y-1110596D1*
X-1296965Y-1109501D1*
X-1289965D1*
X-1289878Y-1110596D1*
X-1289622Y-1111664D1*
X-1289202Y-1112680D1*
X-1288627Y-1113615D1*
X-1287915Y-1114451D1*
X-1287079Y-1115164D1*
X-1286143Y-1115739D1*
X-1285127Y-1116159D1*
X-1284059Y-1116415D1*
X-1282965Y-1116501D1*
X-1293465Y-1123501D1*
G37*
X-1350000Y-1200000D2*
D17*
Y-1120001D1*
X-1293465D1*
G36*
X-441346Y-1146965D2*
X-448346Y-1148714D1*
X-450512D1*
Y-1138214D1*
X-448346D1*
X-441346Y-1139965D1*
Y-1146965D1*
G37*
G36*
X-418260Y-1139965D2*
X-411260Y-1138543D1*
X-409135Y-1138625D1*
Y-1149039D1*
X-411260Y-1148957D1*
X-418260Y-1146965D1*
Y-1139965D1*
G37*
X-470000Y-1143465D2*
D17*
X-390984D1*
X-390000Y-1144449D1*
G36*
X-604260Y-1123343D2*
X-611260Y-1125092D1*
X-612933D1*
Y-1114592D1*
X-611260D1*
X-604260Y-1116343D1*
Y-1123343D1*
G37*
G36*
X-466715Y-1118793D2*
X-466990Y-1123780D1*
X-467441Y-1125696D1*
X-477480D1*
X-477029Y-1123780D1*
X-475261Y-1119688D1*
X-466715Y-1118793D1*
G37*
X-627992Y-1119843D2*
D17*
X-589843D1*
X-580000Y-1110000D1*
X-480000D1*
X-479454Y-1110546D1*
X-470000Y-1120000D1*
Y-1143465D1*
G36*
X-387856Y-1118672D2*
X-387696Y-1123780D1*
X-387970Y-1125828D1*
X-397888D1*
X-397613Y-1123780D1*
X-396354Y-1119688D1*
X-387856Y-1118672D1*
G37*
G36*
X-466084Y-1114046D2*
X-466560Y-1114102D1*
X-467009Y-1114268D1*
X-467408Y-1114534D1*
X-467732Y-1114886D1*
X-467967Y-1115304D1*
X-468097Y-1115765D1*
X-468115Y-1116244D1*
X-468022Y-1116714D1*
X-467822Y-1117148D1*
X-467525Y-1117525D1*
X-476500Y-1118450D1*
X-477474Y-1117549D1*
X-478517Y-1116727D1*
X-479619Y-1115991D1*
X-480777Y-1115343D1*
X-481983Y-1114786D1*
X-483227Y-1114327D1*
X-484505Y-1113967D1*
X-485806Y-1113709D1*
X-487123Y-1113552D1*
X-488450Y-1113500D1*
X-480000Y-1106500D1*
X-466084Y-1114046D1*
G37*
X-479454Y-1110546D2*
D17*
X-400547D1*
X-391093Y-1120000D1*
Y-1143356D1*
G36*
X-6343Y-1039457D2*
X-4592Y-1046457D1*
Y-1049016D1*
X-15093D1*
Y-1046457D1*
X-13343Y-1039457D1*
X-6343D1*
G37*
G36*
X-3500Y-440180D2*
X-14652Y-434260D1*
X-15396Y-432958D1*
X3420Y-423634D1*
X4164Y-424936D1*
X3500Y-440180D1*
X-3500D1*
G37*
X-9843Y-1072047D2*
D17*
Y-934843D1*
X0Y-925000D1*
Y-420000D1*
X-10000D1*
D45*
X-1170000Y-1080000D3*
X-950000Y-1040000D3*
X-540000Y-1190000D3*
X-790000Y-1160000D3*
X-340000Y-1070000D3*
X-187008Y1637992D3*
X250000Y450000D3*
X130000Y-370000D3*
X125000Y-50000D3*
X20000Y-360000D3*
X-10000Y-420000D3*
X-100000Y-850000D3*
X-620000Y-1040000D3*
X-90000Y-1140000D3*
X-50000Y-630000D3*
X-950000Y-650000D3*
X-60000Y-700000D3*
X1200000D3*
X-100000Y-760000D3*
X680000D3*
X-60000Y550000D3*
X-1250000Y400000D3*
Y800000D3*
X-90000Y1150000D3*
X-140000Y350000D3*
X-850000D3*
X-260000Y-1050000D3*
X260000D3*
D21*
X-1184449Y1400000D3*
X-1115551D3*
X-384449D3*
X-315551D3*
X415551D3*
X484449D3*
X1215551D3*
X1284449D3*
X415551Y500000D3*
X484449D3*
X1215551D3*
X1284449D3*
X-835551Y-1039999D3*
X-904449Y-1040001D3*
D22*
X-540000Y-1075551D3*
Y-1144449D3*
X-390000D3*
Y-1075551D3*
D24*
X-226378Y-1072047D3*
X-206693D3*
X-187008D3*
X-167323D3*
X-147638D3*
X-127953D3*
X-108268D3*
X-88583D3*
X-68898D3*
X-49213D3*
X-29528D3*
X-9843D3*
X9843D3*
X29528D3*
X49213D3*
X68898D3*
X88583D3*
X108268D3*
X127953D3*
X147638D3*
X167323D3*
X187008D3*
X206693D3*
X226378D3*
D26*
X-1443307Y1250000D3*
X-1356693Y1287402D3*
Y1212598D3*
X-993307Y1250000D3*
X-906693Y1287402D3*
Y1212598D3*
X-1393307Y800000D3*
X-1306693Y837402D3*
Y762598D3*
X-1443307Y400000D3*
X-1356693Y437402D3*
Y362598D3*
X-993307Y400000D3*
X-906693Y437402D3*
Y362598D3*
D27*
X-1050000Y-1200000D3*
X-1150000D3*
X-1350000D3*
X-1450000D3*
X1400000D3*
X1300000D3*
D30*
X-650000Y-950000D3*
D32*
X-750000D3*
D30*
X1250000D3*
D32*
X1150000D3*
D30*
X-1150000D3*
D32*
X-1250000D3*
D30*
X750000D3*
D32*
X650000D3*
X1300000Y1505000D3*
X1200000D3*
X1100000D3*
D33*
X1000000Y1800000D3*
X1400000D3*
D32*
X500000Y1505000D3*
X400000D3*
X300000D3*
D33*
X200000Y1800000D3*
X600000D3*
D32*
X-300000Y1505000D3*
X-400000D3*
X-500000D3*
D33*
X-600000Y1800000D3*
X-200000D3*
D32*
X-1100000Y1505000D3*
X-1200000D3*
X-1300000D3*
D33*
X-1400000Y1800000D3*
X-1000000D3*
D32*
X1300000Y605000D3*
X1200000D3*
X1100000D3*
D33*
X1000000Y900000D3*
X1400000D3*
D32*
X500000Y605000D3*
X400000D3*
X300000D3*
D33*
X200000Y900000D3*
X600000D3*
D35*
X-540001Y-946535D3*
X-539999Y-1013465D3*
X-1150000Y-783465D3*
Y-716535D3*
X750000Y-783465D3*
Y-716535D3*
X1250000Y-783465D3*
Y-716535D3*
D36*
X-1226535Y-1080000D3*
X-1293465D3*
X-836535Y-1119999D3*
X-903465Y-1120001D3*
D35*
X-470000Y-1143465D3*
Y-1076535D3*
D37*
X1200000Y-235000D3*
Y-50000D3*
Y135000D3*
X600000Y-235000D3*
Y-50000D3*
Y135000D3*
X0Y-235000D3*
Y-50000D3*
Y135000D3*
X-600000Y-235000D3*
Y-50000D3*
Y135000D3*
X-1200000Y-235000D3*
Y-50000D3*
Y135000D3*
X-400000Y665000D3*
Y850000D3*
Y1035000D3*
D39*
X-1095669Y800000D3*
D41*
X-1079528Y509055D3*
X-909055Y679528D3*
Y920472D3*
X-1079528Y1090945D3*
X-1321654D3*
X-1490945Y920472D3*
Y679528D3*
X-1320472Y509055D3*
D44*
X-752008Y-1080472D3*
Y-1100157D3*
Y-1119843D3*
Y-1139528D3*
X-627992D3*
Y-1119843D3*
Y-1100157D3*
Y-1080472D3*
G36*
X336614Y-1156693D2*
X265748D1*
Y-1243307D1*
X336614D1*
Y-1156693D1*
G37*
G36*
X-265748D2*
X-336614D1*
Y-1243307D1*
X-265748D1*
Y-1156693D1*
G37*
M02*
