G04 DipTrace 5.2.0.4*
G04 3 - GND.gbr*
%MOIN*%
G04 #@! TF.FileFunction,Copper,L3,Inr*
G04 #@! TF.Part,Single*
%ADD28C,0.06*%
%ADD31C,0.07874*%
%ADD34C,0.094488*%
%ADD38C,0.13*%
%ADD40C,0.070866*%
G04 #@! TA.AperFunction,ViaPad*
%ADD45C,0.03*%
%FSLAX26Y26*%
G04*
G70*
G90*
G75*
G01*
G04 Inner2_Plane*
%LPD*%
D45*
X-1170000Y-1080000D3*
X-950000Y-1040000D3*
X-540000Y-1190000D3*
X-790000Y-1160000D3*
X-340000Y-1070000D3*
X-187008Y1637992D3*
X250000Y450000D3*
X130000Y-370000D3*
X125000Y-50000D3*
X20000Y-360000D3*
X-10000Y-420000D3*
X-100000Y-850000D3*
X-620000Y-1040000D3*
X-90000Y-1140000D3*
X-50000Y-630000D3*
X-950000Y-650000D3*
X-60000Y-700000D3*
X1200000D3*
X-100000Y-760000D3*
X680000D3*
X-60000Y550000D3*
X-1250000Y400000D3*
Y800000D3*
X-90000Y1150000D3*
X-140000Y350000D3*
X-850000D3*
X-260000Y-1050000D3*
X260000D3*
D28*
X-1050000Y-1200000D3*
X-1150000D3*
X-1350000D3*
X-1450000D3*
X1400000D3*
X1300000D3*
D31*
X-650000Y-950000D3*
X-750000D3*
X1250000D3*
X1150000D3*
X-1150000D3*
X-1250000D3*
X750000D3*
X650000D3*
X1300000Y1505000D3*
X1200000D3*
X1100000D3*
D34*
X1000000Y1800000D3*
X1400000D3*
D31*
X500000Y1505000D3*
X400000D3*
X300000D3*
D34*
X200000Y1800000D3*
X600000D3*
D31*
X-300000Y1505000D3*
X-400000D3*
X-500000D3*
D34*
X-600000Y1800000D3*
X-200000D3*
D31*
X-1100000Y1505000D3*
X-1200000D3*
X-1300000D3*
D34*
X-1400000Y1800000D3*
X-1000000D3*
D31*
X1300000Y605000D3*
X1200000D3*
X1100000D3*
D34*
X1000000Y900000D3*
X1400000D3*
D31*
X500000Y605000D3*
X400000D3*
X300000D3*
D34*
X200000Y900000D3*
X600000D3*
D38*
X1200000Y-235000D3*
Y-50000D3*
Y135000D3*
X600000Y-235000D3*
Y-50000D3*
Y135000D3*
X0Y-235000D3*
Y-50000D3*
Y135000D3*
X-600000Y-235000D3*
Y-50000D3*
Y135000D3*
X-1200000Y-235000D3*
Y-50000D3*
Y135000D3*
X-400000Y665000D3*
Y850000D3*
Y1035000D3*
D40*
X-1095669Y800000D3*
X-1079528Y509055D3*
X-909055Y679528D3*
Y920472D3*
X-1079528Y1090945D3*
X-1321654D3*
X-1490945Y920472D3*
Y679528D3*
X-1320472Y509055D3*
M02*
