G04 DipTrace 5.2.0.4*
G04 BottomSilk.gbr*
%MOIN*%
G04 #@! TF.FileFunction,Legend,Bot*
G04 #@! TF.Part,Single*
%ADD29C,0.005*%
%ADD89C,0.003088*%
%ADD90C,0.005558*%
%FSLAX26Y26*%
G04*
G70*
G90*
G75*
G01*
G04 BotSilk*
%LPD*%
X-745000Y-900000D2*
D29*
G02X-760000Y-885000I1J15001D01*
G01*
X-800000D1*
Y-1020000D1*
X-760000D1*
Y-1015000D1*
G02X-745000Y-1000000I15001J-1D01*
G01*
X-645000Y-900000D2*
X-745000D1*
X-645000D2*
G02X-595000Y-950000I1J-49999D01*
G01*
X-745000Y-1000000D2*
X-645000D1*
G03X-595000Y-950000I1J49999D01*
G01*
X1155000Y-900000D2*
G02X1140000Y-885000I1J15001D01*
G01*
X1100000D1*
Y-1020000D1*
X1140000D1*
Y-1015000D1*
G02X1155000Y-1000000I15001J-1D01*
G01*
X1255000Y-900000D2*
X1155000D1*
X1255000D2*
G02X1305000Y-950000I1J-49999D01*
G01*
X1155000Y-1000000D2*
X1255000D1*
G03X1305000Y-950000I1J49999D01*
G01*
X-1245000Y-900000D2*
G02X-1260000Y-885000I1J15001D01*
G01*
X-1300000D1*
Y-1020000D1*
X-1260000D1*
Y-1015000D1*
G02X-1245000Y-1000000I15001J-1D01*
G01*
X-1145000Y-900000D2*
X-1245000D1*
X-1145000D2*
G02X-1095000Y-950000I1J-49999D01*
G01*
X-1245000Y-1000000D2*
X-1145000D1*
G03X-1095000Y-950000I1J49999D01*
G01*
X655000Y-900000D2*
G02X640000Y-885000I1J15001D01*
G01*
X600000D1*
Y-1020000D1*
X640000D1*
Y-1015000D1*
G02X655000Y-1000000I15001J-1D01*
G01*
X755000Y-900000D2*
X655000D1*
X755000D2*
G02X805000Y-950000I1J-49999D01*
G01*
X655000Y-1000000D2*
X755000D1*
G03X805000Y-950000I1J49999D01*
G01*
X1025000Y2025000D2*
X1375000D1*
X1400000Y2000000D1*
Y1600000D1*
X1375000Y1575000D1*
X1025000Y2025000D2*
X1000000Y2000000D1*
Y1600000D1*
X1025000Y1575000D1*
X1075000D1*
X1125000D1*
X1175000D1*
X1225000D1*
X1275000D1*
X1325000D1*
X1375000D1*
X1125000Y1725000D2*
X1275000Y1875000D1*
X1175000Y1575000D2*
Y1550000D1*
X1225000D1*
Y1575000D1*
X1275000D2*
Y1550000D1*
X1325000D1*
Y1575000D1*
X1075000D2*
Y1550000D1*
X1125000D1*
Y1575000D1*
X1075000Y1800000D2*
G02X1075000Y1800000I125000J0D01*
G01*
X1300000Y1975000D2*
G02X1300000Y1975000I25000J0D01*
G01*
X1050000D2*
G02X1050000Y1975000I25000J0D01*
G01*
Y1625000D2*
G02X1050000Y1625000I25000J0D01*
G01*
X1300000D2*
G02X1300000Y1625000I25000J0D01*
G01*
X225000Y2025000D2*
X575000D1*
X600000Y2000000D1*
Y1600000D1*
X575000Y1575000D1*
X225000Y2025000D2*
X200000Y2000000D1*
Y1600000D1*
X225000Y1575000D1*
X275000D1*
X325000D1*
X375000D1*
X425000D1*
X475000D1*
X525000D1*
X575000D1*
X325000Y1725000D2*
X475000Y1875000D1*
X375000Y1575000D2*
Y1550000D1*
X425000D1*
Y1575000D1*
X475000D2*
Y1550000D1*
X525000D1*
Y1575000D1*
X275000D2*
Y1550000D1*
X325000D1*
Y1575000D1*
X275000Y1800000D2*
G02X275000Y1800000I125000J0D01*
G01*
X500000Y1975000D2*
G02X500000Y1975000I25000J0D01*
G01*
X250000D2*
G02X250000Y1975000I25000J0D01*
G01*
Y1625000D2*
G02X250000Y1625000I25000J0D01*
G01*
X500000D2*
G02X500000Y1625000I25000J0D01*
G01*
X-575000Y2025000D2*
X-225000D1*
X-200000Y2000000D1*
Y1600000D1*
X-225000Y1575000D1*
X-575000Y2025000D2*
X-600000Y2000000D1*
Y1600000D1*
X-575000Y1575000D1*
X-525000D1*
X-475000D1*
X-425000D1*
X-375000D1*
X-325000D1*
X-275000D1*
X-225000D1*
X-475000Y1725000D2*
X-325000Y1875000D1*
X-425000Y1575000D2*
Y1550000D1*
X-375000D1*
Y1575000D1*
X-325000D2*
Y1550000D1*
X-275000D1*
Y1575000D1*
X-525000D2*
Y1550000D1*
X-475000D1*
Y1575000D1*
X-525000Y1800000D2*
G02X-525000Y1800000I125000J0D01*
G01*
X-300000Y1975000D2*
G02X-300000Y1975000I25000J0D01*
G01*
X-550000D2*
G02X-550000Y1975000I25000J0D01*
G01*
Y1625000D2*
G02X-550000Y1625000I25000J0D01*
G01*
X-300000D2*
G02X-300000Y1625000I25000J0D01*
G01*
X-1375000Y2025000D2*
X-1025000D1*
X-1000000Y2000000D1*
Y1600000D1*
X-1025000Y1575000D1*
X-1375000Y2025000D2*
X-1400000Y2000000D1*
Y1600000D1*
X-1375000Y1575000D1*
X-1325000D1*
X-1275000D1*
X-1225000D1*
X-1175000D1*
X-1125000D1*
X-1075000D1*
X-1025000D1*
X-1275000Y1725000D2*
X-1125000Y1875000D1*
X-1225000Y1575000D2*
Y1550000D1*
X-1175000D1*
Y1575000D1*
X-1125000D2*
Y1550000D1*
X-1075000D1*
Y1575000D1*
X-1325000D2*
Y1550000D1*
X-1275000D1*
Y1575000D1*
X-1325000Y1800000D2*
G02X-1325000Y1800000I125000J0D01*
G01*
X-1100000Y1975000D2*
G02X-1100000Y1975000I25000J0D01*
G01*
X-1350000D2*
G02X-1350000Y1975000I25000J0D01*
G01*
Y1625000D2*
G02X-1350000Y1625000I25000J0D01*
G01*
X-1100000D2*
G02X-1100000Y1625000I25000J0D01*
G01*
X1025000Y1125000D2*
X1375000D1*
X1400000Y1100000D1*
Y700000D1*
X1375000Y675000D1*
X1025000Y1125000D2*
X1000000Y1100000D1*
Y700000D1*
X1025000Y675000D1*
X1075000D1*
X1125000D1*
X1175000D1*
X1225000D1*
X1275000D1*
X1325000D1*
X1375000D1*
X1125000Y825000D2*
X1275000Y975000D1*
X1175000Y675000D2*
Y650000D1*
X1225000D1*
Y675000D1*
X1275000D2*
Y650000D1*
X1325000D1*
Y675000D1*
X1075000D2*
Y650000D1*
X1125000D1*
Y675000D1*
X1075000Y900000D2*
G02X1075000Y900000I125000J0D01*
G01*
X1300000Y1075000D2*
G02X1300000Y1075000I25000J0D01*
G01*
X1050000D2*
G02X1050000Y1075000I25000J0D01*
G01*
Y725000D2*
G02X1050000Y725000I25000J0D01*
G01*
X1300000D2*
G02X1300000Y725000I25000J0D01*
G01*
X225000Y1125000D2*
X575000D1*
X600000Y1100000D1*
Y700000D1*
X575000Y675000D1*
X225000Y1125000D2*
X200000Y1100000D1*
Y700000D1*
X225000Y675000D1*
X275000D1*
X325000D1*
X375000D1*
X425000D1*
X475000D1*
X525000D1*
X575000D1*
X325000Y825000D2*
X475000Y975000D1*
X375000Y675000D2*
Y650000D1*
X425000D1*
Y675000D1*
X475000D2*
Y650000D1*
X525000D1*
Y675000D1*
X275000D2*
Y650000D1*
X325000D1*
Y675000D1*
X275000Y900000D2*
G02X275000Y900000I125000J0D01*
G01*
X500000Y1075000D2*
G02X500000Y1075000I25000J0D01*
G01*
X250000D2*
G02X250000Y1075000I25000J0D01*
G01*
Y725000D2*
G02X250000Y725000I25000J0D01*
G01*
X500000D2*
G02X500000Y725000I25000J0D01*
G01*
X1075000Y200000D2*
X1325000D1*
Y-300000D2*
X1075000D1*
X1300000Y225000D2*
X1100000D1*
X1075000Y200000D1*
Y-300000D1*
X1100000Y-325000D1*
X1300000D1*
X1325000Y-300000D1*
Y200000D1*
X1300000Y225000D1*
Y0D2*
X1250000Y50000D1*
X1150000D1*
X1100000Y0D1*
Y-100000D1*
X1150000Y-150000D1*
X1250000D1*
X1300000Y-100000D1*
Y0D1*
X1129291Y-50000D2*
G02X1129291Y-50000I70709J0D01*
G01*
X475000Y200000D2*
X725000D1*
Y-300000D2*
X475000D1*
X700000Y225000D2*
X500000D1*
X475000Y200000D1*
Y-300000D1*
X500000Y-325000D1*
X700000D1*
X725000Y-300000D1*
Y200000D1*
X700000Y225000D1*
Y0D2*
X650000Y50000D1*
X550000D1*
X500000Y0D1*
Y-100000D1*
X550000Y-150000D1*
X650000D1*
X700000Y-100000D1*
Y0D1*
X529291Y-50000D2*
G02X529291Y-50000I70709J0D01*
G01*
X-125000Y200000D2*
X125000D1*
Y-300000D2*
X-125000D1*
X100000Y225000D2*
X-100000D1*
X-125000Y200000D1*
Y-300000D1*
X-100000Y-325000D1*
X100000D1*
X125000Y-300000D1*
Y200000D1*
X100000Y225000D1*
Y0D2*
X50000Y50000D1*
X-50000D1*
X-100000Y0D1*
Y-100000D1*
X-50000Y-150000D1*
X50000D1*
X100000Y-100000D1*
Y0D1*
X-70709Y-50000D2*
G02X-70709Y-50000I70709J0D01*
G01*
X-725000Y200000D2*
X-475000D1*
Y-300000D2*
X-725000D1*
X-500000Y225000D2*
X-700000D1*
X-725000Y200000D1*
Y-300000D1*
X-700000Y-325000D1*
X-500000D1*
X-475000Y-300000D1*
Y200000D1*
X-500000Y225000D1*
Y0D2*
X-550000Y50000D1*
X-650000D1*
X-700000Y0D1*
Y-100000D1*
X-650000Y-150000D1*
X-550000D1*
X-500000Y-100000D1*
Y0D1*
X-670709Y-50000D2*
G02X-670709Y-50000I70709J0D01*
G01*
X-1325000Y200000D2*
X-1075000D1*
Y-300000D2*
X-1325000D1*
X-1100000Y225000D2*
X-1300000D1*
X-1325000Y200000D1*
Y-300000D1*
X-1300000Y-325000D1*
X-1100000D1*
X-1075000Y-300000D1*
Y200000D1*
X-1100000Y225000D1*
Y0D2*
X-1150000Y50000D1*
X-1250000D1*
X-1300000Y0D1*
Y-100000D1*
X-1250000Y-150000D1*
X-1150000D1*
X-1100000Y-100000D1*
Y0D1*
X-1270709Y-50000D2*
G02X-1270709Y-50000I70709J0D01*
G01*
X-525000Y1100000D2*
X-275000D1*
Y600000D2*
X-525000D1*
X-300000Y1125000D2*
X-500000D1*
X-525000Y1100000D1*
Y600000D1*
X-500000Y575000D1*
X-300000D1*
X-275000Y600000D1*
Y1100000D1*
X-300000Y1125000D1*
Y900000D2*
X-350000Y950000D1*
X-450000D1*
X-500000Y900000D1*
Y800000D1*
X-450000Y750000D1*
X-350000D1*
X-300000Y800000D1*
Y900000D1*
X-470709Y850000D2*
G02X-470709Y850000I70709J0D01*
G01*
X-1514961Y800000D2*
G02X-1514961Y800000I314961J0D01*
G01*
X-1160630Y485039D2*
Y563780D1*
X-1239370D1*
Y485039D1*
X-669690Y-1012640D2*
D89*
Y-1032736D1*
X-681164D1*
X-699764Y-1012640D2*
X-687339D1*
Y-1032736D1*
X-699764D1*
X-687339Y-1022213D2*
X-694989D1*
X-705940Y-1012640D2*
Y-1032736D1*
X-712638D1*
X-715512Y-1031763D1*
X-717436Y-1029862D1*
X-718386Y-1027939D1*
X-719337Y-1025087D1*
Y-1020289D1*
X-718386Y-1017415D1*
X-717436Y-1015514D1*
X-715512Y-1013591D1*
X-712638Y-1012640D1*
X-705940D1*
X-725513Y-1016487D2*
X-727436Y-1015514D1*
X-730310Y-1012662D1*
Y-1032736D1*
X1249883Y-1012640D2*
Y-1032736D1*
X1238409D1*
X1219809Y-1012640D2*
X1232234D1*
Y-1032736D1*
X1219809D1*
X1232234Y-1022213D2*
X1224584D1*
X1213633Y-1012640D2*
Y-1032736D1*
X1206935D1*
X1204061Y-1031763D1*
X1202137Y-1029862D1*
X1201187Y-1027939D1*
X1200236Y-1025087D1*
Y-1020289D1*
X1201187Y-1017415D1*
X1202137Y-1015514D1*
X1204061Y-1013591D1*
X1206935Y-1012640D1*
X1213633D1*
X1194060Y-1016487D2*
X1192137Y-1015514D1*
X1189263Y-1012662D1*
Y-1032736D1*
X1177339Y-1012662D2*
X1180213Y-1013613D1*
X1182137Y-1016487D1*
X1183087Y-1021262D1*
Y-1024136D1*
X1182137Y-1028911D1*
X1180213Y-1031785D1*
X1177339Y-1032736D1*
X1175438D1*
X1172564Y-1031785D1*
X1170663Y-1028911D1*
X1169690Y-1024136D1*
Y-1021262D1*
X1170663Y-1016487D1*
X1172564Y-1013613D1*
X1175438Y-1012662D1*
X1177339D1*
X1170663Y-1016487D2*
X1182137Y-1028911D1*
X1157766Y-1012662D2*
X1160640Y-1013613D1*
X1162563Y-1016487D1*
X1163514Y-1021262D1*
Y-1024136D1*
X1162563Y-1028911D1*
X1160640Y-1031785D1*
X1157766Y-1032736D1*
X1155865D1*
X1152991Y-1031785D1*
X1151090Y-1028911D1*
X1150117Y-1024136D1*
Y-1021262D1*
X1151090Y-1016487D1*
X1152991Y-1013613D1*
X1155865Y-1012662D1*
X1157766D1*
X1151090Y-1016487D2*
X1162563Y-1028911D1*
X-1154417Y-1012640D2*
Y-1032736D1*
X-1165891D1*
X-1184491Y-1012640D2*
X-1172066D1*
Y-1032736D1*
X-1184491D1*
X-1172066Y-1022213D2*
X-1179716D1*
X-1190667Y-1012640D2*
Y-1032736D1*
X-1197365D1*
X-1200239Y-1031763D1*
X-1202163Y-1029862D1*
X-1203113Y-1027939D1*
X-1204064Y-1025087D1*
Y-1020289D1*
X-1203113Y-1017415D1*
X-1202163Y-1015514D1*
X-1200239Y-1013591D1*
X-1197365Y-1012640D1*
X-1190667D1*
X-1210240Y-1016487D2*
X-1212163Y-1015514D1*
X-1215037Y-1012662D1*
Y-1032736D1*
X-1226961Y-1012662D2*
X-1224087Y-1013613D1*
X-1222163Y-1016487D1*
X-1221213Y-1021262D1*
Y-1024136D1*
X-1222163Y-1028911D1*
X-1224087Y-1031785D1*
X-1226961Y-1032736D1*
X-1228862D1*
X-1231736Y-1031785D1*
X-1233637Y-1028911D1*
X-1234610Y-1024136D1*
Y-1021262D1*
X-1233637Y-1016487D1*
X-1231736Y-1013613D1*
X-1228862Y-1012662D1*
X-1226961D1*
X-1233637Y-1016487D2*
X-1222163Y-1028911D1*
X-1240786Y-1016487D2*
X-1242709Y-1015514D1*
X-1245583Y-1012662D1*
Y-1032736D1*
X734135Y-1012640D2*
Y-1032736D1*
X722661D1*
X704061Y-1012640D2*
X716485D1*
Y-1032736D1*
X704061D1*
X716485Y-1022213D2*
X708836D1*
X697885Y-1012640D2*
Y-1032736D1*
X691186D1*
X688312Y-1031763D1*
X686389Y-1029862D1*
X685438Y-1027939D1*
X684488Y-1025087D1*
Y-1020289D1*
X685438Y-1017415D1*
X686389Y-1015514D1*
X688312Y-1013591D1*
X691186Y-1012640D1*
X697885D1*
X665865D2*
X678312D1*
Y-1032736D1*
Y-1022213D2*
X670663D1*
X1215748Y-337443D2*
X1217650Y-335520D1*
X1220524Y-334569D1*
X1224348D1*
X1227222Y-335520D1*
X1229146Y-337443D1*
Y-339344D1*
X1228173Y-341268D1*
X1227222Y-342218D1*
X1225321Y-343169D1*
X1219573Y-345092D1*
X1217650Y-346043D1*
X1216699Y-347016D1*
X1215748Y-348917D1*
Y-351791D1*
X1217650Y-353692D1*
X1220524Y-354665D1*
X1224348D1*
X1227222Y-353692D1*
X1229146Y-351791D1*
X1209573Y-334569D2*
X1204775Y-354665D1*
X1200000Y-334569D1*
X1195225Y-354665D1*
X1190427Y-334569D1*
X1178504Y-334591D2*
X1181378Y-335542D1*
X1183301Y-338416D1*
X1184252Y-343191D1*
Y-346065D1*
X1183301Y-350840D1*
X1181378Y-353714D1*
X1178504Y-354665D1*
X1176602D1*
X1173728Y-353714D1*
X1171827Y-350840D1*
X1170854Y-346065D1*
Y-343191D1*
X1171827Y-338416D1*
X1173728Y-335542D1*
X1176602Y-334591D1*
X1178504D1*
X1171827Y-338416D2*
X1183301Y-350840D1*
X611448Y-333014D2*
X613350Y-331091D1*
X616224Y-330140D1*
X620048D1*
X622922Y-331091D1*
X624846Y-333014D1*
Y-334915D1*
X623873Y-336839D1*
X622922Y-337789D1*
X621021Y-338740D1*
X615273Y-340663D1*
X613350Y-341614D1*
X612399Y-342587D1*
X611448Y-344488D1*
Y-347362D1*
X613350Y-349263D1*
X616224Y-350236D1*
X620048D1*
X622922Y-349263D1*
X624846Y-347362D1*
X605273Y-330140D2*
X600475Y-350236D1*
X595700Y-330140D1*
X590925Y-350236D1*
X586127Y-330140D1*
X579952Y-333987D2*
X578028Y-333014D1*
X575154Y-330162D1*
Y-350236D1*
X15748Y-337443D2*
X17650Y-335520D1*
X20524Y-334569D1*
X24348D1*
X27222Y-335520D1*
X29146Y-337443D1*
Y-339344D1*
X28173Y-341268D1*
X27222Y-342218D1*
X25321Y-343169D1*
X19573Y-345092D1*
X17650Y-346043D1*
X16699Y-347016D1*
X15748Y-348917D1*
Y-351791D1*
X17650Y-353692D1*
X20524Y-354665D1*
X24348D1*
X27222Y-353692D1*
X29146Y-351791D1*
X9573Y-334569D2*
X4775Y-354665D1*
X0Y-334569D1*
X-4775Y-354665D1*
X-9573Y-334569D1*
X-16721Y-339366D2*
Y-338416D1*
X-17672Y-336492D1*
X-18622Y-335542D1*
X-20546Y-334591D1*
X-24370D1*
X-26272Y-335542D1*
X-27222Y-336492D1*
X-28195Y-338416D1*
Y-340317D1*
X-27222Y-342240D1*
X-25321Y-345092D1*
X-15748Y-354665D1*
X-29146D1*
X-584252Y-337443D2*
X-582350Y-335520D1*
X-579476Y-334569D1*
X-575652D1*
X-572778Y-335520D1*
X-570854Y-337443D1*
Y-339344D1*
X-571827Y-341268D1*
X-572778Y-342218D1*
X-574679Y-343169D1*
X-580427Y-345092D1*
X-582350Y-346043D1*
X-583301Y-347016D1*
X-584252Y-348917D1*
Y-351791D1*
X-582350Y-353692D1*
X-579476Y-354665D1*
X-575652D1*
X-572778Y-353692D1*
X-570854Y-351791D1*
X-590427Y-334569D2*
X-595225Y-354665D1*
X-600000Y-334569D1*
X-604775Y-354665D1*
X-609573Y-334569D1*
X-617672Y-334591D2*
X-628173D1*
X-622447Y-342240D1*
X-625321D1*
X-627222Y-343191D1*
X-628173Y-344142D1*
X-629146Y-347016D1*
Y-348917D1*
X-628173Y-351791D1*
X-626272Y-353714D1*
X-623398Y-354665D1*
X-620524D1*
X-617672Y-353714D1*
X-616721Y-352742D1*
X-615748Y-350840D1*
X-1183776Y-337443D2*
X-1181875Y-335520D1*
X-1179001Y-334569D1*
X-1175176D1*
X-1172302Y-335520D1*
X-1170379Y-337443D1*
Y-339344D1*
X-1171352Y-341268D1*
X-1172302Y-342218D1*
X-1174204Y-343169D1*
X-1179952Y-345092D1*
X-1181875Y-346043D1*
X-1182826Y-347016D1*
X-1183776Y-348917D1*
Y-351791D1*
X-1181875Y-353692D1*
X-1179001Y-354665D1*
X-1175176D1*
X-1172302Y-353692D1*
X-1170379Y-351791D1*
X-1189952Y-334569D2*
X-1194749Y-354665D1*
X-1199525Y-334569D1*
X-1204300Y-354665D1*
X-1209097Y-334569D1*
X-1224846Y-354665D2*
Y-334591D1*
X-1215273Y-347966D1*
X-1229621D1*
X-384252Y562557D2*
X-382350Y564480D1*
X-379476Y565431D1*
X-375652D1*
X-372778Y564480D1*
X-370854Y562557D1*
Y560656D1*
X-371827Y558732D1*
X-372778Y557782D1*
X-374679Y556831D1*
X-380427Y554908D1*
X-382350Y553957D1*
X-383301Y552984D1*
X-384252Y551083D1*
Y548209D1*
X-382350Y546308D1*
X-379476Y545335D1*
X-375652D1*
X-372778Y546308D1*
X-370854Y548209D1*
X-390427Y565431D2*
X-395225Y545335D1*
X-400000Y565431D1*
X-404775Y545335D1*
X-409573Y565431D1*
X-415748D2*
Y545335D1*
X-424370D1*
X-427244Y546308D1*
X-428195Y547258D1*
X-429146Y549160D1*
Y552034D1*
X-428195Y553957D1*
X-427244Y554908D1*
X-424370Y555858D1*
X-427244Y556831D1*
X-428195Y557782D1*
X-429146Y559683D1*
Y561606D1*
X-428195Y563508D1*
X-427244Y564480D1*
X-424370Y565431D1*
X-415748D1*
Y555858D2*
X-424370D1*
X-1064984Y581526D2*
D90*
X-1065554Y581814D1*
X-1066407Y582661D1*
Y576703D1*
X-966847Y691480D2*
Y691762D1*
X-967129Y692333D1*
X-967411Y692615D1*
X-967982Y692897D1*
X-969117D1*
X-969682Y692615D1*
X-969964Y692333D1*
X-970253Y691762D1*
Y691198D1*
X-969964Y690627D1*
X-969400Y689780D1*
X-966558Y686939D1*
X-970535D1*
X-1322306Y574787D2*
X-1321460Y574505D1*
X-1321171Y573940D1*
Y573369D1*
X-1321460Y572805D1*
X-1322024Y572516D1*
X-1323159Y572234D1*
X-1324012Y571952D1*
X-1324577Y571381D1*
X-1324859Y570817D1*
Y569964D1*
X-1324577Y569400D1*
X-1324295Y569111D1*
X-1323442Y568829D1*
X-1322306D1*
X-1321460Y569111D1*
X-1321171Y569400D1*
X-1320889Y569964D1*
Y570817D1*
X-1321171Y571381D1*
X-1321742Y571952D1*
X-1322589Y572234D1*
X-1323724Y572516D1*
X-1324295Y572805D1*
X-1324577Y573369D1*
Y573940D1*
X-1324295Y574505D1*
X-1323442Y574787D1*
X-1322306D1*
X-1400764Y686939D2*
X-1403606Y692897D1*
X-1399629D1*
X-1403035Y888901D2*
X-1402753Y889465D1*
X-1401900Y889747D1*
X-1401335D1*
X-1400482Y889465D1*
X-1399911Y888612D1*
X-1399629Y887195D1*
Y885778D1*
X-1399911Y884642D1*
X-1400482Y884072D1*
X-1401335Y883789D1*
X-1401617D1*
X-1402464Y884072D1*
X-1403035Y884642D1*
X-1403317Y885495D1*
Y885778D1*
X-1403035Y886631D1*
X-1402464Y887195D1*
X-1401617Y887477D1*
X-1401335D1*
X-1400482Y887195D1*
X-1399911Y886631D1*
X-1399629Y885778D1*
X-967129Y850377D2*
X-970246D1*
X-968547Y848107D1*
X-969400D1*
X-969964Y847825D1*
X-970246Y847543D1*
X-970535Y846690D1*
Y846125D1*
X-970246Y845272D1*
X-969682Y844701D1*
X-968829Y844419D1*
X-967976D1*
X-967129Y844701D1*
X-966847Y844990D1*
X-966558Y845554D1*
X-1126880Y1001900D2*
Y1007858D1*
X-1124039Y1003888D1*
X-1128297D1*
X-1245554Y1007858D2*
X-1242720D1*
X-1242438Y1005305D1*
X-1242720Y1005587D1*
X-1243573Y1005876D1*
X-1244419D1*
X-1245272Y1005587D1*
X-1245843Y1005023D1*
X-1246125Y1004170D1*
Y1003606D1*
X-1245843Y1002753D1*
X-1245272Y1002182D1*
X-1244419Y1001900D1*
X-1243573D1*
X-1242720Y1002182D1*
X-1242438Y1002470D1*
X-1242149Y1003035D1*
X-1084990Y868652D2*
X-1084708Y869216D1*
X-1084137Y869787D1*
X-1083573Y870069D1*
X-1082438D1*
X-1081867Y869787D1*
X-1081302Y869216D1*
X-1081014Y868652D1*
X-1080732Y867799D1*
Y866375D1*
X-1081014Y865528D1*
X-1081302Y864957D1*
X-1081867Y864393D1*
X-1082438Y864104D1*
X-1083573D1*
X-1084137Y864393D1*
X-1084708Y864957D1*
X-1084990Y865528D1*
X-1184252Y1156986D2*
D89*
X-1182350Y1158909D1*
X-1179476Y1159860D1*
X-1175652D1*
X-1172778Y1158909D1*
X-1170854Y1156986D1*
Y1155085D1*
X-1171827Y1153161D1*
X-1172778Y1152211D1*
X-1174679Y1151260D1*
X-1180427Y1149337D1*
X-1182350Y1148386D1*
X-1183301Y1147413D1*
X-1184252Y1145512D1*
Y1142638D1*
X-1182350Y1140737D1*
X-1179476Y1139764D1*
X-1175652D1*
X-1172778Y1140737D1*
X-1170854Y1142638D1*
X-1190427Y1159860D2*
X-1195225Y1139764D1*
X-1200000Y1159860D1*
X-1204775Y1139764D1*
X-1209573Y1159860D1*
X-1215748Y1149337D2*
X-1224370D1*
X-1227222Y1150287D1*
X-1228195Y1151260D1*
X-1229146Y1153161D1*
Y1156035D1*
X-1228195Y1157937D1*
X-1227222Y1158909D1*
X-1224370Y1159860D1*
X-1215748D1*
Y1139764D1*
M02*
