G04 DipTrace 5.2.0.4*
G04 BottomDimension.gbr*
%MOIN*%
G04 #@! TF.FileFunction,Drawing,Bot*
G04 #@! TF.Part,Single*
%ADD15C,0.001378*%
%ADD91C,0.006176*%
%FSLAX26Y26*%
G04*
G70*
G90*
G75*
G01*
G04 BotDimension*
%LPD*%
X-1550000Y1810000D2*
D15*
Y2179685D1*
X-1200000Y1800000D2*
Y2179685D1*
X-1375000Y2160000D2*
X-1510630D1*
G36*
X-1550000D2*
X-1510630Y2167874D1*
Y2152126D1*
X-1550000Y2160000D1*
G37*
X-1375000D2*
D15*
X-1239370D1*
G36*
X-1200000D2*
X-1239370Y2152126D1*
Y2167874D1*
X-1200000Y2160000D1*
G37*
Y1800000D2*
D15*
Y2179685D1*
X-400000Y1800000D2*
Y2179685D1*
X-800000Y2160000D2*
X-1160630D1*
G36*
X-1200000D2*
X-1160630Y2167874D1*
Y2152126D1*
X-1200000Y2160000D1*
G37*
X-800000D2*
D15*
X-439370D1*
G36*
X-400000D2*
X-439370Y2152126D1*
Y2167874D1*
X-400000Y2160000D1*
G37*
Y1800000D2*
D15*
Y2179685D1*
X400000Y1800000D2*
Y2179685D1*
X0Y2160000D2*
X-360630D1*
G36*
X-400000D2*
X-360630Y2167874D1*
Y2152126D1*
X-400000Y2160000D1*
G37*
X0D2*
D15*
X360630D1*
G36*
X400000D2*
X360630Y2152126D1*
Y2167874D1*
X400000Y2160000D1*
G37*
Y1800000D2*
D15*
Y2179685D1*
X1200000Y1800000D2*
Y2179685D1*
X800000Y2160000D2*
X439370D1*
G36*
X400000D2*
X439370Y2167874D1*
Y2152126D1*
X400000Y2160000D1*
G37*
X800000D2*
D15*
X1160630D1*
G36*
X1200000D2*
X1160630Y2152126D1*
Y2167874D1*
X1200000Y2160000D1*
G37*
Y1800000D2*
D15*
Y2179685D1*
X1550000Y1800000D2*
Y2179685D1*
X1375000Y2160000D2*
X1239370D1*
G36*
X1200000D2*
X1239370Y2167874D1*
Y2152126D1*
X1200000Y2160000D1*
G37*
X1375000D2*
D15*
X1510630D1*
G36*
X1550000D2*
X1510630Y2152126D1*
Y2167874D1*
X1550000Y2160000D1*
G37*
X1200000Y1800000D2*
D15*
X1789685D1*
X1200000Y900000D2*
X1789685D1*
X1770000Y1350000D2*
Y1760630D1*
G36*
Y1800000D2*
X1777874Y1760630D1*
X1762126D1*
X1770000Y1800000D1*
G37*
Y1350000D2*
D15*
Y939370D1*
G36*
Y900000D2*
X1762126Y939370D1*
X1777874D1*
X1770000Y900000D1*
G37*
X1200000Y1800000D2*
D15*
X1789685D1*
X1200000Y2050000D2*
X1789685D1*
X1770000Y1925000D2*
Y1839370D1*
G36*
Y1800000D2*
X1762126Y1839370D1*
X1777874D1*
X1770000Y1800000D1*
G37*
Y1925000D2*
D15*
Y2010630D1*
G36*
Y2050000D2*
X1777874Y2010630D1*
X1762126D1*
X1770000Y2050000D1*
G37*
X1200000Y900000D2*
D15*
X1789685D1*
X1200000Y-50000D2*
X1789685D1*
X1770000Y425000D2*
Y860630D1*
G36*
Y900000D2*
X1777874Y860630D1*
X1762126D1*
X1770000Y900000D1*
G37*
Y425000D2*
D15*
Y-10630D1*
G36*
Y-50000D2*
X1762126Y-10630D1*
X1777874D1*
X1770000Y-50000D1*
G37*
X1200000D2*
D15*
X1789685D1*
X1210630Y-950000D2*
X1789685D1*
X1770000Y-500000D2*
Y-89370D1*
G36*
Y-50000D2*
X1777874Y-89370D1*
X1762126D1*
X1770000Y-50000D1*
G37*
Y-500000D2*
D15*
Y-910630D1*
G36*
Y-950000D2*
X1762126Y-910630D1*
X1777874D1*
X1770000Y-950000D1*
G37*
X1170000Y-1350000D2*
D15*
X1789685D1*
X1210630Y-950000D2*
X1789685D1*
X1770000Y-1150000D2*
Y-1310630D1*
G36*
Y-1350000D2*
X1762126Y-1310630D1*
X1777874D1*
X1770000Y-1350000D1*
G37*
Y-1150000D2*
D15*
Y-989370D1*
G36*
Y-950000D2*
X1777874Y-989370D1*
X1762126D1*
X1770000Y-950000D1*
G37*
X1200000D2*
D15*
Y-1539685D1*
X1550000Y-960000D2*
Y-1539685D1*
X1375000Y-1520000D2*
X1239370D1*
G36*
X1200000D2*
X1239370Y-1512126D1*
Y-1527874D1*
X1200000Y-1520000D1*
G37*
X1375000D2*
D15*
X1510630D1*
G36*
X1550000D2*
X1510630Y-1527874D1*
Y-1512126D1*
X1550000Y-1520000D1*
G37*
X1200000Y-950000D2*
D15*
Y-1539685D1*
X700000Y-950000D2*
Y-1539685D1*
X950000Y-1520000D2*
X1160630D1*
G36*
X1200000D2*
X1160630Y-1527874D1*
Y-1512126D1*
X1200000Y-1520000D1*
G37*
X950000D2*
D15*
X739370D1*
G36*
X700000D2*
X739370Y-1512126D1*
Y-1527874D1*
X700000Y-1520000D1*
G37*
Y-950000D2*
D15*
Y-1539685D1*
X-700000Y-950000D2*
Y-1539685D1*
X0Y-1520000D2*
X660630D1*
G36*
X700000D2*
X660630Y-1527874D1*
Y-1512126D1*
X700000Y-1520000D1*
G37*
X0D2*
D15*
X-660630D1*
G36*
X-700000D2*
X-660630Y-1512126D1*
Y-1527874D1*
X-700000Y-1520000D1*
G37*
Y-950000D2*
D15*
Y-1539685D1*
X-1200000Y-950000D2*
Y-1539685D1*
X-950000Y-1520000D2*
X-739370D1*
G36*
X-700000D2*
X-739370Y-1527874D1*
Y-1512126D1*
X-700000Y-1520000D1*
G37*
X-950000D2*
D15*
X-1160630D1*
G36*
X-1200000D2*
X-1160630Y-1512126D1*
Y-1527874D1*
X-1200000Y-1520000D1*
G37*
Y-950000D2*
D15*
Y-1539685D1*
X-1550000Y-950000D2*
Y-1539685D1*
X-1375000Y-1520000D2*
X-1239370D1*
G36*
X-1200000D2*
X-1239370Y-1527874D1*
Y-1512126D1*
X-1200000Y-1520000D1*
G37*
X-1375000D2*
D15*
X-1510630D1*
G36*
X-1550000D2*
X-1510630Y-1512126D1*
Y-1527874D1*
X-1550000Y-1520000D1*
G37*
X-1322766Y2212359D2*
D91*
X-1317018Y2210457D1*
X-1313171Y2204709D1*
X-1311270Y2195159D1*
Y2189411D1*
X-1313171Y2179860D1*
X-1317018Y2174112D1*
X-1322766Y2172211D1*
X-1326568D1*
X-1332316Y2174112D1*
X-1336119Y2179860D1*
X-1338064Y2189411D1*
Y2195159D1*
X-1336119Y2204709D1*
X-1332316Y2210457D1*
X-1326568Y2212359D1*
X-1322766D1*
X-1336119Y2204709D2*
X-1313171Y2179860D1*
X-1352317Y2176058D2*
X-1350416Y2174112D1*
X-1352317Y2172211D1*
X-1354262Y2174112D1*
X-1352317Y2176058D1*
X-1370461Y2212359D2*
X-1391463D1*
X-1380011Y2197060D1*
X-1385759D1*
X-1389562Y2195159D1*
X-1391463Y2193257D1*
X-1393409Y2187509D1*
Y2183707D1*
X-1391463Y2177959D1*
X-1387661Y2174112D1*
X-1381913Y2172211D1*
X-1376164D1*
X-1370461Y2174112D1*
X-1368559Y2176058D1*
X-1366614Y2179860D1*
X-1428708Y2212359D2*
X-1409607D1*
X-1407705Y2195159D1*
X-1409607Y2197060D1*
X-1415355Y2199005D1*
X-1421059D1*
X-1426807Y2197060D1*
X-1430653Y2193257D1*
X-1432555Y2187509D1*
Y2183707D1*
X-1430653Y2177959D1*
X-1426807Y2174112D1*
X-1421059Y2172211D1*
X-1415355D1*
X-1409607Y2174112D1*
X-1407705Y2176058D1*
X-1405760Y2179860D1*
X-767361Y2212359D2*
X-761613Y2210457D1*
X-757766Y2204709D1*
X-755865Y2195159D1*
Y2189411D1*
X-757766Y2179860D1*
X-761613Y2174112D1*
X-767361Y2172211D1*
X-771163D1*
X-776911Y2174112D1*
X-780714Y2179860D1*
X-782659Y2189411D1*
Y2195159D1*
X-780714Y2204709D1*
X-776911Y2210457D1*
X-771163Y2212359D1*
X-767361D1*
X-780714Y2204709D2*
X-757766Y2179860D1*
X-796912Y2176058D2*
X-795011Y2174112D1*
X-796912Y2172211D1*
X-798858Y2174112D1*
X-796912Y2176058D1*
X-820760Y2212359D2*
X-815056Y2210457D1*
X-813110Y2206655D1*
Y2202808D1*
X-815056Y2199005D1*
X-818858Y2197060D1*
X-826508Y2195159D1*
X-832256Y2193257D1*
X-836058Y2189411D1*
X-837959Y2185608D1*
Y2179860D1*
X-836058Y2176058D1*
X-834157Y2174112D1*
X-828409Y2172211D1*
X-820760D1*
X-815056Y2174112D1*
X-813110Y2176058D1*
X-811209Y2179860D1*
Y2185608D1*
X-813110Y2189411D1*
X-816957Y2193257D1*
X-822661Y2195159D1*
X-830310Y2197060D1*
X-834157Y2199005D1*
X-836058Y2202808D1*
Y2206655D1*
X-834157Y2210457D1*
X-828409Y2212359D1*
X-820760D1*
X32639D2*
X38387Y2210457D1*
X42234Y2204709D1*
X44135Y2195159D1*
Y2189411D1*
X42234Y2179860D1*
X38387Y2174112D1*
X32639Y2172211D1*
X28837D1*
X23089Y2174112D1*
X19286Y2179860D1*
X17341Y2189411D1*
Y2195159D1*
X19286Y2204709D1*
X23089Y2210457D1*
X28837Y2212359D1*
X32639D1*
X19286Y2204709D2*
X42234Y2179860D1*
X3088Y2176058D2*
X4989Y2174112D1*
X3088Y2172211D1*
X1142Y2174112D1*
X3088Y2176058D1*
X-20760Y2212359D2*
X-15056Y2210457D1*
X-13110Y2206655D1*
Y2202808D1*
X-15056Y2199005D1*
X-18858Y2197060D1*
X-26508Y2195159D1*
X-32256Y2193257D1*
X-36058Y2189411D1*
X-37959Y2185608D1*
Y2179860D1*
X-36058Y2176058D1*
X-34157Y2174112D1*
X-28409Y2172211D1*
X-20760D1*
X-15056Y2174112D1*
X-13110Y2176058D1*
X-11209Y2179860D1*
Y2185608D1*
X-13110Y2189411D1*
X-16957Y2193257D1*
X-22661Y2195159D1*
X-30310Y2197060D1*
X-34157Y2199005D1*
X-36058Y2202808D1*
Y2206655D1*
X-34157Y2210457D1*
X-28409Y2212359D1*
X-20760D1*
X832639D2*
X838387Y2210457D1*
X842234Y2204709D1*
X844135Y2195159D1*
Y2189411D1*
X842234Y2179860D1*
X838387Y2174112D1*
X832639Y2172211D1*
X828837D1*
X823089Y2174112D1*
X819286Y2179860D1*
X817341Y2189411D1*
Y2195159D1*
X819286Y2204709D1*
X823089Y2210457D1*
X828837Y2212359D1*
X832639D1*
X819286Y2204709D2*
X842234Y2179860D1*
X803088Y2176058D2*
X804989Y2174112D1*
X803088Y2172211D1*
X801142Y2174112D1*
X803088Y2176058D1*
X779240Y2212359D2*
X784944Y2210457D1*
X786890Y2206655D1*
Y2202808D1*
X784944Y2199005D1*
X781142Y2197060D1*
X773492Y2195159D1*
X767744Y2193257D1*
X763942Y2189411D1*
X762041Y2185608D1*
Y2179860D1*
X763942Y2176058D1*
X765843Y2174112D1*
X771591Y2172211D1*
X779240D1*
X784944Y2174112D1*
X786890Y2176058D1*
X788791Y2179860D1*
Y2185608D1*
X786890Y2189411D1*
X783043Y2193257D1*
X777339Y2195159D1*
X769690Y2197060D1*
X765843Y2199005D1*
X763942Y2202808D1*
Y2206655D1*
X765843Y2210457D1*
X771591Y2212359D1*
X779240D1*
X1427234D2*
X1432982Y2210457D1*
X1436829Y2204709D1*
X1438730Y2195159D1*
Y2189411D1*
X1436829Y2179860D1*
X1432982Y2174112D1*
X1427234Y2172211D1*
X1423432D1*
X1417684Y2174112D1*
X1413881Y2179860D1*
X1411936Y2189411D1*
Y2195159D1*
X1413881Y2204709D1*
X1417684Y2210457D1*
X1423432Y2212359D1*
X1427234D1*
X1413881Y2204709D2*
X1436829Y2179860D1*
X1397683Y2176058D2*
X1399584Y2174112D1*
X1397683Y2172211D1*
X1395738Y2174112D1*
X1397683Y2176058D1*
X1379539Y2212359D2*
X1358537D1*
X1369989Y2197060D1*
X1364241D1*
X1360438Y2195159D1*
X1358537Y2193257D1*
X1356591Y2187509D1*
Y2183707D1*
X1358537Y2177959D1*
X1362339Y2174112D1*
X1368087Y2172211D1*
X1373836D1*
X1379539Y2174112D1*
X1381441Y2176058D1*
X1383386Y2179860D1*
X1321292Y2212359D2*
X1340393D1*
X1342295Y2195159D1*
X1340393Y2197060D1*
X1334645Y2199005D1*
X1328941D1*
X1323193Y2197060D1*
X1319347Y2193257D1*
X1317445Y2187509D1*
Y2183707D1*
X1319347Y2177959D1*
X1323193Y2174112D1*
X1328941Y2172211D1*
X1334645D1*
X1340393Y2174112D1*
X1342295Y2176058D1*
X1344240Y2179860D1*
X1822359Y1318289D2*
X1820457Y1312541D1*
X1814709Y1308695D1*
X1805159Y1306793D1*
X1799411D1*
X1789860Y1308695D1*
X1784112Y1312541D1*
X1782211Y1318289D1*
Y1322092D1*
X1784112Y1327840D1*
X1789860Y1331643D1*
X1799411Y1333588D1*
X1805159D1*
X1814709Y1331643D1*
X1820457Y1327840D1*
X1822359Y1322092D1*
Y1318289D1*
X1814709Y1331643D2*
X1789860Y1308695D1*
X1786058Y1347841D2*
X1784112Y1345939D1*
X1782211Y1347841D1*
X1784112Y1349786D1*
X1786058Y1347841D1*
X1809005Y1387031D2*
X1803257Y1385085D1*
X1799411Y1381283D1*
X1797509Y1375535D1*
Y1373634D1*
X1799411Y1367886D1*
X1803257Y1364083D1*
X1809005Y1362138D1*
X1810907D1*
X1816655Y1364083D1*
X1820457Y1367886D1*
X1822359Y1373634D1*
Y1375535D1*
X1820457Y1381283D1*
X1816655Y1385085D1*
X1809005Y1387031D1*
X1799411D1*
X1789860Y1385085D1*
X1784112Y1381283D1*
X1782211Y1375535D1*
Y1371732D1*
X1784112Y1365984D1*
X1787959Y1364083D1*
X1822359Y1872766D2*
X1820457Y1867018D1*
X1814709Y1863171D1*
X1805159Y1861270D1*
X1799411D1*
X1789860Y1863171D1*
X1784112Y1867018D1*
X1782211Y1872766D1*
Y1876568D1*
X1784112Y1882316D1*
X1789860Y1886119D1*
X1799411Y1888064D1*
X1805159D1*
X1814709Y1886119D1*
X1820457Y1882316D1*
X1822359Y1876568D1*
Y1872766D1*
X1814709Y1886119D2*
X1789860Y1863171D1*
X1786058Y1902317D2*
X1784112Y1900416D1*
X1782211Y1902317D1*
X1784112Y1904262D1*
X1786058Y1902317D1*
X1812808Y1918559D2*
X1814709D1*
X1818556Y1920461D1*
X1820457Y1922362D1*
X1822359Y1926209D1*
Y1933858D1*
X1820457Y1937661D1*
X1818556Y1939562D1*
X1814709Y1941507D1*
X1810907D1*
X1807060Y1939562D1*
X1801356Y1935759D1*
X1782211Y1916614D1*
Y1943409D1*
X1822359Y1978708D2*
Y1959607D1*
X1805159Y1957705D1*
X1807060Y1959607D1*
X1809005Y1965355D1*
Y1971059D1*
X1807060Y1976807D1*
X1803257Y1980653D1*
X1797509Y1982555D1*
X1793707D1*
X1787959Y1980653D1*
X1784112Y1976807D1*
X1782211Y1971059D1*
Y1965355D1*
X1784112Y1959607D1*
X1786058Y1957705D1*
X1789860Y1955760D1*
X1822359Y373716D2*
X1820457Y367968D1*
X1814709Y364122D1*
X1805159Y362220D1*
X1799411D1*
X1789860Y364122D1*
X1784112Y367968D1*
X1782211Y373716D1*
Y377519D1*
X1784112Y383267D1*
X1789860Y387069D1*
X1799411Y389015D1*
X1805159D1*
X1814709Y387069D1*
X1820457Y383267D1*
X1822359Y377519D1*
Y373716D1*
X1814709Y387069D2*
X1789860Y364122D1*
X1786058Y403268D2*
X1784112Y401366D1*
X1782211Y403268D1*
X1784112Y405213D1*
X1786058Y403268D1*
X1809005Y442458D2*
X1803257Y440512D1*
X1799411Y436710D1*
X1797509Y430962D1*
Y429061D1*
X1799411Y423313D1*
X1803257Y419510D1*
X1809005Y417565D1*
X1810907D1*
X1816655Y419510D1*
X1820457Y423313D1*
X1822359Y429061D1*
Y430962D1*
X1820457Y436710D1*
X1816655Y440512D1*
X1809005Y442458D1*
X1799411D1*
X1789860Y440512D1*
X1784112Y436710D1*
X1782211Y430962D1*
Y427159D1*
X1784112Y421411D1*
X1787959Y419510D1*
X1822359Y477757D2*
Y458656D1*
X1805159Y456755D1*
X1807060Y458656D1*
X1809005Y464404D1*
Y470108D1*
X1807060Y475856D1*
X1803257Y479703D1*
X1797509Y481604D1*
X1793707D1*
X1787959Y479703D1*
X1784112Y475856D1*
X1782211Y470108D1*
Y464404D1*
X1784112Y458656D1*
X1786058Y456755D1*
X1789860Y454809D1*
X1822359Y-531711D2*
X1820457Y-537459D1*
X1814709Y-541305D1*
X1805159Y-543207D1*
X1799411D1*
X1789860Y-541305D1*
X1784112Y-537459D1*
X1782211Y-531711D1*
Y-527908D1*
X1784112Y-522160D1*
X1789860Y-518357D1*
X1799411Y-516412D1*
X1805159D1*
X1814709Y-518357D1*
X1820457Y-522160D1*
X1822359Y-527908D1*
Y-531711D1*
X1814709Y-518357D2*
X1789860Y-541305D1*
X1786058Y-502159D2*
X1784112Y-504061D1*
X1782211Y-502159D1*
X1784112Y-500214D1*
X1786058Y-502159D1*
X1809005Y-462969D2*
X1803257Y-464915D1*
X1799411Y-468717D1*
X1797509Y-474465D1*
Y-476366D1*
X1799411Y-482114D1*
X1803257Y-485917D1*
X1809005Y-487862D1*
X1810907D1*
X1816655Y-485917D1*
X1820457Y-482114D1*
X1822359Y-476366D1*
Y-474465D1*
X1820457Y-468717D1*
X1816655Y-464915D1*
X1809005Y-462969D1*
X1799411D1*
X1789860Y-464915D1*
X1784112Y-468717D1*
X1782211Y-474465D1*
Y-478268D1*
X1784112Y-484016D1*
X1787959Y-485917D1*
X1822359Y-1183612D2*
X1820457Y-1189360D1*
X1814709Y-1193207D1*
X1805159Y-1195108D1*
X1799411D1*
X1789860Y-1193207D1*
X1784112Y-1189360D1*
X1782211Y-1183612D1*
Y-1179809D1*
X1784112Y-1174061D1*
X1789860Y-1170259D1*
X1799411Y-1168313D1*
X1805159D1*
X1814709Y-1170259D1*
X1820457Y-1174061D1*
X1822359Y-1179809D1*
Y-1183612D1*
X1814709Y-1170259D2*
X1789860Y-1193207D1*
X1786058Y-1154061D2*
X1784112Y-1155962D1*
X1782211Y-1154061D1*
X1784112Y-1152115D1*
X1786058Y-1154061D1*
X1782211Y-1120618D2*
X1822359D1*
X1795608Y-1139764D1*
Y-1111068D1*
X1427234Y-1467641D2*
X1432982Y-1469543D1*
X1436829Y-1475291D1*
X1438730Y-1484841D1*
Y-1490589D1*
X1436829Y-1500140D1*
X1432982Y-1505888D1*
X1427234Y-1507789D1*
X1423432D1*
X1417684Y-1505888D1*
X1413881Y-1500140D1*
X1411936Y-1490589D1*
Y-1484841D1*
X1413881Y-1475291D1*
X1417684Y-1469543D1*
X1423432Y-1467641D1*
X1427234D1*
X1413881Y-1475291D2*
X1436829Y-1500140D1*
X1397683Y-1503942D2*
X1399584Y-1505888D1*
X1397683Y-1507789D1*
X1395738Y-1505888D1*
X1397683Y-1503942D1*
X1379539Y-1467641D2*
X1358537D1*
X1369989Y-1482940D1*
X1364241D1*
X1360438Y-1484841D1*
X1358537Y-1486743D1*
X1356591Y-1492491D1*
Y-1496293D1*
X1358537Y-1502041D1*
X1362339Y-1505888D1*
X1368087Y-1507789D1*
X1373836D1*
X1379539Y-1505888D1*
X1381441Y-1503942D1*
X1383386Y-1500140D1*
X1321292Y-1467641D2*
X1340393D1*
X1342295Y-1484841D1*
X1340393Y-1482940D1*
X1334645Y-1480995D1*
X1328941D1*
X1323193Y-1482940D1*
X1319347Y-1486743D1*
X1317445Y-1492491D1*
Y-1496293D1*
X1319347Y-1502041D1*
X1323193Y-1505888D1*
X1328941Y-1507789D1*
X1334645D1*
X1340393Y-1505888D1*
X1342295Y-1503942D1*
X1344240Y-1500140D1*
X982661Y-1467641D2*
X988409Y-1469543D1*
X992256Y-1475291D1*
X994157Y-1484841D1*
Y-1490589D1*
X992256Y-1500140D1*
X988409Y-1505888D1*
X982661Y-1507789D1*
X978859D1*
X973111Y-1505888D1*
X969308Y-1500140D1*
X967363Y-1490589D1*
Y-1484841D1*
X969308Y-1475291D1*
X973111Y-1469543D1*
X978859Y-1467641D1*
X982661D1*
X969308Y-1475291D2*
X992256Y-1500140D1*
X953110Y-1503942D2*
X955011Y-1505888D1*
X953110Y-1507789D1*
X951164Y-1505888D1*
X953110Y-1503942D1*
X915865Y-1467641D2*
X934966D1*
X936868Y-1484841D1*
X934966Y-1482940D1*
X929218Y-1480995D1*
X923514D1*
X917766Y-1482940D1*
X913920Y-1486743D1*
X912018Y-1492491D1*
Y-1496293D1*
X913920Y-1502041D1*
X917766Y-1505888D1*
X923514Y-1507789D1*
X929218D1*
X934966Y-1505888D1*
X936868Y-1503942D1*
X938813Y-1500140D1*
X36508Y-1475291D2*
X32661Y-1473345D1*
X26913Y-1467641D1*
Y-1507789D1*
X12661Y-1503942D2*
X14562Y-1505888D1*
X12661Y-1507789D1*
X10715Y-1505888D1*
X12661Y-1503942D1*
X-20782Y-1507789D2*
Y-1467641D1*
X-1636Y-1494392D1*
X-30332D1*
X-917339Y-1467641D2*
X-911591Y-1469543D1*
X-907744Y-1475291D1*
X-905843Y-1484841D1*
Y-1490589D1*
X-907744Y-1500140D1*
X-911591Y-1505888D1*
X-917339Y-1507789D1*
X-921141D1*
X-926889Y-1505888D1*
X-930692Y-1500140D1*
X-932637Y-1490589D1*
Y-1484841D1*
X-930692Y-1475291D1*
X-926889Y-1469543D1*
X-921141Y-1467641D1*
X-917339D1*
X-930692Y-1475291D2*
X-907744Y-1500140D1*
X-946890Y-1503942D2*
X-944989Y-1505888D1*
X-946890Y-1507789D1*
X-948836Y-1505888D1*
X-946890Y-1503942D1*
X-984135Y-1467641D2*
X-965034D1*
X-963132Y-1484841D1*
X-965034Y-1482940D1*
X-970782Y-1480995D1*
X-976486D1*
X-982234Y-1482940D1*
X-986080Y-1486743D1*
X-987982Y-1492491D1*
Y-1496293D1*
X-986080Y-1502041D1*
X-982234Y-1505888D1*
X-976486Y-1507789D1*
X-970782D1*
X-965034Y-1505888D1*
X-963132Y-1503942D1*
X-961187Y-1500140D1*
X-1322766Y-1467641D2*
X-1317018Y-1469543D1*
X-1313171Y-1475291D1*
X-1311270Y-1484841D1*
Y-1490589D1*
X-1313171Y-1500140D1*
X-1317018Y-1505888D1*
X-1322766Y-1507789D1*
X-1326568D1*
X-1332316Y-1505888D1*
X-1336119Y-1500140D1*
X-1338064Y-1490589D1*
Y-1484841D1*
X-1336119Y-1475291D1*
X-1332316Y-1469543D1*
X-1326568Y-1467641D1*
X-1322766D1*
X-1336119Y-1475291D2*
X-1313171Y-1500140D1*
X-1352317Y-1503942D2*
X-1350416Y-1505888D1*
X-1352317Y-1507789D1*
X-1354262Y-1505888D1*
X-1352317Y-1503942D1*
X-1370461Y-1467641D2*
X-1391463D1*
X-1380011Y-1482940D1*
X-1385759D1*
X-1389562Y-1484841D1*
X-1391463Y-1486743D1*
X-1393409Y-1492491D1*
Y-1496293D1*
X-1391463Y-1502041D1*
X-1387661Y-1505888D1*
X-1381913Y-1507789D1*
X-1376164D1*
X-1370461Y-1505888D1*
X-1368559Y-1503942D1*
X-1366614Y-1500140D1*
X-1428708Y-1467641D2*
X-1409607D1*
X-1407705Y-1484841D1*
X-1409607Y-1482940D1*
X-1415355Y-1480995D1*
X-1421059D1*
X-1426807Y-1482940D1*
X-1430653Y-1486743D1*
X-1432555Y-1492491D1*
Y-1496293D1*
X-1430653Y-1502041D1*
X-1426807Y-1505888D1*
X-1421059Y-1507789D1*
X-1415355D1*
X-1409607Y-1505888D1*
X-1407705Y-1503942D1*
X-1405760Y-1500140D1*
M02*
