M48
INCH
T01C0.012
T02C0.0394
T03C0.04
T04C0.0433
T05C0.0472
T06C0.063
T07C0.0984
%
T01
X-011700Y-010800
X-009500Y-010400
X-007900Y-011600
X-006200Y-010400
X-005400Y-011900
X-003400Y-010700
X-002600Y-010500
X-000900Y-011400
X-001000Y-008500
X-001000Y-007600
X-000600Y-007000
X-000500Y-006300
X-000100Y-004200
X+000200Y-003600
X+001300Y-003700
X+001250Y-000500
X-001400Y+003500
X-000600Y+005500
X+002500Y+004500
X-000900Y+011500
X-001870Y+016380
X-012500Y+008000
X-012500Y+004000
X-008500Y+003500
X-009500Y-006500
X+002600Y-010500
X+006800Y-007600
X+012000Y-007000
T02
X-006500Y-009500
X-007500Y-009500
X-011500Y-009500
X-012500Y-009500
X+006500Y-009500
X+007500Y-009500
X+011500Y-009500
X+012500Y-009500
T03
X-010500Y-012000
X-011500Y-012000
X-013500Y-012000
X-014500Y-012000
X+013000Y-012000
X+014000Y-012000
T04
X+013000Y+015050
X+012000Y+015050
X+011000Y+015050
X+005000Y+015050
X+004000Y+015050
X+003000Y+015050
X-003000Y+015050
X-004000Y+015050
X-005000Y+015050
X-011000Y+015050
X-012000Y+015050
X-013000Y+015050
X+003000Y+006050
X+004000Y+006050
X+005000Y+006050
X+011000Y+006050
X+012000Y+006050
X+013000Y+006050
T05
X-010957Y+008000
X-009091Y+006795
X-009091Y+009205
X-010795Y+010909
X-013217Y+010909
X-014909Y+009205
X-014909Y+006795
X-013205Y+005091
X-010795Y+005091
T06
X+010000Y+018000
X+006000Y+018000
X+002000Y+018000
X-002000Y+018000
X-006000Y+018000
X-010000Y+018000
X-014000Y+018000
X+002000Y+009000
X+006000Y+009000
X+010000Y+009000
X+014000Y+009000
X+014000Y+018000
T07
X+012000Y-002350
X+012000Y-000500
X+012000Y+001350
X+006000Y+001350
X+006000Y-000500
X+006000Y-002350
X+000000Y-002350
X+000000Y-000500
X+000000Y+001350
X-006000Y+001350
X-006000Y-000500
X-006000Y-002350
X-012000Y-002350
X-012000Y-000500
X-012000Y+001350
X-004000Y+006650
X-004000Y+008500
X-004000Y+010350
T00
M30
