G04 DipTrace 5.2.0.4*
G04 TopAssembly.gbr*
%MOIN*%
G04 #@! TF.FileFunction,Drawing,Top*
G04 #@! TF.Part,Single*
%ADD12C,0.005512*%
%ADD20C,0.004*%
%ADD23C,0.008*%
%ADD25C,0.006*%
%ADD42C,0.003937*%
%FSLAX26Y26*%
G04*
G70*
G90*
G75*
G01*
G04 TopAssy*
%LPD*%
X-1178543Y1413780D2*
D20*
X-1121457D1*
Y1386220D2*
X-1178543D1*
G36*
X-1181496Y1415748D2*
Y1384252D1*
X-1167717D1*
Y1415748D1*
X-1181496D1*
G37*
G36*
X-1132283D2*
Y1384252D1*
X-1118504D1*
Y1415748D1*
X-1132283D1*
G37*
X-378543Y1413780D2*
D20*
X-321457D1*
Y1386220D2*
X-378543D1*
G36*
X-381496Y1415748D2*
Y1384252D1*
X-367717D1*
Y1415748D1*
X-381496D1*
G37*
G36*
X-332283D2*
Y1384252D1*
X-318504D1*
Y1415748D1*
X-332283D1*
G37*
X421457Y1413780D2*
D20*
X478543D1*
Y1386220D2*
X421457D1*
G36*
X418504Y1415748D2*
Y1384252D1*
X432283D1*
Y1415748D1*
X418504D1*
G37*
G36*
X467717D2*
Y1384252D1*
X481496D1*
Y1415748D1*
X467717D1*
G37*
X1221457Y1413780D2*
D20*
X1278543D1*
Y1386220D2*
X1221457D1*
G36*
X1218504Y1415748D2*
Y1384252D1*
X1232283D1*
Y1415748D1*
X1218504D1*
G37*
G36*
X1267717D2*
Y1384252D1*
X1281496D1*
Y1415748D1*
X1267717D1*
G37*
X421457Y513780D2*
D20*
X478543D1*
Y486220D2*
X421457D1*
G36*
X418504Y515748D2*
Y484252D1*
X432283D1*
Y515748D1*
X418504D1*
G37*
G36*
X467717D2*
Y484252D1*
X481496D1*
Y515748D1*
X467717D1*
G37*
X1221457Y513780D2*
D20*
X1278543D1*
Y486220D2*
X1221457D1*
G36*
X1218504Y515748D2*
Y484252D1*
X1232283D1*
Y515748D1*
X1218504D1*
G37*
G36*
X1267717D2*
Y484252D1*
X1281496D1*
Y515748D1*
X1267717D1*
G37*
X-841456Y-1053779D2*
D20*
X-898543Y-1053780D1*
X-898544Y-1026221D2*
X-841457Y-1026220D1*
G36*
X-838504Y-1055747D2*
Y-1024251D1*
X-852284Y-1024252D1*
X-852283Y-1055748D1*
X-838504Y-1055747D1*
G37*
G36*
X-887716Y-1055748D2*
X-887717Y-1024252D1*
X-901496Y-1024253D1*
Y-1055749D1*
X-887716Y-1055748D1*
G37*
X-526220Y-1081457D2*
D20*
Y-1138543D1*
X-553780D2*
Y-1081457D1*
G36*
X-524252Y-1078504D2*
X-555748D1*
Y-1092283D1*
X-524252D1*
Y-1078504D1*
G37*
G36*
Y-1127717D2*
X-555748D1*
Y-1141496D1*
X-524252D1*
Y-1127717D1*
G37*
X-403780Y-1138543D2*
D20*
Y-1081457D1*
X-376220D2*
Y-1138543D1*
G36*
X-405748Y-1141496D2*
X-374252D1*
Y-1127717D1*
X-405748D1*
Y-1141496D1*
G37*
G36*
Y-1092283D2*
X-374252D1*
Y-1078504D1*
X-405748D1*
Y-1092283D1*
G37*
X-293307Y-1180315D2*
D23*
X-312992D1*
Y-1219685D1*
X-293307D1*
Y-1274803D1*
X293307D2*
Y-1219685D1*
X312992D1*
Y-1180315D1*
X293307D1*
Y-1101575D1*
X-293307D1*
Y-1180315D1*
G36*
X-230315Y-1066142D2*
Y-1099606D1*
X-222441D1*
Y-1066142D1*
X-230315D1*
G37*
G36*
X-210630D2*
Y-1099606D1*
X-202756D1*
Y-1066142D1*
X-210630D1*
G37*
G36*
X-190945D2*
Y-1099606D1*
X-183071D1*
Y-1066142D1*
X-190945D1*
G37*
G36*
X-171260D2*
Y-1099606D1*
X-163386D1*
Y-1066142D1*
X-171260D1*
G37*
G36*
X-151575D2*
Y-1099606D1*
X-143701D1*
Y-1066142D1*
X-151575D1*
G37*
G36*
X-131890D2*
Y-1099606D1*
X-124016D1*
Y-1066142D1*
X-131890D1*
G37*
G36*
X-112205D2*
Y-1099606D1*
X-104331D1*
Y-1066142D1*
X-112205D1*
G37*
G36*
X-92520D2*
Y-1099606D1*
X-84646D1*
Y-1066142D1*
X-92520D1*
G37*
G36*
X-72835D2*
Y-1099606D1*
X-64961D1*
Y-1066142D1*
X-72835D1*
G37*
G36*
X-53150D2*
Y-1099606D1*
X-45276D1*
Y-1066142D1*
X-53150D1*
G37*
G36*
X-33465D2*
Y-1099606D1*
X-25591D1*
Y-1066142D1*
X-33465D1*
G37*
G36*
X-13780D2*
Y-1099606D1*
X-5906D1*
Y-1066142D1*
X-13780D1*
G37*
G36*
X5906D2*
Y-1099606D1*
X13780D1*
Y-1066142D1*
X5906D1*
G37*
G36*
X25591D2*
Y-1099606D1*
X33465D1*
Y-1066142D1*
X25591D1*
G37*
G36*
X45276D2*
Y-1099606D1*
X53150D1*
Y-1066142D1*
X45276D1*
G37*
G36*
X64961D2*
Y-1099606D1*
X72835D1*
Y-1066142D1*
X64961D1*
G37*
G36*
X84646D2*
Y-1099606D1*
X92520D1*
Y-1066142D1*
X84646D1*
G37*
G36*
X104331D2*
Y-1099606D1*
X112205D1*
Y-1066142D1*
X104331D1*
G37*
G36*
X124016D2*
Y-1099606D1*
X131890D1*
Y-1066142D1*
X124016D1*
G37*
G36*
X143701D2*
Y-1099606D1*
X151575D1*
Y-1066142D1*
X143701D1*
G37*
G36*
X163386D2*
Y-1099606D1*
X171260D1*
Y-1066142D1*
X163386D1*
G37*
G36*
X183071D2*
Y-1099606D1*
X190945D1*
Y-1066142D1*
X183071D1*
G37*
G36*
X202756D2*
Y-1099606D1*
X210630D1*
Y-1066142D1*
X202756D1*
G37*
G36*
X222441D2*
Y-1099606D1*
X230315D1*
Y-1066142D1*
X222441D1*
G37*
X-1426000Y1306000D2*
D25*
X-1374000D1*
Y1194000D1*
X-1426000D1*
Y1306000D1*
G36*
X-1451000Y1241000D2*
X-1428000D1*
Y1259000D1*
X-1451000D1*
Y1241000D1*
G37*
G36*
X-1372000Y1278000D2*
X-1349000D1*
Y1296000D1*
X-1372000D1*
Y1278000D1*
G37*
G36*
Y1204000D2*
X-1349000D1*
Y1222000D1*
X-1372000D1*
Y1204000D1*
G37*
X-976000Y1306000D2*
D25*
X-924000D1*
Y1194000D1*
X-976000D1*
Y1306000D1*
G36*
X-1001000Y1241000D2*
X-978000D1*
Y1259000D1*
X-1001000D1*
Y1241000D1*
G37*
G36*
X-922000Y1278000D2*
X-899000D1*
Y1296000D1*
X-922000D1*
Y1278000D1*
G37*
G36*
Y1204000D2*
X-899000D1*
Y1222000D1*
X-922000D1*
Y1204000D1*
G37*
X-1376000Y856000D2*
D25*
X-1324000D1*
Y744000D1*
X-1376000D1*
Y856000D1*
G36*
X-1401000Y791000D2*
X-1378000D1*
Y809000D1*
X-1401000D1*
Y791000D1*
G37*
G36*
X-1322000Y828000D2*
X-1299000D1*
Y846000D1*
X-1322000D1*
Y828000D1*
G37*
G36*
Y754000D2*
X-1299000D1*
Y772000D1*
X-1322000D1*
Y754000D1*
G37*
X-1426000Y456000D2*
D25*
X-1374000D1*
Y344000D1*
X-1426000D1*
Y456000D1*
G36*
X-1451000Y391000D2*
X-1428000D1*
Y409000D1*
X-1451000D1*
Y391000D1*
G37*
G36*
X-1372000Y428000D2*
X-1349000D1*
Y446000D1*
X-1372000D1*
Y428000D1*
G37*
G36*
Y354000D2*
X-1349000D1*
Y372000D1*
X-1372000D1*
Y354000D1*
G37*
X-976000Y456000D2*
D25*
X-924000D1*
Y344000D1*
X-976000D1*
Y456000D1*
G36*
X-1001000Y391000D2*
X-978000D1*
Y409000D1*
X-1001000D1*
Y391000D1*
G37*
G36*
X-922000Y428000D2*
X-899000D1*
Y446000D1*
X-922000D1*
Y428000D1*
G37*
G36*
Y354000D2*
X-899000D1*
Y372000D1*
X-922000D1*
Y354000D1*
G37*
G36*
X-1040000Y-1210000D2*
Y-1190000D1*
X-1060000D1*
Y-1210000D1*
X-1040000D1*
G37*
G36*
X-1140000D2*
Y-1190000D1*
X-1160000D1*
Y-1210000D1*
X-1140000D1*
G37*
G36*
X-1340000D2*
Y-1190000D1*
X-1360000D1*
Y-1210000D1*
X-1340000D1*
G37*
G36*
X-1440000D2*
Y-1190000D1*
X-1460000D1*
Y-1210000D1*
X-1440000D1*
G37*
G36*
X1410000D2*
Y-1190000D1*
X1390000D1*
Y-1210000D1*
X1410000D1*
G37*
G36*
X1310000D2*
Y-1190000D1*
X1290000D1*
Y-1210000D1*
X1310000D1*
G37*
X-554016Y-962993D2*
D25*
X-554015Y-997008D1*
X-525984Y-997007D2*
X-525985Y-962992D1*
G36*
X-522999Y-996999D2*
X-556999Y-997001D1*
Y-1013001D1*
X-522999Y-1012999D1*
Y-996999D1*
G37*
G36*
X-523001Y-946999D2*
X-557001Y-947001D1*
Y-963001D1*
X-523001Y-962999D1*
Y-946999D1*
G37*
G36*
X-524248Y-972129D2*
X-555752Y-972131D1*
Y-987871D1*
X-524248Y-987869D1*
Y-972129D1*
G37*
X-1135984Y-767008D2*
D25*
Y-732992D1*
X-1164016D2*
Y-767008D1*
G36*
X-1167000Y-733000D2*
X-1133000D1*
Y-717000D1*
X-1167000D1*
Y-733000D1*
G37*
G36*
Y-783000D2*
X-1133000D1*
Y-767000D1*
X-1167000D1*
Y-783000D1*
G37*
G36*
X-1165752Y-757870D2*
X-1134248D1*
Y-742130D1*
X-1165752D1*
Y-757870D1*
G37*
X764016Y-767008D2*
D25*
Y-732992D1*
X735984D2*
Y-767008D1*
G36*
X733000Y-733000D2*
X767000D1*
Y-717000D1*
X733000D1*
Y-733000D1*
G37*
G36*
Y-783000D2*
X767000D1*
Y-767000D1*
X733000D1*
Y-783000D1*
G37*
G36*
X734248Y-757870D2*
X765752D1*
Y-742130D1*
X734248D1*
Y-757870D1*
G37*
X1264016Y-767008D2*
D25*
Y-732992D1*
X1235984D2*
Y-767008D1*
G36*
X1233000Y-733000D2*
X1267000D1*
Y-717000D1*
X1233000D1*
Y-733000D1*
G37*
G36*
Y-783000D2*
X1267000D1*
Y-767000D1*
X1233000D1*
Y-783000D1*
G37*
G36*
X1234248Y-757870D2*
X1265752D1*
Y-742130D1*
X1234248D1*
Y-757870D1*
G37*
X-1242992Y-1065984D2*
D25*
X-1277008D1*
Y-1094016D2*
X-1242992D1*
G36*
X-1277000Y-1097000D2*
Y-1063000D1*
X-1293000D1*
Y-1097000D1*
X-1277000D1*
G37*
G36*
X-1227000D2*
Y-1063000D1*
X-1243000D1*
Y-1097000D1*
X-1227000D1*
G37*
G36*
X-1252130Y-1095752D2*
Y-1064248D1*
X-1267870D1*
Y-1095752D1*
X-1252130D1*
G37*
X-852992Y-1105984D2*
D25*
X-887008Y-1105985D1*
Y-1134016D2*
X-852992Y-1134015D1*
G36*
X-887000Y-1137000D2*
Y-1103000D1*
X-903000Y-1103001D1*
Y-1137001D1*
X-887000Y-1137000D1*
G37*
G36*
X-837000Y-1136999D2*
Y-1102999D1*
X-853000Y-1103000D1*
Y-1137000D1*
X-837000Y-1136999D1*
G37*
G36*
X-862130Y-1135752D2*
Y-1104248D1*
X-877870D1*
Y-1135752D1*
X-862130D1*
G37*
X-455984Y-1127008D2*
D25*
Y-1092992D1*
X-484016D2*
Y-1127008D1*
G36*
X-487000Y-1093000D2*
X-453000D1*
Y-1077000D1*
X-487000D1*
Y-1093000D1*
G37*
G36*
Y-1143000D2*
X-453000D1*
Y-1127000D1*
X-487000D1*
Y-1143000D1*
G37*
G36*
X-485752Y-1117870D2*
X-454248D1*
Y-1102130D1*
X-485752D1*
Y-1117870D1*
G37*
X-735276Y-1070669D2*
D42*
X-644724D1*
Y-1149331D1*
X-735276D1*
Y-1070669D1*
Y-1090335D2*
X-715626Y-1070669D1*
X1550000Y1900000D2*
D12*
Y-1350000D1*
X-1549213D1*
Y1887008D1*
X-1400000Y2050000D1*
X1400000D1*
X1550000Y1900000D1*
M02*
