G04 DipTrace 5.2.0.4*
G04 TopMask.gbr*
%MOIN*%
G04 #@! TF.FileFunction,Soldermask,Top*
G04 #@! TF.Part,Single*
%ADD55R,0.037402X0.015748*%
%ADD57C,0.074803*%
%ADD61R,0.074803X0.074803*%
%ADD65C,0.133937*%
%ADD67R,0.043307X0.047244*%
%ADD69R,0.047244X0.043307*%
%ADD72C,0.098425*%
%ADD74C,0.082677*%
%ADD76R,0.082677X0.082677*%
%ADD79O,0.063937X0.123937*%
%ADD81R,0.059055X0.043307*%
%ADD85R,0.046457X0.045276*%
%ADD87R,0.045276X0.046457*%
%FSLAX26Y26*%
G04*
G70*
G90*
G75*
G01*
G04 TopMask*
%LPD*%
D87*
X-1184449Y1400000D3*
X-1115551D3*
X-384449D3*
X-315551D3*
X415551D3*
X484449D3*
X1215551D3*
X1284449D3*
X415551Y500000D3*
X484449D3*
X1215551D3*
X1284449D3*
X-835551Y-1039999D3*
X-904449Y-1040001D3*
D85*
X-540000Y-1075551D3*
Y-1144449D3*
X-390000D3*
Y-1075551D3*
G36*
X-234252Y-1044488D2*
Y-1099606D1*
X-218504D1*
Y-1044488D1*
X-234252D1*
G37*
G36*
X-214567D2*
Y-1099606D1*
X-198819D1*
Y-1044488D1*
X-214567D1*
G37*
G36*
X-194882D2*
Y-1099606D1*
X-179134D1*
Y-1044488D1*
X-194882D1*
G37*
G36*
X-175197D2*
Y-1099606D1*
X-159449D1*
Y-1044488D1*
X-175197D1*
G37*
G36*
X-155512D2*
Y-1099606D1*
X-139764D1*
Y-1044488D1*
X-155512D1*
G37*
G36*
X-135827D2*
Y-1099606D1*
X-120079D1*
Y-1044488D1*
X-135827D1*
G37*
G36*
X-116142D2*
Y-1099606D1*
X-100394D1*
Y-1044488D1*
X-116142D1*
G37*
G36*
X-96457D2*
Y-1099606D1*
X-80709D1*
Y-1044488D1*
X-96457D1*
G37*
G36*
X-76772D2*
Y-1099606D1*
X-61024D1*
Y-1044488D1*
X-76772D1*
G37*
G36*
X-57087D2*
Y-1099606D1*
X-41339D1*
Y-1044488D1*
X-57087D1*
G37*
G36*
X-37402D2*
Y-1099606D1*
X-21654D1*
Y-1044488D1*
X-37402D1*
G37*
G36*
X-17717D2*
Y-1099606D1*
X-1969D1*
Y-1044488D1*
X-17717D1*
G37*
G36*
X1969D2*
Y-1099606D1*
X17717D1*
Y-1044488D1*
X1969D1*
G37*
G36*
X21654D2*
Y-1099606D1*
X37402D1*
Y-1044488D1*
X21654D1*
G37*
G36*
X41339D2*
Y-1099606D1*
X57087D1*
Y-1044488D1*
X41339D1*
G37*
G36*
X61024D2*
Y-1099606D1*
X76772D1*
Y-1044488D1*
X61024D1*
G37*
G36*
X80709D2*
Y-1099606D1*
X96457D1*
Y-1044488D1*
X80709D1*
G37*
G36*
X100394D2*
Y-1099606D1*
X116142D1*
Y-1044488D1*
X100394D1*
G37*
G36*
X120079D2*
Y-1099606D1*
X135827D1*
Y-1044488D1*
X120079D1*
G37*
G36*
X139764D2*
Y-1099606D1*
X155512D1*
Y-1044488D1*
X139764D1*
G37*
G36*
X159449D2*
Y-1099606D1*
X175197D1*
Y-1044488D1*
X159449D1*
G37*
G36*
X179134D2*
Y-1099606D1*
X194882D1*
Y-1044488D1*
X179134D1*
G37*
G36*
X198819D2*
Y-1099606D1*
X214567D1*
Y-1044488D1*
X198819D1*
G37*
G36*
X218504D2*
Y-1099606D1*
X234252D1*
Y-1044488D1*
X218504D1*
G37*
G36*
X338583Y-1153740D2*
X263780D1*
Y-1246260D1*
X338583D1*
Y-1153740D1*
G37*
G36*
X-263780D2*
X-338583D1*
Y-1246260D1*
X-263780D1*
Y-1153740D1*
G37*
D81*
X-1443307Y1250000D3*
X-1356693Y1287402D3*
Y1212598D3*
X-993307Y1250000D3*
X-906693Y1287402D3*
Y1212598D3*
X-1393307Y800000D3*
X-1306693Y837402D3*
Y762598D3*
X-1443307Y400000D3*
X-1356693Y437402D3*
Y362598D3*
X-993307Y400000D3*
X-906693Y437402D3*
Y362598D3*
D79*
X-1050000Y-1200000D3*
X-1150000D3*
X-1350000D3*
X-1450000D3*
X1400000D3*
X1300000D3*
D76*
X-650000Y-950000D3*
D74*
X-750000D3*
D76*
X1250000D3*
D74*
X1150000D3*
D76*
X-1150000D3*
D74*
X-1250000D3*
D76*
X750000D3*
D74*
X650000D3*
X1300000Y1505000D3*
X1200000D3*
X1100000D3*
D72*
X1000000Y1800000D3*
X1400000D3*
D74*
X500000Y1505000D3*
X400000D3*
X300000D3*
D72*
X200000Y1800000D3*
X600000D3*
D74*
X-300000Y1505000D3*
X-400000D3*
X-500000D3*
D72*
X-600000Y1800000D3*
X-200000D3*
D74*
X-1100000Y1505000D3*
X-1200000D3*
X-1300000D3*
D72*
X-1400000Y1800000D3*
X-1000000D3*
D74*
X1300000Y605000D3*
X1200000D3*
X1100000D3*
D72*
X1000000Y900000D3*
X1400000D3*
D74*
X500000Y605000D3*
X400000D3*
X300000D3*
D72*
X200000Y900000D3*
X600000D3*
D69*
X-540001Y-946535D3*
X-539999Y-1013465D3*
X-1150000Y-783465D3*
Y-716535D3*
X750000Y-783465D3*
Y-716535D3*
X1250000Y-783465D3*
Y-716535D3*
D67*
X-1226535Y-1080000D3*
X-1293465D3*
X-836535Y-1119999D3*
X-903465Y-1120001D3*
D69*
X-470000Y-1143465D3*
Y-1076535D3*
D65*
X1200000Y-235000D3*
Y-50000D3*
Y135000D3*
X600000Y-235000D3*
Y-50000D3*
Y135000D3*
X0Y-235000D3*
Y-50000D3*
Y135000D3*
X-600000Y-235000D3*
Y-50000D3*
Y135000D3*
X-1200000Y-235000D3*
Y-50000D3*
Y135000D3*
X-400000Y665000D3*
Y850000D3*
Y1035000D3*
D61*
X-1095669Y800000D3*
D57*
X-1079528Y509055D3*
X-909055Y679528D3*
Y920472D3*
X-1079528Y1090945D3*
X-1321654D3*
X-1490945Y920472D3*
Y679528D3*
X-1320472Y509055D3*
D55*
X-752008Y-1080472D3*
Y-1100157D3*
Y-1119843D3*
Y-1139528D3*
X-627992D3*
Y-1119843D3*
Y-1100157D3*
Y-1080472D3*
M02*
