G04 DipTrace 5.2.0.4*
G04 TopSilk.gbr*
%MOIN*%
G04 #@! TF.FileFunction,Legend,Top*
G04 #@! TF.Part,Single*
%ADD23C,0.008*%
%ADD25C,0.006*%
%ADD43C,0.007874*%
%ADD89C,0.003088*%
%ADD90C,0.005558*%
%ADD91C,0.006176*%
%ADD92C,0.005551*%
%ADD93C,0.00356*%
%ADD94C,0.004446*%
%FSLAX26Y26*%
G04*
G70*
G90*
G75*
G01*
G04 TopSilk*
%LPD*%
X-293307Y-1274803D2*
D23*
X-281496D1*
Y-1286614D1*
X-293307D1*
Y-1314173D1*
X293307D2*
Y-1286614D1*
X281496D1*
Y-1274803D1*
X293307D1*
X281496D2*
X-281496D1*
X293307Y-1314173D2*
X-293307D1*
Y-1101575D2*
Y-1140945D1*
X-246063Y-1101575D2*
X-293307D1*
X293307Y-1140945D2*
Y-1101575D1*
X246063D1*
X-293307Y-1259055D2*
Y-1274803D1*
X293307D2*
Y-1259055D1*
G36*
X-234252Y-1286614D2*
X-226378Y-1302362D1*
X-218504Y-1286614D1*
X-234252D1*
G37*
D23*
X-226378Y-1302362D1*
X-218504Y-1286614D1*
X-234252D1*
X-1394000Y1194000D2*
D25*
X-1426000D1*
Y1216000D1*
Y1306000D2*
X-1394000D1*
X-1426000Y1284000D2*
Y1306000D1*
X-944000Y1194000D2*
X-976000D1*
Y1216000D1*
Y1306000D2*
X-944000D1*
X-976000Y1284000D2*
Y1306000D1*
X-1344000Y744000D2*
X-1376000D1*
Y766000D1*
Y856000D2*
X-1344000D1*
X-1376000Y834000D2*
Y856000D1*
X-1394000Y344000D2*
X-1426000D1*
Y366000D1*
Y456000D2*
X-1394000D1*
X-1426000Y434000D2*
Y456000D1*
X-944000Y344000D2*
X-976000D1*
Y366000D1*
Y456000D2*
X-944000D1*
X-976000Y434000D2*
Y456000D1*
X-1025000Y-1250000D2*
X-1075000D1*
X-1100000Y-1225000D1*
Y-1175000D1*
X-1075000Y-1150000D1*
X-1000000Y-1225000D2*
Y-1175000D1*
X-1025000Y-1250000D2*
X-1000000Y-1225000D1*
Y-1175000D2*
X-1025000Y-1150000D1*
X-1075000D2*
X-1025000D1*
X-1100000Y-1225000D2*
X-1125000Y-1250000D1*
X-1175000D1*
X-1200000Y-1225000D1*
Y-1175000D1*
X-1175000Y-1150000D1*
X-1125000D1*
X-1100000Y-1175000D1*
X-1325000Y-1250000D2*
X-1375000D1*
X-1400000Y-1225000D1*
Y-1175000D1*
X-1375000Y-1150000D1*
X-1300000Y-1225000D2*
Y-1175000D1*
X-1325000Y-1250000D2*
X-1300000Y-1225000D1*
Y-1175000D2*
X-1325000Y-1150000D1*
X-1375000D2*
X-1325000D1*
X-1400000Y-1225000D2*
X-1425000Y-1250000D1*
X-1475000D1*
X-1500000Y-1225000D1*
Y-1175000D1*
X-1475000Y-1150000D1*
X-1425000D1*
X-1400000Y-1175000D1*
X1425000Y-1250000D2*
X1375000D1*
X1350000Y-1225000D1*
Y-1175000D1*
X1375000Y-1150000D1*
X1450000Y-1225000D2*
Y-1175000D1*
X1425000Y-1250000D2*
X1450000Y-1225000D1*
Y-1175000D2*
X1425000Y-1150000D1*
X1375000D2*
X1425000D1*
X1350000Y-1225000D2*
X1325000Y-1250000D1*
X1275000D1*
X1250000Y-1225000D1*
Y-1175000D1*
X1275000Y-1150000D1*
X1325000D1*
X1350000Y-1175000D1*
X-721512Y-1070669D2*
D43*
X-658488D1*
Y-1149331D1*
X-721512D1*
Y-1070669D1*
X-768780Y-1060748D2*
X-735276D1*
X-1220426Y302521D2*
D90*
X-1224229Y306368D1*
X-1229977Y308269D1*
X-1237626D1*
X-1243374Y306368D1*
X-1247221Y302521D1*
Y298719D1*
X-1245276Y294872D1*
X-1243374Y292971D1*
X-1239572Y291070D1*
X-1228076Y287223D1*
X-1224229Y285322D1*
X-1222328Y283376D1*
X-1220426Y279574D1*
Y273826D1*
X-1224229Y270023D1*
X-1229977Y268077D1*
X-1237626D1*
X-1243374Y270023D1*
X-1247221Y273826D1*
X-1209311Y308269D2*
X-1199716Y268077D1*
X-1190166Y308269D1*
X-1180615Y268077D1*
X-1171020Y308269D1*
X-1140759Y268077D2*
Y308225D1*
X-1159905Y281475D1*
X-1131209D1*
X-620426Y302521D2*
X-624229Y306368D1*
X-629977Y308269D1*
X-637626D1*
X-643374Y306368D1*
X-647221Y302521D1*
Y298719D1*
X-645276Y294872D1*
X-643374Y292971D1*
X-639572Y291070D1*
X-628076Y287223D1*
X-624229Y285322D1*
X-622328Y283376D1*
X-620426Y279574D1*
Y273826D1*
X-624229Y270023D1*
X-629977Y268077D1*
X-637626D1*
X-643374Y270023D1*
X-647221Y273826D1*
X-609311Y308269D2*
X-599716Y268077D1*
X-590166Y308269D1*
X-580615Y268077D1*
X-571020Y308269D1*
X-556058Y308225D2*
X-535056D1*
X-546507Y292927D1*
X-540759D1*
X-536957Y291025D1*
X-535056Y289124D1*
X-533110Y283376D1*
Y279574D1*
X-535056Y273826D1*
X-538858Y269979D1*
X-544606Y268077D1*
X-550354D1*
X-556058Y269979D1*
X-557959Y271924D1*
X-559905Y275727D1*
X-20426Y302521D2*
X-24229Y306368D1*
X-29977Y308269D1*
X-37626D1*
X-43374Y306368D1*
X-47221Y302521D1*
Y298719D1*
X-45276Y294872D1*
X-43374Y292971D1*
X-39572Y291070D1*
X-28076Y287223D1*
X-24229Y285322D1*
X-22328Y283376D1*
X-20426Y279574D1*
Y273826D1*
X-24229Y270023D1*
X-29977Y268077D1*
X-37626D1*
X-43374Y270023D1*
X-47221Y273826D1*
X-9311Y308269D2*
X284Y268077D1*
X9834Y308269D1*
X19385Y268077D1*
X28980Y308269D1*
X42041Y298675D2*
Y300576D1*
X43942Y304423D1*
X45843Y306324D1*
X49690Y308225D1*
X57339D1*
X61142Y306324D1*
X63043Y304423D1*
X64989Y300576D1*
Y296773D1*
X63043Y292927D1*
X59241Y287223D1*
X40095Y268077D1*
X66890D1*
X579574Y302521D2*
X575771Y306368D1*
X570023Y308269D1*
X562374D1*
X556626Y306368D1*
X552779Y302521D1*
Y298719D1*
X554724Y294872D1*
X556626Y292971D1*
X560428Y291070D1*
X571924Y287223D1*
X575771Y285322D1*
X577672Y283376D1*
X579574Y279574D1*
Y273826D1*
X575771Y270023D1*
X570023Y268077D1*
X562374D1*
X556626Y270023D1*
X552779Y273826D1*
X590689Y308269D2*
X600284Y268077D1*
X609834Y308269D1*
X619385Y268077D1*
X628980Y308269D1*
X640095Y300576D2*
X643942Y302521D1*
X649690Y308225D1*
Y268077D1*
X1179574Y302521D2*
X1175771Y306368D1*
X1170023Y308269D1*
X1162374D1*
X1156626Y306368D1*
X1152779Y302521D1*
Y298719D1*
X1154724Y294872D1*
X1156626Y292971D1*
X1160428Y291070D1*
X1171924Y287223D1*
X1175771Y285322D1*
X1177672Y283376D1*
X1179574Y279574D1*
Y273826D1*
X1175771Y270023D1*
X1170023Y268077D1*
X1162374D1*
X1156626Y270023D1*
X1152779Y273826D1*
X1190689Y308269D2*
X1200284Y268077D1*
X1209834Y308269D1*
X1219385Y268077D1*
X1228980Y308269D1*
X1251591Y308225D2*
X1245843Y306324D1*
X1241997Y300576D1*
X1240095Y291025D1*
Y285277D1*
X1241997Y275727D1*
X1245843Y269979D1*
X1251591Y268077D1*
X1255394D1*
X1261142Y269979D1*
X1264944Y275727D1*
X1266890Y285277D1*
Y291025D1*
X1264944Y300576D1*
X1261142Y306324D1*
X1255394Y308225D1*
X1251591D1*
X1264944Y300576D2*
X1241997Y275727D1*
X-1254721Y-844231D2*
Y-872926D1*
X-1252820Y-878674D1*
X-1248973Y-882477D1*
X-1243225Y-884423D1*
X-1239423D1*
X-1233674Y-882477D1*
X-1229828Y-878674D1*
X-1227926Y-872926D1*
Y-844231D1*
X-1190016Y-849979D2*
X-1193819Y-846132D1*
X-1199567Y-844231D1*
X-1207216D1*
X-1212964Y-846132D1*
X-1216811Y-849979D1*
Y-853781D1*
X-1214865Y-857628D1*
X-1212964Y-859529D1*
X-1209162Y-861430D1*
X-1197666Y-865277D1*
X-1193819Y-867178D1*
X-1191918Y-869124D1*
X-1190016Y-872926D1*
Y-878674D1*
X-1193819Y-882477D1*
X-1199567Y-884423D1*
X-1207216D1*
X-1212964Y-882477D1*
X-1216811Y-878674D1*
X-1178901Y-863376D2*
X-1161701D1*
X-1155953Y-861430D1*
X-1154007Y-859529D1*
X-1152106Y-855727D1*
Y-851880D1*
X-1154007Y-848077D1*
X-1155953Y-846132D1*
X-1161701Y-844231D1*
X-1178901D1*
Y-884423D1*
X-1165503Y-863376D2*
X-1152106Y-884423D1*
X-1129495Y-844275D2*
X-1135243Y-846176D1*
X-1139089Y-851924D1*
X-1140991Y-861475D1*
Y-867223D1*
X-1139089Y-876773D1*
X-1135243Y-882521D1*
X-1129495Y-884423D1*
X-1125692D1*
X-1119944Y-882521D1*
X-1116141Y-876773D1*
X-1114196Y-867223D1*
Y-861475D1*
X-1116141Y-851924D1*
X-1119944Y-846176D1*
X-1125692Y-844275D1*
X-1129495D1*
X-1116141Y-851924D2*
X-1139089Y-876773D1*
X1145279Y-1024231D2*
Y-1052926D1*
X1147180Y-1058674D1*
X1151027Y-1062477D1*
X1156775Y-1064423D1*
X1160577D1*
X1166326Y-1062477D1*
X1170172Y-1058674D1*
X1172074Y-1052926D1*
Y-1024231D1*
X1209984Y-1029979D2*
X1206181Y-1026132D1*
X1200433Y-1024231D1*
X1192784D1*
X1187036Y-1026132D1*
X1183189Y-1029979D1*
Y-1033781D1*
X1185135Y-1037628D1*
X1187036Y-1039529D1*
X1190838Y-1041430D1*
X1202334Y-1045277D1*
X1206181Y-1047178D1*
X1208082Y-1049124D1*
X1209984Y-1052926D1*
Y-1058674D1*
X1206181Y-1062477D1*
X1200433Y-1064423D1*
X1192784D1*
X1187036Y-1062477D1*
X1183189Y-1058674D1*
X1221099Y-1043376D2*
X1238299D1*
X1244047Y-1041430D1*
X1245993Y-1039529D1*
X1247894Y-1035727D1*
Y-1031880D1*
X1245993Y-1028077D1*
X1244047Y-1026132D1*
X1238299Y-1024231D1*
X1221099D1*
Y-1064423D1*
X1234497Y-1043376D2*
X1247894Y-1064423D1*
X1259009Y-1031924D2*
X1262856Y-1029979D1*
X1268604Y-1024275D1*
Y-1064423D1*
X644275Y-1024231D2*
X640428Y-1026132D1*
X636626Y-1029979D1*
X634680Y-1033781D1*
X632779Y-1039529D1*
Y-1049124D1*
X634680Y-1054828D1*
X636626Y-1058674D1*
X640428Y-1062477D1*
X644275Y-1064423D1*
X651924D1*
X655727Y-1062477D1*
X659574Y-1058674D1*
X661475Y-1054828D1*
X663376Y-1049124D1*
Y-1039529D1*
X661475Y-1033781D1*
X659574Y-1029979D1*
X655727Y-1026132D1*
X651924Y-1024231D1*
X644275D1*
X699385D2*
X674492D1*
Y-1064423D1*
Y-1043376D2*
X689790D1*
X710500Y-1024231D2*
Y-1064423D1*
X733448D1*
X756060Y-1024231D2*
X752213Y-1026132D1*
X748411Y-1029979D1*
X746465Y-1033781D1*
X744564Y-1039529D1*
Y-1049124D1*
X746465Y-1054828D1*
X748411Y-1058674D1*
X752213Y-1062477D1*
X756060Y-1064423D1*
X763709D1*
X767512Y-1062477D1*
X771359Y-1058674D1*
X773260Y-1054828D1*
X775161Y-1049124D1*
Y-1039529D1*
X773260Y-1033781D1*
X771359Y-1029979D1*
X767512Y-1026132D1*
X763709Y-1024231D1*
X756060D1*
X-1044886Y190117D2*
D91*
X-1041039Y193920D1*
X-1039138Y199668D1*
Y207317D1*
X-1041039Y213065D1*
X-1044886Y216912D1*
X-1048689D1*
X-1052535Y214967D1*
X-1054437Y213065D1*
X-1056338Y209263D1*
X-1060185Y197767D1*
X-1062086Y193920D1*
X-1064032Y192019D1*
X-1067834Y190117D1*
X-1073582D1*
X-1077385Y193920D1*
X-1079330Y199668D1*
Y207317D1*
X-1077385Y213065D1*
X-1073582Y216912D1*
X-1064032Y177766D2*
Y154818D1*
X-1060185D1*
X-1056338Y156719D1*
X-1054437Y158621D1*
X-1052535Y162467D1*
Y168216D1*
X-1054437Y172018D1*
X-1058283Y175865D1*
X-1064032Y177766D1*
X-1067834D1*
X-1073582Y175865D1*
X-1077385Y172018D1*
X-1079330Y168216D1*
Y162467D1*
X-1077385Y158621D1*
X-1073582Y154818D1*
X-1064032Y142467D2*
Y119519D1*
X-1060185D1*
X-1056338Y121420D1*
X-1054437Y123321D1*
X-1052535Y127168D1*
Y132916D1*
X-1054437Y136719D1*
X-1058283Y140566D1*
X-1064032Y142467D1*
X-1067834D1*
X-1073582Y140566D1*
X-1077385Y136719D1*
X-1079330Y132916D1*
Y127168D1*
X-1077385Y123321D1*
X-1073582Y119519D1*
X-1058283Y47240D2*
X-1054437Y49141D1*
X-1052535Y54889D1*
Y60637D1*
X-1054437Y66385D1*
X-1058283Y68287D1*
X-1062086Y66385D1*
X-1064032Y62539D1*
X-1065933Y52988D1*
X-1067834Y49141D1*
X-1071681Y47240D1*
X-1073582D1*
X-1077385Y49141D1*
X-1079330Y54889D1*
Y60637D1*
X-1077385Y66385D1*
X-1073582Y68287D1*
X-1058283Y11897D2*
X-1054437Y15743D1*
X-1052535Y19590D1*
Y25294D1*
X-1054437Y29141D1*
X-1058283Y32943D1*
X-1064032Y34889D1*
X-1067834D1*
X-1073582Y32943D1*
X-1077385Y29141D1*
X-1079330Y25294D1*
Y19590D1*
X-1077385Y15743D1*
X-1073582Y11897D1*
X-1039138Y-455D2*
X-1079330D1*
X-1060185D2*
X-1054437Y-6203D1*
X-1052535Y-10050D1*
Y-15798D1*
X-1054437Y-19600D1*
X-1060185Y-21502D1*
X-1079330D1*
X-1064032Y-33853D2*
Y-56801D1*
X-1060185D1*
X-1056338Y-54900D1*
X-1054437Y-52998D1*
X-1052535Y-49152D1*
Y-43403D1*
X-1054437Y-39601D1*
X-1058283Y-35754D1*
X-1064032Y-33853D1*
X-1067834D1*
X-1073582Y-35754D1*
X-1077385Y-39601D1*
X-1079330Y-43403D1*
Y-49152D1*
X-1077385Y-52998D1*
X-1073582Y-56801D1*
X-1052535Y-69152D2*
X-1079330D1*
X-1060185D2*
X-1054437Y-74900D1*
X-1052535Y-78747D1*
Y-84451D1*
X-1054437Y-88298D1*
X-1060185Y-90199D1*
X-1079330D1*
X-1060185D2*
X-1054437Y-95947D1*
X-1052535Y-99794D1*
Y-105497D1*
X-1054437Y-109344D1*
X-1060185Y-111290D1*
X-1079330D1*
X-1052535Y-146589D2*
X-1079330D1*
X-1058283D2*
X-1054437Y-142786D1*
X-1052535Y-138940D1*
Y-133236D1*
X-1054437Y-129389D1*
X-1058283Y-125587D1*
X-1064032Y-123641D1*
X-1067834D1*
X-1073582Y-125587D1*
X-1077385Y-129389D1*
X-1079330Y-133236D1*
Y-138940D1*
X-1077385Y-142786D1*
X-1073582Y-146589D1*
X-1039138Y-164688D2*
X-1071681D1*
X-1077385Y-166590D1*
X-1079330Y-170436D1*
Y-174239D1*
X-1052535Y-158940D2*
Y-172338D1*
X-1039138Y-186590D2*
X-1041039Y-188492D1*
X-1039138Y-190437D1*
X-1037193Y-188492D1*
X-1039138Y-186590D1*
X-1052535Y-188492D2*
X-1079330D1*
X-1058283Y-225781D2*
X-1054437Y-221934D1*
X-1052535Y-218087D1*
Y-212383D1*
X-1054437Y-208537D1*
X-1058283Y-204734D1*
X-1064032Y-202789D1*
X-1067834D1*
X-1073582Y-204734D1*
X-1077385Y-208537D1*
X-1079330Y-212383D1*
Y-218087D1*
X-1077385Y-221934D1*
X-1073582Y-225781D1*
X-1052535Y-277013D2*
X-1079330D1*
X-1060185D2*
X-1054437Y-282761D1*
X-1052535Y-286608D1*
Y-292311D1*
X-1054437Y-296158D1*
X-1060185Y-298060D1*
X-1079330D1*
X-1052535Y-319961D2*
X-1054437Y-316159D1*
X-1058283Y-312312D1*
X-1064032Y-310411D1*
X-1067834D1*
X-1073582Y-312312D1*
X-1077385Y-316159D1*
X-1079330Y-319961D1*
Y-325710D1*
X-1077385Y-329556D1*
X-1073582Y-333359D1*
X-1067834Y-335304D1*
X-1064032D1*
X-1058283Y-333359D1*
X-1054437Y-329556D1*
X-1052535Y-325710D1*
Y-319961D1*
X-1039138Y-353404D2*
X-1071681D1*
X-1077385Y-355305D1*
X-1079330Y-359152D1*
Y-362954D1*
X-1052535Y-347656D2*
Y-361053D1*
X-1064032Y-375306D2*
Y-398254D1*
X-1060185D1*
X-1056338Y-396352D1*
X-1054437Y-394451D1*
X-1052535Y-390604D1*
Y-384856D1*
X-1054437Y-381054D1*
X-1058283Y-377207D1*
X-1064032Y-375306D1*
X-1067834D1*
X-1073582Y-377207D1*
X-1077385Y-381054D1*
X-1079330Y-384856D1*
Y-390604D1*
X-1077385Y-394451D1*
X-1073582Y-398254D1*
X-772375Y-848826D2*
D92*
X-797224D1*
Y-889018D1*
X-772375D1*
X-797224Y-867971D2*
X-781926D1*
X-734478Y-848826D2*
Y-889018D1*
X-761273Y-848826D1*
Y-889018D1*
X-692734D2*
X-708077Y-848826D1*
X-723376Y-889018D1*
X-717628Y-875621D2*
X-698482D1*
X-681632Y-848826D2*
Y-889018D1*
X-664388D1*
X-658640Y-887072D1*
X-656739Y-885171D1*
X-654837Y-881369D1*
Y-875621D1*
X-656739Y-871774D1*
X-658640Y-869873D1*
X-664388Y-867971D1*
X-658640Y-866026D1*
X-656739Y-864124D1*
X-654837Y-860322D1*
Y-856475D1*
X-656739Y-852673D1*
X-658640Y-850727D1*
X-664388Y-848826D1*
X-681632D1*
Y-867971D2*
X-664388D1*
X-643735Y-848826D2*
Y-889018D1*
X-620787D1*
X-584836Y-848826D2*
X-609685D1*
Y-889018D1*
X-584836D1*
X-609685Y-867971D2*
X-594386D1*
X689509Y-518903D2*
D93*
X686657Y-516018D1*
X682346Y-514592D1*
X676609D1*
X672298Y-516018D1*
X669413Y-518903D1*
Y-521755D1*
X670872Y-524640D1*
X672298Y-526066D1*
X675150Y-527492D1*
X683772Y-530377D1*
X686657Y-531803D1*
X688083Y-533262D1*
X689509Y-536114D1*
Y-540425D1*
X686657Y-543277D1*
X682346Y-544736D1*
X676609D1*
X672298Y-543277D1*
X669413Y-540425D1*
X713841Y-524640D2*
Y-544736D1*
Y-528951D2*
X710989Y-526066D1*
X708104Y-524640D1*
X703826D1*
X700941Y-526066D1*
X698089Y-528951D1*
X696630Y-533262D1*
Y-536114D1*
X698089Y-540425D1*
X700941Y-543277D1*
X703826Y-544736D1*
X708104D1*
X710989Y-543277D1*
X713841Y-540425D1*
X720962Y-524640D2*
Y-544736D1*
Y-530377D2*
X725273Y-526066D1*
X728158Y-524640D1*
X732436D1*
X735321Y-526066D1*
X736747Y-530377D1*
Y-544736D1*
X761078Y-514592D2*
Y-544736D1*
Y-528951D2*
X758226Y-526066D1*
X755341Y-524640D1*
X751030D1*
X748178Y-526066D1*
X745293Y-528951D1*
X743867Y-533262D1*
Y-536114D1*
X745293Y-540425D1*
X748178Y-543277D1*
X751030Y-544736D1*
X755341D1*
X758226Y-543277D1*
X761078Y-540425D1*
X768199Y-514592D2*
Y-544736D1*
Y-528951D2*
X771084Y-526066D1*
X773936Y-524640D1*
X778247D1*
X781099Y-526066D1*
X783984Y-528951D1*
X785410Y-533262D1*
Y-536114D1*
X783984Y-540425D1*
X781099Y-543277D1*
X778247Y-544736D1*
X773936D1*
X771084Y-543277D1*
X768199Y-540425D1*
X799694Y-524640D2*
X796842Y-526066D1*
X793957Y-528951D1*
X792531Y-533262D1*
Y-536114D1*
X793957Y-540425D1*
X796842Y-543277D1*
X799694Y-544736D1*
X804005D1*
X806890Y-543277D1*
X809742Y-540425D1*
X811201Y-536114D1*
Y-533262D1*
X809742Y-528951D1*
X806890Y-526066D1*
X804005Y-524640D1*
X799694D1*
X818322D2*
X834107Y-544736D1*
Y-524640D2*
X818322Y-544736D1*
X886915Y-514592D2*
X868245D1*
Y-544736D1*
Y-528951D2*
X879719D1*
X894036Y-514592D2*
X914132Y-544736D1*
Y-514592D2*
X894036Y-544736D1*
X942774Y-521755D2*
X941349Y-518903D1*
X938463Y-516018D1*
X935612Y-514592D1*
X929875D1*
X926990Y-516018D1*
X924138Y-518903D1*
X922678Y-521755D1*
X921253Y-526066D1*
Y-533262D1*
X922678Y-537540D1*
X924138Y-540425D1*
X926990Y-543277D1*
X929875Y-544736D1*
X935612D1*
X938463Y-543277D1*
X941349Y-540425D1*
X942774Y-537540D1*
X957058Y-524640D2*
X954206Y-526066D1*
X951321Y-528951D1*
X949895Y-533262D1*
Y-536114D1*
X951321Y-540425D1*
X954206Y-543277D1*
X957058Y-544736D1*
X961369D1*
X964254Y-543277D1*
X967106Y-540425D1*
X968565Y-536114D1*
Y-533262D1*
X967106Y-528951D1*
X964254Y-526066D1*
X961369Y-524640D1*
X957058D1*
X975686D2*
Y-544736D1*
Y-533262D2*
X977145Y-528951D1*
X979997Y-526066D1*
X982882Y-524640D1*
X987193D1*
X994314Y-533262D2*
X1011525D1*
Y-530377D1*
X1010099Y-527492D1*
X1008673Y-526066D1*
X1005788Y-524640D1*
X1001477D1*
X998625Y-526066D1*
X995740Y-528951D1*
X994314Y-533262D1*
Y-536114D1*
X995740Y-540425D1*
X998625Y-543277D1*
X1001477Y-544736D1*
X1005788D1*
X1008673Y-543277D1*
X1011525Y-540425D1*
X1045663Y-529680D2*
X1062244D1*
X1096383Y-530377D2*
X1109316D1*
X1113594Y-528951D1*
X1115053Y-527492D1*
X1116479Y-524640D1*
Y-520329D1*
X1115053Y-517477D1*
X1113594Y-516018D1*
X1109316Y-514592D1*
X1096383D1*
Y-544736D1*
X1140810Y-524640D2*
Y-544736D1*
Y-528951D2*
X1137958Y-526066D1*
X1135073Y-524640D1*
X1130795D1*
X1127910Y-526066D1*
X1125058Y-528951D1*
X1123599Y-533262D1*
Y-536114D1*
X1125058Y-540425D1*
X1127910Y-543277D1*
X1130795Y-544736D1*
X1135073D1*
X1137958Y-543277D1*
X1140810Y-540425D1*
X1147931Y-524640D2*
Y-544736D1*
Y-530377D2*
X1152242Y-526066D1*
X1155127Y-524640D1*
X1159405D1*
X1162290Y-526066D1*
X1163716Y-530377D1*
Y-544736D1*
X1170837Y-533262D2*
X1188048D1*
Y-530377D1*
X1186622Y-527492D1*
X1185196Y-526066D1*
X1182311Y-524640D1*
X1178000D1*
X1175148Y-526066D1*
X1172263Y-528951D1*
X1170837Y-533262D1*
Y-536114D1*
X1172263Y-540425D1*
X1175148Y-543277D1*
X1178000Y-544736D1*
X1182311D1*
X1185196Y-543277D1*
X1188048Y-540425D1*
X1195168Y-514592D2*
Y-544736D1*
X1229307Y-514592D2*
X1240781Y-544736D1*
X1252255Y-514592D1*
X1259376Y-520362D2*
X1262261Y-518903D1*
X1266572Y-514625D1*
Y-544736D1*
X1275118Y-541851D2*
X1273692Y-543310D1*
X1275118Y-544736D1*
X1276577Y-543310D1*
X1275118Y-541851D1*
X1292320Y-514625D2*
X1288009Y-516051D1*
X1285124Y-520362D1*
X1283698Y-527525D1*
Y-531836D1*
X1285124Y-538999D1*
X1288009Y-543310D1*
X1292320Y-544736D1*
X1295172D1*
X1299483Y-543310D1*
X1302335Y-538999D1*
X1303794Y-531836D1*
Y-527525D1*
X1302335Y-520362D1*
X1299483Y-516051D1*
X1295172Y-514625D1*
X1292320D1*
X1302335Y-520362D2*
X1285124Y-538999D1*
X1355144Y-514625D2*
X1340818D1*
X1339392Y-527525D1*
X1340818Y-526099D1*
X1345129Y-524640D1*
X1349407D1*
X1353718Y-526099D1*
X1356603Y-528951D1*
X1358029Y-533262D1*
Y-536114D1*
X1356603Y-540425D1*
X1353718Y-543310D1*
X1349407Y-544736D1*
X1345129D1*
X1340818Y-543310D1*
X1339392Y-541851D1*
X1337933Y-538999D1*
X1365149Y-544736D2*
X1385245Y-514625D1*
X1393825Y-521788D2*
Y-520362D1*
X1395251Y-517477D1*
X1396677Y-516051D1*
X1399562Y-514625D1*
X1405299D1*
X1408151Y-516051D1*
X1409577Y-517477D1*
X1411036Y-520362D1*
Y-523214D1*
X1409577Y-526099D1*
X1406725Y-530377D1*
X1392366Y-544736D1*
X1412462D1*
X1436794Y-518903D2*
X1435368Y-516051D1*
X1431057Y-514625D1*
X1428205D1*
X1423894Y-516051D1*
X1421009Y-520362D1*
X1419583Y-527525D1*
Y-534688D1*
X1421009Y-540425D1*
X1423894Y-543310D1*
X1428205Y-544736D1*
X1429631D1*
X1433909Y-543310D1*
X1436794Y-540425D1*
X1438220Y-536114D1*
Y-534688D1*
X1436794Y-530377D1*
X1433909Y-527525D1*
X1429631Y-526099D1*
X1428205D1*
X1423894Y-527525D1*
X1421009Y-530377D1*
X1419583Y-534688D1*
X680887Y-556602D2*
X678035D1*
X675150Y-558028D1*
X673724Y-562339D1*
Y-586746D1*
X669413Y-566650D2*
X679461D1*
X688008D2*
X703793Y-586746D1*
Y-566650D2*
X688008Y-586746D1*
X728158Y-570961D2*
X725273Y-568076D1*
X722388Y-566650D1*
X718110D1*
X715225Y-568076D1*
X712373Y-570961D1*
X710914Y-575272D1*
Y-578124D1*
X712373Y-582435D1*
X715225Y-585287D1*
X718110Y-586746D1*
X722388D1*
X725273Y-585287D1*
X728158Y-582435D1*
X742441Y-566650D2*
X739590Y-568076D1*
X736704Y-570961D1*
X735279Y-575272D1*
Y-578124D1*
X736704Y-582435D1*
X739590Y-585287D1*
X742441Y-586746D1*
X746752D1*
X749638Y-585287D1*
X752489Y-582435D1*
X753949Y-578124D1*
Y-575272D1*
X752489Y-570961D1*
X749638Y-568076D1*
X746752Y-566650D1*
X742441D1*
X761069D2*
Y-586746D1*
Y-575272D2*
X762528Y-570961D1*
X765380Y-568076D1*
X768265Y-566650D1*
X772576D1*
X779697Y-575272D2*
X796908D1*
Y-572387D1*
X795482Y-569502D1*
X794056Y-568076D1*
X791171Y-566650D1*
X786860D1*
X784008Y-568076D1*
X781123Y-570961D1*
X779697Y-575272D1*
Y-578124D1*
X781123Y-582435D1*
X784008Y-585287D1*
X786860Y-586746D1*
X791171D1*
X794056Y-585287D1*
X796908Y-582435D1*
X805455Y-583861D2*
X804029Y-585320D1*
X805455Y-586746D1*
X806914Y-585320D1*
X805455Y-583861D1*
X829820Y-570961D2*
X828394Y-568076D1*
X824083Y-566650D1*
X819772D1*
X815461Y-568076D1*
X814035Y-570961D1*
X815461Y-573813D1*
X818346Y-575272D1*
X825509Y-576698D1*
X828394Y-578124D1*
X829820Y-581009D1*
Y-582435D1*
X828394Y-585287D1*
X824083Y-586746D1*
X819772D1*
X815461Y-585287D1*
X814035Y-582435D1*
X854151Y-566650D2*
Y-586746D1*
Y-570961D2*
X851299Y-568076D1*
X848414Y-566650D1*
X844136D1*
X841251Y-568076D1*
X838399Y-570961D1*
X836940Y-575272D1*
Y-578124D1*
X838399Y-582435D1*
X841251Y-585287D1*
X844136Y-586746D1*
X848414D1*
X851299Y-585287D1*
X854151Y-582435D1*
X861272Y-566650D2*
Y-586746D1*
Y-572387D2*
X865583Y-568076D1*
X868468Y-566650D1*
X872746D1*
X875631Y-568076D1*
X877057Y-572387D1*
Y-586746D1*
X901389Y-556602D2*
Y-586746D1*
Y-570961D2*
X898537Y-568076D1*
X895652Y-566650D1*
X891341D1*
X888489Y-568076D1*
X885604Y-570961D1*
X884178Y-575272D1*
Y-578124D1*
X885604Y-582435D1*
X888489Y-585287D1*
X891341Y-586746D1*
X895652D1*
X898537Y-585287D1*
X901389Y-582435D1*
X908509Y-556602D2*
Y-586746D1*
Y-570961D2*
X911394Y-568076D1*
X914246Y-566650D1*
X918557D1*
X921409Y-568076D1*
X924294Y-570961D1*
X925720Y-575272D1*
Y-578124D1*
X924294Y-582435D1*
X921409Y-585287D1*
X918557Y-586746D1*
X914246D1*
X911394Y-585287D1*
X908509Y-582435D1*
X940004Y-566650D2*
X937152Y-568076D1*
X934267Y-570961D1*
X932841Y-575272D1*
Y-578124D1*
X934267Y-582435D1*
X937152Y-585287D1*
X940004Y-586746D1*
X944315D1*
X947200Y-585287D1*
X950052Y-582435D1*
X951511Y-578124D1*
Y-575272D1*
X950052Y-570961D1*
X947200Y-568076D1*
X944315Y-566650D1*
X940004D1*
X958632D2*
X974417Y-586746D1*
Y-566650D2*
X958632Y-586746D1*
X981538Y-566650D2*
Y-596794D1*
Y-570961D2*
X984423Y-568109D1*
X987275Y-566650D1*
X991586D1*
X994471Y-568109D1*
X997323Y-570961D1*
X998782Y-575272D1*
Y-578157D1*
X997323Y-582435D1*
X994471Y-585320D1*
X991586Y-586746D1*
X987275D1*
X984423Y-585320D1*
X981538Y-582435D1*
X1005902Y-575272D2*
X1023113D1*
Y-572387D1*
X1021687Y-569502D1*
X1020261Y-568076D1*
X1017376Y-566650D1*
X1013065D1*
X1010213Y-568076D1*
X1007328Y-570961D1*
X1005902Y-575272D1*
Y-578124D1*
X1007328Y-582435D1*
X1010213Y-585287D1*
X1013065Y-586746D1*
X1017376D1*
X1020261Y-585287D1*
X1023113Y-582435D1*
X1047445Y-556602D2*
Y-586746D1*
Y-570961D2*
X1044593Y-568076D1*
X1041708Y-566650D1*
X1037397D1*
X1034545Y-568076D1*
X1031660Y-570961D1*
X1030234Y-575272D1*
Y-578124D1*
X1031660Y-582435D1*
X1034545Y-585287D1*
X1037397Y-586746D1*
X1041708D1*
X1044593Y-585287D1*
X1047445Y-582435D1*
X1071777Y-566650D2*
Y-586746D1*
Y-570961D2*
X1068925Y-568076D1*
X1066040Y-566650D1*
X1061762D1*
X1058877Y-568076D1*
X1056025Y-570961D1*
X1054566Y-575272D1*
Y-578124D1*
X1056025Y-582435D1*
X1058877Y-585287D1*
X1061762Y-586746D1*
X1066040D1*
X1068925Y-585287D1*
X1071777Y-582435D1*
X1078897Y-556602D2*
Y-586746D1*
X1087444Y-583861D2*
X1086018Y-585320D1*
X1087444Y-586746D1*
X1088903Y-585320D1*
X1087444Y-583861D1*
X1113268Y-570961D2*
X1110383Y-568076D1*
X1107498Y-566650D1*
X1103220D1*
X1100335Y-568076D1*
X1097483Y-570961D1*
X1096024Y-575272D1*
Y-578124D1*
X1097483Y-582435D1*
X1100335Y-585287D1*
X1103220Y-586746D1*
X1107498D1*
X1110383Y-585287D1*
X1113268Y-582435D1*
X1127552Y-566650D2*
X1124700Y-568076D1*
X1121815Y-570961D1*
X1120389Y-575272D1*
Y-578124D1*
X1121815Y-582435D1*
X1124700Y-585287D1*
X1127552Y-586746D1*
X1131863D1*
X1134748Y-585287D1*
X1137600Y-582435D1*
X1139059Y-578124D1*
Y-575272D1*
X1137600Y-570961D1*
X1134748Y-568076D1*
X1131863Y-566650D1*
X1127552D1*
X1146180D2*
Y-586746D1*
Y-572387D2*
X1150491Y-568076D1*
X1153376Y-566650D1*
X1157653D1*
X1160539Y-568076D1*
X1161965Y-572387D1*
Y-586746D1*
Y-572387D2*
X1166276Y-568076D1*
X1169161Y-566650D1*
X1173438D1*
X1176324Y-568076D1*
X1177783Y-572387D1*
Y-586746D1*
X-1148313Y1364396D2*
D89*
X-1149263Y1366297D1*
X-1151187Y1368220D1*
X-1153088Y1369171D1*
X-1156913D1*
X-1158836Y1368220D1*
X-1160737Y1366297D1*
X-1161710Y1364396D1*
X-1162661Y1361522D1*
Y1356724D1*
X-1161710Y1353873D1*
X-1160737Y1351949D1*
X-1158836Y1350048D1*
X-1156913Y1349075D1*
X-1153088D1*
X-1151187Y1350048D1*
X-1149263Y1351949D1*
X-1148313Y1353873D1*
X-1142137Y1365324D2*
X-1140213Y1366297D1*
X-1137339Y1369149D1*
Y1349075D1*
X-352613Y1364396D2*
X-353563Y1366297D1*
X-355487Y1368220D1*
X-357388Y1369171D1*
X-361212D1*
X-363136Y1368220D1*
X-365037Y1366297D1*
X-366010Y1364396D1*
X-366961Y1361522D1*
Y1356724D1*
X-366010Y1353873D1*
X-365037Y1351949D1*
X-363136Y1350048D1*
X-361212Y1349075D1*
X-357388D1*
X-355487Y1350048D1*
X-353563Y1351949D1*
X-352613Y1353873D1*
X-345464Y1364374D2*
Y1365324D1*
X-344513Y1367248D1*
X-343563Y1368198D1*
X-341639Y1369149D1*
X-337815D1*
X-335914Y1368198D1*
X-334963Y1367248D1*
X-333990Y1365324D1*
Y1363423D1*
X-334963Y1361500D1*
X-336864Y1358648D1*
X-346437Y1349075D1*
X-333039D1*
X447387Y1365085D2*
X446437Y1366986D1*
X444513Y1368909D1*
X442612Y1369860D1*
X438788D1*
X436864Y1368909D1*
X434963Y1366986D1*
X433990Y1365085D1*
X433039Y1362211D1*
Y1357413D1*
X433990Y1354561D1*
X434963Y1352638D1*
X436864Y1350737D1*
X438788Y1349764D1*
X442612D1*
X444513Y1350737D1*
X446437Y1352638D1*
X447387Y1354561D1*
X455487Y1369838D2*
X465988D1*
X460262Y1362189D1*
X463136D1*
X465037Y1361238D1*
X465988Y1360287D1*
X466961Y1357413D1*
Y1355512D1*
X465988Y1352638D1*
X464086Y1350715D1*
X461212Y1349764D1*
X458338D1*
X455487Y1350715D1*
X454536Y1351687D1*
X453563Y1353589D1*
X1246912Y1365085D2*
X1245962Y1366986D1*
X1244038Y1368909D1*
X1242137Y1369860D1*
X1238312D1*
X1236389Y1368909D1*
X1234488Y1366986D1*
X1233515Y1365085D1*
X1232564Y1362211D1*
Y1357413D1*
X1233515Y1354561D1*
X1234488Y1352638D1*
X1236389Y1350737D1*
X1238312Y1349764D1*
X1242137D1*
X1244038Y1350737D1*
X1245962Y1352638D1*
X1246912Y1354561D1*
X1262661Y1349764D2*
Y1369838D1*
X1253088Y1356463D1*
X1267436D1*
X447387Y505085D2*
X446437Y506986D1*
X444513Y508909D1*
X442612Y509860D1*
X438788D1*
X436864Y508909D1*
X434963Y506986D1*
X433990Y505085D1*
X433039Y502211D1*
Y497413D1*
X433990Y494561D1*
X434963Y492638D1*
X436864Y490737D1*
X438788Y489764D1*
X442612D1*
X444513Y490737D1*
X446437Y492638D1*
X447387Y494561D1*
X465037Y509838D2*
X455487D1*
X454536Y501238D1*
X455487Y502189D1*
X458361Y503161D1*
X461212D1*
X464086Y502189D1*
X466010Y500287D1*
X466961Y497413D1*
Y495512D1*
X466010Y492638D1*
X464086Y490715D1*
X461212Y489764D1*
X458361D1*
X455487Y490715D1*
X454536Y491687D1*
X453563Y493589D1*
X1247874Y505085D2*
X1246923Y506986D1*
X1245000Y508909D1*
X1243099Y509860D1*
X1239274D1*
X1237351Y508909D1*
X1235449Y506986D1*
X1234477Y505085D1*
X1233526Y502211D1*
Y497413D1*
X1234477Y494561D1*
X1235449Y492638D1*
X1237351Y490737D1*
X1239274Y489764D1*
X1243099D1*
X1245000Y490737D1*
X1246923Y492638D1*
X1247874Y494561D1*
X1265523Y506986D2*
X1264573Y508887D1*
X1261699Y509838D1*
X1259798D1*
X1256924Y508887D1*
X1255000Y506013D1*
X1254050Y501238D1*
Y496463D1*
X1255000Y492638D1*
X1256924Y490715D1*
X1259798Y489764D1*
X1260748D1*
X1263600Y490715D1*
X1265523Y492638D1*
X1266474Y495512D1*
Y496463D1*
X1265523Y499337D1*
X1263600Y501238D1*
X1260748Y502189D1*
X1259798D1*
X1256924Y501238D1*
X1255000Y499337D1*
X1254050Y496463D1*
X-872137Y-994225D2*
X-873088Y-992324D1*
X-875011Y-990400D1*
X-876912Y-989450D1*
X-880737D1*
X-882660Y-990401D1*
X-884562Y-992324D1*
X-885534Y-994225D1*
X-886485Y-997099D1*
Y-1001897D1*
X-885534Y-1004749D1*
X-884561Y-1006672D1*
X-882660Y-1008573D1*
X-880737Y-1009546D1*
X-876912D1*
X-875011Y-1008573D1*
X-873087Y-1006672D1*
X-872137Y-1004748D1*
X-853514Y-996148D2*
X-854487Y-999022D1*
X-856388Y-1000945D1*
X-859262Y-1001896D1*
X-860213D1*
X-863087Y-1000946D1*
X-864988Y-999022D1*
X-865961Y-996148D1*
Y-995198D1*
X-864989Y-992324D1*
X-863087Y-990422D1*
X-860213Y-989472D1*
X-859263Y-989471D1*
X-856389Y-990422D1*
X-854487Y-992323D1*
X-853514Y-996148D1*
Y-1000945D1*
X-854487Y-1005721D1*
X-856388Y-1008595D1*
X-859262Y-1009545D1*
X-861163D1*
X-864038Y-1008595D1*
X-864988Y-1006672D1*
X-585774Y-1118099D2*
X-587675Y-1119050D1*
X-589598Y-1120973D1*
X-590549Y-1122874D1*
Y-1126699D1*
X-589598Y-1128622D1*
X-587675Y-1130524D1*
X-585774Y-1131496D1*
X-582900Y-1132447D1*
X-578102D1*
X-575250Y-1131496D1*
X-573327Y-1130524D1*
X-571426Y-1128622D1*
X-570453Y-1126699D1*
Y-1122874D1*
X-571426Y-1120973D1*
X-573327Y-1119050D1*
X-575250Y-1118099D1*
X-586702Y-1111923D2*
X-587675Y-1110000D1*
X-590527Y-1107126D1*
X-570453D1*
X-590527Y-1095202D2*
X-589576Y-1098076D1*
X-586702Y-1100000D1*
X-581927Y-1100950D1*
X-579053D1*
X-574278Y-1100000D1*
X-571404Y-1098076D1*
X-570453Y-1095202D1*
Y-1093301D1*
X-571404Y-1090427D1*
X-574278Y-1088526D1*
X-579053Y-1087553D1*
X-581927D1*
X-586702Y-1088526D1*
X-589576Y-1090427D1*
X-590527Y-1093301D1*
Y-1095202D1*
X-586702Y-1088526D2*
X-574278Y-1100000D1*
X-393799Y-1030368D2*
X-394750Y-1028467D1*
X-396673Y-1026543D1*
X-398574Y-1025593D1*
X-402399D1*
X-404322Y-1026543D1*
X-406224Y-1028467D1*
X-407196Y-1030368D1*
X-408147Y-1033242D1*
Y-1038039D1*
X-407196Y-1040891D1*
X-406224Y-1042815D1*
X-404322Y-1044716D1*
X-402399Y-1045689D1*
X-398574D1*
X-396673Y-1044716D1*
X-394750Y-1042815D1*
X-393799Y-1040891D1*
X-387623Y-1029439D2*
X-385700Y-1028467D1*
X-382826Y-1025615D1*
Y-1045689D1*
X-376650Y-1029439D2*
X-374727Y-1028467D1*
X-371853Y-1025615D1*
Y-1045689D1*
X311901Y-1064246D2*
X310950Y-1062345D1*
X309027Y-1060421D1*
X307126Y-1059471D1*
X303301D1*
X301378Y-1060421D1*
X299476Y-1062345D1*
X298504Y-1064246D1*
X297553Y-1067120D1*
Y-1071917D1*
X298504Y-1074769D1*
X299476Y-1076693D1*
X301378Y-1078594D1*
X303301Y-1079567D1*
X307126D1*
X309027Y-1078594D1*
X310950Y-1076693D1*
X311901Y-1074769D1*
X331474Y-1059471D2*
Y-1079567D1*
X318077Y-1059471D1*
Y-1079567D1*
X337650Y-1063317D2*
X339573Y-1062345D1*
X342447Y-1059493D1*
Y-1079567D1*
X-1467589Y1319860D2*
Y1299764D1*
X-1460891D1*
X-1458017Y1300737D1*
X-1456093Y1302638D1*
X-1455143Y1304561D1*
X-1454192Y1307413D1*
Y1312211D1*
X-1455143Y1315085D1*
X-1456093Y1316986D1*
X-1458017Y1318909D1*
X-1460891Y1319860D1*
X-1467589D1*
X-1448016Y1316013D2*
X-1446093Y1316986D1*
X-1443219Y1319838D1*
Y1299764D1*
X-1017590Y1319860D2*
Y1299764D1*
X-1010892D1*
X-1008017Y1300737D1*
X-1006094Y1302638D1*
X-1005143Y1304561D1*
X-1004193Y1307413D1*
Y1312211D1*
X-1005143Y1315085D1*
X-1006094Y1316986D1*
X-1008017Y1318909D1*
X-1010892Y1319860D1*
X-1017590D1*
X-997044Y1315063D2*
Y1316013D1*
X-996094Y1317937D1*
X-995143Y1318887D1*
X-993220Y1319838D1*
X-989395D1*
X-987494Y1318887D1*
X-986543Y1317937D1*
X-985570Y1316013D1*
Y1314112D1*
X-986543Y1312189D1*
X-988444Y1309337D1*
X-998017Y1299764D1*
X-984620D1*
X-1419322Y869860D2*
Y849764D1*
X-1412624D1*
X-1409750Y850737D1*
X-1407826Y852638D1*
X-1406876Y854561D1*
X-1405925Y857413D1*
Y862211D1*
X-1406876Y865085D1*
X-1407826Y866986D1*
X-1409750Y868909D1*
X-1412624Y869860D1*
X-1419322D1*
X-1397826Y869838D2*
X-1387325D1*
X-1393051Y862189D1*
X-1390177D1*
X-1388275Y861238D1*
X-1387325Y860287D1*
X-1386352Y857413D1*
Y855512D1*
X-1387325Y852638D1*
X-1389226Y850715D1*
X-1392100Y849764D1*
X-1394974D1*
X-1397826Y850715D1*
X-1398777Y851687D1*
X-1399749Y853589D1*
X-1469323Y479860D2*
Y459764D1*
X-1462624D1*
X-1459750Y460737D1*
X-1457827Y462638D1*
X-1456876Y464561D1*
X-1455925Y467413D1*
Y472211D1*
X-1456876Y475085D1*
X-1457827Y476986D1*
X-1459750Y478909D1*
X-1462624Y479860D1*
X-1469323D1*
X-1440177Y459764D2*
Y479838D1*
X-1449750Y466463D1*
X-1435402D1*
X-1019322Y469860D2*
Y449764D1*
X-1012624D1*
X-1009750Y450737D1*
X-1007826Y452638D1*
X-1006876Y454561D1*
X-1005925Y457413D1*
Y462211D1*
X-1006876Y465085D1*
X-1007826Y466986D1*
X-1009750Y468909D1*
X-1012624Y469860D1*
X-1019322D1*
X-988275Y469838D2*
X-997826D1*
X-998777Y461238D1*
X-997826Y462189D1*
X-994952Y463161D1*
X-992100D1*
X-989226Y462189D1*
X-987303Y460287D1*
X-986352Y457413D1*
Y455512D1*
X-987303Y452638D1*
X-989226Y450715D1*
X-992100Y449764D1*
X-994952D1*
X-997826Y450715D1*
X-998777Y451687D1*
X-999749Y453589D1*
X-1125999Y-1110140D2*
X-1138446D1*
Y-1130236D1*
Y-1119713D2*
X-1130797D1*
X-1106426Y-1113014D2*
X-1108327Y-1111091D1*
X-1111201Y-1110140D1*
X-1115026D1*
X-1117900Y-1111091D1*
X-1119823Y-1113014D1*
Y-1114915D1*
X-1118851Y-1116839D1*
X-1117900Y-1117789D1*
X-1115999Y-1118740D1*
X-1110251Y-1120663D1*
X-1108327Y-1121614D1*
X-1107377Y-1122587D1*
X-1106426Y-1124488D1*
Y-1127362D1*
X-1108327Y-1129263D1*
X-1111201Y-1130236D1*
X-1115026D1*
X-1117900Y-1129263D1*
X-1119823Y-1127362D1*
X-1100250Y-1133552D2*
X-1082078D1*
X-1066329Y-1130236D2*
Y-1110162D1*
X-1075902Y-1123537D1*
X-1061554D1*
X-1431010Y-1110140D2*
X-1443457D1*
Y-1130236D1*
Y-1119713D2*
X-1435808D1*
X-1411437Y-1113014D2*
X-1413339Y-1111091D1*
X-1416213Y-1110140D1*
X-1420037D1*
X-1422911Y-1111091D1*
X-1424835Y-1113014D1*
Y-1114915D1*
X-1423862Y-1116839D1*
X-1422911Y-1117789D1*
X-1421010Y-1118740D1*
X-1415262Y-1120663D1*
X-1413339Y-1121614D1*
X-1412388Y-1122587D1*
X-1411437Y-1124488D1*
Y-1127362D1*
X-1413339Y-1129263D1*
X-1416213Y-1130236D1*
X-1420037D1*
X-1422911Y-1129263D1*
X-1424835Y-1127362D1*
X-1405262Y-1133552D2*
X-1387089D1*
X-1380913Y-1110140D2*
Y-1130236D1*
X-1372291D1*
X-1369417Y-1129263D1*
X-1368467Y-1128313D1*
X-1367516Y-1126411D1*
Y-1123537D1*
X-1368467Y-1121614D1*
X-1369417Y-1120663D1*
X-1372291Y-1119713D1*
X-1369417Y-1118740D1*
X-1368467Y-1117789D1*
X-1367516Y-1115888D1*
Y-1113965D1*
X-1368467Y-1112063D1*
X-1369417Y-1111091D1*
X-1372291Y-1110140D1*
X-1380913D1*
Y-1119713D2*
X-1372291D1*
X-1361340Y-1113987D2*
X-1359417Y-1113014D1*
X-1356543Y-1110162D1*
Y-1130236D1*
X1324476Y-1100140D2*
X1312029D1*
Y-1120236D1*
Y-1109713D2*
X1319679D1*
X1344049Y-1103014D2*
X1342148Y-1101091D1*
X1339274Y-1100140D1*
X1335449D1*
X1332575Y-1101091D1*
X1330652Y-1103014D1*
Y-1104915D1*
X1331625Y-1106839D1*
X1332575Y-1107789D1*
X1334477Y-1108740D1*
X1340225Y-1110663D1*
X1342148Y-1111614D1*
X1343099Y-1112587D1*
X1344049Y-1114488D1*
Y-1117362D1*
X1342148Y-1119263D1*
X1339274Y-1120236D1*
X1335449D1*
X1332575Y-1119263D1*
X1330652Y-1117362D1*
X1350225Y-1123552D2*
X1368398D1*
X1381272Y-1100140D2*
Y-1120236D1*
X1374573Y-1100140D2*
X1387971D1*
X1102794Y1610451D2*
D94*
X1105911D1*
X1104211Y1608181D1*
X1105064D1*
X1105629Y1607899D1*
X1105911Y1607617D1*
X1106199Y1606764D1*
Y1606199D1*
X1105911Y1605346D1*
X1105346Y1604776D1*
X1104493Y1604493D1*
X1103640D1*
X1102794Y1604776D1*
X1102512Y1605064D1*
X1102223Y1605629D1*
X1200663Y1708306D2*
D89*
Y1716928D1*
X1199713Y1719780D1*
X1198740Y1720753D1*
X1196839Y1721703D1*
X1193965D1*
X1192063Y1720753D1*
X1191091Y1719780D1*
X1190140Y1716928D1*
Y1708306D1*
X1210236D1*
X1190140Y1733627D2*
X1191091Y1731704D1*
X1193014Y1729803D1*
X1194915Y1728830D1*
X1197789Y1727879D1*
X1202587D1*
X1205439Y1728830D1*
X1207362Y1729803D1*
X1209263Y1731704D1*
X1210236Y1733627D1*
Y1737452D1*
X1209263Y1739353D1*
X1207362Y1741276D1*
X1205439Y1742227D1*
X1202587Y1743178D1*
X1197789D1*
X1194915Y1742227D1*
X1193014Y1741276D1*
X1191091Y1739353D1*
X1190140Y1737452D1*
Y1733627D1*
Y1756052D2*
X1210236D1*
X1190140Y1749353D2*
Y1762751D1*
X1190162Y1774675D2*
X1191113Y1771800D1*
X1193987Y1769877D1*
X1198762Y1768926D1*
X1201636D1*
X1206411Y1769877D1*
X1209285Y1771800D1*
X1210236Y1774675D1*
Y1776576D1*
X1209285Y1779450D1*
X1206411Y1781351D1*
X1201636Y1782324D1*
X1198762D1*
X1193987Y1781351D1*
X1191113Y1779450D1*
X1190162Y1776576D1*
Y1774675D1*
X1193987Y1781351D2*
X1206411Y1769877D1*
X302794Y1610451D2*
D94*
X305911D1*
X304211Y1608181D1*
X305064D1*
X305629Y1607899D1*
X305911Y1607617D1*
X306199Y1606764D1*
Y1606199D1*
X305911Y1605346D1*
X305346Y1604776D1*
X304493Y1604493D1*
X303640D1*
X302794Y1604776D1*
X302512Y1605064D1*
X302223Y1605629D1*
X400663Y1712606D2*
D89*
Y1721228D1*
X399713Y1724080D1*
X398740Y1725053D1*
X396839Y1726003D1*
X393965D1*
X392063Y1725053D1*
X391091Y1724080D1*
X390140Y1721228D1*
Y1712606D1*
X410236D1*
X390140Y1737927D2*
X391091Y1736004D1*
X393014Y1734102D1*
X394915Y1733130D1*
X397789Y1732179D1*
X402587D1*
X405439Y1733130D1*
X407362Y1734102D1*
X409263Y1736004D1*
X410236Y1737927D1*
Y1741752D1*
X409263Y1743653D1*
X407362Y1745576D1*
X405439Y1746527D1*
X402587Y1747478D1*
X397789D1*
X394915Y1746527D1*
X393014Y1745576D1*
X391091Y1743653D1*
X390140Y1741752D1*
Y1737927D1*
Y1760352D2*
X410236D1*
X390140Y1753653D2*
Y1767051D1*
X393987Y1773226D2*
X393014Y1775150D1*
X390162Y1778024D1*
X410236D1*
X-497206Y1610451D2*
D94*
X-494089D1*
X-495789Y1608181D1*
X-494936D1*
X-494371Y1607899D1*
X-494089Y1607617D1*
X-493801Y1606764D1*
Y1606199D1*
X-494089Y1605346D1*
X-494654Y1604776D1*
X-495507Y1604493D1*
X-496360D1*
X-497206Y1604776D1*
X-497488Y1605064D1*
X-497777Y1605629D1*
X-399337Y1708306D2*
D89*
Y1716928D1*
X-400287Y1719780D1*
X-401260Y1720753D1*
X-403161Y1721703D1*
X-406035D1*
X-407937Y1720753D1*
X-408909Y1719780D1*
X-409860Y1716928D1*
Y1708306D1*
X-389764D1*
X-409860Y1733627D2*
X-408909Y1731704D1*
X-406986Y1729803D1*
X-405085Y1728830D1*
X-402211Y1727879D1*
X-397413D1*
X-394561Y1728830D1*
X-392638Y1729803D1*
X-390737Y1731704D1*
X-389764Y1733627D1*
Y1737452D1*
X-390737Y1739353D1*
X-392638Y1741276D1*
X-394561Y1742227D1*
X-397413Y1743178D1*
X-402211D1*
X-405085Y1742227D1*
X-406986Y1741276D1*
X-408909Y1739353D1*
X-409860Y1737452D1*
Y1733627D1*
Y1756052D2*
X-389764D1*
X-409860Y1749353D2*
Y1762751D1*
X-405063Y1769899D2*
X-406013D1*
X-407937Y1770850D1*
X-408887Y1771800D1*
X-409838Y1773724D1*
Y1777549D1*
X-408887Y1779450D1*
X-407937Y1780400D1*
X-406013Y1781373D1*
X-404112D1*
X-402189Y1780400D1*
X-399337Y1778499D1*
X-389764Y1768926D1*
Y1782324D1*
X-1297206Y1610451D2*
D94*
X-1294089D1*
X-1295789Y1608181D1*
X-1294936D1*
X-1294371Y1607899D1*
X-1294089Y1607617D1*
X-1293801Y1606764D1*
Y1606199D1*
X-1294089Y1605346D1*
X-1294654Y1604776D1*
X-1295507Y1604493D1*
X-1296360D1*
X-1297206Y1604776D1*
X-1297488Y1605064D1*
X-1297777Y1605629D1*
X-1199337Y1708306D2*
D89*
Y1716928D1*
X-1200287Y1719780D1*
X-1201260Y1720753D1*
X-1203161Y1721703D1*
X-1206035D1*
X-1207937Y1720753D1*
X-1208909Y1719780D1*
X-1209860Y1716928D1*
Y1708306D1*
X-1189764D1*
X-1209860Y1733627D2*
X-1208909Y1731704D1*
X-1206986Y1729803D1*
X-1205085Y1728830D1*
X-1202211Y1727879D1*
X-1197413D1*
X-1194561Y1728830D1*
X-1192638Y1729803D1*
X-1190737Y1731704D1*
X-1189764Y1733627D1*
Y1737452D1*
X-1190737Y1739353D1*
X-1192638Y1741276D1*
X-1194561Y1742227D1*
X-1197413Y1743178D1*
X-1202211D1*
X-1205085Y1742227D1*
X-1206986Y1741276D1*
X-1208909Y1739353D1*
X-1209860Y1737452D1*
Y1733627D1*
Y1756052D2*
X-1189764D1*
X-1209860Y1749353D2*
Y1762751D1*
X-1209838Y1770850D2*
Y1781351D1*
X-1202189Y1775625D1*
Y1778499D1*
X-1201238Y1780400D1*
X-1200287Y1781351D1*
X-1197413Y1782324D1*
X-1195512D1*
X-1192638Y1781351D1*
X-1190715Y1779450D1*
X-1189764Y1776576D1*
Y1773702D1*
X-1190715Y1770850D1*
X-1191687Y1769899D1*
X-1193589Y1768926D1*
X1102794Y710451D2*
D94*
X1105911D1*
X1104211Y708181D1*
X1105064D1*
X1105629Y707899D1*
X1105911Y707617D1*
X1106199Y706764D1*
Y706199D1*
X1105911Y705346D1*
X1105346Y704776D1*
X1104493Y704493D1*
X1103640D1*
X1102794Y704776D1*
X1102512Y705064D1*
X1102223Y705629D1*
X1200663Y807831D2*
D89*
Y816453D1*
X1199713Y819305D1*
X1198740Y820277D1*
X1196839Y821228D1*
X1193965D1*
X1192063Y820277D1*
X1191091Y819305D1*
X1190140Y816453D1*
Y807831D1*
X1210236D1*
X1190140Y833152D2*
X1191091Y831228D1*
X1193014Y829327D1*
X1194915Y828354D1*
X1197789Y827404D1*
X1202587D1*
X1205439Y828354D1*
X1207362Y829327D1*
X1209263Y831228D1*
X1210236Y833152D1*
Y836977D1*
X1209263Y838878D1*
X1207362Y840801D1*
X1205439Y841752D1*
X1202587Y842702D1*
X1197789D1*
X1194915Y841752D1*
X1193014Y840801D1*
X1191091Y838878D1*
X1190140Y836977D1*
Y833152D1*
Y855577D2*
X1210236D1*
X1190140Y848878D2*
Y862275D1*
X1210236Y878024D2*
X1190162D1*
X1203537Y868451D1*
Y882799D1*
X302794Y710451D2*
D94*
X305911D1*
X304211Y708181D1*
X305064D1*
X305629Y707899D1*
X305911Y707617D1*
X306199Y706764D1*
Y706199D1*
X305911Y705346D1*
X305346Y704776D1*
X304493Y704493D1*
X303640D1*
X302794Y704776D1*
X302512Y705064D1*
X302223Y705629D1*
X400663Y808306D2*
D89*
Y816928D1*
X399713Y819780D1*
X398740Y820753D1*
X396839Y821703D1*
X393965D1*
X392063Y820753D1*
X391091Y819780D1*
X390140Y816928D1*
Y808306D1*
X410236D1*
X390140Y833627D2*
X391091Y831704D1*
X393014Y829803D1*
X394915Y828830D1*
X397789Y827879D1*
X402587D1*
X405439Y828830D1*
X407362Y829803D1*
X409263Y831704D1*
X410236Y833627D1*
Y837452D1*
X409263Y839353D1*
X407362Y841276D1*
X405439Y842227D1*
X402587Y843178D1*
X397789D1*
X394915Y842227D1*
X393014Y841276D1*
X391091Y839353D1*
X390140Y837452D1*
Y833627D1*
Y856052D2*
X410236D1*
X390140Y849353D2*
Y862751D1*
X390162Y880400D2*
Y870850D1*
X398762Y869899D1*
X397811Y870850D1*
X396839Y873724D1*
Y876576D1*
X397811Y879450D1*
X399713Y881373D1*
X402587Y882324D1*
X404488D1*
X407362Y881373D1*
X409285Y879450D1*
X410236Y876576D1*
Y873724D1*
X409285Y870850D1*
X408313Y869899D1*
X406411Y868926D1*
X-552188Y-907134D2*
X-543588D1*
X-540714Y-906161D1*
X-539742Y-905210D1*
X-538791Y-903309D1*
Y-901386D1*
X-539742Y-899485D1*
X-540715Y-898512D1*
X-543589Y-897561D1*
X-552189Y-897562D1*
X-552188Y-917658D1*
X-545489Y-907134D2*
X-538790Y-917657D1*
X-532615Y-901408D2*
X-530692Y-900435D1*
X-527818Y-897583D1*
X-527817Y-917657D1*
X-1109205Y-766485D2*
Y-757885D1*
X-1110177Y-755011D1*
X-1111128Y-754038D1*
X-1113029Y-753088D1*
X-1114953D1*
X-1116854Y-754038D1*
X-1117827Y-755011D1*
X-1118777Y-757885D1*
Y-766485D1*
X-1098681D1*
X-1109205Y-759787D2*
X-1098681Y-753088D1*
X-1118755Y-744989D2*
Y-734488D1*
X-1111106Y-740213D1*
Y-737339D1*
X-1110155Y-735438D1*
X-1109205Y-734488D1*
X-1106331Y-733515D1*
X-1104429D1*
X-1101555Y-734488D1*
X-1099632Y-736389D1*
X-1098681Y-739263D1*
Y-742137D1*
X-1099632Y-744989D1*
X-1100605Y-745939D1*
X-1102506Y-746912D1*
X733515Y-677134D2*
X742115D1*
X744989Y-676161D1*
X745962Y-675210D1*
X746912Y-673309D1*
Y-671386D1*
X745962Y-669485D1*
X744989Y-668512D1*
X742115Y-667561D1*
X733515D1*
Y-687657D1*
X740213Y-677134D2*
X746912Y-687657D1*
X764562Y-667583D2*
X755011D1*
X754061Y-676183D1*
X755011Y-675233D1*
X757885Y-674260D1*
X760737D1*
X763611Y-675233D1*
X765535Y-677134D1*
X766485Y-680008D1*
Y-681909D1*
X765535Y-684783D1*
X763611Y-686707D1*
X760737Y-687657D1*
X757885D1*
X755011Y-686707D1*
X754061Y-685734D1*
X753088Y-683833D1*
X1234001Y-677134D2*
X1242601D1*
X1245475Y-676161D1*
X1246448Y-675210D1*
X1247399Y-673309D1*
Y-671386D1*
X1246448Y-669485D1*
X1245475Y-668512D1*
X1242601Y-667561D1*
X1234001D1*
Y-687657D1*
X1240700Y-677134D2*
X1247399Y-687657D1*
X1265048Y-670435D2*
X1264098Y-668534D1*
X1261224Y-667583D1*
X1259322D1*
X1256448Y-668534D1*
X1254525Y-671408D1*
X1253574Y-676183D1*
Y-680959D1*
X1254525Y-684783D1*
X1256448Y-686707D1*
X1259322Y-687657D1*
X1260273D1*
X1263125Y-686707D1*
X1265048Y-684783D1*
X1265999Y-681909D1*
Y-680959D1*
X1265048Y-678084D1*
X1263125Y-676183D1*
X1260273Y-675233D1*
X1259322D1*
X1256448Y-676183D1*
X1254525Y-678084D1*
X1253574Y-680959D1*
X-1276485Y-1128630D2*
X-1267885D1*
X-1265011Y-1127657D1*
X-1264038Y-1126707D1*
X-1263088Y-1124805D1*
Y-1122882D1*
X-1264038Y-1120981D1*
X-1265011Y-1120008D1*
X-1267885Y-1119057D1*
X-1276485D1*
Y-1139153D1*
X-1269787Y-1128630D2*
X-1263088Y-1139153D1*
X-1253087D2*
X-1243515Y-1119079D1*
X-1256912D1*
X-886475Y-1159714D2*
X-877875D1*
X-875001Y-1158741D1*
X-874028Y-1157791D1*
X-873077Y-1155889D1*
Y-1153966D1*
X-874028Y-1152065D1*
X-875001Y-1151092D1*
X-877875Y-1150141D1*
X-886475Y-1150142D1*
X-886474Y-1170238D1*
X-879776Y-1159714D2*
X-873077Y-1170237D1*
X-862126Y-1150163D2*
X-864978Y-1151114D1*
X-865951Y-1153015D1*
Y-1154939D1*
X-864978Y-1156840D1*
X-863077Y-1157812D1*
X-859252Y-1158763D1*
X-856378Y-1159714D1*
X-854477Y-1161637D1*
X-853526Y-1163538D1*
Y-1166412D1*
X-854477Y-1168314D1*
X-855427Y-1169286D1*
X-858301Y-1170237D1*
X-862126D1*
X-864978Y-1169286D1*
X-865951Y-1168314D1*
X-866901Y-1166413D1*
Y-1163538D1*
X-865951Y-1161637D1*
X-864028Y-1159714D1*
X-861176Y-1158763D1*
X-857351Y-1157812D1*
X-855428Y-1156840D1*
X-854477Y-1154938D1*
Y-1153015D1*
X-855428Y-1151114D1*
X-858302Y-1150163D1*
X-862126D1*
X-486010Y-1037134D2*
X-477410D1*
X-474536Y-1036161D1*
X-473563Y-1035210D1*
X-472613Y-1033309D1*
Y-1031386D1*
X-473563Y-1029485D1*
X-474536Y-1028512D1*
X-477410Y-1027561D1*
X-486010D1*
Y-1047657D1*
X-479311Y-1037134D2*
X-472613Y-1047657D1*
X-453990Y-1034260D2*
X-454963Y-1037134D1*
X-456864Y-1039057D1*
X-459738Y-1040008D1*
X-460689D1*
X-463563Y-1039057D1*
X-465464Y-1037134D1*
X-466437Y-1034260D1*
Y-1033309D1*
X-465464Y-1030435D1*
X-463563Y-1028534D1*
X-460689Y-1027583D1*
X-459738D1*
X-456864Y-1028534D1*
X-454963Y-1030435D1*
X-453990Y-1034260D1*
Y-1039057D1*
X-454963Y-1043833D1*
X-456864Y-1046707D1*
X-459738Y-1047657D1*
X-461639D1*
X-464513Y-1046707D1*
X-465464Y-1044783D1*
X-706505Y-1165179D2*
Y-1179527D1*
X-705554Y-1182401D1*
X-703631Y-1184303D1*
X-700757Y-1185275D1*
X-698856D1*
X-695982Y-1184303D1*
X-694058Y-1182401D1*
X-693108Y-1179527D1*
Y-1165179D1*
X-685959Y-1169977D2*
Y-1169026D1*
X-685008Y-1167103D1*
X-684058Y-1166152D1*
X-682134Y-1165201D1*
X-678310D1*
X-676409Y-1166152D1*
X-675458Y-1167103D1*
X-674485Y-1169026D1*
Y-1170927D1*
X-675458Y-1172851D1*
X-677359Y-1175703D1*
X-686932Y-1185275D1*
X-673535D1*
M02*
