G04 DipTrace 5.2.0.4*
G04 2 - Route2.gbr*
%MOIN*%
G04 #@! TF.FileFunction,Copper,L2,Inr*
G04 #@! TF.Part,Single*
%ADD33C,0.088583*%
%ADD35C,0.059055*%
%ADD39C,0.06*%
%ADD48C,0.05937*%
G04 #@! TA.AperFunction,CopperBalancing*
%ADD16C,0.007*%
%ADD18C,0.01*%
%ADD23C,0.012992*%
G04 #@! TA.AperFunction,ViaPad*
%ADD56C,0.027811*%
%ADD58C,0.039622*%
%FSLAX26Y26*%
G04*
G70*
G90*
G75*
G01*
G04 Inner1_Plane*
%LPD*%
G36*
X1326500Y587751D2*
X1320266Y600070D1*
Y601461D1*
X1339734D1*
Y600070D1*
X1333500Y587751D1*
X1326500D1*
G37*
G36*
X1092249Y206500D2*
X1079930Y200266D1*
X1078539D1*
Y219734D1*
X1079930D1*
X1092249Y213500D1*
Y206500D1*
G37*
X1330000Y610000D2*
D16*
Y260000D1*
X1280000Y210000D1*
X1070000D1*
D56*
X-160000Y-690000D3*
D58*
X-930000Y1040000D3*
X-1070000Y720000D3*
X-760000Y810000D3*
X-20000Y580000D3*
X-960000Y200000D3*
Y640000D3*
D56*
X-780000Y-610000D3*
X-450000Y-60000D3*
X-590000Y-370000D3*
Y-510000D3*
X-290000Y-380000D3*
X-1030000Y-190000D3*
X130000Y-602500D3*
X25000Y-395000D3*
X-5000Y-485000D3*
X570000Y-260000D3*
X550000Y-540000D3*
X-110000Y-230000D3*
X120000Y-90000D3*
X-40000Y-230000D3*
X-160000Y-40000D3*
X-790000Y-950000D3*
X190000Y-830000D3*
X-300000Y-820000D3*
X370000Y-430000D3*
X270000Y370000D3*
X-605000Y387500D3*
X-240000Y40000D3*
X-140000Y20000D3*
X-40000Y40000D3*
X-310000Y260000D3*
X-550000Y310000D3*
X-1430000Y-420000D3*
X1290000Y40000D3*
X-350000Y470000D3*
X-590000D3*
X920000Y790000D3*
X1540000Y840000D3*
X120000Y470000D3*
X1050000Y420000D3*
X1370000Y680000D3*
X930000Y460000D3*
X1430000Y450000D3*
X-410000Y730000D3*
X-590000D3*
X350000Y650000D3*
X270000Y600000D3*
X-220000Y470000D3*
X-150000D3*
X-660000Y460000D3*
X60000D3*
X500000Y470000D3*
X440000D3*
X1200000Y40000D3*
X500000Y290000D3*
X710000Y150000D3*
X-320000Y40000D3*
X120000Y210000D3*
X-100000Y-560000D3*
X-65000Y-505000D3*
X-670000Y-960000D3*
X20000D3*
X230000Y-690000D3*
X215000Y-382500D3*
X240000Y-352500D3*
X260000Y-720000D3*
X265000Y-322500D3*
X290000Y-750000D3*
X287500Y-287500D3*
X320000Y-780000D3*
X-390000Y242500D3*
X-400000Y-60000D3*
X180000Y310000D3*
X-470000Y390000D3*
X-1260000Y-410000D3*
X-150000Y-320000D3*
X-1490000Y-260000D3*
X-167500Y-272500D3*
X-1380000Y-230000D3*
X-130000Y-417500D3*
X-1120000Y-410000D3*
X-280000Y-280000D3*
X240000Y-150000D3*
X60000Y30000D3*
X-320000Y-60000D3*
X-440000Y-360000D3*
X-430000Y-470000D3*
Y-510000D3*
X-160000Y-540000D3*
X-1530000Y-200000D3*
X-1430000D3*
X-1220000Y-40000D3*
X25000Y-460000D3*
Y-510000D3*
X20000Y-345000D3*
X440000Y-480000D3*
X0Y-230000D3*
X160000Y-950000D3*
X-290000Y-760000D3*
X-90000Y-40000D3*
X-40000Y200000D3*
X-140000Y220000D3*
X-260000Y290000D3*
X-1380000Y-290000D3*
X210000Y370000D3*
X810000Y840000D3*
X1330000Y610000D3*
X1070000Y210000D3*
X620000Y40000D3*
X-660000Y640000D3*
X-290000Y480000D3*
X-60000Y-990000D3*
X-730000Y-950000D3*
X-260000Y-100000D3*
X360000Y370000D3*
X1370000Y340000D3*
X690000D3*
X400000Y330000D3*
X-1363995Y1675131D2*
D18*
X-826005D1*
X-1363995Y1665262D2*
X-826005D1*
X-1363995Y1655394D2*
X-826005D1*
X-1363995Y1645525D2*
X-826005D1*
X-1363995Y1635656D2*
X-826005D1*
X-1363995Y1625787D2*
X-826005D1*
X-1363995Y1615919D2*
X-826005D1*
X-1363995Y1606050D2*
X-826005D1*
X-1363995Y1596181D2*
X-826005D1*
X-1363995Y1586312D2*
X-826005D1*
X-1363995Y1576444D2*
X-826005D1*
X-1363995Y1566575D2*
X-826005D1*
X-1363995Y1556706D2*
X-826005D1*
X-1363995Y1546837D2*
X-826005D1*
X-1363995Y1536969D2*
X-826005D1*
X-1363995Y1527100D2*
X-826005D1*
X-1363995Y1517231D2*
X-826005D1*
X-1363995Y1507362D2*
X-826005D1*
X-1363995Y1497493D2*
X-1095009D1*
X-1004991D2*
X-826005D1*
X-1363995Y1487625D2*
X-1119726D1*
X-980274D2*
X-826005D1*
X-1363995Y1477756D2*
X-1129189D1*
X-970811D2*
X-826005D1*
X-1363995Y1467887D2*
X-1134609D1*
X-965391D2*
X-826005D1*
X-1363995Y1458018D2*
X-1137411D1*
X-962589D2*
X-826005D1*
X-1363995Y1448150D2*
X-1138055D1*
X-961945D2*
X-826005D1*
X-1363995Y1438281D2*
X-1136630D1*
X-963370D2*
X-826005D1*
X-1364005Y1428412D2*
X-1132929D1*
X-967071D2*
X-826005D1*
X-1583995Y1418543D2*
X-1126249D1*
X-973751D2*
X-826005D1*
X-1583995Y1408675D2*
X-1270858D1*
X-1214962D2*
X-1114227D1*
X-985773D2*
X-826005D1*
X-1583995Y1398806D2*
X-1281415D1*
X-1204415D2*
X-826005D1*
X-1583995Y1388937D2*
X-1287402D1*
X-1198429D2*
X-826005D1*
X-1583995Y1379068D2*
X-1290625D1*
X-1195206D2*
X-826005D1*
X-1583995Y1369199D2*
X-1291630D1*
X-1194190D2*
X-826005D1*
X-1583995Y1359331D2*
X-1291630D1*
X-1194190D2*
X-826005D1*
X-1583995Y1349462D2*
X-1291630D1*
X-1194190D2*
X-826005D1*
X-1583995Y1339593D2*
X-1291630D1*
X-1194190D2*
X-826005D1*
X-1583995Y1329724D2*
X-1291630D1*
X-1194190D2*
X-826005D1*
X-1583995Y1319856D2*
X-1291630D1*
X-1194190D2*
X-826005D1*
X-1583995Y1309987D2*
X-1291630D1*
X-1194190D2*
X-826005D1*
X-1583995Y1300118D2*
X-1291630D1*
X-1194190D2*
X-826005D1*
X-1583995Y1290249D2*
X-1291630D1*
X-1194190D2*
X-826005D1*
X-1583995Y1280381D2*
X-1290537D1*
X-1195294D2*
X-826005D1*
X-1583995Y1270512D2*
X-1287226D1*
X-1198605D2*
X-826005D1*
X-1583995Y1260643D2*
X-1281102D1*
X-1204727D2*
X-1109209D1*
X-990791D2*
X-826005D1*
X-1583995Y1250774D2*
X-1270273D1*
X-1215547D2*
X-1130350D1*
X-969650D2*
X-826005D1*
X-1583995Y1240906D2*
X-1139471D1*
X-960529D2*
X-826005D1*
X-1583995Y1231037D2*
X-1144706D1*
X-955294D2*
X-826005D1*
X-1583995Y1221168D2*
X-1147353D1*
X-952647D2*
X-826005D1*
X-1583995Y1211299D2*
X-1147870D1*
X-952130D2*
X-826005D1*
X-1583995Y1201430D2*
X-1146307D1*
X-953693D2*
X-826005D1*
X-1583995Y1191562D2*
X-1142441D1*
X-957559D2*
X-826005D1*
X-1583995Y1181693D2*
X-1135537D1*
X-964463D2*
X-826005D1*
X-1583995Y1171824D2*
X-1122949D1*
X-977051D2*
X-826005D1*
X-1583995Y1161955D2*
X-826005D1*
X-1583995Y1152087D2*
X-826005D1*
X-1583995Y1142218D2*
X-826005D1*
X-1583995Y1132349D2*
X-826005D1*
X-1583995Y1122480D2*
X-826005D1*
X-1583995Y1112612D2*
X-826005D1*
X-1583995Y1102743D2*
X-826005D1*
X-1583995Y1092874D2*
X-826005D1*
X-1583995Y1083005D2*
X-826005D1*
X-1583995Y1073136D2*
X-949609D1*
X-910391D2*
X-826005D1*
X-1583995Y1063268D2*
X-961043D1*
X-898957D2*
X-826005D1*
X-1583995Y1053399D2*
X-966562D1*
X-893438D2*
X-826005D1*
X-1583995Y1043530D2*
X-968837D1*
X-891163D2*
X-826005D1*
X-1583995Y1033661D2*
X-968475D1*
X-891525D2*
X-826005D1*
X-1583995Y1023793D2*
X-965370D1*
X-894630D2*
X-826005D1*
X-1583995Y1013924D2*
X-958642D1*
X-901358D2*
X-826005D1*
X-1583995Y1004055D2*
X-943339D1*
X-916661D2*
X-826005D1*
X-1583995Y994186D2*
X-826005D1*
X-1583995Y984318D2*
X-826005D1*
X-1583995Y974449D2*
X-826005D1*
X-1583995Y964580D2*
X-826005D1*
X-1583995Y954711D2*
X-826005D1*
X-1583995Y944843D2*
X-826005D1*
X-1583995Y934974D2*
X-826005D1*
X-1583995Y925105D2*
X-826005D1*
X-1583995Y915236D2*
X-826005D1*
X-1583995Y905367D2*
X-826005D1*
X-1583995Y895499D2*
X-826005D1*
X-1583995Y885630D2*
X-826005D1*
X-1583995Y875761D2*
X-826005D1*
X-1583995Y865892D2*
X-826005D1*
X-1583995Y856024D2*
X-826005D1*
X-1583995Y846155D2*
X-826005D1*
X-1583995Y836286D2*
X-826005D1*
X-1583995Y826417D2*
X-826005D1*
X-1583995Y816549D2*
X-826005D1*
X-1583995Y806680D2*
X-826005D1*
X-1583995Y796811D2*
X-826005D1*
X-1583995Y786942D2*
X-826005D1*
X-1583995Y777073D2*
X-826005D1*
X-1583995Y767205D2*
X-826005D1*
X-1583995Y757336D2*
X-1078085D1*
X-1061915D2*
X-826005D1*
X-1583995Y747467D2*
X-1097265D1*
X-1042735D2*
X-826005D1*
X-1583995Y737598D2*
X-1104686D1*
X-1035314D2*
X-826005D1*
X-1583995Y727730D2*
X-1108211D1*
X-1031789D2*
X-826005D1*
X-1583995Y717861D2*
X-1108945D1*
X-1031055D2*
X-826005D1*
X-1583995Y707992D2*
X-1107059D1*
X-1032941D2*
X-826005D1*
X-1583995Y698123D2*
X-1102079D1*
X-1037921D2*
X-826005D1*
X-1583995Y688255D2*
X-1091894D1*
X-1048106D2*
X-826005D1*
X-1583995Y678386D2*
X-826005D1*
X-1583995Y668517D2*
X-986122D1*
X-933878D2*
X-826005D1*
X-1583995Y658648D2*
X-994110D1*
X-925890D2*
X-826005D1*
X-1583995Y648780D2*
X-997978D1*
X-922022D2*
X-826005D1*
X-1583995Y638911D2*
X-998983D1*
X-921017D2*
X-826005D1*
X-1583995Y629042D2*
X-997391D1*
X-922609D2*
X-826005D1*
X-1583995Y619173D2*
X-992791D1*
X-927209D2*
X-826005D1*
X-1583995Y609304D2*
X-983407D1*
X-936593D2*
X-826005D1*
X-1583995Y599436D2*
X-826005D1*
X-1583995Y589567D2*
X-826005D1*
X-1583995Y579698D2*
X-826005D1*
X-1583995Y569829D2*
X-826005D1*
X-1583995Y559961D2*
X-826005D1*
X-1583995Y550092D2*
X-826005D1*
X-1583995Y540223D2*
X-826005D1*
X-1583995Y530354D2*
X-826005D1*
X-1583995Y520486D2*
X-826005D1*
X-1583995Y510617D2*
X-826005D1*
X-1583995Y500748D2*
X-1411669D1*
X-1388331D2*
X-1311669D1*
X-1288331D2*
X-1211669D1*
X-1188331D2*
X-1111669D1*
X-1088331D2*
X-1011669D1*
X-988331D2*
X-826005D1*
X-1583995Y490879D2*
X-1431727D1*
X-1368273D2*
X-1331727D1*
X-1268273D2*
X-1231727D1*
X-1168273D2*
X-1131727D1*
X-1068273D2*
X-1031727D1*
X-968273D2*
X-826005D1*
X-1583995Y481010D2*
X-1440741D1*
X-1359259D2*
X-1340741D1*
X-1259259D2*
X-1240741D1*
X-1159259D2*
X-1140741D1*
X-1059259D2*
X-1040741D1*
X-959259D2*
X-826005D1*
X-1583995Y471142D2*
X-1445946D1*
X-1354054D2*
X-1345946D1*
X-1254054D2*
X-1245946D1*
X-1154054D2*
X-1145946D1*
X-1054054D2*
X-1045946D1*
X-954054D2*
X-826005D1*
X-1583995Y461273D2*
X-1448602D1*
X-951398D2*
X-826005D1*
X-1583995Y451404D2*
X-1449139D1*
X-950861D2*
X-826005D1*
X-1583995Y441535D2*
X-1447617D1*
X-952383D2*
X-826005D1*
X-1583995Y431667D2*
X-1443837D1*
X-1356163D2*
X-1343837D1*
X-1256163D2*
X-1243837D1*
X-1156163D2*
X-1143837D1*
X-1056163D2*
X-1043837D1*
X-956163D2*
X-826005D1*
X-1583995Y421798D2*
X-1437079D1*
X-1362921D2*
X-1337079D1*
X-1262921D2*
X-1237079D1*
X-1162921D2*
X-1137079D1*
X-1062921D2*
X-1037079D1*
X-962921D2*
X-826005D1*
X-1583995Y411929D2*
X-1424950D1*
X-1375050D2*
X-1324950D1*
X-1275050D2*
X-1224950D1*
X-1175050D2*
X-1124950D1*
X-1075050D2*
X-1024950D1*
X-975050D2*
X-826005D1*
X-1583995Y402060D2*
X-634609D1*
X-575391D2*
X-500741D1*
X-439259D2*
X267453D1*
X272543D2*
X357453D1*
X362543D2*
X433995D1*
X-1583995Y392192D2*
X-637753D1*
X-572247D2*
X-503026D1*
X-436974D2*
X245811D1*
X294189D2*
X335811D1*
X384189D2*
X433995D1*
X-1583995Y382323D2*
X-637675D1*
X-572325D2*
X-502167D1*
X-437833D2*
X239366D1*
X300634D2*
X329366D1*
X390634D2*
X433995D1*
X-1583995Y372454D2*
X-634354D1*
X-575646D2*
X-497879D1*
X-442121D2*
X236993D1*
X303007D2*
X326993D1*
X393007D2*
X433995D1*
X-1583995Y362585D2*
X-626239D1*
X-583761D2*
X-487694D1*
X-452306D2*
X237774D1*
X302226D2*
X327774D1*
X392226D2*
X433995D1*
X-1583995Y352717D2*
X-62274D1*
X-17726D2*
X241954D1*
X298046D2*
X331954D1*
X423681D2*
X433995D1*
X-1583995Y342848D2*
X-75614D1*
X-4386D2*
X251886D1*
X288114D2*
X341886D1*
X-1583995Y332979D2*
X-573407D1*
X-526593D2*
X-82822D1*
X2822D2*
X156593D1*
X203407D2*
X367042D1*
X-1583995Y323110D2*
X-580302D1*
X-519698D2*
X-86883D1*
X6883D2*
X149698D1*
X210302D2*
X367647D1*
X-1583995Y313241D2*
X-582929D1*
X-517071D2*
X-88613D1*
X8613D2*
X147071D1*
X212929D2*
X371622D1*
X428378D2*
X433995D1*
X-1583995Y303373D2*
X-582402D1*
X-517598D2*
X-88261D1*
X8261D2*
X147598D1*
X212402D2*
X381075D1*
X418925D2*
X433995D1*
X-1583995Y293504D2*
X-578534D1*
X-521466D2*
X-85781D1*
X5781D2*
X151466D1*
X208534D2*
X433995D1*
X-1583995Y283635D2*
X-569306D1*
X-530694D2*
X-332714D1*
X-287286D2*
X-80770D1*
X770D2*
X160694D1*
X199306D2*
X433995D1*
X-1583995Y273766D2*
X-398261D1*
X-381739D2*
X-339999D1*
X-280001D2*
X-72050D1*
X-7950D2*
X433995D1*
X-1583995Y263898D2*
X-414921D1*
X-365079D2*
X-342861D1*
X-277139D2*
X-53319D1*
X-26681D2*
X433995D1*
X-1583995Y254029D2*
X-420957D1*
X-359043D2*
X-342538D1*
X-277462D2*
X433995D1*
X-1583995Y244160D2*
X-423055D1*
X-356945D2*
X-338915D1*
X-281085D2*
X433995D1*
X-1583995Y234291D2*
X-422030D1*
X-357970D2*
X-330214D1*
X-289786D2*
X98018D1*
X141982D2*
X433995D1*
X-1583995Y224423D2*
X-417518D1*
X-362482D2*
X90323D1*
X149677D2*
X433995D1*
X-1583995Y214554D2*
X-406786D1*
X-373214D2*
X87227D1*
X152773D2*
X433995D1*
X-1583995Y204685D2*
X87345D1*
X152655D2*
X433995D1*
X-1583995Y194816D2*
X-487391D1*
X-452609D2*
X90723D1*
X149277D2*
X433995D1*
X-1583995Y184948D2*
X-503495D1*
X-436505D2*
X98937D1*
X141063D2*
X433995D1*
X-1583995Y175079D2*
X-511601D1*
X-428399D2*
X433995D1*
X-1583995Y165210D2*
X-516230D1*
X-423770D2*
X433995D1*
X-1583995Y155341D2*
X-518417D1*
X-421583D2*
X433995D1*
X-1583995Y145472D2*
X-518505D1*
X-421495D2*
X433995D1*
X-1583995Y135604D2*
X-516493D1*
X-423507D2*
X433995D1*
X-1583995Y125735D2*
X-512089D1*
X-427911D2*
X433995D1*
X-1583995Y115866D2*
X-504345D1*
X-435655D2*
X433995D1*
X-1583995Y105997D2*
X-489462D1*
X-450538D2*
X433995D1*
X-1583995Y96129D2*
X433995D1*
X-1583995Y86260D2*
X-1543339D1*
X-1516661D2*
X-1443339D1*
X-1416661D2*
X-1343339D1*
X-1316661D2*
X-1243339D1*
X-1216661D2*
X-1143339D1*
X-1116661D2*
X-1043339D1*
X-1016661D2*
X-943339D1*
X-916661D2*
X-843339D1*
X-816661D2*
X-743339D1*
X-716661D2*
X433995D1*
X-1583995Y76391D2*
X-1562109D1*
X-1497891D2*
X-1462109D1*
X-1397891D2*
X-1362109D1*
X-1297891D2*
X-1262109D1*
X-1197891D2*
X-1162109D1*
X-1097891D2*
X-1062109D1*
X-997891D2*
X-962109D1*
X-897891D2*
X-862109D1*
X-797891D2*
X-762109D1*
X-697891D2*
X433995D1*
X-1583995Y66522D2*
X-1570858D1*
X-1489142D2*
X-1470858D1*
X-1389142D2*
X-1370858D1*
X-1289142D2*
X-1270858D1*
X-1189142D2*
X-1170858D1*
X-1089142D2*
X-1070858D1*
X-989142D2*
X-970858D1*
X-889142D2*
X-870858D1*
X-789142D2*
X-770858D1*
X-689142D2*
X-339081D1*
X-300919D2*
X-259081D1*
X-220919D2*
X-59081D1*
X-20919D2*
X433995D1*
X-1583995Y56654D2*
X-1575887D1*
X-1484113D2*
X-1475887D1*
X-1384113D2*
X-1375887D1*
X-1284113D2*
X-1275887D1*
X-1184113D2*
X-1175887D1*
X-1084113D2*
X-1075887D1*
X-984113D2*
X-975887D1*
X-884113D2*
X-875887D1*
X-784113D2*
X-775887D1*
X-684113D2*
X-348437D1*
X-291563D2*
X-268437D1*
X-211563D2*
X-68437D1*
X-11563D2*
X41114D1*
X78886D2*
X433995D1*
X-1583995Y46785D2*
X-1578398D1*
X-681602D2*
X-352373D1*
X-287627D2*
X-272373D1*
X-207627D2*
X-158690D1*
X-121310D2*
X-72373D1*
X-7627D2*
X31642D1*
X88358D2*
X289601D1*
X310399D2*
X433995D1*
X-1583995Y36916D2*
X-1578778D1*
X-681222D2*
X-352949D1*
X-287051D2*
X-272949D1*
X-207051D2*
X-168281D1*
X-111719D2*
X-72949D1*
X-7051D2*
X27657D1*
X92343D2*
X268761D1*
X331239D2*
X433995D1*
X-1583995Y27047D2*
X-1577089D1*
X-1482911D2*
X-1477089D1*
X-1382911D2*
X-1377089D1*
X-1282911D2*
X-1277089D1*
X-1182911D2*
X-1177089D1*
X-1082911D2*
X-1077089D1*
X-982911D2*
X-977089D1*
X-882911D2*
X-877089D1*
X-782911D2*
X-777089D1*
X-682911D2*
X-350370D1*
X-289630D2*
X-270370D1*
X-209630D2*
X-172314D1*
X-107686D2*
X-70370D1*
X-9630D2*
X27042D1*
X92958D2*
X259689D1*
X340311D2*
X433995D1*
X-1583995Y17178D2*
X-1573085D1*
X-1486915D2*
X-1473085D1*
X-1386915D2*
X-1373085D1*
X-1286915D2*
X-1273085D1*
X-1186915D2*
X-1173085D1*
X-1086915D2*
X-1073085D1*
X-986915D2*
X-973085D1*
X-886915D2*
X-873085D1*
X-786915D2*
X-773085D1*
X-686915D2*
X-343573D1*
X-296427D2*
X-263573D1*
X-216427D2*
X-172978D1*
X-107022D2*
X-63573D1*
X-16427D2*
X29571D1*
X90429D2*
X254483D1*
X345517D2*
X433995D1*
X-1583995Y7310D2*
X-1565975D1*
X-1494025D2*
X-1465975D1*
X-1394025D2*
X-1365975D1*
X-1294025D2*
X-1265975D1*
X-1194025D2*
X-1165975D1*
X-1094025D2*
X-1065975D1*
X-994025D2*
X-965975D1*
X-894025D2*
X-865975D1*
X-794025D2*
X-765975D1*
X-694025D2*
X-170487D1*
X-109513D2*
X36299D1*
X83701D2*
X251846D1*
X348154D2*
X433995D1*
X-1583995Y-2559D2*
X-1552929D1*
X-1507071D2*
X-1452929D1*
X-1407071D2*
X-1352929D1*
X-1307071D2*
X-1252929D1*
X-1207071D2*
X-1152929D1*
X-1107071D2*
X-1052929D1*
X-1007071D2*
X-952929D1*
X-907071D2*
X-852929D1*
X-807071D2*
X-752929D1*
X-707071D2*
X-163837D1*
X-116163D2*
X251349D1*
X348651D2*
X434483D1*
X-1583995Y-12428D2*
X-736395D1*
X-723605D2*
X-177430D1*
X-142570D2*
X252930D1*
X347070D2*
X444357D1*
X-1583995Y-22297D2*
X-760507D1*
X-699493D2*
X-187773D1*
X-132227D2*
X256807D1*
X343193D2*
X454230D1*
X-1583995Y-32165D2*
X-769950D1*
X-690050D2*
X-466982D1*
X-433018D2*
X-416982D1*
X-383018D2*
X-336982D1*
X-303018D2*
X-192127D1*
X-127873D2*
X263751D1*
X336249D2*
X464093D1*
X-1583995Y-42034D2*
X-775379D1*
X-684621D2*
X-477597D1*
X-372403D2*
X-347597D1*
X-292403D2*
X-193037D1*
X-126963D2*
X276407D1*
X323593D2*
X1563995D1*
X-1583995Y-51903D2*
X-778182D1*
X-681818D2*
X-482059D1*
X-367941D2*
X-352059D1*
X-287941D2*
X-190810D1*
X-129190D2*
X1563995D1*
X-1583995Y-61772D2*
X-778846D1*
X-681154D2*
X-483046D1*
X-366954D2*
X-353046D1*
X-286954D2*
X-184589D1*
X-135411D2*
X103722D1*
X136278D2*
X1563995D1*
X-1583995Y-71640D2*
X-777441D1*
X-682559D2*
X-480917D1*
X-369083D2*
X-350917D1*
X-289083D2*
X-276034D1*
X-243966D2*
X-166395D1*
X-153605D2*
X92667D1*
X147333D2*
X1563995D1*
X-1583995Y-81509D2*
X-773778D1*
X-686222D2*
X-474823D1*
X-375177D2*
X-344823D1*
X-295177D2*
X-287235D1*
X-232765D2*
X88047D1*
X151953D2*
X1563995D1*
X-1583995Y-91378D2*
X-767157D1*
X-692843D2*
X-457762D1*
X-442238D2*
X-407762D1*
X-392238D2*
X-327762D1*
X-312238D2*
X-291913D1*
X-228087D2*
X86934D1*
X153066D2*
X1563995D1*
X-1583995Y-101247D2*
X-755311D1*
X-704689D2*
X-293075D1*
X-226925D2*
X88937D1*
X151063D2*
X1563995D1*
X-1583995Y-111115D2*
X-291113D1*
X-228887D2*
X94825D1*
X145175D2*
X1563995D1*
X-1583995Y-120984D2*
X-758749D1*
X-701251D2*
X-285291D1*
X-234709D2*
X110617D1*
X129383D2*
X225274D1*
X254726D2*
X1563995D1*
X-1583995Y-130853D2*
X-768983D1*
X-691017D2*
X-269853D1*
X-250147D2*
X213243D1*
X266757D2*
X1563995D1*
X-1583995Y-140722D2*
X-774823D1*
X-685177D2*
X208273D1*
X271727D2*
X1563995D1*
X-1583995Y-150591D2*
X-777949D1*
X-682051D2*
X206906D1*
X273094D2*
X1563995D1*
X-1583995Y-160459D2*
X-1043554D1*
X-1016446D2*
X-778875D1*
X-681125D2*
X208654D1*
X271346D2*
X1563995D1*
X-1583995Y-170328D2*
X-1056366D1*
X-1003634D2*
X-777753D1*
X-682247D2*
X214161D1*
X265839D2*
X1563995D1*
X-1583995Y-180197D2*
X-1061562D1*
X-998438D2*
X-774413D1*
X-685587D2*
X228117D1*
X251883D2*
X1563995D1*
X-1583995Y-190066D2*
X-1063094D1*
X-996906D2*
X-768261D1*
X-691739D2*
X1563995D1*
X-1583995Y-199934D2*
X-1392235D1*
X-1367765D2*
X-1061522D1*
X-998478D2*
X-757411D1*
X-702589D2*
X-122235D1*
X-97765D2*
X-52235D1*
X-27765D2*
X1563995D1*
X-1583995Y-209803D2*
X-1405946D1*
X-1354054D2*
X-1056259D1*
X-1003741D2*
X-135946D1*
X-84054D2*
X-65946D1*
X-14054D2*
X1563995D1*
X-1583995Y-219672D2*
X-1411386D1*
X-1348614D2*
X-1043241D1*
X-1016759D2*
X-756806D1*
X-703194D2*
X-141386D1*
X-78614D2*
X-71386D1*
X-8614D2*
X1563995D1*
X-1583995Y-229541D2*
X-1501122D1*
X-1478878D2*
X-1413094D1*
X-1346906D2*
X-767938D1*
X-692062D2*
X-143094D1*
X-6906D2*
X558878D1*
X581122D2*
X1563995D1*
X-1583995Y-239409D2*
X-1515625D1*
X-1464375D2*
X-1411689D1*
X-1348311D2*
X-774227D1*
X-685773D2*
X-141689D1*
X-78311D2*
X-71689D1*
X-8311D2*
X544375D1*
X595625D2*
X1563995D1*
X-1583995Y-249278D2*
X-1521259D1*
X-1458741D2*
X-1406659D1*
X-1353341D2*
X-777665D1*
X-682335D2*
X-290291D1*
X-269709D2*
X-190663D1*
X-144337D2*
X-136659D1*
X-83341D2*
X-66659D1*
X-13341D2*
X538741D1*
X601259D2*
X1563995D1*
X-1583995Y-259147D2*
X-1523085D1*
X-1456915D2*
X-1394442D1*
X-1365558D2*
X-778866D1*
X-681134D2*
X-305399D1*
X-254601D2*
X-197685D1*
X-137315D2*
X-124442D1*
X-95558D2*
X-54442D1*
X-25558D2*
X271457D1*
X303543D2*
X536915D1*
X603085D2*
X1563995D1*
X-1583995Y-269016D2*
X-1521806D1*
X-1458194D2*
X-778017D1*
X-681983D2*
X-311161D1*
X-248839D2*
X-200409D1*
X-134591D2*
X260255D1*
X314745D2*
X538194D1*
X601806D2*
X1563995D1*
X-1583995Y-278885D2*
X-1541747D1*
X-1463047D2*
X-774999D1*
X-685001D2*
X-313075D1*
X-246925D2*
X-199959D1*
X-135041D2*
X255577D1*
X319423D2*
X543047D1*
X596953D2*
X1563995D1*
X-1583995Y-288753D2*
X-1556395D1*
X-1474738D2*
X-769286D1*
X-690714D2*
X-311883D1*
X-248117D2*
X-196181D1*
X-138819D2*
X254425D1*
X320575D2*
X554738D1*
X585262D2*
X1563995D1*
X-1583995Y-298622D2*
X-1562635D1*
X-1494865D2*
X-759295D1*
X-700705D2*
X-307147D1*
X-252853D2*
X-187147D1*
X-125059D2*
X242550D1*
X318613D2*
X1563995D1*
X-1583995Y-308491D2*
X-1565214D1*
X-1492286D2*
X-295781D1*
X-264219D2*
X-180966D1*
X-119034D2*
X235118D1*
X312782D2*
X1563995D1*
X-1583995Y-318360D2*
X-1564959D1*
X-1492541D2*
X-1340165D1*
X-1317345D2*
X-754627D1*
X-705373D2*
X-183055D1*
X-116945D2*
X232169D1*
X297831D2*
X1563995D1*
X-1583995Y-328228D2*
X-1561786D1*
X-1495714D2*
X-1355917D1*
X-1301583D2*
X-766815D1*
X-693185D2*
X-182021D1*
X-117979D2*
X217999D1*
X297587D2*
X1563995D1*
X-1583995Y-338097D2*
X-1554627D1*
X-1502873D2*
X-1362411D1*
X-1295089D2*
X-773573D1*
X-686427D2*
X-594530D1*
X-585470D2*
X-177509D1*
X-122491D2*
X210314D1*
X294051D2*
X1563995D1*
X-1583995Y-347966D2*
X-1533759D1*
X-1523741D2*
X-1365155D1*
X-1292345D2*
X-777343D1*
X-682657D2*
X-614345D1*
X-565655D2*
X-293017D1*
X-286986D2*
X-166757D1*
X-133243D2*
X207227D1*
X285537D2*
X1563995D1*
X-1583995Y-357835D2*
X-1538251D1*
X-1519249D2*
X-1365038D1*
X-1292462D2*
X-778827D1*
X-681173D2*
X-620702D1*
X-559298D2*
X-314218D1*
X-265782D2*
X193458D1*
X272655D2*
X1563995D1*
X-1583995Y-367703D2*
X-1555419D1*
X-1502081D2*
X-1362041D1*
X-1295459D2*
X-778251D1*
X-681749D2*
X-623017D1*
X-556983D2*
X-320654D1*
X-259346D2*
X7110D1*
X42890D2*
X185518D1*
X269266D2*
X1563995D1*
X-1583995Y-377572D2*
X-1562167D1*
X-1495333D2*
X-1355155D1*
X-1302345D2*
X-775537D1*
X-684463D2*
X-622197D1*
X-557803D2*
X-323007D1*
X-256993D2*
X-2958D1*
X52958D2*
X182286D1*
X261043D2*
X1563995D1*
X-1583995Y-387441D2*
X-1565087D1*
X-1492423D2*
X-1337030D1*
X-1320470D2*
X-1283837D1*
X-1236163D2*
X-1143837D1*
X-1096163D2*
X-770234D1*
X-689766D2*
X-617949D1*
X-562051D2*
X-322226D1*
X-257774D2*
X-142255D1*
X-117745D2*
X-7197D1*
X57197D2*
X182286D1*
X247714D2*
X1563995D1*
X-1583995Y-397310D2*
X-1565117D1*
X-1492383D2*
X-1453701D1*
X-1406299D2*
X-1290487D1*
X-1229513D2*
X-1150487D1*
X-1089513D2*
X-761005D1*
X-698995D2*
X-607870D1*
X-572130D2*
X-318026D1*
X-261974D2*
X-155957D1*
X-104043D2*
X-8017D1*
X58017D2*
X185518D1*
X244482D2*
X1563995D1*
X-1583995Y-407178D2*
X-1562285D1*
X-1495215D2*
X-1460429D1*
X-1399571D2*
X-1292978D1*
X-1227022D2*
X-1152978D1*
X-1087022D2*
X-739150D1*
X-720850D2*
X-308075D1*
X-271925D2*
X-161395D1*
X-98605D2*
X-5702D1*
X55702D2*
X193478D1*
X236522D2*
X346427D1*
X393573D2*
X1563995D1*
X-1583995Y-417047D2*
X-1555663D1*
X-1501837D2*
X-1462958D1*
X-1397042D2*
X-1292314D1*
X-1227686D2*
X-1152314D1*
X-1087686D2*
X-752147D1*
X-707853D2*
X-163094D1*
X-96906D2*
X675D1*
X49325D2*
X339630D1*
X400370D2*
X1563995D1*
X-1583995Y-426916D2*
X-1539209D1*
X-1518291D2*
X-1462343D1*
X-1397657D2*
X-1288281D1*
X-1231719D2*
X-1148281D1*
X-1091719D2*
X-765605D1*
X-694395D2*
X-161689D1*
X-98311D2*
X20587D1*
X29413D2*
X337051D1*
X402949D2*
X1563995D1*
X-1583995Y-436785D2*
X-1458358D1*
X-1401642D2*
X-1278690D1*
X-1241310D2*
X-1138690D1*
X-1101310D2*
X-772870D1*
X-687130D2*
X-156659D1*
X-103341D2*
X337627D1*
X402373D2*
X1563995D1*
X-1583995Y-446654D2*
X-1448886D1*
X-1411114D2*
X-776982D1*
X-683018D2*
X-144433D1*
X-115567D2*
X341563D1*
X398437D2*
X1563995D1*
X-1583995Y-456522D2*
X-778749D1*
X-681251D2*
X-20810D1*
X10810D2*
X350919D1*
X389081D2*
X1563995D1*
X-1583995Y-466391D2*
X-778446D1*
X-681554D2*
X-32157D1*
X22157D2*
X1563995D1*
X-1583995Y-476260D2*
X-776034D1*
X-683966D2*
X-80291D1*
X-49709D2*
X-36883D1*
X26883D2*
X1563995D1*
X-1583995Y-486129D2*
X-771122D1*
X-688878D2*
X-612459D1*
X-567541D2*
X-91962D1*
X28075D2*
X1563995D1*
X-1583995Y-495997D2*
X-762567D1*
X-697433D2*
X-619882D1*
X-560118D2*
X-96806D1*
X26151D2*
X1563995D1*
X-1583995Y-505866D2*
X-744726D1*
X-715274D2*
X-622831D1*
X-557169D2*
X-98085D1*
X20390D2*
X1563995D1*
X-1583995Y-515735D2*
X-1549247D1*
X-1510753D2*
X-1449247D1*
X-1410753D2*
X-1349247D1*
X-1310753D2*
X-1249247D1*
X-1210753D2*
X-1149247D1*
X-1110753D2*
X-1049247D1*
X-1010753D2*
X-949247D1*
X-910753D2*
X-849247D1*
X-810753D2*
X-749247D1*
X-710753D2*
X-622577D1*
X-557423D2*
X-96249D1*
X-33751D2*
X-15253D1*
X5253D2*
X527990D1*
X572010D2*
X1563995D1*
X-1583995Y-525604D2*
X-1564306D1*
X-1495694D2*
X-1464306D1*
X-1395694D2*
X-1364306D1*
X-1295694D2*
X-1264306D1*
X-1195694D2*
X-1164306D1*
X-1095694D2*
X-1064306D1*
X-995694D2*
X-964306D1*
X-895694D2*
X-864306D1*
X-795694D2*
X-764306D1*
X-695694D2*
X-619051D1*
X-560949D2*
X-90614D1*
X-39386D2*
X520314D1*
X579686D2*
X1563995D1*
X-1583995Y-535472D2*
X-1572118D1*
X-1487882D2*
X-1472118D1*
X-1387882D2*
X-1372118D1*
X-1287882D2*
X-1272118D1*
X-1187882D2*
X-1172118D1*
X-1087882D2*
X-1072118D1*
X-987882D2*
X-972118D1*
X-887882D2*
X-872118D1*
X-787882D2*
X-772118D1*
X-687882D2*
X-610526D1*
X-569474D2*
X-121709D1*
X-53917D2*
X517227D1*
X582773D2*
X1563995D1*
X-1583995Y-545341D2*
X-1576581D1*
X-1483419D2*
X-1476581D1*
X-1383419D2*
X-1376581D1*
X-1283419D2*
X-1276581D1*
X-1183419D2*
X-1176581D1*
X-1083419D2*
X-1076581D1*
X-983419D2*
X-976581D1*
X-883419D2*
X-876581D1*
X-783419D2*
X-776581D1*
X-683419D2*
X-129559D1*
X-70441D2*
X517354D1*
X582646D2*
X1563995D1*
X-1583995Y-555210D2*
X-1578642D1*
X-681358D2*
X-132734D1*
X-67266D2*
X520734D1*
X579266D2*
X1563995D1*
X-1583995Y-565079D2*
X-1578602D1*
X-681398D2*
X-132694D1*
X-67306D2*
X528966D1*
X571034D2*
X1563995D1*
X-1583995Y-574948D2*
X-1576483D1*
X-1483517D2*
X-1476483D1*
X-1383517D2*
X-1376483D1*
X-1283517D2*
X-1276483D1*
X-1183517D2*
X-1176483D1*
X-1083517D2*
X-1076483D1*
X-983517D2*
X-976483D1*
X-883517D2*
X-876483D1*
X-783517D2*
X-776483D1*
X-683517D2*
X-129403D1*
X-70597D2*
X112530D1*
X147470D2*
X1563995D1*
X-1583995Y-584816D2*
X-1571942D1*
X-1488058D2*
X-1471942D1*
X-1388058D2*
X-1371942D1*
X-1288058D2*
X-1271942D1*
X-1188058D2*
X-1171942D1*
X-1088058D2*
X-1071942D1*
X-988058D2*
X-971942D1*
X-888058D2*
X-871942D1*
X-688058D2*
X-121357D1*
X-78643D2*
X102218D1*
X157782D2*
X1563995D1*
X-1583995Y-594685D2*
X-1564003D1*
X-1495997D2*
X-1464003D1*
X-1395997D2*
X-1364003D1*
X-1295997D2*
X-1264003D1*
X-1195997D2*
X-1164003D1*
X-1095997D2*
X-1064003D1*
X-995997D2*
X-964003D1*
X-895997D2*
X-864003D1*
X-695997D2*
X97873D1*
X162127D2*
X1563995D1*
X-1583995Y-604554D2*
X-1548525D1*
X-1511475D2*
X-1448525D1*
X-1411475D2*
X-1348525D1*
X-1311475D2*
X-1248525D1*
X-1211475D2*
X-1148525D1*
X-1111475D2*
X-1048525D1*
X-1011475D2*
X-948525D1*
X-911475D2*
X-848525D1*
X-711475D2*
X96963D1*
X163037D2*
X1563995D1*
X-1583995Y-614423D2*
X-812791D1*
X-747209D2*
X99201D1*
X160799D2*
X1563995D1*
X-1583995Y-624291D2*
X-809745D1*
X-750255D2*
X105430D1*
X154570D2*
X1563995D1*
X-1583995Y-634160D2*
X-802127D1*
X-757873D2*
X123722D1*
X136278D2*
X1563995D1*
X-1583995Y-644029D2*
X1563995D1*
X-1583995Y-653898D2*
X1563995D1*
X-1583995Y-663766D2*
X-179491D1*
X-140509D2*
X210509D1*
X249491D2*
X1563995D1*
X-1583995Y-673635D2*
X-188613D1*
X-131387D2*
X201387D1*
X258613D2*
X1563995D1*
X-1583995Y-683504D2*
X-192430D1*
X-127570D2*
X197570D1*
X262430D2*
X1563995D1*
X-1583995Y-693373D2*
X-192919D1*
X-127081D2*
X197081D1*
X278925D2*
X1563995D1*
X-1583995Y-703241D2*
X-190243D1*
X-129757D2*
X199757D1*
X288378D2*
X1563995D1*
X-1583995Y-713110D2*
X-183270D1*
X-136730D2*
X206730D1*
X292353D2*
X1563995D1*
X-1583995Y-722979D2*
X227042D1*
X308319D2*
X1563995D1*
X-1583995Y-732848D2*
X229581D1*
X318134D2*
X1563995D1*
X-1583995Y-742717D2*
X236319D1*
X322265D2*
X1563995D1*
X-1583995Y-752585D2*
X257003D1*
X337694D2*
X1563995D1*
X-1583995Y-762454D2*
X259415D1*
X347879D2*
X1563995D1*
X-1583995Y-772323D2*
X265938D1*
X352167D2*
X1563995D1*
X-1583995Y-782192D2*
X286974D1*
X353026D2*
X1563995D1*
X-1583995Y-792060D2*
X-316795D1*
X-283205D2*
X289259D1*
X350741D2*
X1563995D1*
X-1583995Y-801929D2*
X-327529D1*
X-272471D2*
X173438D1*
X206562D2*
X295558D1*
X344442D2*
X1563995D1*
X-1583995Y-811798D2*
X-332030D1*
X-267970D2*
X162559D1*
X217441D2*
X314621D1*
X325379D2*
X1563995D1*
X-1583995Y-821667D2*
X-333055D1*
X-266945D2*
X157999D1*
X222001D2*
X1563995D1*
X-1583995Y-831535D2*
X-330957D1*
X-269043D2*
X156934D1*
X223066D2*
X1563995D1*
X-1583995Y-841404D2*
X-324921D1*
X-275079D2*
X158995D1*
X221005D2*
X1563995D1*
X-1583995Y-851273D2*
X-308231D1*
X-291769D2*
X164962D1*
X215038D2*
X1563995D1*
X-1583995Y-861142D2*
X181222D1*
X198778D2*
X1563995D1*
X-1583995Y-871010D2*
X1563995D1*
X-1583995Y-880879D2*
X1563995D1*
X-1583995Y-890748D2*
X1563995D1*
X-1583995Y-900617D2*
X1563995D1*
X-1583995Y-910486D2*
X1563995D1*
X-1583995Y-920354D2*
X-803299D1*
X-776701D2*
X-743299D1*
X-716701D2*
X1563995D1*
X-1583995Y-930223D2*
X-816278D1*
X-763722D2*
X-756278D1*
X-703722D2*
X-682987D1*
X-657013D2*
X7013D1*
X32987D2*
X1563995D1*
X-1583995Y-940092D2*
X-821533D1*
X-643819D2*
X-6181D1*
X46181D2*
X1563995D1*
X-1583995Y-949961D2*
X-823094D1*
X-638517D2*
X-11483D1*
X51483D2*
X1563995D1*
X-1583995Y-959829D2*
X-821551D1*
X-636906D2*
X-71953D1*
X-48047D2*
X-13094D1*
X53094D2*
X1563995D1*
X-1583995Y-969698D2*
X-816346D1*
X-763654D2*
X-756346D1*
X-638399D2*
X-85858D1*
X-34142D2*
X-11601D1*
X51601D2*
X1563995D1*
X-1583995Y-979567D2*
X-803495D1*
X-776505D2*
X-743495D1*
X-716505D2*
X-696445D1*
X-643555D2*
X-91357D1*
X-28643D2*
X-6445D1*
X46445D2*
X1563995D1*
X-1583995Y-989436D2*
X-683798D1*
X-656202D2*
X-93094D1*
X-26906D2*
X6202D1*
X33798D2*
X1563995D1*
X-1583995Y-999304D2*
X-91718D1*
X-28282D2*
X1563995D1*
X-1583995Y-1009173D2*
X-86738D1*
X-33262D2*
X1563995D1*
X-1583995Y-1019042D2*
X-74667D1*
X-45333D2*
X1563995D1*
X-1583995Y-1028911D2*
X1563995D1*
X-1583995Y-1038780D2*
X1563995D1*
X-1583995Y-1048648D2*
X1563995D1*
X-1084449Y1497719D2*
X-1010630D1*
X-1005639Y1497458D1*
X-1000703Y1496676D1*
X-995875Y1495382D1*
X-991210Y1493589D1*
X-986759Y1491319D1*
X-982567Y1488596D1*
X-978685Y1485450D1*
X-975152Y1481913D1*
X-972009Y1478029D1*
X-969290Y1473836D1*
X-967024Y1469381D1*
X-965235Y1464714D1*
X-963945Y1459886D1*
X-963168Y1454949D1*
X-962911Y1449958D1*
X-963176Y1444967D1*
X-963963Y1440031D1*
X-965261Y1435206D1*
X-967058Y1430542D1*
X-969332Y1426092D1*
X-972059Y1421903D1*
X-975209Y1418024D1*
X-978747Y1414495D1*
X-982635Y1411354D1*
X-986831Y1408639D1*
X-991287Y1406377D1*
X-995955Y1404593D1*
X-1000785Y1403307D1*
X-1005723Y1402533D1*
X-1010630Y1402281D1*
X-1089370D1*
X-1094361Y1402542D1*
X-1099297Y1403324D1*
X-1104125Y1404618D1*
X-1108790Y1406411D1*
X-1113241Y1408681D1*
X-1117433Y1411404D1*
X-1121315Y1414550D1*
X-1124848Y1418087D1*
X-1127991Y1421971D1*
X-1130710Y1426164D1*
X-1132976Y1430619D1*
X-1134765Y1435286D1*
X-1136055Y1440114D1*
X-1136832Y1445051D1*
X-1137089Y1450042D1*
X-1136824Y1455033D1*
X-1136037Y1459969D1*
X-1134739Y1464794D1*
X-1132942Y1469458D1*
X-1130668Y1473908D1*
X-1127941Y1478097D1*
X-1124791Y1481976D1*
X-1121253Y1485505D1*
X-1117365Y1488646D1*
X-1113169Y1491361D1*
X-1108713Y1493623D1*
X-1104045Y1495407D1*
X-1099215Y1496693D1*
X-1094277Y1497467D1*
X-1089370Y1497719D1*
X-1084449D1*
X-1290633Y1295472D2*
Y1369291D1*
X-1290371Y1374282D1*
X-1289589Y1379218D1*
X-1288295Y1384046D1*
X-1286503Y1388711D1*
X-1284232Y1393163D1*
X-1281509Y1397354D1*
X-1278364Y1401236D1*
X-1274828Y1404769D1*
X-1270942Y1407912D1*
X-1266749Y1410631D1*
X-1262294Y1412898D1*
X-1257627Y1414686D1*
X-1252799Y1415976D1*
X-1247862Y1416753D1*
X-1242871Y1417010D1*
X-1237881Y1416745D1*
X-1232945Y1415958D1*
X-1228119Y1414660D1*
X-1223455Y1412864D1*
X-1219005Y1410589D1*
X-1214816Y1407862D1*
X-1210937Y1404713D1*
X-1207408Y1401175D1*
X-1204268Y1397286D1*
X-1201552Y1393091D1*
X-1199290Y1388634D1*
X-1197507Y1383966D1*
X-1196220Y1379136D1*
X-1195446Y1374198D1*
X-1195194Y1369291D1*
Y1290551D1*
X-1195455Y1285560D1*
X-1196238Y1280625D1*
X-1197531Y1275797D1*
X-1199324Y1271131D1*
X-1201594Y1266680D1*
X-1204318Y1262488D1*
X-1207463Y1258606D1*
X-1210999Y1255073D1*
X-1214885Y1251930D1*
X-1219077Y1249211D1*
X-1223533Y1246945D1*
X-1228199Y1245156D1*
X-1233028Y1243866D1*
X-1237965Y1243089D1*
X-1242955Y1242832D1*
X-1247946Y1243097D1*
X-1252882Y1243885D1*
X-1257707Y1245182D1*
X-1262371Y1246979D1*
X-1266822Y1249253D1*
X-1271010Y1251980D1*
X-1274890Y1255130D1*
X-1278419Y1258668D1*
X-1281559Y1262556D1*
X-1284274Y1266752D1*
X-1286537Y1271209D1*
X-1288320Y1275877D1*
X-1289606Y1280706D1*
X-1290381Y1285644D1*
X-1290633Y1290551D1*
Y1295472D1*
X-1094291Y1261499D2*
X-1000787D1*
X-995797Y1261238D1*
X-990861Y1260455D1*
X-986033Y1259161D1*
X-981367Y1257369D1*
X-976916Y1255098D1*
X-972724Y1252375D1*
X-968843Y1249230D1*
X-965310Y1245694D1*
X-962167Y1241808D1*
X-959448Y1237615D1*
X-957181Y1233160D1*
X-955392Y1228493D1*
X-954102Y1223665D1*
X-953325Y1218728D1*
X-953068Y1213738D1*
X-953333Y1208747D1*
X-954121Y1203811D1*
X-955419Y1198986D1*
X-957215Y1194322D1*
X-959490Y1189871D1*
X-962217Y1185682D1*
X-965366Y1181803D1*
X-968904Y1178274D1*
X-972793Y1175134D1*
X-976988Y1172419D1*
X-981445Y1170156D1*
X-986113Y1168373D1*
X-990942Y1167087D1*
X-995881Y1166312D1*
X-1000787Y1166060D1*
X-1099213D1*
X-1104203Y1166322D1*
X-1109139Y1167104D1*
X-1113967Y1168398D1*
X-1118633Y1170190D1*
X-1123084Y1172461D1*
X-1127276Y1175184D1*
X-1131157Y1178329D1*
X-1134690Y1181865D1*
X-1137833Y1185751D1*
X-1140552Y1189944D1*
X-1142819Y1194399D1*
X-1144608Y1199066D1*
X-1145898Y1203894D1*
X-1146675Y1208831D1*
X-1146932Y1213822D1*
X-1146667Y1218812D1*
X-1145879Y1223748D1*
X-1144581Y1228573D1*
X-1142785Y1233238D1*
X-1140510Y1237688D1*
X-1137783Y1241877D1*
X-1134634Y1245756D1*
X-1131096Y1249285D1*
X-1127207Y1252425D1*
X-1123012Y1255140D1*
X-1118555Y1257403D1*
X-1113887Y1259186D1*
X-1109058Y1260472D1*
X-1104119Y1261247D1*
X-1099213Y1261499D1*
X-1094291D1*
X-1352067Y448760D2*
X-1352835Y443857D1*
X-1354101Y439060D1*
X-1355856Y434419D1*
X-1358077Y429983D1*
X-1360743Y425798D1*
X-1363825Y421909D1*
X-1367291Y418358D1*
X-1371104Y415182D1*
X-1375222Y412416D1*
X-1379604Y410088D1*
X-1384201Y408222D1*
X-1388966Y406839D1*
X-1393848Y405953D1*
X-1398795Y405573D1*
X-1403755Y405705D1*
X-1408676Y406346D1*
X-1413504Y407490D1*
X-1418189Y409123D1*
X-1422681Y411230D1*
X-1426933Y413787D1*
X-1430899Y416768D1*
X-1434538Y420142D1*
X-1437811Y423870D1*
X-1440682Y427916D1*
X-1443123Y432236D1*
X-1445106Y436785D1*
X-1446613Y441512D1*
X-1447623Y446370D1*
X-1448130Y451306D1*
X-1448126Y456268D1*
X-1447613Y461202D1*
X-1446594Y466059D1*
X-1445081Y470785D1*
X-1443091Y475329D1*
X-1440644Y479646D1*
X-1437766Y483688D1*
X-1434488Y487412D1*
X-1430844Y490780D1*
X-1426873Y493755D1*
X-1422617Y496306D1*
X-1418122Y498406D1*
X-1413434Y500033D1*
X-1408605Y501168D1*
X-1403684Y501802D1*
X-1398723Y501927D1*
X-1393777Y501539D1*
X-1388896Y500646D1*
X-1384133Y499256D1*
X-1379538Y497383D1*
X-1375160Y495047D1*
X-1371046Y492276D1*
X-1367238Y489093D1*
X-1363777Y485538D1*
X-1360701Y481644D1*
X-1358042Y477457D1*
X-1355827Y473016D1*
X-1354080Y468373D1*
X-1352819Y463573D1*
X-1352059Y458669D1*
X-1351808Y453751D1*
X-1352067Y448760D1*
X-1252067D2*
X-1252835Y443857D1*
X-1254101Y439060D1*
X-1255856Y434419D1*
X-1258077Y429983D1*
X-1260743Y425798D1*
X-1263825Y421909D1*
X-1267291Y418358D1*
X-1271104Y415182D1*
X-1275222Y412416D1*
X-1279604Y410088D1*
X-1284201Y408222D1*
X-1288966Y406839D1*
X-1293848Y405953D1*
X-1298795Y405573D1*
X-1303755Y405705D1*
X-1308676Y406346D1*
X-1313504Y407490D1*
X-1318189Y409123D1*
X-1322681Y411230D1*
X-1326933Y413787D1*
X-1330899Y416768D1*
X-1334538Y420142D1*
X-1337811Y423870D1*
X-1340682Y427916D1*
X-1343123Y432236D1*
X-1345106Y436785D1*
X-1346613Y441512D1*
X-1347623Y446370D1*
X-1348130Y451306D1*
X-1348126Y456268D1*
X-1347613Y461202D1*
X-1346594Y466059D1*
X-1345081Y470785D1*
X-1343091Y475329D1*
X-1340644Y479646D1*
X-1337766Y483688D1*
X-1334488Y487412D1*
X-1330844Y490780D1*
X-1326873Y493755D1*
X-1322617Y496306D1*
X-1318122Y498406D1*
X-1313434Y500033D1*
X-1308605Y501168D1*
X-1303684Y501802D1*
X-1298723Y501927D1*
X-1293777Y501539D1*
X-1288896Y500646D1*
X-1284133Y499256D1*
X-1279538Y497383D1*
X-1275160Y495047D1*
X-1271046Y492276D1*
X-1267238Y489093D1*
X-1263777Y485538D1*
X-1260701Y481644D1*
X-1258042Y477457D1*
X-1255827Y473016D1*
X-1254080Y468373D1*
X-1252819Y463573D1*
X-1252059Y458669D1*
X-1251808Y453751D1*
X-1252067Y448760D1*
X-1152067D2*
X-1152835Y443857D1*
X-1154101Y439060D1*
X-1155856Y434419D1*
X-1158077Y429983D1*
X-1160743Y425798D1*
X-1163825Y421909D1*
X-1167291Y418358D1*
X-1171104Y415182D1*
X-1175222Y412416D1*
X-1179604Y410088D1*
X-1184201Y408222D1*
X-1188966Y406839D1*
X-1193848Y405953D1*
X-1198795Y405573D1*
X-1203755Y405705D1*
X-1208676Y406346D1*
X-1213504Y407490D1*
X-1218189Y409123D1*
X-1222681Y411230D1*
X-1226933Y413787D1*
X-1230899Y416768D1*
X-1234538Y420142D1*
X-1237811Y423870D1*
X-1240682Y427916D1*
X-1243123Y432236D1*
X-1245106Y436785D1*
X-1246613Y441512D1*
X-1247623Y446370D1*
X-1248130Y451306D1*
X-1248126Y456268D1*
X-1247613Y461202D1*
X-1246594Y466059D1*
X-1245081Y470785D1*
X-1243091Y475329D1*
X-1240644Y479646D1*
X-1237766Y483688D1*
X-1234488Y487412D1*
X-1230844Y490780D1*
X-1226873Y493755D1*
X-1222617Y496306D1*
X-1218122Y498406D1*
X-1213434Y500033D1*
X-1208605Y501168D1*
X-1203684Y501802D1*
X-1198723Y501927D1*
X-1193777Y501539D1*
X-1188896Y500646D1*
X-1184133Y499256D1*
X-1179538Y497383D1*
X-1175160Y495047D1*
X-1171046Y492276D1*
X-1167238Y489093D1*
X-1163777Y485538D1*
X-1160701Y481644D1*
X-1158042Y477457D1*
X-1155827Y473016D1*
X-1154080Y468373D1*
X-1152819Y463573D1*
X-1152059Y458669D1*
X-1151808Y453751D1*
X-1152067Y448760D1*
X-1052067D2*
X-1052835Y443857D1*
X-1054101Y439060D1*
X-1055856Y434419D1*
X-1058077Y429983D1*
X-1060743Y425798D1*
X-1063825Y421909D1*
X-1067291Y418358D1*
X-1071104Y415182D1*
X-1075222Y412416D1*
X-1079604Y410088D1*
X-1084201Y408222D1*
X-1088966Y406839D1*
X-1093848Y405953D1*
X-1098795Y405573D1*
X-1103755Y405705D1*
X-1108676Y406346D1*
X-1113504Y407490D1*
X-1118189Y409123D1*
X-1122681Y411230D1*
X-1126933Y413787D1*
X-1130899Y416768D1*
X-1134538Y420142D1*
X-1137811Y423870D1*
X-1140682Y427916D1*
X-1143123Y432236D1*
X-1145106Y436785D1*
X-1146613Y441512D1*
X-1147623Y446370D1*
X-1148130Y451306D1*
X-1148126Y456268D1*
X-1147613Y461202D1*
X-1146594Y466059D1*
X-1145081Y470785D1*
X-1143091Y475329D1*
X-1140644Y479646D1*
X-1137766Y483688D1*
X-1134488Y487412D1*
X-1130844Y490780D1*
X-1126873Y493755D1*
X-1122617Y496306D1*
X-1118122Y498406D1*
X-1113434Y500033D1*
X-1108605Y501168D1*
X-1103684Y501802D1*
X-1098723Y501927D1*
X-1093777Y501539D1*
X-1088896Y500646D1*
X-1084133Y499256D1*
X-1079538Y497383D1*
X-1075160Y495047D1*
X-1071046Y492276D1*
X-1067238Y489093D1*
X-1063777Y485538D1*
X-1060701Y481644D1*
X-1058042Y477457D1*
X-1055827Y473016D1*
X-1054080Y468373D1*
X-1052819Y463573D1*
X-1052059Y458669D1*
X-1051808Y453751D1*
X-1052067Y448760D1*
X-951837Y452084D2*
X-951923Y450423D1*
X-952067Y448765D1*
X-952266Y447114D1*
X-952525Y445470D1*
X-952839Y443836D1*
X-953209Y442215D1*
X-953635Y440606D1*
X-954117Y439014D1*
X-954652Y437440D1*
X-955243Y435883D1*
X-955886Y434349D1*
X-956581Y432839D1*
X-957329Y431352D1*
X-958127Y429892D1*
X-958976Y428462D1*
X-959874Y427060D1*
X-960819Y425692D1*
X-961811Y424356D1*
X-962848Y423055D1*
X-963929Y421791D1*
X-965054Y420566D1*
X-966220Y419379D1*
X-967427Y418234D1*
X-968672Y417130D1*
X-969955Y416071D1*
X-971273Y415056D1*
X-972626Y414088D1*
X-974012Y413167D1*
X-975428Y412294D1*
X-976874Y411470D1*
X-978346Y410697D1*
X-979845Y409975D1*
X-981369Y409306D1*
X-982913Y408689D1*
X-984479Y408126D1*
X-986063Y407618D1*
X-987664Y407164D1*
X-989280Y406766D1*
X-990907Y406424D1*
X-992546Y406139D1*
X-994194Y405909D1*
X-995849Y405738D1*
X-997508Y405623D1*
X-999171Y405566D1*
X-1000835D1*
X-1002497Y405623D1*
X-1004157Y405738D1*
X-1005812Y405911D1*
X-1007459Y406139D1*
X-1009098Y406425D1*
X-1010727Y406768D1*
X-1012343Y407165D1*
X-1013942Y407619D1*
X-1015526Y408129D1*
X-1017092Y408692D1*
X-1018636Y409308D1*
X-1020160Y409978D1*
X-1021659Y410699D1*
X-1023131Y411472D1*
X-1024577Y412297D1*
X-1025993Y413169D1*
X-1027379Y414091D1*
X-1028731Y415059D1*
X-1030050Y416075D1*
X-1031332Y417134D1*
X-1032577Y418238D1*
X-1033783Y419383D1*
X-1034950Y420570D1*
X-1036075Y421795D1*
X-1037156Y423060D1*
X-1038193Y424361D1*
X-1039185Y425697D1*
X-1040130Y427066D1*
X-1041026Y428466D1*
X-1041875Y429898D1*
X-1042673Y431357D1*
X-1043421Y432844D1*
X-1044117Y434354D1*
X-1044760Y435888D1*
X-1045349Y437445D1*
X-1045886Y439020D1*
X-1046366Y440612D1*
X-1046793Y442220D1*
X-1047163Y443843D1*
X-1047476Y445476D1*
X-1047734Y447119D1*
X-1047934Y448772D1*
X-1048077Y450429D1*
X-1048164Y452091D1*
X-1048192Y453753D1*
X-1048163Y455417D1*
X-1048077Y457079D1*
X-1047933Y458736D1*
X-1047734Y460387D1*
X-1047475Y462031D1*
X-1047161Y463665D1*
X-1046791Y465286D1*
X-1046365Y466895D1*
X-1045883Y468487D1*
X-1045348Y470062D1*
X-1044757Y471618D1*
X-1044114Y473152D1*
X-1043419Y474663D1*
X-1042671Y476150D1*
X-1041873Y477609D1*
X-1041024Y479039D1*
X-1040126Y480441D1*
X-1039181Y481810D1*
X-1038189Y483146D1*
X-1037152Y484446D1*
X-1036071Y485710D1*
X-1034946Y486936D1*
X-1033780Y488122D1*
X-1032573Y489268D1*
X-1031328Y490371D1*
X-1030045Y491430D1*
X-1028727Y492445D1*
X-1027374Y493413D1*
X-1025988Y494335D1*
X-1024572Y495207D1*
X-1023126Y496031D1*
X-1021654Y496804D1*
X-1020155Y497526D1*
X-1018631Y498196D1*
X-1017087Y498812D1*
X-1015521Y499375D1*
X-1013937Y499883D1*
X-1012336Y500337D1*
X-1010720Y500735D1*
X-1009093Y501077D1*
X-1007454Y501362D1*
X-1005806Y501592D1*
X-1004151Y501764D1*
X-1002492Y501878D1*
X-1000829Y501936D1*
X-999165D1*
X-997503Y501878D1*
X-995843Y501764D1*
X-994188Y501591D1*
X-992541Y501362D1*
X-990902Y501076D1*
X-989273Y500734D1*
X-987657Y500336D1*
X-986058Y499882D1*
X-984474Y499373D1*
X-982908Y498810D1*
X-981364Y498193D1*
X-979840Y497524D1*
X-978341Y496802D1*
X-976869Y496029D1*
X-975423Y495205D1*
X-974007Y494332D1*
X-972621Y493411D1*
X-971269Y492442D1*
X-969950Y491427D1*
X-968668Y490367D1*
X-967423Y489264D1*
X-966217Y488118D1*
X-965050Y486932D1*
X-963925Y485706D1*
X-962844Y484441D1*
X-961807Y483140D1*
X-960815Y481804D1*
X-959870Y480436D1*
X-958974Y479035D1*
X-958125Y477604D1*
X-957327Y476144D1*
X-956579Y474657D1*
X-955883Y473147D1*
X-955240Y471613D1*
X-954651Y470056D1*
X-954114Y468482D1*
X-953634Y466890D1*
X-953207Y465281D1*
X-952837Y463659D1*
X-952524Y462025D1*
X-952266Y460382D1*
X-952066Y458730D1*
X-951923Y457072D1*
X-951836Y455411D1*
X-951808Y453751D1*
X-951837Y452084D1*
X-422542Y145009D2*
X-423324Y140076D1*
X-424617Y135251D1*
X-426407Y130588D1*
X-428675Y126138D1*
X-431395Y121949D1*
X-434539Y118067D1*
X-438071Y114535D1*
X-441953Y111392D1*
X-446143Y108672D1*
X-450593Y106404D1*
X-455256Y104615D1*
X-460081Y103323D1*
X-465014Y102542D1*
X-470003Y102281D1*
X-474991Y102542D1*
X-479924Y103324D1*
X-484749Y104617D1*
X-489412Y106407D1*
X-493862Y108675D1*
X-498051Y111395D1*
X-501933Y114539D1*
X-505465Y118071D1*
X-508608Y121953D1*
X-511328Y126143D1*
X-513596Y130593D1*
X-515385Y135256D1*
X-516677Y140081D1*
X-517458Y145014D1*
X-517719Y150003D1*
X-517458Y154991D1*
X-516676Y159924D1*
X-515383Y164749D1*
X-513593Y169412D1*
X-511325Y173862D1*
X-508605Y178051D1*
X-505461Y181933D1*
X-501929Y185465D1*
X-498047Y188608D1*
X-493857Y191328D1*
X-489407Y193596D1*
X-484744Y195385D1*
X-479919Y196677D1*
X-474986Y197458D1*
X-469997Y197719D1*
X-465009Y197458D1*
X-460076Y196676D1*
X-455251Y195383D1*
X-450588Y193593D1*
X-446138Y191325D1*
X-441949Y188605D1*
X-438067Y185461D1*
X-434535Y181929D1*
X-431392Y178047D1*
X-428672Y173857D1*
X-426404Y169407D1*
X-424615Y164744D1*
X-423323Y159919D1*
X-422542Y154986D1*
X-422281Y150000D1*
X-422542Y145009D1*
X347458Y-4991D2*
X346676Y-9924D1*
X345383Y-14749D1*
X343593Y-19412D1*
X341325Y-23862D1*
X338605Y-28051D1*
X335461Y-31933D1*
X331929Y-35465D1*
X328047Y-38608D1*
X323857Y-41328D1*
X319407Y-43596D1*
X314744Y-45385D1*
X309919Y-46677D1*
X304986Y-47458D1*
X299997Y-47719D1*
X295009Y-47458D1*
X290076Y-46676D1*
X285251Y-45383D1*
X280588Y-43593D1*
X276138Y-41325D1*
X271949Y-38605D1*
X268067Y-35461D1*
X264535Y-31929D1*
X261392Y-28047D1*
X258672Y-23857D1*
X256404Y-19407D1*
X254615Y-14744D1*
X253323Y-9919D1*
X252542Y-4986D1*
X252281Y3D1*
X252542Y4991D1*
X253324Y9924D1*
X254617Y14749D1*
X256407Y19412D1*
X258675Y23862D1*
X261395Y28051D1*
X264539Y31933D1*
X268071Y35465D1*
X271953Y38608D1*
X276143Y41328D1*
X280593Y43596D1*
X285256Y45385D1*
X290081Y46677D1*
X295014Y47458D1*
X300003Y47719D1*
X304991Y47458D1*
X309924Y46676D1*
X314749Y45383D1*
X319412Y43593D1*
X323862Y41325D1*
X328051Y38605D1*
X331933Y35461D1*
X335465Y31929D1*
X338608Y28047D1*
X341328Y23857D1*
X343596Y19407D1*
X345385Y14744D1*
X346677Y9919D1*
X347458Y4986D1*
X347719Y0D1*
X347458Y-4991D1*
X7458Y305009D2*
X6676Y300076D1*
X5383Y295251D1*
X3593Y290588D1*
X1325Y286138D1*
X-1395Y281949D1*
X-4539Y278067D1*
X-8071Y274535D1*
X-11953Y271392D1*
X-16143Y268672D1*
X-20593Y266404D1*
X-25256Y264615D1*
X-30081Y263323D1*
X-35014Y262542D1*
X-40003Y262281D1*
X-44991Y262542D1*
X-49924Y263324D1*
X-54749Y264617D1*
X-59412Y266407D1*
X-63862Y268675D1*
X-68051Y271395D1*
X-71933Y274539D1*
X-75465Y278071D1*
X-78608Y281953D1*
X-81328Y286143D1*
X-83596Y290593D1*
X-85385Y295256D1*
X-86677Y300081D1*
X-87458Y305014D1*
X-87719Y310003D1*
X-87458Y314991D1*
X-86676Y319924D1*
X-85383Y324749D1*
X-83593Y329412D1*
X-81325Y333862D1*
X-78605Y338051D1*
X-75461Y341933D1*
X-71929Y345465D1*
X-68047Y348608D1*
X-63857Y351328D1*
X-59407Y353596D1*
X-54744Y355385D1*
X-49919Y356677D1*
X-44986Y357458D1*
X-39997Y357719D1*
X-35009Y357458D1*
X-30076Y356676D1*
X-25251Y355383D1*
X-20588Y353593D1*
X-16138Y351325D1*
X-11949Y348605D1*
X-8067Y345461D1*
X-4535Y341929D1*
X-1392Y338047D1*
X1328Y333857D1*
X3596Y329407D1*
X5385Y324744D1*
X6677Y319919D1*
X7458Y314986D1*
X7719Y310000D1*
X7458Y305009D1*
X-128291Y-694980D2*
X-129461Y-699879D1*
X-131382Y-704534D1*
X-134008Y-708832D1*
X-137274Y-712667D1*
X-141100Y-715942D1*
X-145391Y-718580D1*
X-150042Y-720513D1*
X-154937Y-721696D1*
X-159958Y-722097D1*
X-164980Y-721709D1*
X-169879Y-720539D1*
X-174534Y-718618D1*
X-178832Y-715992D1*
X-182667Y-712726D1*
X-185942Y-708900D1*
X-188580Y-704609D1*
X-190513Y-699958D1*
X-191696Y-695063D1*
X-192097Y-690042D1*
X-191709Y-685020D1*
X-190539Y-680121D1*
X-188618Y-675466D1*
X-185992Y-671168D1*
X-182726Y-667333D1*
X-178900Y-664058D1*
X-174609Y-661420D1*
X-169958Y-659487D1*
X-165063Y-658304D1*
X-160042Y-657903D1*
X-155020Y-658291D1*
X-150121Y-659461D1*
X-145466Y-661382D1*
X-141168Y-664008D1*
X-137333Y-667274D1*
X-134058Y-671100D1*
X-131420Y-675391D1*
X-129487Y-680042D1*
X-128304Y-684937D1*
X-127903Y-690000D1*
X-128291Y-694980D1*
X-892325Y1035014D2*
X-893298Y1030139D1*
X-894899Y1025433D1*
X-897101Y1020976D1*
X-899866Y1016845D1*
X-903146Y1013110D1*
X-906886Y1009835D1*
X-911021Y1007076D1*
X-915480Y1004881D1*
X-920189Y1003285D1*
X-925064Y1002319D1*
X-930025Y1001997D1*
X-934986Y1002325D1*
X-939861Y1003298D1*
X-944567Y1004899D1*
X-949024Y1007101D1*
X-953155Y1009866D1*
X-956890Y1013146D1*
X-960165Y1016886D1*
X-962924Y1021021D1*
X-965119Y1025480D1*
X-966715Y1030189D1*
X-967681Y1035064D1*
X-968003Y1040025D1*
X-967675Y1044986D1*
X-966702Y1049861D1*
X-965101Y1054567D1*
X-962899Y1059024D1*
X-960134Y1063155D1*
X-956854Y1066890D1*
X-953114Y1070165D1*
X-948979Y1072924D1*
X-944520Y1075119D1*
X-939811Y1076715D1*
X-934936Y1077681D1*
X-929975Y1078003D1*
X-925014Y1077675D1*
X-920139Y1076702D1*
X-915433Y1075101D1*
X-910976Y1072899D1*
X-906845Y1070134D1*
X-903110Y1066854D1*
X-899835Y1063114D1*
X-897076Y1058979D1*
X-894881Y1054520D1*
X-893285Y1049811D1*
X-892319Y1044936D1*
X-891997Y1040000D1*
X-892325Y1035014D1*
X-1032325Y715014D2*
X-1033298Y710139D1*
X-1034899Y705433D1*
X-1037101Y700976D1*
X-1039866Y696845D1*
X-1043146Y693110D1*
X-1046886Y689835D1*
X-1051021Y687076D1*
X-1055480Y684881D1*
X-1060189Y683285D1*
X-1065064Y682319D1*
X-1070025Y681997D1*
X-1074986Y682325D1*
X-1079861Y683298D1*
X-1084567Y684899D1*
X-1089024Y687101D1*
X-1093155Y689866D1*
X-1096890Y693146D1*
X-1100165Y696886D1*
X-1102924Y701021D1*
X-1105119Y705480D1*
X-1106715Y710189D1*
X-1107681Y715064D1*
X-1108003Y720025D1*
X-1107675Y724986D1*
X-1106702Y729861D1*
X-1105101Y734567D1*
X-1102899Y739024D1*
X-1100134Y743155D1*
X-1096854Y746890D1*
X-1093114Y750165D1*
X-1088979Y752924D1*
X-1084520Y755119D1*
X-1079811Y756715D1*
X-1074936Y757681D1*
X-1069975Y758003D1*
X-1065014Y757675D1*
X-1060139Y756702D1*
X-1055433Y755101D1*
X-1050976Y752899D1*
X-1046845Y750134D1*
X-1043110Y746854D1*
X-1039835Y743114D1*
X-1037076Y738979D1*
X-1034881Y734520D1*
X-1033285Y729811D1*
X-1032319Y724936D1*
X-1031997Y720000D1*
X-1032325Y715014D1*
X-922325Y635014D2*
X-923298Y630139D1*
X-924899Y625433D1*
X-927101Y620976D1*
X-929866Y616845D1*
X-933146Y613110D1*
X-936886Y609835D1*
X-941021Y607076D1*
X-945480Y604881D1*
X-950189Y603285D1*
X-955064Y602319D1*
X-960025Y601997D1*
X-964986Y602325D1*
X-969861Y603298D1*
X-974567Y604899D1*
X-979024Y607101D1*
X-983155Y609866D1*
X-986890Y613146D1*
X-990165Y616886D1*
X-992924Y621021D1*
X-995119Y625480D1*
X-996715Y630189D1*
X-997681Y635064D1*
X-998003Y640025D1*
X-997675Y644986D1*
X-996702Y649861D1*
X-995101Y654567D1*
X-992899Y659024D1*
X-990134Y663155D1*
X-986854Y666890D1*
X-983114Y670165D1*
X-978979Y672924D1*
X-974520Y675119D1*
X-969811Y676715D1*
X-964936Y677681D1*
X-959975Y678003D1*
X-955014Y677675D1*
X-950139Y676702D1*
X-945433Y675101D1*
X-940976Y672899D1*
X-936845Y670134D1*
X-933110Y666854D1*
X-929835Y663114D1*
X-927076Y658979D1*
X-924881Y654520D1*
X-923285Y649811D1*
X-922319Y644936D1*
X-921997Y640000D1*
X-922325Y635014D1*
X-748291Y-614980D2*
X-749461Y-619879D1*
X-751382Y-624534D1*
X-754008Y-628832D1*
X-757274Y-632667D1*
X-761100Y-635942D1*
X-765391Y-638580D1*
X-770042Y-640513D1*
X-774937Y-641696D1*
X-779958Y-642097D1*
X-784980Y-641709D1*
X-789879Y-640539D1*
X-794534Y-638618D1*
X-798832Y-635992D1*
X-802667Y-632726D1*
X-805942Y-628900D1*
X-808580Y-624609D1*
X-810513Y-619958D1*
X-811696Y-615063D1*
X-812097Y-610042D1*
X-811709Y-605020D1*
X-811504Y-604164D1*
X-815192Y-605530D1*
X-820033Y-606828D1*
X-824982Y-607613D1*
X-829987Y-607877D1*
X-834991Y-607617D1*
X-839941Y-606833D1*
X-844782Y-605538D1*
X-849461Y-603744D1*
X-853927Y-601470D1*
X-858130Y-598741D1*
X-862026Y-595589D1*
X-865571Y-592046D1*
X-868726Y-588152D1*
X-871455Y-583950D1*
X-873732Y-579486D1*
X-875530Y-574808D1*
X-876828Y-569967D1*
X-877613Y-565018D1*
X-877877Y-560013D1*
X-877617Y-555009D1*
X-876833Y-550059D1*
X-875538Y-545218D1*
X-873744Y-540539D1*
X-871470Y-536073D1*
X-868741Y-531870D1*
X-865589Y-527974D1*
X-862046Y-524429D1*
X-858152Y-521274D1*
X-853950Y-518545D1*
X-849486Y-516268D1*
X-844808Y-514470D1*
X-839967Y-513172D1*
X-835018Y-512387D1*
X-830013Y-512123D1*
X-825009Y-512383D1*
X-820059Y-513167D1*
X-815218Y-514462D1*
X-810539Y-516256D1*
X-806073Y-518530D1*
X-801870Y-521259D1*
X-797974Y-524411D1*
X-794429Y-527954D1*
X-791274Y-531848D1*
X-788545Y-536050D1*
X-786268Y-540514D1*
X-784470Y-545192D1*
X-783172Y-550033D1*
X-782387Y-554982D1*
X-782123Y-560000D1*
X-782383Y-564991D1*
X-783167Y-569941D1*
X-784462Y-574782D1*
X-785866Y-578442D1*
X-785063Y-578304D1*
X-780042Y-577903D1*
X-775020Y-578291D1*
X-774164Y-578496D1*
X-775530Y-574808D1*
X-776828Y-569967D1*
X-777613Y-565018D1*
X-777877Y-560013D1*
X-777617Y-555009D1*
X-776833Y-550059D1*
X-775538Y-545218D1*
X-773744Y-540539D1*
X-771470Y-536073D1*
X-768741Y-531870D1*
X-765589Y-527974D1*
X-762046Y-524429D1*
X-758152Y-521274D1*
X-753950Y-518545D1*
X-749486Y-516268D1*
X-744808Y-514470D1*
X-739967Y-513172D1*
X-735018Y-512387D1*
X-730013Y-512123D1*
X-725009Y-512383D1*
X-720059Y-513167D1*
X-715218Y-514462D1*
X-710539Y-516256D1*
X-706073Y-518530D1*
X-701870Y-521259D1*
X-697974Y-524411D1*
X-694429Y-527954D1*
X-691274Y-531848D1*
X-688545Y-536050D1*
X-686268Y-540514D1*
X-684470Y-545192D1*
X-683172Y-550033D1*
X-682387Y-554982D1*
X-682123Y-560000D1*
X-682383Y-564991D1*
X-683167Y-569941D1*
X-684462Y-574782D1*
X-686256Y-579461D1*
X-688530Y-583927D1*
X-691259Y-588130D1*
X-694411Y-592026D1*
X-697954Y-595571D1*
X-701848Y-598726D1*
X-706050Y-601455D1*
X-710514Y-603732D1*
X-715192Y-605530D1*
X-720033Y-606828D1*
X-724982Y-607613D1*
X-729987Y-607877D1*
X-734991Y-607617D1*
X-739941Y-606833D1*
X-744782Y-605538D1*
X-748442Y-604134D1*
X-748304Y-604937D1*
X-747903Y-610000D1*
X-748291Y-614980D1*
X-425058Y-80064D2*
X-427274Y-82667D1*
X-431100Y-85942D1*
X-435391Y-88580D1*
X-440042Y-90513D1*
X-444937Y-91696D1*
X-449958Y-92097D1*
X-454980Y-91709D1*
X-459879Y-90539D1*
X-464534Y-88618D1*
X-468832Y-85992D1*
X-472667Y-82726D1*
X-475942Y-78900D1*
X-478580Y-74609D1*
X-480513Y-69958D1*
X-481696Y-65063D1*
X-482097Y-60042D1*
X-481709Y-55020D1*
X-480539Y-50121D1*
X-478618Y-45466D1*
X-475992Y-41168D1*
X-472726Y-37333D1*
X-468900Y-34058D1*
X-464609Y-31420D1*
X-459958Y-29487D1*
X-455063Y-28304D1*
X-450042Y-27903D1*
X-445020Y-28291D1*
X-440121Y-29461D1*
X-435466Y-31382D1*
X-431168Y-34008D1*
X-427333Y-37274D1*
X-425052Y-39938D1*
X-422726Y-37333D1*
X-418900Y-34058D1*
X-414609Y-31420D1*
X-409958Y-29487D1*
X-405063Y-28304D1*
X-400042Y-27903D1*
X-395020Y-28291D1*
X-390121Y-29461D1*
X-385466Y-31382D1*
X-381168Y-34008D1*
X-377333Y-37274D1*
X-374058Y-41100D1*
X-371420Y-45391D1*
X-369487Y-50042D1*
X-368304Y-54937D1*
X-367903Y-60000D1*
X-368291Y-64980D1*
X-369461Y-69879D1*
X-371382Y-74534D1*
X-374008Y-78832D1*
X-377274Y-82667D1*
X-381100Y-85942D1*
X-385391Y-88580D1*
X-390042Y-90513D1*
X-394937Y-91696D1*
X-399958Y-92097D1*
X-404980Y-91709D1*
X-409879Y-90539D1*
X-414534Y-88618D1*
X-418832Y-85992D1*
X-422667Y-82726D1*
X-424948Y-80062D1*
X-558291Y-374980D2*
X-559461Y-379879D1*
X-561382Y-384534D1*
X-564008Y-388832D1*
X-567274Y-392667D1*
X-571100Y-395942D1*
X-575391Y-398580D1*
X-580042Y-400513D1*
X-584937Y-401696D1*
X-589958Y-402097D1*
X-594980Y-401709D1*
X-599879Y-400539D1*
X-604534Y-398618D1*
X-608832Y-395992D1*
X-612667Y-392726D1*
X-615942Y-388900D1*
X-618580Y-384609D1*
X-620513Y-379958D1*
X-621696Y-375063D1*
X-622097Y-370042D1*
X-621709Y-365020D1*
X-620539Y-360121D1*
X-618618Y-355466D1*
X-615992Y-351168D1*
X-612726Y-347333D1*
X-608900Y-344058D1*
X-604609Y-341420D1*
X-599958Y-339487D1*
X-595063Y-338304D1*
X-590042Y-337903D1*
X-585020Y-338291D1*
X-580121Y-339461D1*
X-575466Y-341382D1*
X-571168Y-344008D1*
X-567333Y-347274D1*
X-564058Y-351100D1*
X-561420Y-355391D1*
X-559487Y-360042D1*
X-558304Y-364937D1*
X-557903Y-370000D1*
X-558291Y-374980D1*
Y-514980D2*
X-559461Y-519879D1*
X-561382Y-524534D1*
X-564008Y-528832D1*
X-567274Y-532667D1*
X-571100Y-535942D1*
X-575391Y-538580D1*
X-580042Y-540513D1*
X-584937Y-541696D1*
X-589958Y-542097D1*
X-594980Y-541709D1*
X-599879Y-540539D1*
X-604534Y-538618D1*
X-608832Y-535992D1*
X-612667Y-532726D1*
X-615942Y-528900D1*
X-618580Y-524609D1*
X-620513Y-519958D1*
X-621696Y-515063D1*
X-622097Y-510042D1*
X-621709Y-505020D1*
X-620539Y-500121D1*
X-618618Y-495466D1*
X-615992Y-491168D1*
X-612726Y-487333D1*
X-608900Y-484058D1*
X-604609Y-481420D1*
X-599958Y-479487D1*
X-595063Y-478304D1*
X-590042Y-477903D1*
X-585020Y-478291D1*
X-580121Y-479461D1*
X-575466Y-481382D1*
X-571168Y-484008D1*
X-567333Y-487274D1*
X-564058Y-491100D1*
X-561420Y-495391D1*
X-559487Y-500042D1*
X-558304Y-504937D1*
X-557903Y-510000D1*
X-558291Y-514980D1*
X-258291Y-384980D2*
X-259461Y-389879D1*
X-261382Y-394534D1*
X-264008Y-398832D1*
X-267274Y-402667D1*
X-271100Y-405942D1*
X-275391Y-408580D1*
X-280042Y-410513D1*
X-284937Y-411696D1*
X-289958Y-412097D1*
X-294980Y-411709D1*
X-299879Y-410539D1*
X-304534Y-408618D1*
X-308832Y-405992D1*
X-312667Y-402726D1*
X-315942Y-398900D1*
X-318580Y-394609D1*
X-320513Y-389958D1*
X-321696Y-385063D1*
X-322097Y-380042D1*
X-321709Y-375020D1*
X-320539Y-370121D1*
X-318618Y-365466D1*
X-315992Y-361168D1*
X-312726Y-357333D1*
X-308900Y-354058D1*
X-304609Y-351420D1*
X-299958Y-349487D1*
X-295063Y-348304D1*
X-290042Y-347903D1*
X-285020Y-348291D1*
X-280121Y-349461D1*
X-275466Y-351382D1*
X-271168Y-354008D1*
X-267333Y-357274D1*
X-264058Y-361100D1*
X-261420Y-365391D1*
X-259487Y-370042D1*
X-258304Y-374937D1*
X-257903Y-380000D1*
X-258291Y-384980D1*
X-998291Y-194980D2*
X-999461Y-199879D1*
X-1001382Y-204534D1*
X-1004008Y-208832D1*
X-1007274Y-212667D1*
X-1011100Y-215942D1*
X-1015391Y-218580D1*
X-1020042Y-220513D1*
X-1024937Y-221696D1*
X-1029958Y-222097D1*
X-1034980Y-221709D1*
X-1039879Y-220539D1*
X-1044534Y-218618D1*
X-1048832Y-215992D1*
X-1052667Y-212726D1*
X-1055942Y-208900D1*
X-1058580Y-204609D1*
X-1060513Y-199958D1*
X-1061696Y-195063D1*
X-1062097Y-190042D1*
X-1061709Y-185020D1*
X-1060539Y-180121D1*
X-1058618Y-175466D1*
X-1055992Y-171168D1*
X-1052726Y-167333D1*
X-1048900Y-164058D1*
X-1044609Y-161420D1*
X-1039958Y-159487D1*
X-1035063Y-158304D1*
X-1030042Y-157903D1*
X-1025020Y-158291D1*
X-1020121Y-159461D1*
X-1015466Y-161382D1*
X-1011168Y-164008D1*
X-1007333Y-167274D1*
X-1004058Y-171100D1*
X-1001420Y-175391D1*
X-999487Y-180042D1*
X-998304Y-184937D1*
X-997903Y-190000D1*
X-998291Y-194980D1*
X161709Y-607480D2*
X160539Y-612379D1*
X158618Y-617034D1*
X155992Y-621332D1*
X152726Y-625167D1*
X148900Y-628442D1*
X144609Y-631080D1*
X139958Y-633013D1*
X135063Y-634196D1*
X130042Y-634597D1*
X125020Y-634209D1*
X120121Y-633039D1*
X115466Y-631118D1*
X111168Y-628492D1*
X107333Y-625226D1*
X104058Y-621400D1*
X101420Y-617109D1*
X99487Y-612458D1*
X98304Y-607563D1*
X97903Y-602542D1*
X98291Y-597520D1*
X99461Y-592621D1*
X101382Y-587966D1*
X104008Y-583668D1*
X107274Y-579833D1*
X111100Y-576558D1*
X115391Y-573920D1*
X120042Y-571987D1*
X124937Y-570804D1*
X129958Y-570403D1*
X134980Y-570791D1*
X139879Y-571961D1*
X144534Y-573882D1*
X148832Y-576508D1*
X152667Y-579774D1*
X155942Y-583600D1*
X158580Y-587891D1*
X160513Y-592542D1*
X161696Y-597437D1*
X162097Y-602500D1*
X161709Y-607480D1*
X56709Y-399980D2*
X55539Y-404879D1*
X53618Y-409534D1*
X50992Y-413832D1*
X47726Y-417667D1*
X43900Y-420942D1*
X39609Y-423580D1*
X34958Y-425513D1*
X30063Y-426696D1*
X25042Y-427097D1*
X20020Y-426709D1*
X15121Y-425539D1*
X10466Y-423618D1*
X6168Y-420992D1*
X2333Y-417726D1*
X-942Y-413900D1*
X-3580Y-409609D1*
X-5513Y-404958D1*
X-6696Y-400063D1*
X-7097Y-395042D1*
X-6709Y-390020D1*
X-5539Y-385121D1*
X-3618Y-380466D1*
X-992Y-376168D1*
X2274Y-372333D1*
X6100Y-369058D1*
X10391Y-366420D1*
X15042Y-364487D1*
X19937Y-363304D1*
X24958Y-362903D1*
X29980Y-363291D1*
X34879Y-364461D1*
X39534Y-366382D1*
X43832Y-369008D1*
X47667Y-372274D1*
X50942Y-376100D1*
X53580Y-380391D1*
X55513Y-385042D1*
X56696Y-389937D1*
X57097Y-395000D1*
X56709Y-399980D1*
X26709Y-489980D2*
X25539Y-494879D1*
X23618Y-499534D1*
X20992Y-503832D1*
X17726Y-507667D1*
X13900Y-510942D1*
X9609Y-513580D1*
X4958Y-515513D1*
X63Y-516696D1*
X-4958Y-517097D1*
X-9980Y-516709D1*
X-14879Y-515539D1*
X-19534Y-513618D1*
X-23832Y-510992D1*
X-27667Y-507726D1*
X-30942Y-503900D1*
X-31520Y-503083D1*
X-32070Y-502248D1*
X-32593Y-501396D1*
X-33262Y-500207D1*
X-33063Y-501795D1*
X-32979Y-502793D1*
X-32925Y-503791D1*
X-32903Y-505000D1*
X-33291Y-509980D1*
X-34461Y-514879D1*
X-36382Y-519534D1*
X-39008Y-523832D1*
X-42274Y-527667D1*
X-46100Y-530942D1*
X-50391Y-533580D1*
X-55042Y-535513D1*
X-59937Y-536696D1*
X-64958Y-537097D1*
X-69980Y-536709D1*
X-74879Y-535539D1*
X-79534Y-533618D1*
X-83832Y-530992D1*
X-87667Y-527726D1*
X-90942Y-523900D1*
X-93580Y-519609D1*
X-95513Y-514958D1*
X-96696Y-510063D1*
X-97097Y-505042D1*
X-96709Y-500020D1*
X-95539Y-495121D1*
X-93618Y-490466D1*
X-90992Y-486168D1*
X-87726Y-482333D1*
X-83900Y-479058D1*
X-79609Y-476420D1*
X-74958Y-474487D1*
X-70063Y-473304D1*
X-65042Y-472903D1*
X-60020Y-473291D1*
X-55121Y-474461D1*
X-50466Y-476382D1*
X-46168Y-479008D1*
X-42333Y-482274D1*
X-39058Y-486100D1*
X-38480Y-486917D1*
X-37930Y-487752D1*
X-37407Y-488604D1*
X-36738Y-489793D1*
X-36937Y-488205D1*
X-37021Y-487207D1*
X-37075Y-486209D1*
X-37097Y-485210D1*
X-37088Y-484210D1*
X-37047Y-483210D1*
X-36373Y-478219D1*
X-34927Y-473395D1*
X-32743Y-468856D1*
X-29875Y-464715D1*
X-26396Y-461073D1*
X-22390Y-458021D1*
X-17955Y-455633D1*
X-13201Y-453967D1*
X-8245Y-453067D1*
X-3210Y-452953D1*
X1781Y-453627D1*
X6605Y-455073D1*
X11144Y-457257D1*
X15285Y-460125D1*
X18927Y-463604D1*
X21979Y-467610D1*
X24367Y-472045D1*
X26033Y-476799D1*
X26933Y-481755D1*
X27097Y-485000D1*
X26709Y-489980D1*
X601709Y-264980D2*
X600539Y-269879D1*
X598618Y-274534D1*
X595992Y-278832D1*
X592726Y-282667D1*
X588900Y-285942D1*
X584609Y-288580D1*
X579958Y-290513D1*
X575063Y-291696D1*
X570042Y-292097D1*
X565020Y-291709D1*
X560121Y-290539D1*
X555466Y-288618D1*
X551168Y-285992D1*
X547333Y-282726D1*
X544058Y-278900D1*
X541420Y-274609D1*
X539487Y-269958D1*
X538304Y-265063D1*
X537903Y-260042D1*
X538291Y-255020D1*
X539461Y-250121D1*
X541382Y-245466D1*
X544008Y-241168D1*
X547274Y-237333D1*
X551100Y-234058D1*
X555391Y-231420D1*
X560042Y-229487D1*
X564937Y-228304D1*
X569958Y-227903D1*
X574980Y-228291D1*
X579879Y-229461D1*
X584534Y-231382D1*
X588832Y-234008D1*
X592667Y-237274D1*
X595942Y-241100D1*
X598580Y-245391D1*
X600513Y-250042D1*
X601696Y-254937D1*
X602097Y-260000D1*
X601709Y-264980D1*
X581709Y-544980D2*
X580539Y-549879D1*
X578618Y-554534D1*
X575992Y-558832D1*
X572726Y-562667D1*
X568900Y-565942D1*
X564609Y-568580D1*
X559958Y-570513D1*
X555063Y-571696D1*
X550042Y-572097D1*
X545020Y-571709D1*
X540121Y-570539D1*
X535466Y-568618D1*
X531168Y-565992D1*
X527333Y-562726D1*
X524058Y-558900D1*
X521420Y-554609D1*
X519487Y-549958D1*
X518304Y-545063D1*
X517903Y-540042D1*
X518291Y-535020D1*
X519461Y-530121D1*
X521382Y-525466D1*
X524008Y-521168D1*
X527274Y-517333D1*
X531100Y-514058D1*
X535391Y-511420D1*
X540042Y-509487D1*
X544937Y-508304D1*
X549958Y-507903D1*
X554980Y-508291D1*
X559879Y-509461D1*
X564534Y-511382D1*
X568832Y-514008D1*
X572667Y-517274D1*
X575942Y-521100D1*
X578580Y-525391D1*
X580513Y-530042D1*
X581696Y-534937D1*
X582097Y-540000D1*
X581709Y-544980D1*
X-78291Y-234980D2*
X-79461Y-239879D1*
X-81382Y-244534D1*
X-84008Y-248832D1*
X-87274Y-252667D1*
X-91100Y-255942D1*
X-95391Y-258580D1*
X-100042Y-260513D1*
X-104937Y-261696D1*
X-109958Y-262097D1*
X-114980Y-261709D1*
X-119879Y-260539D1*
X-124534Y-258618D1*
X-128832Y-255992D1*
X-132667Y-252726D1*
X-135942Y-248900D1*
X-138580Y-244609D1*
X-140513Y-239958D1*
X-141696Y-235063D1*
X-142097Y-230042D1*
X-141709Y-225020D1*
X-140539Y-220121D1*
X-138618Y-215466D1*
X-135992Y-211168D1*
X-132726Y-207333D1*
X-128900Y-204058D1*
X-124609Y-201420D1*
X-119958Y-199487D1*
X-115063Y-198304D1*
X-110042Y-197903D1*
X-105020Y-198291D1*
X-100121Y-199461D1*
X-95466Y-201382D1*
X-91168Y-204008D1*
X-87333Y-207274D1*
X-84058Y-211100D1*
X-81420Y-215391D1*
X-79487Y-220042D1*
X-78304Y-224937D1*
X-77903Y-230000D1*
X-78291Y-234980D1*
X151709Y-94980D2*
X150539Y-99879D1*
X148618Y-104534D1*
X145992Y-108832D1*
X142726Y-112667D1*
X138900Y-115942D1*
X134609Y-118580D1*
X129958Y-120513D1*
X125063Y-121696D1*
X120042Y-122097D1*
X115020Y-121709D1*
X110121Y-120539D1*
X105466Y-118618D1*
X101168Y-115992D1*
X97333Y-112726D1*
X94058Y-108900D1*
X91420Y-104609D1*
X89487Y-99958D1*
X88304Y-95063D1*
X87903Y-90042D1*
X88291Y-85020D1*
X89461Y-80121D1*
X91382Y-75466D1*
X94008Y-71168D1*
X97274Y-67333D1*
X101100Y-64058D1*
X105391Y-61420D1*
X110042Y-59487D1*
X114937Y-58304D1*
X119958Y-57903D1*
X124980Y-58291D1*
X129879Y-59461D1*
X134534Y-61382D1*
X138832Y-64008D1*
X142667Y-67274D1*
X145942Y-71100D1*
X148580Y-75391D1*
X150513Y-80042D1*
X151696Y-84937D1*
X152097Y-90000D1*
X151709Y-94980D1*
X-8291Y-234980D2*
X-9461Y-239879D1*
X-11382Y-244534D1*
X-14008Y-248832D1*
X-17274Y-252667D1*
X-21100Y-255942D1*
X-25391Y-258580D1*
X-30042Y-260513D1*
X-34937Y-261696D1*
X-39958Y-262097D1*
X-44980Y-261709D1*
X-49879Y-260539D1*
X-54534Y-258618D1*
X-58832Y-255992D1*
X-62667Y-252726D1*
X-65942Y-248900D1*
X-68580Y-244609D1*
X-70513Y-239958D1*
X-71696Y-235063D1*
X-72097Y-230042D1*
X-71709Y-225020D1*
X-70539Y-220121D1*
X-68618Y-215466D1*
X-65992Y-211168D1*
X-62726Y-207333D1*
X-58900Y-204058D1*
X-54609Y-201420D1*
X-49958Y-199487D1*
X-45063Y-198304D1*
X-40042Y-197903D1*
X-35020Y-198291D1*
X-30121Y-199461D1*
X-25466Y-201382D1*
X-21168Y-204008D1*
X-17333Y-207274D1*
X-14058Y-211100D1*
X-11420Y-215391D1*
X-9487Y-220042D1*
X-8304Y-224937D1*
X-7903Y-230000D1*
X-8291Y-234980D1*
X-128291Y-44980D2*
X-129461Y-49879D1*
X-131382Y-54534D1*
X-134008Y-58832D1*
X-137274Y-62667D1*
X-141100Y-65942D1*
X-145391Y-68580D1*
X-150042Y-70513D1*
X-154937Y-71696D1*
X-159958Y-72097D1*
X-164980Y-71709D1*
X-169879Y-70539D1*
X-174534Y-68618D1*
X-178832Y-65992D1*
X-182667Y-62726D1*
X-185942Y-58900D1*
X-188580Y-54609D1*
X-190513Y-49958D1*
X-191696Y-45063D1*
X-192097Y-40042D1*
X-191709Y-35020D1*
X-190539Y-30121D1*
X-188618Y-25466D1*
X-185992Y-21168D1*
X-182726Y-17333D1*
X-178900Y-14058D1*
X-174609Y-11420D1*
X-169958Y-9487D1*
X-165063Y-8304D1*
X-160042Y-7903D1*
X-159042Y-7916D1*
X-158043Y-7962D1*
X-157046Y-8038D1*
X-156052Y-8146D1*
X-155214Y-8264D1*
X-156180Y-7722D1*
X-157035Y-7203D1*
X-157875Y-6660D1*
X-158697Y-6091D1*
X-159500Y-5495D1*
X-160285Y-4875D1*
X-161050Y-4231D1*
X-164581Y-640D1*
X-167508Y3459D1*
X-169756Y7966D1*
X-171273Y12769D1*
X-172018Y17751D1*
X-171976Y22787D1*
X-171147Y27755D1*
X-169550Y32531D1*
X-167226Y37000D1*
X-164231Y41050D1*
X-160640Y44581D1*
X-156541Y47508D1*
X-152034Y49756D1*
X-147231Y51273D1*
X-142249Y52018D1*
X-137213Y51976D1*
X-132245Y51147D1*
X-127469Y49550D1*
X-123000Y47226D1*
X-118950Y44231D1*
X-115419Y40640D1*
X-112492Y36541D1*
X-110244Y32034D1*
X-108727Y27231D1*
X-107982Y22249D1*
X-107903Y20000D1*
X-108291Y15020D1*
X-109461Y10121D1*
X-111382Y5466D1*
X-114008Y1168D1*
X-117274Y-2667D1*
X-121100Y-5942D1*
X-125391Y-8580D1*
X-130042Y-10513D1*
X-134937Y-11696D1*
X-139958Y-12097D1*
X-140958Y-12084D1*
X-141957Y-12038D1*
X-142954Y-11962D1*
X-143948Y-11854D1*
X-144786Y-11736D1*
X-143820Y-12278D1*
X-142965Y-12797D1*
X-142125Y-13340D1*
X-141303Y-13909D1*
X-140500Y-14505D1*
X-139715Y-15125D1*
X-138950Y-15769D1*
X-135419Y-19360D1*
X-132492Y-23459D1*
X-130244Y-27966D1*
X-128727Y-32769D1*
X-127982Y-37751D1*
X-127903Y-40000D1*
X-128291Y-44980D1*
X-760043Y-961293D2*
X-761382Y-964534D1*
X-764008Y-968832D1*
X-767274Y-972667D1*
X-771100Y-975942D1*
X-775391Y-978580D1*
X-780042Y-980513D1*
X-784937Y-981696D1*
X-789958Y-982097D1*
X-794980Y-981709D1*
X-799879Y-980539D1*
X-804534Y-978618D1*
X-808832Y-975992D1*
X-812667Y-972726D1*
X-815942Y-968900D1*
X-818580Y-964609D1*
X-820513Y-959958D1*
X-821696Y-955063D1*
X-822097Y-950042D1*
X-821709Y-945020D1*
X-820539Y-940121D1*
X-818618Y-935466D1*
X-815992Y-931168D1*
X-812726Y-927333D1*
X-808900Y-924058D1*
X-804609Y-921420D1*
X-799958Y-919487D1*
X-795063Y-918304D1*
X-790042Y-917903D1*
X-785020Y-918291D1*
X-780121Y-919461D1*
X-775466Y-921382D1*
X-771168Y-924008D1*
X-767333Y-927274D1*
X-764058Y-931100D1*
X-761420Y-935391D1*
X-760043Y-938702D1*
X-758618Y-935466D1*
X-755992Y-931168D1*
X-752726Y-927333D1*
X-748900Y-924058D1*
X-744609Y-921420D1*
X-739958Y-919487D1*
X-735063Y-918304D1*
X-730042Y-917903D1*
X-725020Y-918291D1*
X-720121Y-919461D1*
X-715466Y-921382D1*
X-711168Y-924008D1*
X-707333Y-927274D1*
X-704058Y-931100D1*
X-701420Y-935391D1*
X-699487Y-940042D1*
X-698316Y-944885D1*
X-695992Y-941168D1*
X-692726Y-937333D1*
X-688900Y-934058D1*
X-684609Y-931420D1*
X-679958Y-929487D1*
X-675063Y-928304D1*
X-670042Y-927903D1*
X-665020Y-928291D1*
X-660121Y-929461D1*
X-655466Y-931382D1*
X-651168Y-934008D1*
X-647333Y-937274D1*
X-644058Y-941100D1*
X-641420Y-945391D1*
X-639487Y-950042D1*
X-638304Y-954937D1*
X-637903Y-960000D1*
X-638291Y-964980D1*
X-639461Y-969879D1*
X-641382Y-974534D1*
X-644008Y-978832D1*
X-647274Y-982667D1*
X-651100Y-985942D1*
X-655391Y-988580D1*
X-660042Y-990513D1*
X-664937Y-991696D1*
X-669958Y-992097D1*
X-674980Y-991709D1*
X-679879Y-990539D1*
X-684534Y-988618D1*
X-688832Y-985992D1*
X-692667Y-982726D1*
X-695942Y-978900D1*
X-698580Y-974609D1*
X-700513Y-969958D1*
X-701684Y-965115D1*
X-704008Y-968832D1*
X-707274Y-972667D1*
X-711100Y-975942D1*
X-715391Y-978580D1*
X-720042Y-980513D1*
X-724937Y-981696D1*
X-729958Y-982097D1*
X-734980Y-981709D1*
X-739879Y-980539D1*
X-744534Y-978618D1*
X-748832Y-975992D1*
X-752667Y-972726D1*
X-755942Y-968900D1*
X-758580Y-964609D1*
X-759957Y-961298D1*
X221709Y-834980D2*
X220539Y-839879D1*
X218618Y-844534D1*
X215992Y-848832D1*
X212726Y-852667D1*
X208900Y-855942D1*
X204609Y-858580D1*
X199958Y-860513D1*
X195063Y-861696D1*
X190042Y-862097D1*
X185020Y-861709D1*
X180121Y-860539D1*
X175466Y-858618D1*
X171168Y-855992D1*
X167333Y-852726D1*
X164058Y-848900D1*
X161420Y-844609D1*
X159487Y-839958D1*
X158304Y-835063D1*
X157903Y-830042D1*
X158291Y-825020D1*
X159461Y-820121D1*
X161382Y-815466D1*
X164008Y-811168D1*
X167274Y-807333D1*
X171100Y-804058D1*
X175391Y-801420D1*
X180042Y-799487D1*
X184937Y-798304D1*
X189958Y-797903D1*
X194980Y-798291D1*
X199879Y-799461D1*
X204534Y-801382D1*
X208832Y-804008D1*
X212667Y-807274D1*
X215942Y-811100D1*
X218580Y-815391D1*
X220513Y-820042D1*
X221696Y-824937D1*
X222097Y-830000D1*
X221709Y-834980D1*
X-268291Y-824980D2*
X-269461Y-829879D1*
X-271382Y-834534D1*
X-274008Y-838832D1*
X-277274Y-842667D1*
X-281100Y-845942D1*
X-285391Y-848580D1*
X-290042Y-850513D1*
X-294937Y-851696D1*
X-299958Y-852097D1*
X-304980Y-851709D1*
X-309879Y-850539D1*
X-314534Y-848618D1*
X-318832Y-845992D1*
X-322667Y-842726D1*
X-325942Y-838900D1*
X-328580Y-834609D1*
X-330513Y-829958D1*
X-331696Y-825063D1*
X-332097Y-820042D1*
X-331709Y-815020D1*
X-330539Y-810121D1*
X-328618Y-805466D1*
X-325992Y-801168D1*
X-322726Y-797333D1*
X-318900Y-794058D1*
X-314609Y-791420D1*
X-309958Y-789487D1*
X-305063Y-788304D1*
X-300042Y-787903D1*
X-295020Y-788291D1*
X-290121Y-789461D1*
X-285466Y-791382D1*
X-281168Y-794008D1*
X-277333Y-797274D1*
X-274058Y-801100D1*
X-271420Y-805391D1*
X-269487Y-810042D1*
X-268304Y-814937D1*
X-267903Y-820000D1*
X-268291Y-824980D1*
X401709Y-434980D2*
X400539Y-439879D1*
X398618Y-444534D1*
X395992Y-448832D1*
X392726Y-452667D1*
X388900Y-455942D1*
X384609Y-458580D1*
X379958Y-460513D1*
X375063Y-461696D1*
X370042Y-462097D1*
X365020Y-461709D1*
X360121Y-460539D1*
X355466Y-458618D1*
X351168Y-455992D1*
X347333Y-452726D1*
X344058Y-448900D1*
X341420Y-444609D1*
X339487Y-439958D1*
X338304Y-435063D1*
X337903Y-430042D1*
X338291Y-425020D1*
X339461Y-420121D1*
X341382Y-415466D1*
X344008Y-411168D1*
X347274Y-407333D1*
X351100Y-404058D1*
X355391Y-401420D1*
X360042Y-399487D1*
X364937Y-398304D1*
X369958Y-397903D1*
X374980Y-398291D1*
X379879Y-399461D1*
X384534Y-401382D1*
X388832Y-404008D1*
X392667Y-407274D1*
X395942Y-411100D1*
X398580Y-415391D1*
X400513Y-420042D1*
X401696Y-424937D1*
X402097Y-430000D1*
X401709Y-434980D1*
X301709Y365020D2*
X300539Y360121D1*
X298618Y355466D1*
X295992Y351168D1*
X292726Y347333D1*
X288900Y344058D1*
X284609Y341420D1*
X279958Y339487D1*
X275063Y338304D1*
X270042Y337903D1*
X265020Y338291D1*
X260121Y339461D1*
X255466Y341382D1*
X251168Y344008D1*
X247333Y347274D1*
X244058Y351100D1*
X241420Y355391D1*
X239487Y360042D1*
X238304Y364937D1*
X237903Y369958D1*
X238291Y374980D1*
X239461Y379879D1*
X241382Y384534D1*
X244008Y388832D1*
X247274Y392667D1*
X251100Y395942D1*
X255391Y398580D1*
X260042Y400513D1*
X264937Y401696D1*
X269958Y402097D1*
X274980Y401709D1*
X279879Y400539D1*
X284534Y398618D1*
X288832Y395992D1*
X292667Y392726D1*
X295942Y388900D1*
X298580Y384609D1*
X300513Y379958D1*
X301696Y375063D1*
X302097Y370000D1*
X301709Y365020D1*
X-208291Y35020D2*
X-209461Y30121D1*
X-211382Y25466D1*
X-214008Y21168D1*
X-217274Y17333D1*
X-221100Y14058D1*
X-225391Y11420D1*
X-230042Y9487D1*
X-234937Y8304D1*
X-239958Y7903D1*
X-244980Y8291D1*
X-249879Y9461D1*
X-254534Y11382D1*
X-258832Y14008D1*
X-262667Y17274D1*
X-265942Y21100D1*
X-268580Y25391D1*
X-270513Y30042D1*
X-271696Y34937D1*
X-272097Y39958D1*
X-271709Y44980D1*
X-270539Y49879D1*
X-268618Y54534D1*
X-265992Y58832D1*
X-262726Y62667D1*
X-258900Y65942D1*
X-254609Y68580D1*
X-249958Y70513D1*
X-245063Y71696D1*
X-240042Y72097D1*
X-235020Y71709D1*
X-230121Y70539D1*
X-225466Y68618D1*
X-221168Y65992D1*
X-217333Y62726D1*
X-214058Y58900D1*
X-211420Y54609D1*
X-209487Y49958D1*
X-208304Y45063D1*
X-207903Y40000D1*
X-208291Y35020D1*
X-8291D2*
X-9461Y30121D1*
X-11382Y25466D1*
X-14008Y21168D1*
X-17274Y17333D1*
X-21100Y14058D1*
X-25391Y11420D1*
X-30042Y9487D1*
X-34937Y8304D1*
X-39958Y7903D1*
X-44980Y8291D1*
X-49879Y9461D1*
X-54534Y11382D1*
X-58832Y14008D1*
X-62667Y17274D1*
X-65942Y21100D1*
X-68580Y25391D1*
X-70513Y30042D1*
X-71696Y34937D1*
X-72097Y39958D1*
X-71709Y44980D1*
X-70539Y49879D1*
X-68618Y54534D1*
X-65992Y58832D1*
X-62726Y62667D1*
X-58900Y65942D1*
X-54609Y68580D1*
X-49958Y70513D1*
X-45063Y71696D1*
X-40042Y72097D1*
X-35020Y71709D1*
X-30121Y70539D1*
X-25466Y68618D1*
X-21168Y65992D1*
X-17333Y62726D1*
X-14058Y58900D1*
X-11420Y54609D1*
X-9487Y49958D1*
X-8304Y45063D1*
X-7903Y40000D1*
X-8291Y35020D1*
X-278291Y255020D2*
X-279461Y250121D1*
X-281382Y245466D1*
X-284008Y241168D1*
X-287274Y237333D1*
X-291100Y234058D1*
X-295391Y231420D1*
X-300042Y229487D1*
X-304937Y228304D1*
X-309958Y227903D1*
X-314980Y228291D1*
X-319879Y229461D1*
X-324534Y231382D1*
X-328832Y234008D1*
X-332667Y237274D1*
X-335942Y241100D1*
X-338580Y245391D1*
X-340513Y250042D1*
X-341696Y254937D1*
X-342097Y259958D1*
X-341709Y264980D1*
X-340539Y269879D1*
X-338618Y274534D1*
X-335992Y278832D1*
X-332726Y282667D1*
X-328900Y285942D1*
X-324609Y288580D1*
X-319958Y290513D1*
X-315063Y291696D1*
X-310042Y292097D1*
X-305020Y291709D1*
X-300121Y290539D1*
X-295466Y288618D1*
X-291168Y285992D1*
X-287333Y282726D1*
X-284058Y278900D1*
X-281420Y274609D1*
X-279487Y269958D1*
X-278304Y265063D1*
X-277903Y260000D1*
X-278291Y255020D1*
X-518291Y305020D2*
X-519461Y300121D1*
X-521382Y295466D1*
X-524008Y291168D1*
X-527274Y287333D1*
X-531100Y284058D1*
X-535391Y281420D1*
X-540042Y279487D1*
X-544937Y278304D1*
X-549958Y277903D1*
X-554980Y278291D1*
X-559879Y279461D1*
X-564534Y281382D1*
X-568832Y284008D1*
X-572667Y287274D1*
X-575942Y291100D1*
X-578580Y295391D1*
X-580513Y300042D1*
X-581696Y304937D1*
X-582097Y309958D1*
X-581709Y314980D1*
X-580539Y319879D1*
X-578618Y324534D1*
X-575992Y328832D1*
X-572726Y332667D1*
X-568900Y335942D1*
X-564609Y338580D1*
X-559958Y340513D1*
X-555063Y341696D1*
X-550042Y342097D1*
X-545020Y341709D1*
X-540121Y340539D1*
X-535466Y338618D1*
X-531168Y335992D1*
X-527333Y332726D1*
X-524058Y328900D1*
X-521420Y324609D1*
X-519487Y319958D1*
X-518304Y315063D1*
X-517903Y310000D1*
X-518291Y305020D1*
X-1398291Y-424980D2*
X-1399461Y-429879D1*
X-1401382Y-434534D1*
X-1404008Y-438832D1*
X-1407274Y-442667D1*
X-1411100Y-445942D1*
X-1415391Y-448580D1*
X-1420042Y-450513D1*
X-1424937Y-451696D1*
X-1429958Y-452097D1*
X-1434980Y-451709D1*
X-1439879Y-450539D1*
X-1444534Y-448618D1*
X-1448832Y-445992D1*
X-1452667Y-442726D1*
X-1455942Y-438900D1*
X-1458580Y-434609D1*
X-1460513Y-429958D1*
X-1461696Y-425063D1*
X-1462097Y-420042D1*
X-1461709Y-415020D1*
X-1460539Y-410121D1*
X-1458618Y-405466D1*
X-1455992Y-401168D1*
X-1452726Y-397333D1*
X-1448900Y-394058D1*
X-1444609Y-391420D1*
X-1439958Y-389487D1*
X-1435063Y-388304D1*
X-1430042Y-387903D1*
X-1425020Y-388291D1*
X-1420121Y-389461D1*
X-1415466Y-391382D1*
X-1411168Y-394008D1*
X-1407333Y-397274D1*
X-1404058Y-401100D1*
X-1401420Y-405391D1*
X-1399487Y-410042D1*
X-1398304Y-414937D1*
X-1397903Y-420000D1*
X-1398291Y-424980D1*
X-288291Y35020D2*
X-289461Y30121D1*
X-291382Y25466D1*
X-294008Y21168D1*
X-297274Y17333D1*
X-301100Y14058D1*
X-305391Y11420D1*
X-310042Y9487D1*
X-314937Y8304D1*
X-319958Y7903D1*
X-324980Y8291D1*
X-329879Y9461D1*
X-334534Y11382D1*
X-338832Y14008D1*
X-342667Y17274D1*
X-345942Y21100D1*
X-348580Y25391D1*
X-350513Y30042D1*
X-351696Y34937D1*
X-352097Y39958D1*
X-351709Y44980D1*
X-350539Y49879D1*
X-348618Y54534D1*
X-345992Y58832D1*
X-342726Y62667D1*
X-338900Y65942D1*
X-334609Y68580D1*
X-329958Y70513D1*
X-325063Y71696D1*
X-320042Y72097D1*
X-315020Y71709D1*
X-310121Y70539D1*
X-305466Y68618D1*
X-301168Y65992D1*
X-297333Y62726D1*
X-294058Y58900D1*
X-291420Y54609D1*
X-289487Y49958D1*
X-288304Y45063D1*
X-287903Y40000D1*
X-288291Y35020D1*
X151709Y205020D2*
X150539Y200121D1*
X148618Y195466D1*
X145992Y191168D1*
X142726Y187333D1*
X138900Y184058D1*
X134609Y181420D1*
X129958Y179487D1*
X125063Y178304D1*
X120042Y177903D1*
X115020Y178291D1*
X110121Y179461D1*
X105466Y181382D1*
X101168Y184008D1*
X97333Y187274D1*
X94058Y191100D1*
X91420Y195391D1*
X89487Y200042D1*
X88304Y204937D1*
X87903Y209958D1*
X88291Y214980D1*
X89461Y219879D1*
X91382Y224534D1*
X94008Y228832D1*
X97274Y232667D1*
X101100Y235942D1*
X105391Y238580D1*
X110042Y240513D1*
X114937Y241696D1*
X119958Y242097D1*
X124980Y241709D1*
X129879Y240539D1*
X134534Y238618D1*
X138832Y235992D1*
X142667Y232726D1*
X145942Y228900D1*
X148580Y224609D1*
X150513Y219958D1*
X151696Y215063D1*
X152097Y210000D1*
X151709Y205020D1*
X-68291Y-564980D2*
X-69461Y-569879D1*
X-71382Y-574534D1*
X-74008Y-578832D1*
X-77274Y-582667D1*
X-81100Y-585942D1*
X-85391Y-588580D1*
X-90042Y-590513D1*
X-94937Y-591696D1*
X-99958Y-592097D1*
X-104980Y-591709D1*
X-109879Y-590539D1*
X-114534Y-588618D1*
X-118832Y-585992D1*
X-122667Y-582726D1*
X-125942Y-578900D1*
X-128580Y-574609D1*
X-130513Y-569958D1*
X-131696Y-565063D1*
X-132097Y-560042D1*
X-131709Y-555020D1*
X-130539Y-550121D1*
X-128618Y-545466D1*
X-125992Y-541168D1*
X-122726Y-537333D1*
X-118900Y-534058D1*
X-114609Y-531420D1*
X-109958Y-529487D1*
X-105063Y-528304D1*
X-100042Y-527903D1*
X-95020Y-528291D1*
X-90121Y-529461D1*
X-85466Y-531382D1*
X-81168Y-534008D1*
X-77333Y-537274D1*
X-74058Y-541100D1*
X-71420Y-545391D1*
X-69487Y-550042D1*
X-68304Y-554937D1*
X-67903Y-560000D1*
X-68291Y-564980D1*
X51709Y-964980D2*
X50539Y-969879D1*
X48618Y-974534D1*
X45992Y-978832D1*
X42726Y-982667D1*
X38900Y-985942D1*
X34609Y-988580D1*
X29958Y-990513D1*
X25063Y-991696D1*
X20042Y-992097D1*
X15020Y-991709D1*
X10121Y-990539D1*
X5466Y-988618D1*
X1168Y-985992D1*
X-2667Y-982726D1*
X-5942Y-978900D1*
X-8580Y-974609D1*
X-10513Y-969958D1*
X-11696Y-965063D1*
X-12097Y-960042D1*
X-11709Y-955020D1*
X-10539Y-950121D1*
X-8618Y-945466D1*
X-5992Y-941168D1*
X-2726Y-937333D1*
X1100Y-934058D1*
X5391Y-931420D1*
X10042Y-929487D1*
X14937Y-928304D1*
X19958Y-927903D1*
X24980Y-928291D1*
X29879Y-929461D1*
X34534Y-931382D1*
X38832Y-934008D1*
X42667Y-937274D1*
X45942Y-941100D1*
X48580Y-945391D1*
X50513Y-950042D1*
X51696Y-954937D1*
X52097Y-960000D1*
X51709Y-964980D1*
X227958Y-721936D2*
X225020Y-721709D1*
X220121Y-720539D1*
X215466Y-718618D1*
X211168Y-715992D1*
X207333Y-712726D1*
X204058Y-708900D1*
X201420Y-704609D1*
X199487Y-699958D1*
X198304Y-695063D1*
X197903Y-690042D1*
X198291Y-685020D1*
X199461Y-680121D1*
X201382Y-675466D1*
X204008Y-671168D1*
X207274Y-667333D1*
X211100Y-664058D1*
X215391Y-661420D1*
X220042Y-659487D1*
X224937Y-658304D1*
X229958Y-657903D1*
X234980Y-658291D1*
X239879Y-659461D1*
X244534Y-661382D1*
X248832Y-664008D1*
X252667Y-667274D1*
X255942Y-671100D1*
X258580Y-675391D1*
X260513Y-680042D1*
X261696Y-684937D1*
X261938Y-687963D1*
X264980Y-688291D1*
X269879Y-689461D1*
X274534Y-691382D1*
X278832Y-694008D1*
X282667Y-697274D1*
X285942Y-701100D1*
X288580Y-705391D1*
X290513Y-710042D1*
X291696Y-714937D1*
X291938Y-717963D1*
X294980Y-718291D1*
X299879Y-719461D1*
X304534Y-721382D1*
X308832Y-724008D1*
X312667Y-727274D1*
X315942Y-731100D1*
X318580Y-735391D1*
X320513Y-740042D1*
X321696Y-744937D1*
X321938Y-747963D1*
X324980Y-748291D1*
X329879Y-749461D1*
X334534Y-751382D1*
X338832Y-754008D1*
X342667Y-757274D1*
X345942Y-761100D1*
X348580Y-765391D1*
X350513Y-770042D1*
X351696Y-774937D1*
X352097Y-780000D1*
X351709Y-784980D1*
X350539Y-789879D1*
X348618Y-794534D1*
X345992Y-798832D1*
X342726Y-802667D1*
X338900Y-805942D1*
X334609Y-808580D1*
X329958Y-810513D1*
X325063Y-811696D1*
X320042Y-812097D1*
X315020Y-811709D1*
X310121Y-810539D1*
X305466Y-808618D1*
X301168Y-805992D1*
X297333Y-802726D1*
X294058Y-798900D1*
X291420Y-794609D1*
X289487Y-789958D1*
X288304Y-785063D1*
X288062Y-782037D1*
X285020Y-781709D1*
X280121Y-780539D1*
X275466Y-778618D1*
X271168Y-775992D1*
X267333Y-772726D1*
X264058Y-768900D1*
X261420Y-764609D1*
X259487Y-759958D1*
X258304Y-755063D1*
X258062Y-752037D1*
X255020Y-751709D1*
X250121Y-750539D1*
X245466Y-748618D1*
X241168Y-745992D1*
X237333Y-742726D1*
X234058Y-738900D1*
X231420Y-734609D1*
X229487Y-729958D1*
X228304Y-725063D1*
X228062Y-722037D1*
X246993Y-383828D2*
X246709Y-387480D1*
X245539Y-392379D1*
X243618Y-397034D1*
X240992Y-401332D1*
X237726Y-405167D1*
X233900Y-408442D1*
X229609Y-411080D1*
X224958Y-413013D1*
X220063Y-414196D1*
X215042Y-414597D1*
X210020Y-414209D1*
X205121Y-413039D1*
X200466Y-411118D1*
X196168Y-408492D1*
X192333Y-405226D1*
X189058Y-401400D1*
X186420Y-397109D1*
X184487Y-392458D1*
X183304Y-387563D1*
X182903Y-382542D1*
X183291Y-377520D1*
X184461Y-372621D1*
X186382Y-367966D1*
X189008Y-363668D1*
X192274Y-359833D1*
X196100Y-356558D1*
X200391Y-353920D1*
X205042Y-351987D1*
X207925Y-351290D1*
X208291Y-347520D1*
X209461Y-342621D1*
X211382Y-337966D1*
X214008Y-333668D1*
X217274Y-329833D1*
X221100Y-326558D1*
X225391Y-323920D1*
X230042Y-321987D1*
X232925Y-321290D1*
X233291Y-317520D1*
X234461Y-312621D1*
X236382Y-307966D1*
X239008Y-303668D1*
X242274Y-299833D1*
X246100Y-296558D1*
X250391Y-293920D1*
X255042Y-291987D1*
X255697Y-291828D1*
X255403Y-287542D1*
X255791Y-282520D1*
X256961Y-277621D1*
X258882Y-272966D1*
X261508Y-268668D1*
X264774Y-264833D1*
X268600Y-261558D1*
X272891Y-258920D1*
X277542Y-256987D1*
X282437Y-255804D1*
X287458Y-255403D1*
X292480Y-255791D1*
X297379Y-256961D1*
X302034Y-258882D1*
X306332Y-261508D1*
X310167Y-264774D1*
X313442Y-268600D1*
X316080Y-272891D1*
X318013Y-277542D1*
X319196Y-282437D1*
X319597Y-287500D1*
X319209Y-292480D1*
X318039Y-297379D1*
X316118Y-302034D1*
X313492Y-306332D1*
X310226Y-310167D1*
X306400Y-313442D1*
X302109Y-316080D1*
X297458Y-318013D1*
X296803Y-318172D1*
X297097Y-322500D1*
X296709Y-327480D1*
X295539Y-332379D1*
X293618Y-337034D1*
X290992Y-341332D1*
X287726Y-345167D1*
X283900Y-348442D1*
X279609Y-351080D1*
X274958Y-353013D1*
X272075Y-353710D1*
X271709Y-357480D1*
X270539Y-362379D1*
X268618Y-367034D1*
X265992Y-371332D1*
X262726Y-375167D1*
X258900Y-378442D1*
X254609Y-381080D1*
X249958Y-383013D1*
X247075Y-383710D1*
X-358291Y237520D2*
X-359461Y232621D1*
X-361382Y227966D1*
X-364008Y223668D1*
X-367274Y219833D1*
X-371100Y216558D1*
X-375391Y213920D1*
X-380042Y211987D1*
X-384937Y210804D1*
X-389958Y210403D1*
X-394980Y210791D1*
X-399879Y211961D1*
X-404534Y213882D1*
X-408832Y216508D1*
X-412667Y219774D1*
X-415942Y223600D1*
X-418580Y227891D1*
X-420513Y232542D1*
X-421696Y237437D1*
X-422097Y242458D1*
X-421709Y247480D1*
X-420539Y252379D1*
X-418618Y257034D1*
X-415992Y261332D1*
X-412726Y265167D1*
X-408900Y268442D1*
X-404609Y271080D1*
X-399958Y273013D1*
X-395063Y274196D1*
X-390042Y274597D1*
X-385020Y274209D1*
X-380121Y273039D1*
X-375466Y271118D1*
X-371168Y268492D1*
X-367333Y265226D1*
X-364058Y261400D1*
X-361420Y257109D1*
X-359487Y252458D1*
X-358304Y247563D1*
X-357903Y242500D1*
X-358291Y237520D1*
X211709Y305020D2*
X210539Y300121D1*
X208618Y295466D1*
X205992Y291168D1*
X202726Y287333D1*
X198900Y284058D1*
X194609Y281420D1*
X189958Y279487D1*
X185063Y278304D1*
X180042Y277903D1*
X175020Y278291D1*
X170121Y279461D1*
X165466Y281382D1*
X161168Y284008D1*
X157333Y287274D1*
X154058Y291100D1*
X151420Y295391D1*
X149487Y300042D1*
X148304Y304937D1*
X147903Y309958D1*
X148291Y314980D1*
X149461Y319879D1*
X151382Y324534D1*
X154008Y328832D1*
X157274Y332667D1*
X161100Y335942D1*
X165391Y338580D1*
X170042Y340513D1*
X174937Y341696D1*
X179958Y342097D1*
X184980Y341709D1*
X189879Y340539D1*
X194534Y338618D1*
X198832Y335992D1*
X202667Y332726D1*
X205942Y328900D1*
X208580Y324609D1*
X210513Y319958D1*
X211696Y315063D1*
X212097Y310000D1*
X211709Y305020D1*
X466461Y-33531D2*
X436465Y-3535D1*
X435177Y-1319D1*
X435000Y5D1*
X434995Y405000D1*
X-441659Y404999D1*
X-441420Y404609D1*
X-439487Y399958D1*
X-438304Y395063D1*
X-437903Y390000D1*
X-438291Y385020D1*
X-439461Y380121D1*
X-441382Y375466D1*
X-444008Y371168D1*
X-447274Y367333D1*
X-451100Y364058D1*
X-455391Y361420D1*
X-460042Y359487D1*
X-464937Y358304D1*
X-469958Y357903D1*
X-474980Y358291D1*
X-479879Y359461D1*
X-484534Y361382D1*
X-488832Y364008D1*
X-492667Y367274D1*
X-495942Y371100D1*
X-498580Y375391D1*
X-500513Y380042D1*
X-501696Y384937D1*
X-502097Y389958D1*
X-501709Y394980D1*
X-500539Y399879D1*
X-498618Y404534D1*
X-498333Y405000D1*
X-578194Y404996D1*
X-576420Y402109D1*
X-574487Y397458D1*
X-573304Y392563D1*
X-572903Y387500D1*
X-573291Y382520D1*
X-574461Y377621D1*
X-576382Y372966D1*
X-579008Y368668D1*
X-582274Y364833D1*
X-586100Y361558D1*
X-590391Y358920D1*
X-595042Y356987D1*
X-599937Y355804D1*
X-604958Y355403D1*
X-609980Y355791D1*
X-614879Y356961D1*
X-619534Y358882D1*
X-623832Y361508D1*
X-627667Y364774D1*
X-630942Y368600D1*
X-633580Y372891D1*
X-635513Y377542D1*
X-636696Y382437D1*
X-637097Y387458D1*
X-636709Y392480D1*
X-635539Y397379D1*
X-633618Y402034D1*
X-631804Y405003D1*
X-820000Y405000D1*
X-822475Y405655D1*
X-824301Y407450D1*
X-824999Y409916D1*
X-825000Y1684995D1*
X-840000Y1685000D1*
X-1365000Y1684995D1*
Y1430000D1*
X-1365656Y1427525D1*
X-1367450Y1425699D1*
X-1369916Y1425001D1*
X-1584995Y1425000D1*
X-1585000Y1410000D1*
X-1584995Y-1055000D1*
X1565000Y-1054995D1*
X1564995Y-35000D1*
X470000D1*
X467524Y-34343D1*
X466461Y-33531D1*
X-1228291Y-414980D2*
X-1229461Y-419879D1*
X-1231382Y-424534D1*
X-1234008Y-428832D1*
X-1237274Y-432667D1*
X-1241100Y-435942D1*
X-1245391Y-438580D1*
X-1250042Y-440513D1*
X-1254937Y-441696D1*
X-1259958Y-442097D1*
X-1264980Y-441709D1*
X-1269879Y-440539D1*
X-1274534Y-438618D1*
X-1278832Y-435992D1*
X-1282667Y-432726D1*
X-1285942Y-428900D1*
X-1288580Y-424609D1*
X-1290513Y-419958D1*
X-1291696Y-415063D1*
X-1292097Y-410042D1*
X-1291709Y-405020D1*
X-1290539Y-400121D1*
X-1288618Y-395466D1*
X-1285992Y-391168D1*
X-1282726Y-387333D1*
X-1278900Y-384058D1*
X-1274609Y-381420D1*
X-1269958Y-379487D1*
X-1265063Y-378304D1*
X-1260042Y-377903D1*
X-1255020Y-378291D1*
X-1250121Y-379461D1*
X-1245466Y-381382D1*
X-1241168Y-384008D1*
X-1237333Y-387274D1*
X-1234058Y-391100D1*
X-1231420Y-395391D1*
X-1229487Y-400042D1*
X-1228304Y-404937D1*
X-1227903Y-410000D1*
X-1228291Y-414980D1*
X-118291Y-324980D2*
X-119461Y-329879D1*
X-121382Y-334534D1*
X-124008Y-338832D1*
X-127274Y-342667D1*
X-131100Y-345942D1*
X-135391Y-348580D1*
X-140042Y-350513D1*
X-144937Y-351696D1*
X-149958Y-352097D1*
X-154980Y-351709D1*
X-159879Y-350539D1*
X-164534Y-348618D1*
X-168832Y-345992D1*
X-172667Y-342726D1*
X-175942Y-338900D1*
X-178580Y-334609D1*
X-180513Y-329958D1*
X-181696Y-325063D1*
X-182097Y-320042D1*
X-181709Y-315020D1*
X-180539Y-310121D1*
X-178618Y-305466D1*
X-177175Y-303102D1*
X-177379Y-303039D1*
X-182034Y-301118D1*
X-186332Y-298492D1*
X-190167Y-295226D1*
X-193442Y-291400D1*
X-196080Y-287109D1*
X-198013Y-282458D1*
X-199196Y-277563D1*
X-199597Y-272542D1*
X-199209Y-267520D1*
X-198039Y-262621D1*
X-196118Y-257966D1*
X-193492Y-253668D1*
X-190226Y-249833D1*
X-186400Y-246558D1*
X-182109Y-243920D1*
X-177458Y-241987D1*
X-172563Y-240804D1*
X-167542Y-240403D1*
X-162520Y-240791D1*
X-157621Y-241961D1*
X-152966Y-243882D1*
X-148668Y-246508D1*
X-144833Y-249774D1*
X-141558Y-253600D1*
X-138920Y-257891D1*
X-136987Y-262542D1*
X-135804Y-267437D1*
X-135403Y-272500D1*
X-135791Y-277480D1*
X-136961Y-282379D1*
X-138882Y-287034D1*
X-140325Y-289398D1*
X-140121Y-289461D1*
X-135466Y-291382D1*
X-131168Y-294008D1*
X-127333Y-297274D1*
X-124058Y-301100D1*
X-121420Y-305391D1*
X-119487Y-310042D1*
X-118304Y-314937D1*
X-117903Y-320000D1*
X-118291Y-324980D1*
X-1458291Y-264980D2*
X-1459461Y-269879D1*
X-1461382Y-274534D1*
X-1464008Y-278832D1*
X-1467274Y-282667D1*
X-1471100Y-285942D1*
X-1475391Y-288580D1*
X-1480042Y-290513D1*
X-1484937Y-291696D1*
X-1489958Y-292097D1*
X-1494980Y-291709D1*
X-1499879Y-290539D1*
X-1500975Y-290088D1*
X-1498474Y-293600D1*
X-1496138Y-297997D1*
X-1494437Y-302677D1*
X-1493404Y-307549D1*
X-1493059Y-312500D1*
X-1493408Y-317484D1*
X-1494446Y-322354D1*
X-1496151Y-327033D1*
X-1498491Y-331428D1*
X-1501420Y-335455D1*
X-1504881Y-339035D1*
X-1508806Y-342100D1*
X-1513119Y-344587D1*
X-1517736Y-346450D1*
X-1522570Y-347652D1*
X-1527521Y-348171D1*
X-1532497Y-347995D1*
X-1537402Y-347127D1*
X-1542136Y-345587D1*
X-1546612Y-343402D1*
X-1550738Y-340615D1*
X-1554437Y-337282D1*
X-1557636Y-333466D1*
X-1560273Y-329241D1*
X-1562295Y-324692D1*
X-1563667Y-319904D1*
X-1564357Y-314974D1*
X-1564354Y-309993D1*
X-1563659Y-305063D1*
X-1562285Y-300277D1*
X-1560257Y-295730D1*
X-1557617Y-291508D1*
X-1554413Y-287694D1*
X-1550713Y-284364D1*
X-1546583Y-281581D1*
X-1542106Y-279400D1*
X-1537369Y-277864D1*
X-1532465Y-277001D1*
X-1527488Y-276831D1*
X-1522537Y-277353D1*
X-1517706Y-278560D1*
X-1515546Y-279433D1*
X-1515942Y-278900D1*
X-1518580Y-274609D1*
X-1520513Y-269958D1*
X-1521696Y-265063D1*
X-1522097Y-260042D1*
X-1521709Y-255020D1*
X-1520539Y-250121D1*
X-1518618Y-245466D1*
X-1515992Y-241168D1*
X-1512726Y-237333D1*
X-1508900Y-234058D1*
X-1504609Y-231420D1*
X-1499958Y-229487D1*
X-1495063Y-228304D1*
X-1490042Y-227903D1*
X-1485020Y-228291D1*
X-1480121Y-229461D1*
X-1475466Y-231382D1*
X-1471168Y-234008D1*
X-1467333Y-237274D1*
X-1464058Y-241100D1*
X-1461420Y-245391D1*
X-1459487Y-250042D1*
X-1458304Y-254937D1*
X-1457903Y-260000D1*
X-1458291Y-264980D1*
X-1348291Y-234980D2*
X-1349461Y-239879D1*
X-1351382Y-244534D1*
X-1354008Y-248832D1*
X-1357274Y-252667D1*
X-1361100Y-255942D1*
X-1365391Y-258580D1*
X-1370042Y-260513D1*
X-1374937Y-261696D1*
X-1379958Y-262097D1*
X-1384980Y-261709D1*
X-1389879Y-260539D1*
X-1394534Y-258618D1*
X-1398832Y-255992D1*
X-1402667Y-252726D1*
X-1405942Y-248900D1*
X-1408580Y-244609D1*
X-1410513Y-239958D1*
X-1411696Y-235063D1*
X-1412097Y-230042D1*
X-1411709Y-225020D1*
X-1410539Y-220121D1*
X-1408618Y-215466D1*
X-1405992Y-211168D1*
X-1402726Y-207333D1*
X-1398900Y-204058D1*
X-1394609Y-201420D1*
X-1389958Y-199487D1*
X-1385063Y-198304D1*
X-1380042Y-197903D1*
X-1375020Y-198291D1*
X-1370121Y-199461D1*
X-1365466Y-201382D1*
X-1361168Y-204008D1*
X-1357333Y-207274D1*
X-1354058Y-211100D1*
X-1351420Y-215391D1*
X-1349487Y-220042D1*
X-1348304Y-224937D1*
X-1347903Y-230000D1*
X-1348291Y-234980D1*
X-98291Y-422480D2*
X-99461Y-427379D1*
X-101382Y-432034D1*
X-104008Y-436332D1*
X-107274Y-440167D1*
X-111100Y-443442D1*
X-115391Y-446080D1*
X-120042Y-448013D1*
X-124937Y-449196D1*
X-129958Y-449597D1*
X-134980Y-449209D1*
X-139879Y-448039D1*
X-144534Y-446118D1*
X-148832Y-443492D1*
X-152667Y-440226D1*
X-155942Y-436400D1*
X-158580Y-432109D1*
X-160513Y-427458D1*
X-161696Y-422563D1*
X-162097Y-417542D1*
X-161709Y-412520D1*
X-160539Y-407621D1*
X-158618Y-402966D1*
X-155992Y-398668D1*
X-152726Y-394833D1*
X-148900Y-391558D1*
X-144609Y-388920D1*
X-139958Y-386987D1*
X-135063Y-385804D1*
X-130042Y-385403D1*
X-125020Y-385791D1*
X-120121Y-386961D1*
X-115466Y-388882D1*
X-111168Y-391508D1*
X-107333Y-394774D1*
X-104058Y-398600D1*
X-101420Y-402891D1*
X-99487Y-407542D1*
X-98304Y-412437D1*
X-97903Y-417500D1*
X-98291Y-422480D1*
X-1088291Y-414980D2*
X-1089461Y-419879D1*
X-1091382Y-424534D1*
X-1094008Y-428832D1*
X-1097274Y-432667D1*
X-1101100Y-435942D1*
X-1105391Y-438580D1*
X-1110042Y-440513D1*
X-1114937Y-441696D1*
X-1119958Y-442097D1*
X-1124980Y-441709D1*
X-1129879Y-440539D1*
X-1134534Y-438618D1*
X-1138832Y-435992D1*
X-1142667Y-432726D1*
X-1145942Y-428900D1*
X-1148580Y-424609D1*
X-1150513Y-419958D1*
X-1151696Y-415063D1*
X-1152097Y-410042D1*
X-1151709Y-405020D1*
X-1150539Y-400121D1*
X-1148618Y-395466D1*
X-1145992Y-391168D1*
X-1142726Y-387333D1*
X-1138900Y-384058D1*
X-1134609Y-381420D1*
X-1129958Y-379487D1*
X-1125063Y-378304D1*
X-1120042Y-377903D1*
X-1115020Y-378291D1*
X-1110121Y-379461D1*
X-1105466Y-381382D1*
X-1101168Y-384008D1*
X-1097333Y-387274D1*
X-1094058Y-391100D1*
X-1091420Y-395391D1*
X-1089487Y-400042D1*
X-1088304Y-404937D1*
X-1087903Y-410000D1*
X-1088291Y-414980D1*
X-248291Y-284980D2*
X-249461Y-289879D1*
X-251382Y-294534D1*
X-254008Y-298832D1*
X-257274Y-302667D1*
X-261100Y-305942D1*
X-265391Y-308580D1*
X-270042Y-310513D1*
X-274937Y-311696D1*
X-279958Y-312097D1*
X-284980Y-311709D1*
X-289879Y-310539D1*
X-294534Y-308618D1*
X-298832Y-305992D1*
X-302667Y-302726D1*
X-305942Y-298900D1*
X-308580Y-294609D1*
X-310513Y-289958D1*
X-311696Y-285063D1*
X-312097Y-280042D1*
X-311709Y-275020D1*
X-310539Y-270121D1*
X-308618Y-265466D1*
X-305992Y-261168D1*
X-302726Y-257333D1*
X-298900Y-254058D1*
X-294609Y-251420D1*
X-289958Y-249487D1*
X-285063Y-248304D1*
X-280042Y-247903D1*
X-275020Y-248291D1*
X-270121Y-249461D1*
X-265466Y-251382D1*
X-261168Y-254008D1*
X-257333Y-257274D1*
X-254058Y-261100D1*
X-251420Y-265391D1*
X-249487Y-270042D1*
X-248304Y-274937D1*
X-247903Y-280000D1*
X-248291Y-284980D1*
X271709Y-154980D2*
X270539Y-159879D1*
X268618Y-164534D1*
X265992Y-168832D1*
X262726Y-172667D1*
X258900Y-175942D1*
X254609Y-178580D1*
X249958Y-180513D1*
X245063Y-181696D1*
X240042Y-182097D1*
X235020Y-181709D1*
X230121Y-180539D1*
X225466Y-178618D1*
X221168Y-175992D1*
X217333Y-172726D1*
X214058Y-168900D1*
X211420Y-164609D1*
X209487Y-159958D1*
X208304Y-155063D1*
X207903Y-150042D1*
X208291Y-145020D1*
X209461Y-140121D1*
X211382Y-135466D1*
X214008Y-131168D1*
X217274Y-127333D1*
X221100Y-124058D1*
X225391Y-121420D1*
X230042Y-119487D1*
X234937Y-118304D1*
X239958Y-117903D1*
X244980Y-118291D1*
X249879Y-119461D1*
X254534Y-121382D1*
X258832Y-124008D1*
X262667Y-127274D1*
X265942Y-131100D1*
X268580Y-135391D1*
X270513Y-140042D1*
X271696Y-144937D1*
X272097Y-150000D1*
X271709Y-154980D1*
X91709Y25020D2*
X90539Y20121D1*
X88618Y15466D1*
X85992Y11168D1*
X82726Y7333D1*
X78900Y4058D1*
X74609Y1420D1*
X69958Y-513D1*
X65063Y-1696D1*
X60042Y-2097D1*
X55020Y-1709D1*
X50121Y-539D1*
X45466Y1382D1*
X41168Y4008D1*
X37333Y7274D1*
X34058Y11100D1*
X31420Y15391D1*
X29487Y20042D1*
X28304Y24937D1*
X27903Y29958D1*
X28291Y34980D1*
X29461Y39879D1*
X31382Y44534D1*
X34008Y48832D1*
X37274Y52667D1*
X41100Y55942D1*
X45391Y58580D1*
X50042Y60513D1*
X54937Y61696D1*
X59958Y62097D1*
X64980Y61709D1*
X69879Y60539D1*
X74534Y58618D1*
X78832Y55992D1*
X82667Y52726D1*
X85942Y48900D1*
X88580Y44609D1*
X90513Y39958D1*
X91696Y35063D1*
X92097Y30000D1*
X91709Y25020D1*
X-288291Y-64980D2*
X-289461Y-69879D1*
X-291382Y-74534D1*
X-294008Y-78832D1*
X-297274Y-82667D1*
X-301100Y-85942D1*
X-305391Y-88580D1*
X-310042Y-90513D1*
X-314937Y-91696D1*
X-319958Y-92097D1*
X-324980Y-91709D1*
X-329879Y-90539D1*
X-334534Y-88618D1*
X-338832Y-85992D1*
X-342667Y-82726D1*
X-345942Y-78900D1*
X-348580Y-74609D1*
X-350513Y-69958D1*
X-351696Y-65063D1*
X-352097Y-60042D1*
X-351709Y-55020D1*
X-350539Y-50121D1*
X-348618Y-45466D1*
X-345992Y-41168D1*
X-342726Y-37333D1*
X-338900Y-34058D1*
X-334609Y-31420D1*
X-329958Y-29487D1*
X-325063Y-28304D1*
X-320042Y-27903D1*
X-315020Y-28291D1*
X-310121Y-29461D1*
X-305466Y-31382D1*
X-301168Y-34008D1*
X-297333Y-37274D1*
X-294058Y-41100D1*
X-291420Y-45391D1*
X-289487Y-50042D1*
X-288304Y-54937D1*
X-287903Y-60000D1*
X-288291Y-64980D1*
X-28291Y-994980D2*
X-29461Y-999879D1*
X-31382Y-1004534D1*
X-34008Y-1008832D1*
X-37274Y-1012667D1*
X-41100Y-1015942D1*
X-45391Y-1018580D1*
X-50042Y-1020513D1*
X-54937Y-1021696D1*
X-59958Y-1022097D1*
X-64980Y-1021709D1*
X-69879Y-1020539D1*
X-74534Y-1018618D1*
X-78832Y-1015992D1*
X-82667Y-1012726D1*
X-85942Y-1008900D1*
X-88580Y-1004609D1*
X-90513Y-999958D1*
X-91696Y-995063D1*
X-92097Y-990042D1*
X-91709Y-985020D1*
X-90539Y-980121D1*
X-88618Y-975466D1*
X-85992Y-971168D1*
X-82726Y-967333D1*
X-78900Y-964058D1*
X-74609Y-961420D1*
X-69958Y-959487D1*
X-65063Y-958304D1*
X-60042Y-957903D1*
X-55020Y-958291D1*
X-50121Y-959461D1*
X-45466Y-961382D1*
X-41168Y-964008D1*
X-37333Y-967274D1*
X-34058Y-971100D1*
X-31420Y-975391D1*
X-29487Y-980042D1*
X-28304Y-984937D1*
X-27903Y-990000D1*
X-28291Y-994980D1*
X-228291Y-104980D2*
X-229461Y-109879D1*
X-231382Y-114534D1*
X-234008Y-118832D1*
X-237274Y-122667D1*
X-241100Y-125942D1*
X-245391Y-128580D1*
X-250042Y-130513D1*
X-254937Y-131696D1*
X-259958Y-132097D1*
X-264980Y-131709D1*
X-269879Y-130539D1*
X-274534Y-128618D1*
X-278832Y-125992D1*
X-282667Y-122726D1*
X-285942Y-118900D1*
X-288580Y-114609D1*
X-290513Y-109958D1*
X-291696Y-105063D1*
X-292097Y-100042D1*
X-291709Y-95020D1*
X-290539Y-90121D1*
X-288618Y-85466D1*
X-285992Y-81168D1*
X-282726Y-77333D1*
X-278900Y-74058D1*
X-274609Y-71420D1*
X-269958Y-69487D1*
X-265063Y-68304D1*
X-260042Y-67903D1*
X-255020Y-68291D1*
X-250121Y-69461D1*
X-245466Y-71382D1*
X-241168Y-74008D1*
X-237333Y-77274D1*
X-234058Y-81100D1*
X-231420Y-85391D1*
X-229487Y-90042D1*
X-228304Y-94937D1*
X-227903Y-100000D1*
X-228291Y-104980D1*
X391709Y365020D2*
X390682Y360719D1*
X394937Y361696D1*
X399958Y362097D1*
X404980Y361709D1*
X409879Y360539D1*
X414534Y358618D1*
X418832Y355992D1*
X422667Y352726D1*
X425942Y348900D1*
X428580Y344609D1*
X430513Y339958D1*
X431696Y335063D1*
X432097Y330000D1*
X431709Y325020D1*
X430539Y320121D1*
X428618Y315466D1*
X425992Y311168D1*
X422726Y307333D1*
X418900Y304058D1*
X414609Y301420D1*
X409958Y299487D1*
X405063Y298304D1*
X400042Y297903D1*
X395020Y298291D1*
X390121Y299461D1*
X385466Y301382D1*
X381168Y304008D1*
X377333Y307274D1*
X374058Y311100D1*
X371420Y315391D1*
X369487Y320042D1*
X368304Y324937D1*
X367903Y329958D1*
X368291Y334980D1*
X369318Y339281D1*
X365063Y338304D1*
X360042Y337903D1*
X355020Y338291D1*
X350121Y339461D1*
X345466Y341382D1*
X341168Y344008D1*
X337333Y347274D1*
X334058Y351100D1*
X331420Y355391D1*
X329487Y360042D1*
X328304Y364937D1*
X327903Y369958D1*
X328291Y374980D1*
X329461Y379879D1*
X331382Y384534D1*
X334008Y388832D1*
X337274Y392667D1*
X341100Y395942D1*
X345391Y398580D1*
X350042Y400513D1*
X354937Y401696D1*
X359958Y402097D1*
X364980Y401709D1*
X369879Y400539D1*
X374534Y398618D1*
X378832Y395992D1*
X382667Y392726D1*
X385942Y388900D1*
X388580Y384609D1*
X390513Y379958D1*
X391696Y375063D1*
X392097Y370000D1*
X391709Y365020D1*
X-1293408Y-357484D2*
X-1294446Y-362354D1*
X-1296151Y-367033D1*
X-1298491Y-371428D1*
X-1301420Y-375455D1*
X-1304881Y-379035D1*
X-1308806Y-382100D1*
X-1313119Y-384587D1*
X-1317736Y-386450D1*
X-1322570Y-387652D1*
X-1327521Y-388171D1*
X-1332497Y-387995D1*
X-1337402Y-387127D1*
X-1342136Y-385587D1*
X-1346612Y-383402D1*
X-1350738Y-380615D1*
X-1354437Y-377282D1*
X-1357636Y-373466D1*
X-1360273Y-369241D1*
X-1362295Y-364692D1*
X-1363667Y-359904D1*
X-1364357Y-354974D1*
X-1364354Y-349993D1*
X-1363659Y-345063D1*
X-1362285Y-340277D1*
X-1360257Y-335730D1*
X-1357617Y-331508D1*
X-1354413Y-327694D1*
X-1350713Y-324364D1*
X-1346583Y-321581D1*
X-1342106Y-319400D1*
X-1337369Y-317864D1*
X-1332465Y-317001D1*
X-1327488Y-316831D1*
X-1322537Y-317353D1*
X-1317706Y-318560D1*
X-1313089Y-320428D1*
X-1308778Y-322919D1*
X-1304856Y-325987D1*
X-1301399Y-329570D1*
X-1298474Y-333600D1*
X-1296138Y-337997D1*
X-1294437Y-342677D1*
X-1293404Y-347549D1*
X-1293059Y-352500D1*
X-1293408Y-357484D1*
X-1493408Y-397484D2*
X-1494446Y-402354D1*
X-1496151Y-407033D1*
X-1498491Y-411428D1*
X-1501420Y-415455D1*
X-1504881Y-419035D1*
X-1508806Y-422100D1*
X-1513119Y-424587D1*
X-1517736Y-426450D1*
X-1522570Y-427652D1*
X-1527521Y-428171D1*
X-1532497Y-427995D1*
X-1537402Y-427127D1*
X-1542136Y-425587D1*
X-1546612Y-423402D1*
X-1550738Y-420615D1*
X-1554437Y-417282D1*
X-1557636Y-413466D1*
X-1560273Y-409241D1*
X-1562295Y-404692D1*
X-1563667Y-399904D1*
X-1564357Y-394974D1*
X-1564354Y-389993D1*
X-1563659Y-385063D1*
X-1562285Y-380277D1*
X-1560257Y-375730D1*
X-1557617Y-371508D1*
X-1554413Y-367694D1*
X-1550713Y-364364D1*
X-1546583Y-361581D1*
X-1542106Y-359400D1*
X-1537369Y-357864D1*
X-1532465Y-357001D1*
X-1527488Y-356831D1*
X-1522537Y-357353D1*
X-1517706Y-358560D1*
X-1513089Y-360428D1*
X-1508778Y-362919D1*
X-1504856Y-365987D1*
X-1501399Y-369570D1*
X-1498474Y-373600D1*
X-1496138Y-377997D1*
X-1494437Y-382677D1*
X-1493404Y-387549D1*
X-1493059Y-392500D1*
X-1493408Y-397484D1*
X-1482383Y35009D2*
X-1483167Y30059D1*
X-1484462Y25218D1*
X-1486256Y20539D1*
X-1488530Y16073D1*
X-1491259Y11870D1*
X-1494411Y7974D1*
X-1497954Y4429D1*
X-1501848Y1274D1*
X-1506050Y-1455D1*
X-1510514Y-3732D1*
X-1515192Y-5530D1*
X-1520033Y-6828D1*
X-1524982Y-7613D1*
X-1529987Y-7877D1*
X-1534991Y-7617D1*
X-1539941Y-6833D1*
X-1544782Y-5538D1*
X-1549461Y-3744D1*
X-1553927Y-1470D1*
X-1558130Y1259D1*
X-1562026Y4411D1*
X-1565571Y7954D1*
X-1568726Y11848D1*
X-1571455Y16050D1*
X-1573732Y20514D1*
X-1575530Y25192D1*
X-1576828Y30033D1*
X-1577613Y34982D1*
X-1577877Y39987D1*
X-1577617Y44991D1*
X-1576833Y49941D1*
X-1575538Y54782D1*
X-1573744Y59461D1*
X-1571470Y63927D1*
X-1568741Y68130D1*
X-1565589Y72026D1*
X-1562046Y75571D1*
X-1558152Y78726D1*
X-1553950Y81455D1*
X-1549486Y83732D1*
X-1544808Y85530D1*
X-1539967Y86828D1*
X-1535018Y87613D1*
X-1530013Y87877D1*
X-1525009Y87617D1*
X-1520059Y86833D1*
X-1515218Y85538D1*
X-1510539Y83744D1*
X-1506073Y81470D1*
X-1501870Y78741D1*
X-1497974Y75589D1*
X-1494429Y72046D1*
X-1491274Y68152D1*
X-1488545Y63950D1*
X-1486268Y59486D1*
X-1484470Y54808D1*
X-1483172Y49967D1*
X-1482387Y45018D1*
X-1482123Y40000D1*
X-1482383Y35009D1*
X-1382383D2*
X-1383167Y30059D1*
X-1384462Y25218D1*
X-1386256Y20539D1*
X-1388530Y16073D1*
X-1391259Y11870D1*
X-1394411Y7974D1*
X-1397954Y4429D1*
X-1401848Y1274D1*
X-1406050Y-1455D1*
X-1410514Y-3732D1*
X-1415192Y-5530D1*
X-1420033Y-6828D1*
X-1424982Y-7613D1*
X-1429987Y-7877D1*
X-1434991Y-7617D1*
X-1439941Y-6833D1*
X-1444782Y-5538D1*
X-1449461Y-3744D1*
X-1453927Y-1470D1*
X-1458130Y1259D1*
X-1462026Y4411D1*
X-1465571Y7954D1*
X-1468726Y11848D1*
X-1471455Y16050D1*
X-1473732Y20514D1*
X-1475530Y25192D1*
X-1476828Y30033D1*
X-1477613Y34982D1*
X-1477877Y39987D1*
X-1477617Y44991D1*
X-1476833Y49941D1*
X-1475538Y54782D1*
X-1473744Y59461D1*
X-1471470Y63927D1*
X-1468741Y68130D1*
X-1465589Y72026D1*
X-1462046Y75571D1*
X-1458152Y78726D1*
X-1453950Y81455D1*
X-1449486Y83732D1*
X-1444808Y85530D1*
X-1439967Y86828D1*
X-1435018Y87613D1*
X-1430013Y87877D1*
X-1425009Y87617D1*
X-1420059Y86833D1*
X-1415218Y85538D1*
X-1410539Y83744D1*
X-1406073Y81470D1*
X-1401870Y78741D1*
X-1397974Y75589D1*
X-1394429Y72046D1*
X-1391274Y68152D1*
X-1388545Y63950D1*
X-1386268Y59486D1*
X-1384470Y54808D1*
X-1383172Y49967D1*
X-1382387Y45018D1*
X-1382123Y40000D1*
X-1382383Y35009D1*
X-1282383D2*
X-1283167Y30059D1*
X-1284462Y25218D1*
X-1286256Y20539D1*
X-1288530Y16073D1*
X-1291259Y11870D1*
X-1294411Y7974D1*
X-1297954Y4429D1*
X-1301848Y1274D1*
X-1306050Y-1455D1*
X-1310514Y-3732D1*
X-1315192Y-5530D1*
X-1320033Y-6828D1*
X-1324982Y-7613D1*
X-1329987Y-7877D1*
X-1334991Y-7617D1*
X-1339941Y-6833D1*
X-1344782Y-5538D1*
X-1349461Y-3744D1*
X-1353927Y-1470D1*
X-1358130Y1259D1*
X-1362026Y4411D1*
X-1365571Y7954D1*
X-1368726Y11848D1*
X-1371455Y16050D1*
X-1373732Y20514D1*
X-1375530Y25192D1*
X-1376828Y30033D1*
X-1377613Y34982D1*
X-1377877Y39987D1*
X-1377617Y44991D1*
X-1376833Y49941D1*
X-1375538Y54782D1*
X-1373744Y59461D1*
X-1371470Y63927D1*
X-1368741Y68130D1*
X-1365589Y72026D1*
X-1362046Y75571D1*
X-1358152Y78726D1*
X-1353950Y81455D1*
X-1349486Y83732D1*
X-1344808Y85530D1*
X-1339967Y86828D1*
X-1335018Y87613D1*
X-1330013Y87877D1*
X-1325009Y87617D1*
X-1320059Y86833D1*
X-1315218Y85538D1*
X-1310539Y83744D1*
X-1306073Y81470D1*
X-1301870Y78741D1*
X-1297974Y75589D1*
X-1294429Y72046D1*
X-1291274Y68152D1*
X-1288545Y63950D1*
X-1286268Y59486D1*
X-1284470Y54808D1*
X-1283172Y49967D1*
X-1282387Y45018D1*
X-1282123Y40000D1*
X-1282383Y35009D1*
X-1182383D2*
X-1183167Y30059D1*
X-1184462Y25218D1*
X-1186256Y20539D1*
X-1188530Y16073D1*
X-1191259Y11870D1*
X-1194411Y7974D1*
X-1197954Y4429D1*
X-1201848Y1274D1*
X-1206050Y-1455D1*
X-1210514Y-3732D1*
X-1215192Y-5530D1*
X-1220033Y-6828D1*
X-1224982Y-7613D1*
X-1229987Y-7877D1*
X-1234991Y-7617D1*
X-1239941Y-6833D1*
X-1244782Y-5538D1*
X-1249461Y-3744D1*
X-1253927Y-1470D1*
X-1258130Y1259D1*
X-1262026Y4411D1*
X-1265571Y7954D1*
X-1268726Y11848D1*
X-1271455Y16050D1*
X-1273732Y20514D1*
X-1275530Y25192D1*
X-1276828Y30033D1*
X-1277613Y34982D1*
X-1277877Y39987D1*
X-1277617Y44991D1*
X-1276833Y49941D1*
X-1275538Y54782D1*
X-1273744Y59461D1*
X-1271470Y63927D1*
X-1268741Y68130D1*
X-1265589Y72026D1*
X-1262046Y75571D1*
X-1258152Y78726D1*
X-1253950Y81455D1*
X-1249486Y83732D1*
X-1244808Y85530D1*
X-1239967Y86828D1*
X-1235018Y87613D1*
X-1230013Y87877D1*
X-1225009Y87617D1*
X-1220059Y86833D1*
X-1215218Y85538D1*
X-1210539Y83744D1*
X-1206073Y81470D1*
X-1201870Y78741D1*
X-1197974Y75589D1*
X-1194429Y72046D1*
X-1191274Y68152D1*
X-1188545Y63950D1*
X-1186268Y59486D1*
X-1184470Y54808D1*
X-1183172Y49967D1*
X-1182387Y45018D1*
X-1182123Y40000D1*
X-1182383Y35009D1*
X-1082383D2*
X-1083167Y30059D1*
X-1084462Y25218D1*
X-1086256Y20539D1*
X-1088530Y16073D1*
X-1091259Y11870D1*
X-1094411Y7974D1*
X-1097954Y4429D1*
X-1101848Y1274D1*
X-1106050Y-1455D1*
X-1110514Y-3732D1*
X-1115192Y-5530D1*
X-1120033Y-6828D1*
X-1124982Y-7613D1*
X-1129987Y-7877D1*
X-1134991Y-7617D1*
X-1139941Y-6833D1*
X-1144782Y-5538D1*
X-1149461Y-3744D1*
X-1153927Y-1470D1*
X-1158130Y1259D1*
X-1162026Y4411D1*
X-1165571Y7954D1*
X-1168726Y11848D1*
X-1171455Y16050D1*
X-1173732Y20514D1*
X-1175530Y25192D1*
X-1176828Y30033D1*
X-1177613Y34982D1*
X-1177877Y39987D1*
X-1177617Y44991D1*
X-1176833Y49941D1*
X-1175538Y54782D1*
X-1173744Y59461D1*
X-1171470Y63927D1*
X-1168741Y68130D1*
X-1165589Y72026D1*
X-1162046Y75571D1*
X-1158152Y78726D1*
X-1153950Y81455D1*
X-1149486Y83732D1*
X-1144808Y85530D1*
X-1139967Y86828D1*
X-1135018Y87613D1*
X-1130013Y87877D1*
X-1125009Y87617D1*
X-1120059Y86833D1*
X-1115218Y85538D1*
X-1110539Y83744D1*
X-1106073Y81470D1*
X-1101870Y78741D1*
X-1097974Y75589D1*
X-1094429Y72046D1*
X-1091274Y68152D1*
X-1088545Y63950D1*
X-1086268Y59486D1*
X-1084470Y54808D1*
X-1083172Y49967D1*
X-1082387Y45018D1*
X-1082123Y40000D1*
X-1082383Y35009D1*
X-982383D2*
X-983167Y30059D1*
X-984462Y25218D1*
X-986256Y20539D1*
X-988530Y16073D1*
X-991259Y11870D1*
X-994411Y7974D1*
X-997954Y4429D1*
X-1001848Y1274D1*
X-1006050Y-1455D1*
X-1010514Y-3732D1*
X-1015192Y-5530D1*
X-1020033Y-6828D1*
X-1024982Y-7613D1*
X-1029987Y-7877D1*
X-1034991Y-7617D1*
X-1039941Y-6833D1*
X-1044782Y-5538D1*
X-1049461Y-3744D1*
X-1053927Y-1470D1*
X-1058130Y1259D1*
X-1062026Y4411D1*
X-1065571Y7954D1*
X-1068726Y11848D1*
X-1071455Y16050D1*
X-1073732Y20514D1*
X-1075530Y25192D1*
X-1076828Y30033D1*
X-1077613Y34982D1*
X-1077877Y39987D1*
X-1077617Y44991D1*
X-1076833Y49941D1*
X-1075538Y54782D1*
X-1073744Y59461D1*
X-1071470Y63927D1*
X-1068741Y68130D1*
X-1065589Y72026D1*
X-1062046Y75571D1*
X-1058152Y78726D1*
X-1053950Y81455D1*
X-1049486Y83732D1*
X-1044808Y85530D1*
X-1039967Y86828D1*
X-1035018Y87613D1*
X-1030013Y87877D1*
X-1025009Y87617D1*
X-1020059Y86833D1*
X-1015218Y85538D1*
X-1010539Y83744D1*
X-1006073Y81470D1*
X-1001870Y78741D1*
X-997974Y75589D1*
X-994429Y72046D1*
X-991274Y68152D1*
X-988545Y63950D1*
X-986268Y59486D1*
X-984470Y54808D1*
X-983172Y49967D1*
X-982387Y45018D1*
X-982123Y40000D1*
X-982383Y35009D1*
X-882383D2*
X-883167Y30059D1*
X-884462Y25218D1*
X-886256Y20539D1*
X-888530Y16073D1*
X-891259Y11870D1*
X-894411Y7974D1*
X-897954Y4429D1*
X-901848Y1274D1*
X-906050Y-1455D1*
X-910514Y-3732D1*
X-915192Y-5530D1*
X-920033Y-6828D1*
X-924982Y-7613D1*
X-929987Y-7877D1*
X-934991Y-7617D1*
X-939941Y-6833D1*
X-944782Y-5538D1*
X-949461Y-3744D1*
X-953927Y-1470D1*
X-958130Y1259D1*
X-962026Y4411D1*
X-965571Y7954D1*
X-968726Y11848D1*
X-971455Y16050D1*
X-973732Y20514D1*
X-975530Y25192D1*
X-976828Y30033D1*
X-977613Y34982D1*
X-977877Y39987D1*
X-977617Y44991D1*
X-976833Y49941D1*
X-975538Y54782D1*
X-973744Y59461D1*
X-971470Y63927D1*
X-968741Y68130D1*
X-965589Y72026D1*
X-962046Y75571D1*
X-958152Y78726D1*
X-953950Y81455D1*
X-949486Y83732D1*
X-944808Y85530D1*
X-939967Y86828D1*
X-935018Y87613D1*
X-930013Y87877D1*
X-925009Y87617D1*
X-920059Y86833D1*
X-915218Y85538D1*
X-910539Y83744D1*
X-906073Y81470D1*
X-901870Y78741D1*
X-897974Y75589D1*
X-894429Y72046D1*
X-891274Y68152D1*
X-888545Y63950D1*
X-886268Y59486D1*
X-884470Y54808D1*
X-883172Y49967D1*
X-882387Y45018D1*
X-882123Y40000D1*
X-882383Y35009D1*
X-782383D2*
X-783167Y30059D1*
X-784462Y25218D1*
X-786256Y20539D1*
X-788530Y16073D1*
X-791259Y11870D1*
X-794411Y7974D1*
X-797954Y4429D1*
X-801848Y1274D1*
X-806050Y-1455D1*
X-810514Y-3732D1*
X-815192Y-5530D1*
X-820033Y-6828D1*
X-824982Y-7613D1*
X-829987Y-7877D1*
X-834991Y-7617D1*
X-839941Y-6833D1*
X-844782Y-5538D1*
X-849461Y-3744D1*
X-853927Y-1470D1*
X-858130Y1259D1*
X-862026Y4411D1*
X-865571Y7954D1*
X-868726Y11848D1*
X-871455Y16050D1*
X-873732Y20514D1*
X-875530Y25192D1*
X-876828Y30033D1*
X-877613Y34982D1*
X-877877Y39987D1*
X-877617Y44991D1*
X-876833Y49941D1*
X-875538Y54782D1*
X-873744Y59461D1*
X-871470Y63927D1*
X-868741Y68130D1*
X-865589Y72026D1*
X-862046Y75571D1*
X-858152Y78726D1*
X-853950Y81455D1*
X-849486Y83732D1*
X-844808Y85530D1*
X-839967Y86828D1*
X-835018Y87613D1*
X-830013Y87877D1*
X-825009Y87617D1*
X-820059Y86833D1*
X-815218Y85538D1*
X-810539Y83744D1*
X-806073Y81470D1*
X-801870Y78741D1*
X-797974Y75589D1*
X-794429Y72046D1*
X-791274Y68152D1*
X-788545Y63950D1*
X-786268Y59486D1*
X-784470Y54808D1*
X-783172Y49967D1*
X-782387Y45018D1*
X-782123Y40000D1*
X-782383Y35009D1*
X-682383D2*
X-683167Y30059D1*
X-684462Y25218D1*
X-686256Y20539D1*
X-688530Y16073D1*
X-691259Y11870D1*
X-694411Y7974D1*
X-697954Y4429D1*
X-701848Y1274D1*
X-706050Y-1455D1*
X-710514Y-3732D1*
X-715192Y-5530D1*
X-720033Y-6828D1*
X-724982Y-7613D1*
X-729987Y-7877D1*
X-734991Y-7617D1*
X-739941Y-6833D1*
X-744782Y-5538D1*
X-749461Y-3744D1*
X-753927Y-1470D1*
X-758130Y1259D1*
X-762026Y4411D1*
X-765571Y7954D1*
X-768726Y11848D1*
X-771455Y16050D1*
X-773732Y20514D1*
X-775530Y25192D1*
X-776828Y30033D1*
X-777613Y34982D1*
X-777877Y39987D1*
X-777617Y44991D1*
X-776833Y49941D1*
X-775538Y54782D1*
X-773744Y59461D1*
X-771470Y63927D1*
X-768741Y68130D1*
X-765589Y72026D1*
X-762046Y75571D1*
X-758152Y78726D1*
X-753950Y81455D1*
X-749486Y83732D1*
X-744808Y85530D1*
X-739967Y86828D1*
X-735018Y87613D1*
X-730013Y87877D1*
X-725009Y87617D1*
X-720059Y86833D1*
X-715218Y85538D1*
X-710539Y83744D1*
X-706073Y81470D1*
X-701870Y78741D1*
X-697974Y75589D1*
X-694429Y72046D1*
X-691274Y68152D1*
X-688545Y63950D1*
X-686268Y59486D1*
X-684470Y54808D1*
X-683172Y49967D1*
X-682387Y45018D1*
X-682123Y40000D1*
X-682383Y35009D1*
Y-64991D2*
X-683167Y-69941D1*
X-684462Y-74782D1*
X-686256Y-79461D1*
X-688530Y-83927D1*
X-691259Y-88130D1*
X-694411Y-92026D1*
X-697954Y-95571D1*
X-701848Y-98726D1*
X-706050Y-101455D1*
X-710514Y-103732D1*
X-715192Y-105530D1*
X-720033Y-106828D1*
X-724982Y-107613D1*
X-729987Y-107877D1*
X-734991Y-107617D1*
X-739941Y-106833D1*
X-744782Y-105538D1*
X-749461Y-103744D1*
X-753927Y-101470D1*
X-758130Y-98741D1*
X-762026Y-95589D1*
X-765571Y-92046D1*
X-768726Y-88152D1*
X-771455Y-83950D1*
X-773732Y-79486D1*
X-775530Y-74808D1*
X-776828Y-69967D1*
X-777613Y-65018D1*
X-777877Y-60013D1*
X-777617Y-55009D1*
X-776833Y-50059D1*
X-775538Y-45218D1*
X-773744Y-40539D1*
X-771470Y-36073D1*
X-768741Y-31870D1*
X-765589Y-27974D1*
X-762046Y-24429D1*
X-758152Y-21274D1*
X-753950Y-18545D1*
X-749486Y-16268D1*
X-744808Y-14470D1*
X-739967Y-13172D1*
X-735018Y-12387D1*
X-730013Y-12123D1*
X-725009Y-12383D1*
X-720059Y-13167D1*
X-715218Y-14462D1*
X-710539Y-16256D1*
X-706073Y-18530D1*
X-701870Y-21259D1*
X-697974Y-24411D1*
X-694429Y-27954D1*
X-691274Y-31848D1*
X-688545Y-36050D1*
X-686268Y-40514D1*
X-684470Y-45192D1*
X-683172Y-50033D1*
X-682387Y-54982D1*
X-682123Y-60000D1*
X-682383Y-64991D1*
Y-164991D2*
X-683167Y-169941D1*
X-684462Y-174782D1*
X-686256Y-179461D1*
X-688530Y-183927D1*
X-691259Y-188130D1*
X-694411Y-192026D1*
X-697954Y-195571D1*
X-701848Y-198726D1*
X-706050Y-201455D1*
X-710514Y-203732D1*
X-715192Y-205530D1*
X-720033Y-206828D1*
X-724982Y-207613D1*
X-729987Y-207877D1*
X-734991Y-207617D1*
X-739941Y-206833D1*
X-744782Y-205538D1*
X-749461Y-203744D1*
X-753927Y-201470D1*
X-758130Y-198741D1*
X-762026Y-195589D1*
X-765571Y-192046D1*
X-768726Y-188152D1*
X-771455Y-183950D1*
X-773732Y-179486D1*
X-775530Y-174808D1*
X-776828Y-169967D1*
X-777613Y-165018D1*
X-777877Y-160013D1*
X-777617Y-155009D1*
X-776833Y-150059D1*
X-775538Y-145218D1*
X-773744Y-140539D1*
X-771470Y-136073D1*
X-768741Y-131870D1*
X-765589Y-127974D1*
X-762046Y-124429D1*
X-758152Y-121274D1*
X-753950Y-118545D1*
X-749486Y-116268D1*
X-744808Y-114470D1*
X-739967Y-113172D1*
X-735018Y-112387D1*
X-730013Y-112123D1*
X-725009Y-112383D1*
X-720059Y-113167D1*
X-715218Y-114462D1*
X-710539Y-116256D1*
X-706073Y-118530D1*
X-701870Y-121259D1*
X-697974Y-124411D1*
X-694429Y-127954D1*
X-691274Y-131848D1*
X-688545Y-136050D1*
X-686268Y-140514D1*
X-684470Y-145192D1*
X-683172Y-150033D1*
X-682387Y-154982D1*
X-682123Y-160000D1*
X-682383Y-164991D1*
Y-264991D2*
X-683167Y-269941D1*
X-684462Y-274782D1*
X-686256Y-279461D1*
X-688530Y-283927D1*
X-691259Y-288130D1*
X-694411Y-292026D1*
X-697954Y-295571D1*
X-701848Y-298726D1*
X-706050Y-301455D1*
X-710514Y-303732D1*
X-715192Y-305530D1*
X-720033Y-306828D1*
X-724982Y-307613D1*
X-729987Y-307877D1*
X-734991Y-307617D1*
X-739941Y-306833D1*
X-744782Y-305538D1*
X-749461Y-303744D1*
X-753927Y-301470D1*
X-758130Y-298741D1*
X-762026Y-295589D1*
X-765571Y-292046D1*
X-768726Y-288152D1*
X-771455Y-283950D1*
X-773732Y-279486D1*
X-775530Y-274808D1*
X-776828Y-269967D1*
X-777613Y-265018D1*
X-777877Y-260013D1*
X-777617Y-255009D1*
X-776833Y-250059D1*
X-775538Y-245218D1*
X-773744Y-240539D1*
X-771470Y-236073D1*
X-768741Y-231870D1*
X-765589Y-227974D1*
X-762046Y-224429D1*
X-758152Y-221274D1*
X-753950Y-218545D1*
X-749486Y-216268D1*
X-744808Y-214470D1*
X-739967Y-213172D1*
X-735018Y-212387D1*
X-730013Y-212123D1*
X-725009Y-212383D1*
X-720059Y-213167D1*
X-715218Y-214462D1*
X-710539Y-216256D1*
X-706073Y-218530D1*
X-701870Y-221259D1*
X-697974Y-224411D1*
X-694429Y-227954D1*
X-691274Y-231848D1*
X-688545Y-236050D1*
X-686268Y-240514D1*
X-684470Y-245192D1*
X-683172Y-250033D1*
X-682387Y-254982D1*
X-682123Y-260000D1*
X-682383Y-264991D1*
Y-364991D2*
X-683167Y-369941D1*
X-684462Y-374782D1*
X-686256Y-379461D1*
X-688530Y-383927D1*
X-691259Y-388130D1*
X-694411Y-392026D1*
X-697954Y-395571D1*
X-701848Y-398726D1*
X-706050Y-401455D1*
X-710514Y-403732D1*
X-715192Y-405530D1*
X-720033Y-406828D1*
X-724982Y-407613D1*
X-729987Y-407877D1*
X-734991Y-407617D1*
X-739941Y-406833D1*
X-744782Y-405538D1*
X-749461Y-403744D1*
X-753927Y-401470D1*
X-758130Y-398741D1*
X-762026Y-395589D1*
X-765571Y-392046D1*
X-768726Y-388152D1*
X-771455Y-383950D1*
X-773732Y-379486D1*
X-775530Y-374808D1*
X-776828Y-369967D1*
X-777613Y-365018D1*
X-777877Y-360013D1*
X-777617Y-355009D1*
X-776833Y-350059D1*
X-775538Y-345218D1*
X-773744Y-340539D1*
X-771470Y-336073D1*
X-768741Y-331870D1*
X-765589Y-327974D1*
X-762046Y-324429D1*
X-758152Y-321274D1*
X-753950Y-318545D1*
X-749486Y-316268D1*
X-744808Y-314470D1*
X-739967Y-313172D1*
X-735018Y-312387D1*
X-730013Y-312123D1*
X-725009Y-312383D1*
X-720059Y-313167D1*
X-715218Y-314462D1*
X-710539Y-316256D1*
X-706073Y-318530D1*
X-701870Y-321259D1*
X-697974Y-324411D1*
X-694429Y-327954D1*
X-691274Y-331848D1*
X-688545Y-336050D1*
X-686268Y-340514D1*
X-684470Y-345192D1*
X-683172Y-350033D1*
X-682387Y-354982D1*
X-682123Y-360000D1*
X-682383Y-364991D1*
Y-464991D2*
X-683167Y-469941D1*
X-684462Y-474782D1*
X-686256Y-479461D1*
X-688530Y-483927D1*
X-691259Y-488130D1*
X-694411Y-492026D1*
X-697954Y-495571D1*
X-701848Y-498726D1*
X-706050Y-501455D1*
X-710514Y-503732D1*
X-715192Y-505530D1*
X-720033Y-506828D1*
X-724982Y-507613D1*
X-729987Y-507877D1*
X-734991Y-507617D1*
X-739941Y-506833D1*
X-744782Y-505538D1*
X-749461Y-503744D1*
X-753927Y-501470D1*
X-758130Y-498741D1*
X-762026Y-495589D1*
X-765571Y-492046D1*
X-768726Y-488152D1*
X-771455Y-483950D1*
X-773732Y-479486D1*
X-775530Y-474808D1*
X-776828Y-469967D1*
X-777613Y-465018D1*
X-777877Y-460013D1*
X-777617Y-455009D1*
X-776833Y-450059D1*
X-775538Y-445218D1*
X-773744Y-440539D1*
X-771470Y-436073D1*
X-768741Y-431870D1*
X-765589Y-427974D1*
X-762046Y-424429D1*
X-758152Y-421274D1*
X-753950Y-418545D1*
X-749486Y-416268D1*
X-744808Y-414470D1*
X-739967Y-413172D1*
X-735018Y-412387D1*
X-730013Y-412123D1*
X-725009Y-412383D1*
X-720059Y-413167D1*
X-715218Y-414462D1*
X-710539Y-416256D1*
X-706073Y-418530D1*
X-701870Y-421259D1*
X-697974Y-424411D1*
X-694429Y-427954D1*
X-691274Y-431848D1*
X-688545Y-436050D1*
X-686268Y-440514D1*
X-684470Y-445192D1*
X-683172Y-450033D1*
X-682387Y-454982D1*
X-682123Y-460000D1*
X-682383Y-464991D1*
X-882383Y-564991D2*
X-883167Y-569941D1*
X-884462Y-574782D1*
X-886256Y-579461D1*
X-888530Y-583927D1*
X-891259Y-588130D1*
X-894411Y-592026D1*
X-897954Y-595571D1*
X-901848Y-598726D1*
X-906050Y-601455D1*
X-910514Y-603732D1*
X-915192Y-605530D1*
X-920033Y-606828D1*
X-924982Y-607613D1*
X-929987Y-607877D1*
X-934991Y-607617D1*
X-939941Y-606833D1*
X-944782Y-605538D1*
X-949461Y-603744D1*
X-953927Y-601470D1*
X-958130Y-598741D1*
X-962026Y-595589D1*
X-965571Y-592046D1*
X-968726Y-588152D1*
X-971455Y-583950D1*
X-973732Y-579486D1*
X-975530Y-574808D1*
X-976828Y-569967D1*
X-977613Y-565018D1*
X-977877Y-560013D1*
X-977617Y-555009D1*
X-976833Y-550059D1*
X-975538Y-545218D1*
X-973744Y-540539D1*
X-971470Y-536073D1*
X-968741Y-531870D1*
X-965589Y-527974D1*
X-962046Y-524429D1*
X-958152Y-521274D1*
X-953950Y-518545D1*
X-949486Y-516268D1*
X-944808Y-514470D1*
X-939967Y-513172D1*
X-935018Y-512387D1*
X-930013Y-512123D1*
X-925009Y-512383D1*
X-920059Y-513167D1*
X-915218Y-514462D1*
X-910539Y-516256D1*
X-906073Y-518530D1*
X-901870Y-521259D1*
X-897974Y-524411D1*
X-894429Y-527954D1*
X-891274Y-531848D1*
X-888545Y-536050D1*
X-886268Y-540514D1*
X-884470Y-545192D1*
X-883172Y-550033D1*
X-882387Y-554982D1*
X-882123Y-560000D1*
X-882383Y-564991D1*
X-982383D2*
X-983167Y-569941D1*
X-984462Y-574782D1*
X-986256Y-579461D1*
X-988530Y-583927D1*
X-991259Y-588130D1*
X-994411Y-592026D1*
X-997954Y-595571D1*
X-1001848Y-598726D1*
X-1006050Y-601455D1*
X-1010514Y-603732D1*
X-1015192Y-605530D1*
X-1020033Y-606828D1*
X-1024982Y-607613D1*
X-1029987Y-607877D1*
X-1034991Y-607617D1*
X-1039941Y-606833D1*
X-1044782Y-605538D1*
X-1049461Y-603744D1*
X-1053927Y-601470D1*
X-1058130Y-598741D1*
X-1062026Y-595589D1*
X-1065571Y-592046D1*
X-1068726Y-588152D1*
X-1071455Y-583950D1*
X-1073732Y-579486D1*
X-1075530Y-574808D1*
X-1076828Y-569967D1*
X-1077613Y-565018D1*
X-1077877Y-560013D1*
X-1077617Y-555009D1*
X-1076833Y-550059D1*
X-1075538Y-545218D1*
X-1073744Y-540539D1*
X-1071470Y-536073D1*
X-1068741Y-531870D1*
X-1065589Y-527974D1*
X-1062046Y-524429D1*
X-1058152Y-521274D1*
X-1053950Y-518545D1*
X-1049486Y-516268D1*
X-1044808Y-514470D1*
X-1039967Y-513172D1*
X-1035018Y-512387D1*
X-1030013Y-512123D1*
X-1025009Y-512383D1*
X-1020059Y-513167D1*
X-1015218Y-514462D1*
X-1010539Y-516256D1*
X-1006073Y-518530D1*
X-1001870Y-521259D1*
X-997974Y-524411D1*
X-994429Y-527954D1*
X-991274Y-531848D1*
X-988545Y-536050D1*
X-986268Y-540514D1*
X-984470Y-545192D1*
X-983172Y-550033D1*
X-982387Y-554982D1*
X-982123Y-560000D1*
X-982383Y-564991D1*
X-1082383D2*
X-1083167Y-569941D1*
X-1084462Y-574782D1*
X-1086256Y-579461D1*
X-1088530Y-583927D1*
X-1091259Y-588130D1*
X-1094411Y-592026D1*
X-1097954Y-595571D1*
X-1101848Y-598726D1*
X-1106050Y-601455D1*
X-1110514Y-603732D1*
X-1115192Y-605530D1*
X-1120033Y-606828D1*
X-1124982Y-607613D1*
X-1129987Y-607877D1*
X-1134991Y-607617D1*
X-1139941Y-606833D1*
X-1144782Y-605538D1*
X-1149461Y-603744D1*
X-1153927Y-601470D1*
X-1158130Y-598741D1*
X-1162026Y-595589D1*
X-1165571Y-592046D1*
X-1168726Y-588152D1*
X-1171455Y-583950D1*
X-1173732Y-579486D1*
X-1175530Y-574808D1*
X-1176828Y-569967D1*
X-1177613Y-565018D1*
X-1177877Y-560013D1*
X-1177617Y-555009D1*
X-1176833Y-550059D1*
X-1175538Y-545218D1*
X-1173744Y-540539D1*
X-1171470Y-536073D1*
X-1168741Y-531870D1*
X-1165589Y-527974D1*
X-1162046Y-524429D1*
X-1158152Y-521274D1*
X-1153950Y-518545D1*
X-1149486Y-516268D1*
X-1144808Y-514470D1*
X-1139967Y-513172D1*
X-1135018Y-512387D1*
X-1130013Y-512123D1*
X-1125009Y-512383D1*
X-1120059Y-513167D1*
X-1115218Y-514462D1*
X-1110539Y-516256D1*
X-1106073Y-518530D1*
X-1101870Y-521259D1*
X-1097974Y-524411D1*
X-1094429Y-527954D1*
X-1091274Y-531848D1*
X-1088545Y-536050D1*
X-1086268Y-540514D1*
X-1084470Y-545192D1*
X-1083172Y-550033D1*
X-1082387Y-554982D1*
X-1082123Y-560000D1*
X-1082383Y-564991D1*
X-1182383D2*
X-1183167Y-569941D1*
X-1184462Y-574782D1*
X-1186256Y-579461D1*
X-1188530Y-583927D1*
X-1191259Y-588130D1*
X-1194411Y-592026D1*
X-1197954Y-595571D1*
X-1201848Y-598726D1*
X-1206050Y-601455D1*
X-1210514Y-603732D1*
X-1215192Y-605530D1*
X-1220033Y-606828D1*
X-1224982Y-607613D1*
X-1229987Y-607877D1*
X-1234991Y-607617D1*
X-1239941Y-606833D1*
X-1244782Y-605538D1*
X-1249461Y-603744D1*
X-1253927Y-601470D1*
X-1258130Y-598741D1*
X-1262026Y-595589D1*
X-1265571Y-592046D1*
X-1268726Y-588152D1*
X-1271455Y-583950D1*
X-1273732Y-579486D1*
X-1275530Y-574808D1*
X-1276828Y-569967D1*
X-1277613Y-565018D1*
X-1277877Y-560013D1*
X-1277617Y-555009D1*
X-1276833Y-550059D1*
X-1275538Y-545218D1*
X-1273744Y-540539D1*
X-1271470Y-536073D1*
X-1268741Y-531870D1*
X-1265589Y-527974D1*
X-1262046Y-524429D1*
X-1258152Y-521274D1*
X-1253950Y-518545D1*
X-1249486Y-516268D1*
X-1244808Y-514470D1*
X-1239967Y-513172D1*
X-1235018Y-512387D1*
X-1230013Y-512123D1*
X-1225009Y-512383D1*
X-1220059Y-513167D1*
X-1215218Y-514462D1*
X-1210539Y-516256D1*
X-1206073Y-518530D1*
X-1201870Y-521259D1*
X-1197974Y-524411D1*
X-1194429Y-527954D1*
X-1191274Y-531848D1*
X-1188545Y-536050D1*
X-1186268Y-540514D1*
X-1184470Y-545192D1*
X-1183172Y-550033D1*
X-1182387Y-554982D1*
X-1182123Y-560000D1*
X-1182383Y-564991D1*
X-1282152Y-561667D2*
X-1282239Y-563335D1*
X-1282385Y-565000D1*
X-1282588Y-566659D1*
X-1282849Y-568310D1*
X-1283168Y-569950D1*
X-1283543Y-571579D1*
X-1283976Y-573193D1*
X-1284465Y-574790D1*
X-1285009Y-576370D1*
X-1285608Y-577930D1*
X-1286260Y-579470D1*
X-1286966Y-580984D1*
X-1287724Y-582472D1*
X-1288535Y-583934D1*
X-1289395Y-585367D1*
X-1290306Y-586769D1*
X-1291264Y-588138D1*
X-1292269Y-589472D1*
X-1293322Y-590772D1*
X-1294417Y-592033D1*
X-1295556Y-593255D1*
X-1296739Y-594437D1*
X-1297961Y-595576D1*
X-1299222Y-596673D1*
X-1300520Y-597724D1*
X-1301854Y-598731D1*
X-1303223Y-599689D1*
X-1304625Y-600600D1*
X-1306058Y-601461D1*
X-1307518Y-602270D1*
X-1309008Y-603030D1*
X-1310522Y-603736D1*
X-1312060Y-604390D1*
X-1313621Y-604988D1*
X-1315201Y-605533D1*
X-1316799Y-606021D1*
X-1318413Y-606454D1*
X-1320041Y-606829D1*
X-1321681Y-607150D1*
X-1323332Y-607411D1*
X-1324991Y-607614D1*
X-1326656Y-607760D1*
X-1328324Y-607848D1*
X-1329996Y-607877D1*
X-1331667Y-607848D1*
X-1333335Y-607761D1*
X-1335000Y-607615D1*
X-1336659Y-607412D1*
X-1338310Y-607151D1*
X-1339950Y-606832D1*
X-1341579Y-606457D1*
X-1343193Y-606024D1*
X-1344790Y-605535D1*
X-1346370Y-604991D1*
X-1347930Y-604392D1*
X-1349470Y-603740D1*
X-1350984Y-603034D1*
X-1352472Y-602276D1*
X-1353934Y-601465D1*
X-1355367Y-600605D1*
X-1356769Y-599694D1*
X-1358138Y-598736D1*
X-1359472Y-597731D1*
X-1360772Y-596678D1*
X-1362033Y-595583D1*
X-1363255Y-594444D1*
X-1364437Y-593261D1*
X-1365576Y-592039D1*
X-1366673Y-590778D1*
X-1367724Y-589480D1*
X-1368731Y-588146D1*
X-1369689Y-586777D1*
X-1370600Y-585375D1*
X-1371461Y-583942D1*
X-1372270Y-582482D1*
X-1373030Y-580992D1*
X-1373736Y-579478D1*
X-1374390Y-577940D1*
X-1374988Y-576379D1*
X-1375533Y-574799D1*
X-1376021Y-573201D1*
X-1376454Y-571587D1*
X-1376829Y-569959D1*
X-1377150Y-568319D1*
X-1377411Y-566668D1*
X-1377614Y-565009D1*
X-1377760Y-563344D1*
X-1377848Y-561676D1*
X-1377877Y-560004D1*
X-1377848Y-558333D1*
X-1377761Y-556665D1*
X-1377615Y-555000D1*
X-1377412Y-553341D1*
X-1377151Y-551690D1*
X-1376832Y-550050D1*
X-1376457Y-548421D1*
X-1376024Y-546807D1*
X-1375535Y-545210D1*
X-1374991Y-543630D1*
X-1374392Y-542070D1*
X-1373740Y-540530D1*
X-1373034Y-539016D1*
X-1372276Y-537528D1*
X-1371465Y-536066D1*
X-1370605Y-534633D1*
X-1369694Y-533231D1*
X-1368736Y-531862D1*
X-1367731Y-530528D1*
X-1366678Y-529228D1*
X-1365583Y-527967D1*
X-1364444Y-526745D1*
X-1363261Y-525563D1*
X-1362039Y-524424D1*
X-1360778Y-523327D1*
X-1359480Y-522276D1*
X-1358146Y-521269D1*
X-1356777Y-520311D1*
X-1355375Y-519400D1*
X-1353942Y-518539D1*
X-1352482Y-517730D1*
X-1350992Y-516970D1*
X-1349478Y-516264D1*
X-1347940Y-515610D1*
X-1346379Y-515012D1*
X-1344799Y-514467D1*
X-1343201Y-513979D1*
X-1341587Y-513546D1*
X-1339959Y-513171D1*
X-1338319Y-512850D1*
X-1336668Y-512589D1*
X-1335009Y-512386D1*
X-1333344Y-512240D1*
X-1331676Y-512152D1*
X-1330004Y-512123D1*
X-1328333Y-512152D1*
X-1326665Y-512239D1*
X-1325000Y-512385D1*
X-1323341Y-512588D1*
X-1321690Y-512849D1*
X-1320050Y-513168D1*
X-1318421Y-513543D1*
X-1316807Y-513976D1*
X-1315210Y-514465D1*
X-1313630Y-515009D1*
X-1312070Y-515608D1*
X-1310530Y-516260D1*
X-1309016Y-516966D1*
X-1307528Y-517724D1*
X-1306066Y-518535D1*
X-1304633Y-519395D1*
X-1303231Y-520306D1*
X-1301862Y-521264D1*
X-1300528Y-522269D1*
X-1299228Y-523322D1*
X-1297967Y-524417D1*
X-1296745Y-525556D1*
X-1295563Y-526739D1*
X-1294424Y-527961D1*
X-1293327Y-529222D1*
X-1292276Y-530520D1*
X-1291269Y-531854D1*
X-1290311Y-533223D1*
X-1289400Y-534625D1*
X-1288539Y-536058D1*
X-1287730Y-537518D1*
X-1286970Y-539008D1*
X-1286264Y-540522D1*
X-1285610Y-542060D1*
X-1285012Y-543621D1*
X-1284467Y-545201D1*
X-1283979Y-546799D1*
X-1283546Y-548413D1*
X-1283171Y-550041D1*
X-1282850Y-551681D1*
X-1282589Y-553332D1*
X-1282386Y-554991D1*
X-1282240Y-556656D1*
X-1282152Y-558324D1*
X-1282123Y-560000D1*
X-1282152Y-561667D1*
X-1382383Y-564991D2*
X-1383167Y-569941D1*
X-1384462Y-574782D1*
X-1386256Y-579461D1*
X-1388530Y-583927D1*
X-1391259Y-588130D1*
X-1394411Y-592026D1*
X-1397954Y-595571D1*
X-1401848Y-598726D1*
X-1406050Y-601455D1*
X-1410514Y-603732D1*
X-1415192Y-605530D1*
X-1420033Y-606828D1*
X-1424982Y-607613D1*
X-1429987Y-607877D1*
X-1434991Y-607617D1*
X-1439941Y-606833D1*
X-1444782Y-605538D1*
X-1449461Y-603744D1*
X-1453927Y-601470D1*
X-1458130Y-598741D1*
X-1462026Y-595589D1*
X-1465571Y-592046D1*
X-1468726Y-588152D1*
X-1471455Y-583950D1*
X-1473732Y-579486D1*
X-1475530Y-574808D1*
X-1476828Y-569967D1*
X-1477613Y-565018D1*
X-1477877Y-560013D1*
X-1477617Y-555009D1*
X-1476833Y-550059D1*
X-1475538Y-545218D1*
X-1473744Y-540539D1*
X-1471470Y-536073D1*
X-1468741Y-531870D1*
X-1465589Y-527974D1*
X-1462046Y-524429D1*
X-1458152Y-521274D1*
X-1453950Y-518545D1*
X-1449486Y-516268D1*
X-1444808Y-514470D1*
X-1439967Y-513172D1*
X-1435018Y-512387D1*
X-1430013Y-512123D1*
X-1425009Y-512383D1*
X-1420059Y-513167D1*
X-1415218Y-514462D1*
X-1410539Y-516256D1*
X-1406073Y-518530D1*
X-1401870Y-521259D1*
X-1397974Y-524411D1*
X-1394429Y-527954D1*
X-1391274Y-531848D1*
X-1388545Y-536050D1*
X-1386268Y-540514D1*
X-1384470Y-545192D1*
X-1383172Y-550033D1*
X-1382387Y-554982D1*
X-1382123Y-560000D1*
X-1382383Y-564991D1*
X-1482383D2*
X-1483167Y-569941D1*
X-1484462Y-574782D1*
X-1486256Y-579461D1*
X-1488530Y-583927D1*
X-1491259Y-588130D1*
X-1494411Y-592026D1*
X-1497954Y-595571D1*
X-1501848Y-598726D1*
X-1506050Y-601455D1*
X-1510514Y-603732D1*
X-1515192Y-605530D1*
X-1520033Y-606828D1*
X-1524982Y-607613D1*
X-1529987Y-607877D1*
X-1534991Y-607617D1*
X-1539941Y-606833D1*
X-1544782Y-605538D1*
X-1549461Y-603744D1*
X-1553927Y-601470D1*
X-1558130Y-598741D1*
X-1562026Y-595589D1*
X-1565571Y-592046D1*
X-1568726Y-588152D1*
X-1571455Y-583950D1*
X-1573732Y-579486D1*
X-1575530Y-574808D1*
X-1576828Y-569967D1*
X-1577613Y-565018D1*
X-1577877Y-560013D1*
X-1577617Y-555009D1*
X-1576833Y-550059D1*
X-1575538Y-545218D1*
X-1573744Y-540539D1*
X-1571470Y-536073D1*
X-1568741Y-531870D1*
X-1565589Y-527974D1*
X-1562046Y-524429D1*
X-1558152Y-521274D1*
X-1553950Y-518545D1*
X-1549486Y-516268D1*
X-1544808Y-514470D1*
X-1539967Y-513172D1*
X-1535018Y-512387D1*
X-1530013Y-512123D1*
X-1525009Y-512383D1*
X-1520059Y-513167D1*
X-1515218Y-514462D1*
X-1510539Y-516256D1*
X-1506073Y-518530D1*
X-1501870Y-521259D1*
X-1497974Y-524411D1*
X-1494429Y-527954D1*
X-1491274Y-531848D1*
X-1488545Y-536050D1*
X-1486268Y-540514D1*
X-1484470Y-545192D1*
X-1483172Y-550033D1*
X-1482387Y-554982D1*
X-1482123Y-560000D1*
X-1482383Y-564991D1*
X-1048173Y453751D2*
D23*
X-951827D1*
X-1000000Y405577D2*
Y501924D1*
X-1377858Y-560000D2*
X-1282142D1*
X-1330000Y-607858D2*
Y-512142D1*
X-705797Y659631D2*
D16*
X317169D1*
X382833D2*
X612699D1*
X-705797Y652762D2*
X315870D1*
X384133D2*
X617854D1*
X-705797Y645894D2*
X316007D1*
X383996D2*
X623001D1*
X-705797Y639025D2*
X317600D1*
X382403D2*
X628156D1*
X-705797Y632156D2*
X259747D1*
X280253D2*
X320894D1*
X379108D2*
X633310D1*
X-705797Y625287D2*
X247257D1*
X292743D2*
X326615D1*
X373386D2*
X638458D1*
X-705797Y618419D2*
X-29667D1*
X-10336D2*
X241262D1*
X298738D2*
X337991D1*
X362010D2*
X643612D1*
X-705797Y611550D2*
X-44385D1*
X4382D2*
X237803D1*
X302197D2*
X648760D1*
X-705797Y604681D2*
X-51480D1*
X11478D2*
X236081D1*
X303919D2*
X653913D1*
X-705797Y597812D2*
X-55903D1*
X15900D2*
X235828D1*
X304172D2*
X659068D1*
X-705797Y590944D2*
X-58602D1*
X18601D2*
X236997D1*
X303003D2*
X664215D1*
X-705797Y584075D2*
X-59942D1*
X19941D2*
X239780D1*
X300220D2*
X669370D1*
X-705797Y577206D2*
X-60052D1*
X20050D2*
X244688D1*
X295312D2*
X674517D1*
X-705797Y570337D2*
X-58951D1*
X18950D2*
X253635D1*
X286365D2*
X679672D1*
X-705797Y563469D2*
X-56518D1*
X16522D2*
X684825D1*
X-705797Y556600D2*
X-52465D1*
X12462D2*
X689974D1*
X-705797Y549731D2*
X-46004D1*
X6003D2*
X695127D1*
X-705797Y542862D2*
X-34007D1*
X-5988D2*
X700276D1*
X-705797Y535993D2*
X705429D1*
X-705797Y529125D2*
X710584D1*
X-705797Y522256D2*
X715731D1*
X-705797Y515387D2*
X720886D1*
X-705797Y508518D2*
X726033D1*
X-705797Y501650D2*
X-601820D1*
X-578184D2*
X-361818D1*
X-338180D2*
X-231819D1*
X-208181D2*
X-161819D1*
X-138181D2*
X108180D1*
X131818D2*
X428184D1*
X451815D2*
X488184D1*
X511820D2*
X731188D1*
X-705797Y494781D2*
X-613312D1*
X-566692D2*
X-373308D1*
X-326689D2*
X-243310D1*
X-196690D2*
X-173310D1*
X-126690D2*
X96689D1*
X143308D2*
X416693D1*
X463312D2*
X476692D1*
X523312D2*
X736341D1*
X-705797Y487912D2*
X-679306D1*
X-640692D2*
X-619060D1*
X-560936D2*
X-379064D1*
X-320940D2*
X-249066D1*
X-190934D2*
X-179066D1*
X-120934D2*
X40696D1*
X79304D2*
X90940D1*
X149064D2*
X410937D1*
X529060D2*
X741490D1*
X-705797Y481043D2*
X-686825D1*
X-633178D2*
X-622377D1*
X-557627D2*
X-382373D1*
X-317625D2*
X-252374D1*
X-187626D2*
X-182374D1*
X-117626D2*
X33176D1*
X152373D2*
X407622D1*
X532377D2*
X746643D1*
X-705797Y474175D2*
X-691105D1*
X-628899D2*
X-623983D1*
X-556014D2*
X-383987D1*
X-316018D2*
X-253988D1*
X-116012D2*
X28898D1*
X153987D2*
X406016D1*
X533983D2*
X751791D1*
X-705797Y467306D2*
X-693442D1*
X-555864D2*
X-384136D1*
X-315861D2*
X-254138D1*
X-115862D2*
X26559D1*
X154136D2*
X405865D1*
X534140D2*
X755797D1*
X-705797Y460437D2*
X-694243D1*
X-557150D2*
X-382852D1*
X-317146D2*
X-252853D1*
X-187147D2*
X-182853D1*
X-117147D2*
X25760D1*
X152852D2*
X407143D1*
X532854D2*
X755797D1*
X-705797Y453568D2*
X-693621D1*
X-626377D2*
X-619942D1*
X-560054D2*
X-379946D1*
X-320051D2*
X-249948D1*
X-190052D2*
X-179948D1*
X-120052D2*
X26375D1*
X149946D2*
X410055D1*
X529942D2*
X755797D1*
X-705797Y446699D2*
X-691495D1*
X-628503D2*
X-614829D1*
X-565168D2*
X-374833D1*
X-325165D2*
X-244835D1*
X-195165D2*
X-174835D1*
X-125165D2*
X28501D1*
X144833D2*
X415169D1*
X464831D2*
X475168D1*
X524829D2*
X755797D1*
X475125Y439831D2*
X484635D1*
X515369D2*
X755797D1*
X480026Y432962D2*
X755797D1*
X484934Y426093D2*
X755797D1*
X489843Y419224D2*
X755797D1*
X494744Y412356D2*
X755797D1*
X499652Y405487D2*
X755797D1*
X504560Y398618D2*
X755797D1*
X509469Y391749D2*
X755797D1*
X514370Y384881D2*
X755797D1*
X519278Y378012D2*
X755797D1*
X524186Y371143D2*
X676835D1*
X703165D2*
X755797D1*
X524201Y364274D2*
X666150D1*
X713850D2*
X755797D1*
X524201Y357406D2*
X660627D1*
X719373D2*
X755797D1*
X524201Y350537D2*
X657455D1*
X722545D2*
X755797D1*
X524201Y343668D2*
X655958D1*
X724042D2*
X755797D1*
X524201Y336799D2*
X655909D1*
X724091D2*
X755797D1*
X524201Y329930D2*
X657304D1*
X722696D2*
X755797D1*
X524201Y323062D2*
X660346D1*
X719654D2*
X755797D1*
X524201Y316193D2*
X665665D1*
X714335D2*
X755797D1*
X528118Y309324D2*
X675727D1*
X704273D2*
X755797D1*
X531850Y302455D2*
X755797D1*
X533778Y295587D2*
X755797D1*
X534222Y288718D2*
X755797D1*
X533238Y281849D2*
X755797D1*
X530694Y274980D2*
X755797D1*
X526121Y268112D2*
X755797D1*
X524201Y261243D2*
X755797D1*
X524201Y254374D2*
X755797D1*
X524201Y247505D2*
X755797D1*
X524201Y240636D2*
X755797D1*
X524201Y233768D2*
X755797D1*
X524201Y226899D2*
X755797D1*
X524201Y220030D2*
X755797D1*
X524201Y213161D2*
X755797D1*
X524201Y206293D2*
X755797D1*
X524201Y199424D2*
X755797D1*
X524201Y192555D2*
X755797D1*
X524201Y185686D2*
X755797D1*
X524201Y178818D2*
X692127D1*
X727870D2*
X755797D1*
X524201Y171949D2*
X683930D1*
X736067D2*
X755797D1*
X524201Y165080D2*
X679337D1*
X740667D2*
X755797D1*
X524201Y158211D2*
X676773D1*
X743224D2*
X755797D1*
X524201Y151343D2*
X675782D1*
X744222D2*
X755797D1*
X524201Y144474D2*
X676213D1*
X743785D2*
X755797D1*
X524201Y137605D2*
X678127D1*
X741870D2*
X755797D1*
X524201Y130736D2*
X681839D1*
X738165D2*
X755797D1*
X524201Y123867D2*
X688264D1*
X731732D2*
X755797D1*
X524201Y116999D2*
X703283D1*
X716720D2*
X755797D1*
X524201Y110130D2*
X755797D1*
X524201Y103261D2*
X755797D1*
X524201Y96392D2*
X755797D1*
X524201Y89524D2*
X755797D1*
X524201Y82655D2*
X755797D1*
X524201Y75786D2*
X755797D1*
X524201Y68917D2*
X755797D1*
X524201Y62049D2*
X755797D1*
X524201Y55180D2*
X755797D1*
X524201Y48311D2*
X755797D1*
X524201Y41442D2*
X755797D1*
X524201Y34573D2*
X755797D1*
X524201Y27705D2*
X755797D1*
X524201Y20836D2*
X755797D1*
X524201Y13967D2*
X755797D1*
X524201Y7098D2*
X755797D1*
X19295Y576504D2*
X18833Y573046D1*
X18067Y569640D1*
X17003Y566316D1*
X15648Y563100D1*
X14014Y560016D1*
X12115Y557088D1*
X9965Y554339D1*
X7580Y551791D1*
X4979Y549463D1*
X2182Y547375D1*
X-789Y545543D1*
X-3908Y543980D1*
X-7155Y542698D1*
X-10503Y541710D1*
X-13924Y541020D1*
X-17392Y540635D1*
X-20882Y540559D1*
X-24364Y540791D1*
X-27812Y541331D1*
X-31199Y542172D1*
X-34499Y543310D1*
X-37685Y544735D1*
X-40732Y546436D1*
X-43617Y548399D1*
X-46318Y550610D1*
X-48812Y553051D1*
X-51081Y555703D1*
X-53108Y558545D1*
X-54874Y561555D1*
X-56367Y564710D1*
X-57576Y567983D1*
X-58491Y571352D1*
X-59105Y574787D1*
X-59413Y578264D1*
X-59412Y581753D1*
X-59102Y585230D1*
X-58488Y588665D1*
X-57571Y592033D1*
X-56361Y595307D1*
X-54865Y598461D1*
X-53097Y601470D1*
X-51071Y604311D1*
X-48801Y606962D1*
X-46304Y609402D1*
X-43604Y611612D1*
X-40717Y613573D1*
X-37669Y615273D1*
X-34482Y616697D1*
X-31182Y617833D1*
X-27795Y618673D1*
X-24346Y619211D1*
X-20864Y619441D1*
X-17375Y619364D1*
X-13906Y618978D1*
X-10486Y618286D1*
X-7139Y617295D1*
X-3892Y616013D1*
X-773Y614449D1*
X2197Y612614D1*
X4992Y610525D1*
X7592Y608197D1*
X9976Y605648D1*
X12126Y602898D1*
X14024Y599970D1*
X15655Y596885D1*
X17008Y593667D1*
X18071Y590343D1*
X18836Y586937D1*
X19298Y583478D1*
X19451Y580000D1*
X19295Y576504D1*
X303364Y596507D2*
X302815Y593038D1*
X301908Y589646D1*
X300651Y586367D1*
X299058Y583239D1*
X297147Y580293D1*
X294938Y577563D1*
X292455Y575080D1*
X289728Y572869D1*
X286783Y570955D1*
X283656Y569360D1*
X280378Y568100D1*
X276987Y567190D1*
X273520Y566639D1*
X270013Y566454D1*
X266507Y566636D1*
X263038Y567185D1*
X259646Y568092D1*
X256367Y569349D1*
X253239Y570942D1*
X250293Y572853D1*
X247563Y575062D1*
X245080Y577545D1*
X242869Y580272D1*
X240955Y583217D1*
X239360Y586344D1*
X238100Y589622D1*
X237190Y593013D1*
X236639Y596480D1*
X236454Y599987D1*
X236636Y603493D1*
X237185Y606962D1*
X238092Y610354D1*
X239349Y613633D1*
X240942Y616761D1*
X242853Y619707D1*
X245062Y622437D1*
X247545Y624920D1*
X250272Y627131D1*
X253217Y629045D1*
X256344Y630640D1*
X259622Y631900D1*
X263013Y632810D1*
X266480Y633361D1*
X269987Y633546D1*
X273493Y633364D1*
X276962Y632815D1*
X280354Y631908D1*
X283633Y630651D1*
X286761Y629058D1*
X289707Y627147D1*
X292437Y624938D1*
X294920Y622455D1*
X297131Y619728D1*
X299045Y616783D1*
X300640Y613656D1*
X301900Y610378D1*
X302810Y606987D1*
X303361Y603520D1*
X303546Y600000D1*
X303364Y596507D1*
X743364Y146507D2*
X742815Y143038D1*
X741908Y139646D1*
X740651Y136367D1*
X739058Y133239D1*
X737147Y130293D1*
X734938Y127563D1*
X732455Y125080D1*
X729728Y122869D1*
X726783Y120955D1*
X723656Y119360D1*
X720378Y118100D1*
X716987Y117190D1*
X713520Y116639D1*
X710013Y116454D1*
X706507Y116636D1*
X703038Y117185D1*
X699646Y118092D1*
X696367Y119349D1*
X693239Y120942D1*
X690293Y122853D1*
X687563Y125062D1*
X685080Y127545D1*
X682869Y130272D1*
X680955Y133217D1*
X679360Y136344D1*
X678100Y139622D1*
X677190Y143013D1*
X676639Y146480D1*
X676454Y149987D1*
X676636Y153493D1*
X677185Y156962D1*
X678092Y160354D1*
X679349Y163633D1*
X680942Y166761D1*
X682853Y169707D1*
X685062Y172437D1*
X687545Y174920D1*
X690272Y177131D1*
X693217Y179045D1*
X696344Y180640D1*
X699622Y181900D1*
X703013Y182810D1*
X706480Y183361D1*
X709987Y183546D1*
X713493Y183364D1*
X716962Y182815D1*
X720354Y181908D1*
X723633Y180651D1*
X726761Y179058D1*
X729707Y177147D1*
X732437Y174938D1*
X734920Y172455D1*
X737131Y169728D1*
X739045Y166783D1*
X740640Y163656D1*
X741900Y160378D1*
X742810Y156987D1*
X743361Y153520D1*
X743546Y150000D1*
X743364Y146507D1*
X723364Y336507D2*
X722815Y333038D1*
X721908Y329646D1*
X720651Y326367D1*
X719058Y323239D1*
X717147Y320293D1*
X714938Y317563D1*
X712455Y315080D1*
X709728Y312869D1*
X706783Y310955D1*
X703656Y309360D1*
X700378Y308100D1*
X696987Y307190D1*
X693520Y306639D1*
X690013Y306454D1*
X686507Y306636D1*
X683038Y307185D1*
X679646Y308092D1*
X676367Y309349D1*
X673239Y310942D1*
X670293Y312853D1*
X667563Y315062D1*
X665080Y317545D1*
X662869Y320272D1*
X660955Y323217D1*
X659360Y326344D1*
X658100Y329622D1*
X657190Y333013D1*
X656639Y336480D1*
X656454Y339987D1*
X656636Y343493D1*
X657185Y346962D1*
X658092Y350354D1*
X659349Y353633D1*
X660942Y356761D1*
X662853Y359707D1*
X665062Y362437D1*
X667545Y364920D1*
X670272Y367131D1*
X673217Y369045D1*
X676344Y370640D1*
X679622Y371900D1*
X683013Y372810D1*
X686480Y373361D1*
X689987Y373546D1*
X693493Y373364D1*
X696962Y372815D1*
X700354Y371908D1*
X703633Y370651D1*
X706761Y369058D1*
X709707Y367147D1*
X712437Y364938D1*
X714920Y362455D1*
X717131Y359728D1*
X719045Y356783D1*
X720640Y353656D1*
X721900Y350378D1*
X722810Y346987D1*
X723361Y343520D1*
X723546Y340000D1*
X723364Y336507D1*
X471356Y443227D2*
X472776Y442131D1*
X503252Y399469D1*
X522844Y372039D1*
X522979Y371836D1*
X523497Y370121D1*
X523500Y313937D1*
X523501Y313874D1*
X524920Y312455D1*
X527131Y309728D1*
X529045Y306783D1*
X530640Y303656D1*
X531900Y300378D1*
X532810Y296987D1*
X533361Y293520D1*
X533546Y290000D1*
X533364Y286507D1*
X532815Y283038D1*
X531908Y279646D1*
X530651Y276367D1*
X529058Y273239D1*
X527147Y270293D1*
X524938Y267563D1*
X523500Y266125D1*
Y3497D1*
X544571Y3500D1*
X756500D1*
Y468833D1*
X608249Y666500D1*
X379190D1*
X380640Y663656D1*
X381900Y660378D1*
X382810Y656987D1*
X383361Y653520D1*
X383546Y650000D1*
X383364Y646507D1*
X382815Y643038D1*
X381908Y639646D1*
X380651Y636367D1*
X379058Y633239D1*
X377147Y630293D1*
X374938Y627563D1*
X372455Y625080D1*
X369728Y622869D1*
X366783Y620955D1*
X363656Y619360D1*
X360378Y618100D1*
X356987Y617190D1*
X353520Y616639D1*
X350013Y616454D1*
X346507Y616636D1*
X343038Y617185D1*
X339646Y618092D1*
X336367Y619349D1*
X333239Y620942D1*
X330293Y622853D1*
X327563Y625062D1*
X325080Y627545D1*
X322869Y630272D1*
X320955Y633217D1*
X319360Y636344D1*
X318100Y639622D1*
X317190Y643013D1*
X316639Y646480D1*
X316454Y649987D1*
X316636Y653493D1*
X317185Y656962D1*
X318092Y660354D1*
X319349Y663633D1*
X320810Y666501D1*
X200508Y666500D1*
X-706501D1*
X-706500Y443503D1*
X-689203Y443500D1*
X-690640Y446344D1*
X-691900Y449622D1*
X-692810Y453013D1*
X-693361Y456480D1*
X-693546Y459987D1*
X-693364Y463493D1*
X-692815Y466962D1*
X-691908Y470354D1*
X-690651Y473633D1*
X-689058Y476761D1*
X-687147Y479707D1*
X-684938Y482437D1*
X-682455Y484920D1*
X-679728Y487131D1*
X-676783Y489045D1*
X-673656Y490640D1*
X-670378Y491900D1*
X-666987Y492810D1*
X-663520Y493361D1*
X-660013Y493546D1*
X-656507Y493364D1*
X-653038Y492815D1*
X-649646Y491908D1*
X-646367Y490651D1*
X-643239Y489058D1*
X-640293Y487147D1*
X-637563Y484938D1*
X-635080Y482455D1*
X-632869Y479728D1*
X-630955Y476783D1*
X-629360Y473656D1*
X-628100Y470378D1*
X-627190Y466987D1*
X-626639Y463520D1*
X-626454Y460000D1*
X-626636Y456507D1*
X-627185Y453038D1*
X-628092Y449646D1*
X-629349Y446367D1*
X-630810Y443499D1*
X-610504D1*
X-612437Y445062D1*
X-614920Y447545D1*
X-617131Y450272D1*
X-619045Y453217D1*
X-620640Y456344D1*
X-621900Y459622D1*
X-622810Y463013D1*
X-623361Y466480D1*
X-623546Y469987D1*
X-623364Y473493D1*
X-622815Y476962D1*
X-621908Y480354D1*
X-620651Y483633D1*
X-619058Y486761D1*
X-617147Y489707D1*
X-614938Y492437D1*
X-612455Y494920D1*
X-609728Y497131D1*
X-606783Y499045D1*
X-603656Y500640D1*
X-600378Y501900D1*
X-596987Y502810D1*
X-593520Y503361D1*
X-590013Y503546D1*
X-586507Y503364D1*
X-583038Y502815D1*
X-579646Y501908D1*
X-576367Y500651D1*
X-573239Y499058D1*
X-570293Y497147D1*
X-567563Y494938D1*
X-565080Y492455D1*
X-562869Y489728D1*
X-560955Y486783D1*
X-559360Y483656D1*
X-558100Y480378D1*
X-557190Y476987D1*
X-556639Y473520D1*
X-556454Y470000D1*
X-556636Y466507D1*
X-557185Y463038D1*
X-558092Y459646D1*
X-559349Y456367D1*
X-560942Y453239D1*
X-562853Y450293D1*
X-565062Y447563D1*
X-567545Y445080D1*
X-569492Y443501D1*
X-370504Y443499D1*
X-372437Y445062D1*
X-374920Y447545D1*
X-377131Y450272D1*
X-379045Y453217D1*
X-380640Y456344D1*
X-381900Y459622D1*
X-382810Y463013D1*
X-383361Y466480D1*
X-383546Y469987D1*
X-383364Y473493D1*
X-382815Y476962D1*
X-381908Y480354D1*
X-380651Y483633D1*
X-379058Y486761D1*
X-377147Y489707D1*
X-374938Y492437D1*
X-372455Y494920D1*
X-369728Y497131D1*
X-366783Y499045D1*
X-363656Y500640D1*
X-360378Y501900D1*
X-356987Y502810D1*
X-353520Y503361D1*
X-350013Y503546D1*
X-346507Y503364D1*
X-343038Y502815D1*
X-339646Y501908D1*
X-336367Y500651D1*
X-333239Y499058D1*
X-330293Y497147D1*
X-327563Y494938D1*
X-325080Y492455D1*
X-322869Y489728D1*
X-320955Y486783D1*
X-319360Y483656D1*
X-318100Y480378D1*
X-317190Y476987D1*
X-316639Y473520D1*
X-316454Y470000D1*
X-316636Y466507D1*
X-317185Y463038D1*
X-318092Y459646D1*
X-319349Y456367D1*
X-320942Y453239D1*
X-322853Y450293D1*
X-325062Y447563D1*
X-327545Y445080D1*
X-329492Y443501D1*
X-240568Y443500D1*
X-242437Y445062D1*
X-244920Y447545D1*
X-247131Y450272D1*
X-249045Y453217D1*
X-250640Y456344D1*
X-251900Y459622D1*
X-252810Y463013D1*
X-253361Y466480D1*
X-253546Y469987D1*
X-253364Y473493D1*
X-252815Y476962D1*
X-251908Y480354D1*
X-250651Y483633D1*
X-249058Y486761D1*
X-247147Y489707D1*
X-244938Y492437D1*
X-242455Y494920D1*
X-239728Y497131D1*
X-236783Y499045D1*
X-233656Y500640D1*
X-230378Y501900D1*
X-226987Y502810D1*
X-223520Y503361D1*
X-220013Y503546D1*
X-216507Y503364D1*
X-213038Y502815D1*
X-209646Y501908D1*
X-206367Y500651D1*
X-203239Y499058D1*
X-200293Y497147D1*
X-197563Y494938D1*
X-195080Y492455D1*
X-192869Y489728D1*
X-190955Y486783D1*
X-189360Y483656D1*
X-188100Y480378D1*
X-187190Y476987D1*
X-186639Y473520D1*
X-186454Y470000D1*
X-186636Y466507D1*
X-187185Y463038D1*
X-188092Y459646D1*
X-189349Y456367D1*
X-190942Y453239D1*
X-192853Y450293D1*
X-195062Y447563D1*
X-197545Y445080D1*
X-199492Y443501D1*
X-170568Y443500D1*
X-172437Y445062D1*
X-174920Y447545D1*
X-177131Y450272D1*
X-179045Y453217D1*
X-180640Y456344D1*
X-181900Y459622D1*
X-182810Y463013D1*
X-183361Y466480D1*
X-183546Y469987D1*
X-183364Y473493D1*
X-182815Y476962D1*
X-181908Y480354D1*
X-180651Y483633D1*
X-179058Y486761D1*
X-177147Y489707D1*
X-174938Y492437D1*
X-172455Y494920D1*
X-169728Y497131D1*
X-166783Y499045D1*
X-163656Y500640D1*
X-160378Y501900D1*
X-156987Y502810D1*
X-153520Y503361D1*
X-150013Y503546D1*
X-146507Y503364D1*
X-143038Y502815D1*
X-139646Y501908D1*
X-136367Y500651D1*
X-133239Y499058D1*
X-130293Y497147D1*
X-127563Y494938D1*
X-125080Y492455D1*
X-122869Y489728D1*
X-120955Y486783D1*
X-119360Y483656D1*
X-118100Y480378D1*
X-117190Y476987D1*
X-116639Y473520D1*
X-116454Y470000D1*
X-116636Y466507D1*
X-117185Y463038D1*
X-118092Y459646D1*
X-119349Y456367D1*
X-120942Y453239D1*
X-122853Y450293D1*
X-125062Y447563D1*
X-127545Y445080D1*
X-129492Y443501D1*
X30791Y443500D1*
X29360Y446344D1*
X28100Y449622D1*
X27190Y453013D1*
X26639Y456480D1*
X26454Y459987D1*
X26636Y463493D1*
X27185Y466962D1*
X28092Y470354D1*
X29349Y473633D1*
X30942Y476761D1*
X32853Y479707D1*
X35062Y482437D1*
X37545Y484920D1*
X40272Y487131D1*
X43217Y489045D1*
X46344Y490640D1*
X49622Y491900D1*
X53013Y492810D1*
X56480Y493361D1*
X59987Y493546D1*
X63493Y493364D1*
X66962Y492815D1*
X70354Y491908D1*
X73633Y490651D1*
X76761Y489058D1*
X79707Y487147D1*
X82437Y484938D1*
X84920Y482455D1*
X87131Y479728D1*
X87660Y478915D1*
X88092Y480354D1*
X89349Y483633D1*
X90942Y486761D1*
X92853Y489707D1*
X95062Y492437D1*
X97545Y494920D1*
X100272Y497131D1*
X103217Y499045D1*
X106344Y500640D1*
X109622Y501900D1*
X113013Y502810D1*
X116480Y503361D1*
X119987Y503546D1*
X123493Y503364D1*
X126962Y502815D1*
X130354Y501908D1*
X133633Y500651D1*
X136761Y499058D1*
X139707Y497147D1*
X142437Y494938D1*
X144920Y492455D1*
X147131Y489728D1*
X149045Y486783D1*
X150640Y483656D1*
X151900Y480378D1*
X152810Y476987D1*
X153361Y473520D1*
X153546Y470000D1*
X153364Y466507D1*
X152815Y463038D1*
X151908Y459646D1*
X150651Y456367D1*
X149058Y453239D1*
X147147Y450293D1*
X144938Y447563D1*
X142455Y445080D1*
X140508Y443501D1*
X419434Y443500D1*
X417563Y445062D1*
X415080Y447545D1*
X412869Y450272D1*
X410955Y453217D1*
X409360Y456344D1*
X408100Y459622D1*
X407190Y463013D1*
X406639Y466480D1*
X406454Y469987D1*
X406636Y473493D1*
X407185Y476962D1*
X408092Y480354D1*
X409349Y483633D1*
X410942Y486761D1*
X412853Y489707D1*
X415062Y492437D1*
X417545Y494920D1*
X420272Y497131D1*
X423217Y499045D1*
X426344Y500640D1*
X429622Y501900D1*
X433013Y502810D1*
X436480Y503361D1*
X439987Y503546D1*
X443493Y503364D1*
X446962Y502815D1*
X450354Y501908D1*
X453633Y500651D1*
X456761Y499058D1*
X459707Y497147D1*
X462437Y494938D1*
X464920Y492455D1*
X467131Y489728D1*
X469045Y486783D1*
X469975Y484961D1*
X470942Y486761D1*
X472853Y489707D1*
X475062Y492437D1*
X477545Y494920D1*
X480272Y497131D1*
X483217Y499045D1*
X486344Y500640D1*
X489622Y501900D1*
X493013Y502810D1*
X496480Y503361D1*
X499987Y503546D1*
X503493Y503364D1*
X506962Y502815D1*
X510354Y501908D1*
X513633Y500651D1*
X516761Y499058D1*
X519707Y497147D1*
X522437Y494938D1*
X524920Y492455D1*
X527131Y489728D1*
X529045Y486783D1*
X530640Y483656D1*
X531900Y480378D1*
X532810Y476987D1*
X533361Y473520D1*
X533546Y470000D1*
X533364Y466507D1*
X532815Y463038D1*
X531908Y459646D1*
X530651Y456367D1*
X529058Y453239D1*
X527147Y450293D1*
X524938Y447563D1*
X522455Y445080D1*
X519728Y442869D1*
X516783Y440955D1*
X513656Y439360D1*
X510378Y438100D1*
X506987Y437190D1*
X503520Y436639D1*
X500013Y436454D1*
X496507Y436636D1*
X493038Y437185D1*
X489646Y438092D1*
X486367Y439349D1*
X483239Y440942D1*
X480293Y442853D1*
X477563Y445062D1*
X475080Y447545D1*
X472869Y450272D1*
X470955Y453217D1*
X470025Y455039D1*
X469058Y453239D1*
X467147Y450293D1*
X464938Y447563D1*
X462455Y445080D1*
X460508Y443501D1*
X469993Y443500D1*
X471356Y443227D1*
D33*
X-214646Y1582677D3*
Y1332677D3*
Y1082677D3*
X-664646D3*
Y1332677D3*
Y1582677D3*
X545354Y1572677D3*
Y1322677D3*
Y1072677D3*
X95354D3*
Y1322677D3*
Y1572677D3*
X1285354D3*
Y1322677D3*
Y1072677D3*
X835354D3*
Y1322677D3*
Y1572677D3*
X-1089370Y1450000D2*
D35*
X-1010630D1*
X-1242913Y1369291D2*
Y1290551D1*
X-1099213Y1213780D2*
X-1000787D1*
D39*
X-1400000Y453751D3*
X-1300000D3*
X-1200000D3*
X-1100000D3*
X-1000000D3*
D35*
X-470000Y150000D3*
X300000Y0D3*
X-40000Y310000D3*
D48*
X-1530000Y40000D3*
X-1430000D3*
X-1330000D3*
X-1230000D3*
X-1130000D3*
X-1030000D3*
X-930000D3*
X-830000D3*
X-730000D3*
Y-60000D3*
Y-160000D3*
Y-260000D3*
Y-360000D3*
Y-460000D3*
Y-560000D3*
X-830000D3*
X-930000D3*
X-1030000D3*
X-1130000D3*
X-1230000D3*
X-1330000D3*
X-1430000D3*
X-1530000D3*
M02*
