G04 DipTrace 5.2.0.4*
G04 4 - Bottom.gbr*
%MOIN*%
G04 #@! TF.FileFunction,Copper,L4,Bot*
G04 #@! TF.Part,Single*
G04 #@! TA.AperFunction,Conductor*
%ADD16C,0.007*%
%ADD17C,0.024*%
%ADD18C,0.01*%
%ADD19C,0.016*%
G04 #@! TA.AperFunction,ComponentPad*
%ADD32C,0.088583*%
%ADD34O,0.137795X0.059055*%
%ADD35C,0.059055*%
%ADD36O,0.059055X0.137795*%
%ADD37O,0.15748X0.059055*%
%ADD38O,0.06X0.12*%
%ADD42R,0.044488X0.096063*%
%ADD43C,0.031*%
G04 #@! TA.AperFunction,ComponentPad*
%ADD47R,0.05937X0.05937*%
%ADD49C,0.05937*%
G04 #@! TA.AperFunction,ViaPad*
%ADD56C,0.027811*%
%ADD58C,0.039622*%
%FSLAX26Y26*%
G04*
G70*
G90*
G75*
G01*
G04 Bottom*
%LPD*%
G36*
X-1375251Y-305000D2*
X-1373501Y-312916D1*
Y-314466D1*
X-1384001D1*
Y-312916D1*
X-1382251Y-305000D1*
X-1375251D1*
G37*
G36*
X-1382251Y-312193D2*
X-1389160Y-300462D1*
X-1389248Y-299073D1*
X-1369811Y-297980D1*
X-1369723Y-299367D1*
X-1375251Y-312193D1*
X-1382251D1*
G37*
X-1378751Y-327500D2*
D16*
Y-291249D1*
X-1380000Y-290000D1*
G36*
X-403499Y230068D2*
X-403207Y238150D1*
X-402488Y239339D1*
X-385194Y230398D1*
X-385913Y229209D1*
X-396500Y223157D1*
X-403499Y230068D1*
G37*
G36*
X-396500Y-37751D2*
X-390266Y-50070D1*
Y-51461D1*
X-409734D1*
Y-50070D1*
X-403500Y-37751D1*
X-396500D1*
G37*
X-390000Y242500D2*
D16*
Y240000D1*
X-400000Y230000D1*
Y-60000D1*
G36*
X-853756Y-1038791D2*
X-877756Y-1044791D1*
X-879980D1*
Y-1008791D1*
X-877756D1*
X-853756Y-1014791D1*
Y-1038791D1*
G37*
G36*
X-846244Y-1014791D2*
X-822244Y-1008791D1*
X-820020D1*
Y-1044791D1*
X-822244D1*
X-846244Y-1038791D1*
Y-1014791D1*
G37*
X-900000Y-1026791D2*
D17*
X-800000D1*
G36*
X-1440751Y-417000D2*
X-1444188Y-378892D1*
Y-377343D1*
X-1413314D1*
Y-378892D1*
X-1416751Y-417000D1*
X-1440751D1*
G37*
X-1428751Y-377500D2*
D17*
Y-418751D1*
X-1430000Y-420000D1*
G36*
X-788000Y-960000D2*
X-782000Y-978760D1*
Y-983563D1*
X-818000D1*
Y-978760D1*
X-812000Y-960000D1*
X-788000D1*
G37*
X-800000Y-1026791D2*
D17*
Y-960000D1*
X-790000Y-950000D1*
G36*
X1062244Y1394291D2*
X1052244Y1391791D1*
X1050020D1*
Y1406791D1*
X1052244D1*
X1062244Y1404291D1*
Y1394291D1*
G37*
G36*
X1097756Y1404291D2*
X1107756Y1406791D1*
X1109980D1*
Y1391791D1*
X1107756D1*
X1097756Y1394291D1*
Y1404291D1*
G37*
X1030000Y1399291D2*
D18*
X1130000D1*
G36*
X1159244Y1395791D2*
X1152244Y1394042D1*
X1150020D1*
Y1404542D1*
X1152244D1*
X1159244Y1402791D1*
Y1395791D1*
G37*
G36*
X832249Y835000D2*
X819930Y830266D1*
X818539D1*
Y849734D1*
X819930D1*
X832249Y845000D1*
Y835000D1*
G37*
X1130000Y1399291D2*
D16*
X1170709D1*
D18*
X1200000Y1370000D1*
Y870000D1*
X1170000Y840000D1*
X810000D1*
G36*
X997756Y1065709D2*
X1007756Y1068209D1*
X1009980D1*
Y1053209D1*
X1007756D1*
X997756Y1055709D1*
Y1065709D1*
G37*
G36*
X904572Y1055709D2*
X861240Y1036738D1*
X856883Y1037537D1*
X867449Y1098638D1*
X871804Y1097839D1*
X904572Y1065709D1*
Y1055709D1*
G37*
X1030000Y1060709D2*
D18*
X847323D1*
X835354Y1072677D1*
G36*
X1135000Y1118740D2*
X1137500Y1108740D1*
Y1103937D1*
X1122500D1*
Y1108740D1*
X1125000Y1118740D1*
X1135000D1*
G37*
G36*
X874496Y1276465D2*
X835798Y1278388D1*
X832665Y1281520D1*
X876512Y1325366D1*
X879643Y1322234D1*
X881567Y1283535D1*
X874496Y1276465D1*
G37*
X1130000Y1060709D2*
D18*
Y1240000D1*
X1090000Y1280000D1*
X878031D1*
X835354Y1322677D1*
G36*
X-593780Y1324677D2*
X-633016Y1301673D1*
X-637445D1*
Y1363681D1*
X-633016D1*
X-593780Y1340677D1*
Y1324677D1*
G37*
G36*
X500902Y1128444D2*
X544911Y1116966D1*
X548043Y1113835D1*
X504197Y1069988D1*
X501066Y1073121D1*
X489588Y1117130D1*
X500902Y1128444D1*
G37*
X-664646Y1332677D2*
D19*
X-502677D1*
X-380000Y1210000D1*
X408031D1*
X545354Y1072677D1*
G36*
X-152249Y-414000D2*
X-139930Y-407766D1*
X-138539D1*
Y-427234D1*
X-139930D1*
X-152249Y-421000D1*
Y-414000D1*
G37*
G36*
X-1099948Y-421000D2*
X-1114109Y-422596D1*
X-1115387Y-422050D1*
X-1108567Y-403815D1*
X-1107289Y-404362D1*
X-1099948Y-414000D1*
Y-421000D1*
G37*
X-130000Y-417500D2*
D16*
X-1110000D1*
X-1120000Y-410000D1*
G36*
X-276500Y-257751D2*
X-270266Y-270070D1*
Y-271461D1*
X-289734D1*
Y-270070D1*
X-283500Y-257751D1*
X-276500D1*
G37*
G36*
X221793Y-163257D2*
X226096Y-150139D1*
X227079Y-149156D1*
X240844Y-162921D1*
X239861Y-163904D1*
X226743Y-168207D1*
X221793Y-163257D1*
G37*
X-280000Y-280000D2*
D16*
Y-190000D1*
X-260000Y-170000D1*
X220000D1*
X240000Y-150000D1*
G36*
X48159Y13109D2*
X46913Y25298D1*
X47466Y26575D1*
X64991Y18098D1*
X64440Y16822D1*
X53109Y8159D1*
X48159Y13109D1*
G37*
G36*
X-303369Y-44814D2*
X-306196Y-58327D1*
X-307064Y-59412D1*
X-322266Y-47251D1*
X-321398Y-46165D1*
X-308835Y-40440D1*
X-303369Y-44814D1*
G37*
X60000Y30000D2*
D16*
Y20000D1*
X30000Y-10000D1*
X-280000D1*
X-320000Y-60000D1*
G36*
X382249Y366500D2*
X369930Y360266D1*
X368539D1*
Y379734D1*
X369930D1*
X382249Y373500D1*
Y366500D1*
G37*
G36*
X1356743Y358207D2*
X1369861Y353904D1*
X1370844Y352921D1*
X1357079Y339156D1*
X1356096Y340139D1*
X1351793Y353257D1*
X1356743Y358207D1*
G37*
X360000Y370000D2*
D16*
X1340000D1*
X1370000Y340000D1*
G36*
X667751Y343500D2*
X680070Y349734D1*
X681461D1*
Y330266D1*
X680070D1*
X667751Y336500D1*
Y343500D1*
G37*
G36*
X418176Y336500D2*
X413392Y326259D1*
X412231Y325493D1*
X402848Y342550D1*
X404009Y343315D1*
X409954Y343500D1*
X418176Y336500D1*
G37*
X690000Y340000D2*
D16*
X410000D1*
X400000Y330000D1*
G36*
X233500Y-667751D2*
X239734Y-680070D1*
Y-681461D1*
X220266D1*
Y-680070D1*
X226500Y-667751D1*
X233500D1*
G37*
G36*
X226928Y-401878D2*
X214031Y-396371D1*
X213139Y-395304D1*
X227958Y-382678D1*
X228849Y-383745D1*
X231878Y-396928D1*
X226928Y-401878D1*
G37*
X230000Y-690000D2*
D16*
Y-400000D1*
X215000Y-385000D1*
Y-382500D1*
G36*
X-960455Y-595505D2*
X-959303Y-564743D1*
X-957566Y-562336D1*
X-924106Y-586987D1*
X-925844Y-589392D1*
X-955505Y-600455D1*
X-960455Y-595505D1*
G37*
G36*
X226500Y-712249D2*
X220266Y-699930D1*
Y-698539D1*
X239734D1*
Y-699930D1*
X233500Y-712249D1*
X226500D1*
G37*
X-930000Y-560000D2*
D16*
Y-570000D1*
X-960000Y-600000D1*
Y-822500D1*
X-922500Y-860000D1*
X209899D1*
X230000Y-839899D1*
Y-690000D1*
G36*
X-1033500Y-607496D2*
X-1050780Y-581199D1*
Y-578231D1*
X-1009220D1*
Y-581199D1*
X-1026500Y-607496D1*
X-1033500D1*
G37*
G36*
X256500Y-742249D2*
X250266Y-729930D1*
Y-728539D1*
X269734D1*
Y-729930D1*
X263500Y-742249D1*
X256500D1*
G37*
X-1030000Y-560000D2*
D16*
Y-835000D1*
X-985000Y-880000D1*
X229899D1*
X260000Y-849899D1*
Y-720000D1*
G36*
X263500Y-697751D2*
X269734Y-710070D1*
Y-711461D1*
X250266D1*
Y-710070D1*
X256500Y-697751D1*
X263500D1*
G37*
G36*
X254428Y-369378D2*
X241245Y-366349D1*
X240178Y-365458D1*
X252804Y-350639D1*
X253871Y-351531D1*
X259378Y-364428D1*
X254428Y-369378D1*
G37*
X260000Y-720000D2*
D16*
Y-370000D1*
X250000Y-360000D1*
X240000Y-352500D1*
G36*
X-1133500Y-607496D2*
X-1150780Y-581199D1*
Y-578231D1*
X-1109220D1*
Y-581199D1*
X-1126500Y-607496D1*
X-1133500D1*
G37*
G36*
X286500Y-772249D2*
X280266Y-759930D1*
Y-758539D1*
X299734D1*
Y-759930D1*
X293500Y-772249D1*
X286500D1*
G37*
X-1130000Y-560000D2*
D16*
Y-837500D1*
X-1067500Y-900000D1*
X235000D1*
X290000Y-845000D1*
Y-750000D1*
G36*
X296000Y-727978D2*
X300791Y-741231D1*
X300617Y-742610D1*
X281273Y-740415D1*
X281449Y-739035D1*
X289000Y-727978D1*
X296000D1*
G37*
G36*
X276928Y-341878D2*
X264031Y-336371D1*
X263139Y-335304D1*
X277958Y-322678D1*
X278849Y-323745D1*
X281878Y-336928D1*
X276928Y-341878D1*
G37*
X290000Y-750000D2*
D16*
X292500Y-737500D1*
Y-352500D1*
X270000Y-330000D1*
X265000Y-322500D1*
G36*
X-1233500Y-607496D2*
X-1250780Y-581199D1*
Y-578231D1*
X-1209220D1*
Y-581199D1*
X-1226500Y-607496D1*
X-1233500D1*
G37*
G36*
X316500Y-802249D2*
X310266Y-789930D1*
Y-788539D1*
X329734D1*
Y-789930D1*
X323500Y-802249D1*
X316500D1*
G37*
X-1230000Y-560000D2*
D16*
Y-850000D1*
X-1160000Y-920000D1*
X250000D1*
X320000Y-850000D1*
Y-780000D1*
G36*
X323500Y-757751D2*
X329734Y-770070D1*
Y-771461D1*
X310266D1*
Y-770070D1*
X316500Y-757751D1*
X323500D1*
G37*
G36*
X294391Y-309341D2*
X283060Y-300678D1*
X282509Y-299402D1*
X300034Y-290925D1*
X300587Y-292202D1*
X299341Y-304391D1*
X294391Y-309341D1*
G37*
X320000Y-780000D2*
D16*
Y-330000D1*
X290000Y-300000D1*
X287500Y-287500D1*
G36*
X-770331Y-655281D2*
X-777756Y-664388D1*
X-779370Y-665919D1*
Y-653667D1*
X-777756Y-652136D1*
X-775281Y-650331D1*
X-770331Y-655281D1*
G37*
G36*
X-103500Y-582249D2*
X-109734Y-569930D1*
Y-568539D1*
X-90266D1*
Y-569930D1*
X-96500Y-582249D1*
X-103500D1*
G37*
X-800000Y-688209D2*
D16*
Y-680000D1*
X-770000Y-650000D1*
X-620000D1*
X-570000Y-600000D1*
X-110000D1*
X-100000Y-590000D1*
Y-560000D1*
G36*
X-796500Y-633177D2*
X-794751Y-640177D1*
Y-644980D1*
X-805251D1*
Y-640177D1*
X-803500Y-633177D1*
X-796500D1*
G37*
G36*
X-803500Y-680000D2*
X-796500Y-664550D1*
X-796420Y-665227D1*
X-796184Y-665866D1*
X-795806Y-666433D1*
X-795304Y-666896D1*
X-794710Y-667230D1*
X-794054Y-667415D1*
X-793373Y-667441D1*
X-792705Y-667308D1*
X-792085Y-667022D1*
X-791550Y-666601D1*
X-793171Y-678121D1*
X-793777Y-678776D1*
X-794329Y-679476D1*
X-794825Y-680219D1*
X-795261Y-680997D1*
X-795635Y-681808D1*
X-795944Y-682646D1*
X-796186Y-683505D1*
X-796360Y-684381D1*
X-796465Y-685266D1*
X-796500Y-686159D1*
X-803500Y-680000D1*
G37*
X-780000Y-610000D2*
D16*
X-800000Y-630000D1*
Y-688209D1*
G36*
X-777496Y-456500D2*
X-751199Y-439220D1*
X-748231D1*
Y-480780D1*
X-751199D1*
X-777496Y-463500D1*
Y-456500D1*
G37*
G36*
X-892664Y-637614D2*
X-891031Y-640177D1*
X-890857Y-642395D1*
X-900694D1*
X-900870Y-640177D1*
X-897614Y-632664D1*
X-892664Y-637614D1*
G37*
X-730000Y-460000D2*
D16*
X-830000D1*
X-880000Y-510000D1*
Y-620000D1*
X-900000Y-640000D1*
Y-688209D1*
G36*
X-688862Y-473719D2*
X-714660Y-485415D1*
X-717559Y-484777D1*
X-707184Y-444534D1*
X-704283Y-445172D1*
X-683913Y-468770D1*
X-688862Y-473719D1*
G37*
G36*
X-87249Y-501500D2*
X-74930Y-495266D1*
X-73539D1*
Y-514734D1*
X-74930D1*
X-87249Y-508500D1*
Y-501500D1*
G37*
X-730000Y-460000D2*
D16*
X-697633D1*
X-577633Y-580000D1*
X-140101D1*
X-130000Y-569899D1*
Y-514899D1*
X-120101Y-505000D1*
X-65000D1*
G36*
X166693Y328518D2*
X179045Y323873D1*
X180084Y322949D1*
X167151Y308399D1*
X166112Y309323D1*
X160049Y321045D1*
X166693Y328518D1*
G37*
G36*
X-447751Y385000D2*
X-460070Y380266D1*
X-461461D1*
Y399734D1*
X-460070D1*
X-447751Y395000D1*
Y385000D1*
G37*
X180000Y310000D2*
D18*
X90000Y390000D1*
X-470000D1*
G36*
X-282249Y-96500D2*
X-269930Y-90266D1*
X-268539D1*
Y-109734D1*
X-269930D1*
X-282249Y-103500D1*
Y-96500D1*
G37*
G36*
X-693941Y-128890D2*
X-700316Y-159703D1*
X-702416Y-161802D1*
X-731802Y-132416D1*
X-729703Y-130316D1*
X-698890Y-123941D1*
X-693941Y-128890D1*
G37*
X-260000Y-100000D2*
D16*
X-670000D1*
X-730000Y-160000D1*
G36*
X-173472Y-292066D2*
X-178391Y-281147D1*
X-178218Y-279766D1*
X-158900Y-282181D1*
X-159073Y-283562D1*
X-166528Y-292934D1*
X-173472Y-292066D1*
G37*
G36*
X-1357751Y-233500D2*
X-1370070Y-239734D1*
X-1371461D1*
Y-220266D1*
X-1370070D1*
X-1357751Y-226500D1*
Y-233500D1*
G37*
X-167500Y-272500D2*
D16*
X-170000Y-292500D1*
X-185000Y-305000D1*
X-1195000D1*
X-1270000Y-230000D1*
X-1380000D1*
G36*
X-1402249Y-226500D2*
X-1389930Y-220266D1*
X-1388539D1*
Y-239734D1*
X-1389930D1*
X-1402249Y-233500D1*
Y-226500D1*
G37*
G36*
X-1482251Y-400000D2*
X-1484001Y-392084D1*
Y-390534D1*
X-1473501D1*
Y-392084D1*
X-1475251Y-400000D1*
X-1482251D1*
G37*
X-1380000Y-230000D2*
D16*
X-1560000D1*
X-1580000Y-250000D1*
Y-430000D1*
X-1560000Y-450000D1*
X-1500000D1*
X-1478751Y-428751D1*
Y-377500D1*
G36*
X-172249Y-316500D2*
X-159930Y-310266D1*
X-158539D1*
Y-329734D1*
X-159930D1*
X-172249Y-323500D1*
Y-316500D1*
G37*
G36*
X-1426500Y-305050D2*
X-1424319Y-312647D1*
X-1424224Y-314194D1*
X-1434709Y-314778D1*
X-1434803Y-313231D1*
X-1433500Y-305050D1*
X-1426500D1*
G37*
X-150000Y-320000D2*
D16*
X-1200000D1*
X-1260000Y-260000D1*
X-1420000D1*
X-1430000Y-270000D1*
Y-326251D1*
X-1428751Y-327500D1*
G36*
X-1473109Y-271841D2*
X-1485298Y-273087D1*
X-1486575Y-272534D1*
X-1478098Y-255009D1*
X-1476822Y-255560D1*
X-1468159Y-266891D1*
X-1473109Y-271841D1*
G37*
G36*
X-1433500Y-280500D2*
X-1433587Y-279406D1*
X-1433843Y-278337D1*
X-1434262Y-277322D1*
X-1434837Y-276386D1*
X-1435550Y-275550D1*
X-1436386Y-274837D1*
X-1437322Y-274262D1*
X-1438337Y-273843D1*
X-1439406Y-273587D1*
X-1440500Y-273500D1*
X-1438450Y-266500D1*
X-1437123Y-266448D1*
X-1435806Y-266291D1*
X-1434505Y-266033D1*
X-1433227Y-265673D1*
X-1431983Y-265214D1*
X-1430777Y-264657D1*
X-1429619Y-264009D1*
X-1428517Y-263273D1*
X-1427474Y-262451D1*
X-1426500Y-261550D1*
X-1421550Y-266500D1*
X-1422451Y-267474D1*
X-1423273Y-268517D1*
X-1424009Y-269619D1*
X-1424657Y-270777D1*
X-1425214Y-271983D1*
X-1425673Y-273227D1*
X-1426033Y-274505D1*
X-1426291Y-275806D1*
X-1426448Y-277123D1*
X-1426500Y-278450D1*
X-1433500Y-280500D1*
G37*
X-1490000Y-260000D2*
D16*
X-1480000D1*
X-1470000Y-270000D1*
X-1430000D1*
G36*
X-682504Y-63500D2*
X-708801Y-80780D1*
X-711769D1*
Y-39220D1*
X-708801D1*
X-682504Y-56500D1*
Y-63500D1*
G37*
X-450000Y-60000D2*
D16*
X-730000D1*
G36*
X-82249Y-986500D2*
X-69930Y-980266D1*
X-68539D1*
Y-999734D1*
X-69930D1*
X-82249Y-993500D1*
Y-986500D1*
G37*
G36*
X-716743Y-968207D2*
X-729861Y-963904D1*
X-730844Y-962921D1*
X-717079Y-949156D1*
X-716096Y-950139D1*
X-711793Y-963257D1*
X-716743Y-968207D1*
G37*
X-60000Y-990000D2*
D16*
X-690000D1*
X-730000Y-950000D1*
G36*
X-647751Y-963500D2*
X-660070Y-969734D1*
X-661461D1*
Y-950266D1*
X-660070D1*
X-647751Y-956500D1*
Y-963500D1*
G37*
G36*
X-2249Y-956500D2*
X10070Y-950266D1*
X11461D1*
Y-969734D1*
X10070D1*
X-2249Y-963500D1*
Y-956500D1*
G37*
X-670000Y-960000D2*
D16*
X20000D1*
G36*
X-1382251Y-400000D2*
X-1384001Y-392084D1*
Y-390534D1*
X-1373501D1*
Y-392084D1*
X-1375251Y-400000D1*
X-1382251D1*
G37*
G36*
X-1278207Y-423257D2*
X-1273904Y-410139D1*
X-1272921Y-409156D1*
X-1259156Y-422921D1*
X-1260139Y-423904D1*
X-1273257Y-428207D1*
X-1278207Y-423257D1*
G37*
X-1378751Y-377500D2*
D16*
Y-411249D1*
X-1360000Y-430000D1*
X-1280000D1*
X-1260000Y-410000D1*
X-760000Y810000D2*
D17*
X-250000D1*
X-20000Y580000D1*
D56*
X-160000Y-690000D3*
D58*
X-930000Y1040000D3*
X-1070000Y720000D3*
X-760000Y810000D3*
X-20000Y580000D3*
X-960000Y200000D3*
Y640000D3*
D56*
X-780000Y-610000D3*
X-450000Y-60000D3*
X-590000Y-370000D3*
Y-510000D3*
X-290000Y-380000D3*
X-1030000Y-190000D3*
X130000Y-602500D3*
X25000Y-395000D3*
X-5000Y-485000D3*
X570000Y-260000D3*
X550000Y-540000D3*
X-110000Y-230000D3*
X120000Y-90000D3*
X-40000Y-230000D3*
X-160000Y-40000D3*
X-790000Y-950000D3*
X190000Y-830000D3*
X-300000Y-820000D3*
X370000Y-430000D3*
X270000Y370000D3*
X-605000Y387500D3*
X-240000Y40000D3*
X-140000Y20000D3*
X-40000Y40000D3*
X-310000Y260000D3*
X-550000Y310000D3*
X-1430000Y-420000D3*
X1290000Y40000D3*
X-350000Y470000D3*
X-590000D3*
X920000Y790000D3*
X1540000Y840000D3*
X120000Y470000D3*
X1050000Y420000D3*
X1370000Y680000D3*
X930000Y460000D3*
X1430000Y450000D3*
X-410000Y730000D3*
X-590000D3*
X350000Y650000D3*
X270000Y600000D3*
X-220000Y470000D3*
X-150000D3*
X-660000Y460000D3*
X60000D3*
X500000Y470000D3*
X440000D3*
X1200000Y40000D3*
X500000Y290000D3*
X710000Y150000D3*
X-320000Y40000D3*
X120000Y210000D3*
X-100000Y-560000D3*
X-65000Y-505000D3*
X-670000Y-960000D3*
X20000D3*
X230000Y-690000D3*
X215000Y-382500D3*
X240000Y-352500D3*
X260000Y-720000D3*
X265000Y-322500D3*
X290000Y-750000D3*
X287500Y-287500D3*
X320000Y-780000D3*
X-390000Y242500D3*
X-400000Y-60000D3*
X180000Y310000D3*
X-470000Y390000D3*
X-1260000Y-410000D3*
X-150000Y-320000D3*
X-1490000Y-260000D3*
X-167500Y-272500D3*
X-1380000Y-230000D3*
X-130000Y-417500D3*
X-1120000Y-410000D3*
X-280000Y-280000D3*
X240000Y-150000D3*
X60000Y30000D3*
X-320000Y-60000D3*
X-440000Y-360000D3*
X-430000Y-470000D3*
Y-510000D3*
X-160000Y-540000D3*
X-1530000Y-200000D3*
X-1430000D3*
X-1220000Y-40000D3*
X25000Y-460000D3*
Y-510000D3*
X20000Y-345000D3*
X440000Y-480000D3*
X0Y-230000D3*
X160000Y-950000D3*
X-290000Y-760000D3*
X-90000Y-40000D3*
X-40000Y200000D3*
X-140000Y220000D3*
X-260000Y290000D3*
X-1380000Y-290000D3*
X210000Y370000D3*
X810000Y840000D3*
X1330000Y610000D3*
X1070000Y210000D3*
X620000Y40000D3*
X-660000Y640000D3*
X-290000Y480000D3*
X-60000Y-990000D3*
X-730000Y-950000D3*
X-260000Y-100000D3*
X360000Y370000D3*
X1370000Y340000D3*
X690000D3*
X400000Y330000D3*
D32*
X-214646Y1582677D3*
Y1332677D3*
Y1082677D3*
X-664646D3*
Y1332677D3*
Y1582677D3*
X545354Y1572677D3*
Y1322677D3*
Y1072677D3*
X95354D3*
Y1322677D3*
Y1572677D3*
X1285354D3*
Y1322677D3*
Y1072677D3*
X835354D3*
Y1322677D3*
Y1572677D3*
D34*
X-1050000Y1450000D3*
D36*
X-1242913Y1329921D3*
D37*
X-1050000Y1213780D3*
D38*
X-1400000Y453751D3*
X-1300000D3*
X-1200000D3*
X-1100000D3*
X-1000000D3*
D35*
X-470000Y150000D3*
X300000Y0D3*
X-40000Y310000D3*
D42*
X-800000Y-1026791D3*
X-900000D3*
Y-688209D3*
X-800000D3*
X1130000Y1060709D3*
X1030000D3*
Y1399291D3*
X1130000D3*
D43*
X-1378751Y-327500D3*
X-1428751D3*
X-1478751D3*
Y-377500D3*
X-1428751D3*
X-1378751D3*
D47*
X-1530000Y40000D3*
D49*
X-1430000D3*
X-1330000D3*
X-1230000D3*
X-1130000D3*
X-1030000D3*
X-930000D3*
X-830000D3*
X-730000D3*
Y-60000D3*
Y-160000D3*
Y-260000D3*
Y-360000D3*
Y-460000D3*
Y-560000D3*
X-830000D3*
X-930000D3*
X-1030000D3*
X-1130000D3*
X-1230000D3*
X-1330000D3*
X-1430000D3*
X-1530000D3*
M02*
