G04 DipTrace 5.2.0.4*
G04 BottomSilk.gbr*
%MOIN*%
G04 #@! TF.FileFunction,Legend,Bot*
G04 #@! TF.Part,Single*
%ADD10C,0.009843*%
%ADD31C,0.008*%
%ADD122C,0.003088*%
%ADD123C,0.004632*%
%ADD124C,0.003558*%
%ADD128C,0.002668*%
%FSLAX26Y26*%
G04*
G70*
G90*
G75*
G01*
G04 BotSilk*
%LPD*%
X-725000Y-730531D2*
D31*
X-746850D1*
X-725000Y-984469D2*
Y-730531D1*
X-746850Y-984469D2*
X-774213D1*
X-725000D1*
X-770472Y-778760D2*
X-829528D1*
Y-936240D1*
X-770472D1*
Y-778760D1*
X-725984Y-936240D2*
X-774213Y-984469D1*
X-974016Y-730531D2*
Y-984469D1*
X-952165D1*
Y-730531D2*
X-974016D1*
X-852165D2*
X-846850D1*
Y-984469D2*
X-852165D1*
X-870472Y-778760D2*
X-929528D1*
Y-936240D1*
X-870472D1*
Y-778760D1*
G36*
X-829528Y-877185D2*
Y-936240D1*
X-770472D1*
Y-877185D1*
X-829528D1*
G37*
G36*
X-929528D2*
Y-936240D1*
X-870472D1*
Y-877185D1*
X-929528D1*
G37*
X1205000Y1356969D2*
D31*
X1183150D1*
X1205000Y1103031D2*
Y1356969D1*
X1183150Y1103031D2*
X1155787D1*
X1205000D1*
X1159528Y1308740D2*
X1100472D1*
Y1151260D1*
X1159528D1*
Y1308740D1*
X1204016Y1151260D2*
X1155787Y1103031D1*
X955984Y1356969D2*
Y1103031D1*
X977835D1*
Y1356969D2*
X955984D1*
X1077835D2*
X1083150D1*
Y1103031D2*
X1077835D1*
X1059528Y1308740D2*
X1000472D1*
Y1151260D1*
X1059528D1*
Y1308740D1*
G36*
X1100472Y1210315D2*
Y1151260D1*
X1159528D1*
Y1210315D1*
X1100472D1*
G37*
G36*
X1000472D2*
Y1151260D1*
X1059528D1*
Y1210315D1*
X1000472D1*
G37*
X1310000Y980000D2*
D10*
X1460000D1*
Y900000D1*
X1310000D1*
Y980000D1*
Y900000D2*
X1460000D1*
Y820000D1*
X1310000D1*
Y900000D1*
Y820000D2*
X1460000D1*
Y740000D1*
X1310000D1*
Y820000D1*
X1160000Y980000D2*
X1310000D1*
Y900000D1*
X1160000D1*
Y980000D1*
Y900000D2*
X1310000D1*
Y820000D1*
X1160000D1*
Y900000D1*
Y820000D2*
X1310000D1*
Y740000D1*
X1160000D1*
Y820000D1*
X860000Y980000D2*
X1160000D1*
Y900000D1*
X860000D1*
Y980000D1*
Y900000D2*
X1160000D1*
Y820000D1*
X860000D1*
Y900000D1*
Y820000D2*
X1160000D1*
Y740000D1*
X860000D1*
Y820000D1*
X90000Y-630000D2*
X240000D1*
Y-710000D1*
X90000D1*
Y-630000D1*
Y-710000D2*
X240000D1*
Y-790000D1*
X90000D1*
Y-710000D1*
Y-790000D2*
X240000D1*
Y-870000D1*
X90000D1*
Y-790000D1*
Y-870000D2*
X240000D1*
Y-950000D1*
X90000D1*
Y-870000D1*
Y-950000D2*
X240000D1*
Y-1030000D1*
X90000D1*
Y-950000D1*
X-60000Y-630000D2*
X90000D1*
Y-710000D1*
X-60000D1*
Y-630000D1*
Y-710000D2*
X90000D1*
Y-790000D1*
X-60000D1*
Y-710000D1*
Y-790000D2*
X90000D1*
Y-870000D1*
X-60000D1*
Y-790000D1*
Y-870000D2*
X90000D1*
Y-950000D1*
X-60000D1*
Y-870000D1*
Y-950000D2*
X90000D1*
Y-1030000D1*
X-60000D1*
Y-950000D1*
X-660000Y-630000D2*
X-60000D1*
Y-710000D1*
X-660000D1*
Y-630000D1*
Y-710000D2*
X-60000D1*
Y-790000D1*
X-660000D1*
Y-710000D1*
Y-790000D2*
X-60000D1*
Y-870000D1*
X-660000D1*
Y-790000D1*
Y-870000D2*
X-60000D1*
Y-950000D1*
X-660000D1*
Y-870000D1*
Y-950000D2*
X-60000D1*
Y-1030000D1*
X-660000D1*
Y-950000D1*
X1398218Y950479D2*
D123*
X1401070Y953364D1*
X1405381Y954790D1*
X1411118D1*
X1415429Y953364D1*
X1418314Y950479D1*
Y947627D1*
X1416855Y944742D1*
X1415429Y943316D1*
X1412577Y941890D1*
X1403955Y939005D1*
X1401070Y937579D1*
X1399644Y936120D1*
X1398218Y933268D1*
Y928957D1*
X1401070Y926105D1*
X1405381Y924646D1*
X1411118D1*
X1415429Y926105D1*
X1418314Y928957D1*
X1388954Y949020D2*
X1386069Y950479D1*
X1381758Y954757D1*
Y924646D1*
X1409692Y874790D2*
X1412577Y873364D1*
X1415429Y870479D1*
X1416888Y867627D1*
X1418314Y863316D1*
Y856120D1*
X1416888Y851842D1*
X1415429Y848957D1*
X1412577Y846105D1*
X1409692Y844646D1*
X1403955D1*
X1401103Y846105D1*
X1398218Y848957D1*
X1396792Y851842D1*
X1395366Y856120D1*
Y863316D1*
X1396792Y867627D1*
X1398218Y870479D1*
X1401103Y873364D1*
X1403955Y874790D1*
X1409692D1*
X1386103Y864742D2*
Y844646D1*
Y859005D2*
X1381792Y863316D1*
X1378906Y864742D1*
X1374629D1*
X1371744Y863316D1*
X1370318Y859005D1*
Y844646D1*
X1409692Y794790D2*
X1412577Y793364D1*
X1415429Y790479D1*
X1416888Y787627D1*
X1418314Y783316D1*
Y776120D1*
X1416888Y771842D1*
X1415429Y768957D1*
X1412577Y766105D1*
X1409692Y764646D1*
X1403955D1*
X1401103Y766105D1*
X1398218Y768957D1*
X1396792Y771842D1*
X1395366Y776120D1*
Y783316D1*
X1396792Y787627D1*
X1398218Y790479D1*
X1401103Y793364D1*
X1403955Y794790D1*
X1409692D1*
X1374629D2*
X1377481D1*
X1380366Y793364D1*
X1381792Y789053D1*
Y764646D1*
X1386103Y784742D2*
X1376055D1*
X1353891Y794790D2*
X1356743D1*
X1359628Y793364D1*
X1361054Y789053D1*
Y764646D1*
X1365365Y784742D2*
X1355317D1*
X1248218Y950479D2*
X1251070Y953364D1*
X1255381Y954790D1*
X1261118D1*
X1265429Y953364D1*
X1268314Y950479D1*
Y947627D1*
X1266855Y944742D1*
X1265429Y943316D1*
X1262577Y941890D1*
X1253955Y939005D1*
X1251070Y937579D1*
X1249644Y936120D1*
X1248218Y933268D1*
Y928957D1*
X1251070Y926105D1*
X1255381Y924646D1*
X1261118D1*
X1265429Y926105D1*
X1268314Y928957D1*
X1237495Y947594D2*
Y949020D1*
X1236069Y951905D1*
X1234643Y953331D1*
X1231758Y954757D1*
X1226021D1*
X1223170Y953331D1*
X1221744Y951905D1*
X1220284Y949020D1*
Y946168D1*
X1221744Y943283D1*
X1224595Y939005D1*
X1238954Y924646D1*
X1218858D1*
X1259692Y874790D2*
X1262577Y873364D1*
X1265429Y870479D1*
X1266888Y867627D1*
X1268314Y863316D1*
Y856120D1*
X1266888Y851842D1*
X1265429Y848957D1*
X1262577Y846105D1*
X1259692Y844646D1*
X1253955D1*
X1251103Y846105D1*
X1248218Y848957D1*
X1246792Y851842D1*
X1245366Y856120D1*
Y863316D1*
X1246792Y867627D1*
X1248218Y870479D1*
X1251103Y873364D1*
X1253955Y874790D1*
X1259692D1*
X1224629D2*
X1227481D1*
X1230366Y873364D1*
X1231792Y869053D1*
Y844646D1*
X1236103Y864742D2*
X1226055D1*
X1203891Y874790D2*
X1206743D1*
X1209628Y873364D1*
X1211054Y869053D1*
Y844646D1*
X1215365Y864742D2*
X1205317D1*
X1259692Y794790D2*
X1262577Y793364D1*
X1265429Y790479D1*
X1266888Y787627D1*
X1268314Y783316D1*
Y776120D1*
X1266888Y771842D1*
X1265429Y768957D1*
X1262577Y766105D1*
X1259692Y764646D1*
X1253955D1*
X1251103Y766105D1*
X1248218Y768957D1*
X1246792Y771842D1*
X1245366Y776120D1*
Y783316D1*
X1246792Y787627D1*
X1248218Y790479D1*
X1251103Y793364D1*
X1253955Y794790D1*
X1259692D1*
X1236103Y784742D2*
Y764646D1*
Y779005D2*
X1231792Y783316D1*
X1228906Y784742D1*
X1224629D1*
X1221744Y783316D1*
X1220318Y779005D1*
Y764646D1*
X1095366Y924646D2*
Y954790D1*
X1106840Y924646D1*
X1118314Y954790D1*
Y924646D1*
X1078940Y944742D2*
X1081792Y943316D1*
X1084677Y940431D1*
X1086103Y936120D1*
Y933268D1*
X1084677Y928957D1*
X1081792Y926105D1*
X1078940Y924646D1*
X1074629D1*
X1071744Y926105D1*
X1068892Y928957D1*
X1067433Y933268D1*
Y936120D1*
X1068892Y940431D1*
X1071744Y943316D1*
X1074629Y944742D1*
X1078940D1*
X1040958Y954790D2*
Y924646D1*
Y940431D2*
X1043810Y943316D1*
X1046695Y944742D1*
X1051006D1*
X1053858Y943316D1*
X1056743Y940431D1*
X1058169Y936120D1*
Y933268D1*
X1056743Y928957D1*
X1053858Y926105D1*
X1051006Y924646D1*
X1046695D1*
X1043810Y926105D1*
X1040958Y928957D1*
X1031694Y936120D2*
X1014484D1*
Y939005D1*
X1015910Y941890D1*
X1017335Y943316D1*
X1020221Y944742D1*
X1024532D1*
X1027383Y943316D1*
X1030269Y940431D1*
X1031694Y936120D1*
Y933268D1*
X1030269Y928957D1*
X1027383Y926105D1*
X1024532Y924646D1*
X1020221D1*
X1017335Y926105D1*
X1014484Y928957D1*
X1098218Y870479D2*
X1101070Y873364D1*
X1105381Y874790D1*
X1111118D1*
X1115429Y873364D1*
X1118314Y870479D1*
Y867627D1*
X1116855Y864742D1*
X1115429Y863316D1*
X1112577Y861890D1*
X1103955Y859005D1*
X1101070Y857579D1*
X1099644Y856120D1*
X1098218Y853268D1*
Y848957D1*
X1101070Y846105D1*
X1105381Y844646D1*
X1111118D1*
X1115429Y846105D1*
X1118314Y848957D1*
X1084643Y874790D2*
Y850383D1*
X1083218Y846105D1*
X1080332Y844646D1*
X1077481D1*
X1088954Y864742D2*
X1078906D1*
X1068217Y856120D2*
X1051006D1*
Y859005D1*
X1052432Y861890D1*
X1053858Y863316D1*
X1056743Y864742D1*
X1061054D1*
X1063906Y863316D1*
X1066791Y860431D1*
X1068217Y856120D1*
Y853268D1*
X1066791Y848957D1*
X1063906Y846105D1*
X1061054Y844646D1*
X1056743D1*
X1053858Y846105D1*
X1051006Y848957D1*
X1041743Y864742D2*
Y844646D1*
Y856120D2*
X1040283Y860431D1*
X1037431Y863316D1*
X1034546Y864742D1*
X1030235D1*
X1020972Y856120D2*
X1003761D1*
Y859005D1*
X1005187Y861890D1*
X1006613Y863316D1*
X1009498Y864742D1*
X1013809D1*
X1016661Y863316D1*
X1019546Y860431D1*
X1020972Y856120D1*
Y853268D1*
X1019546Y848957D1*
X1016661Y846105D1*
X1013809Y844646D1*
X1009498D1*
X1006613Y846105D1*
X1003761Y848957D1*
X987334Y864742D2*
X990186Y863316D1*
X993071Y860431D1*
X994497Y856120D1*
Y853268D1*
X993071Y848957D1*
X990186Y846105D1*
X987334Y844646D1*
X983023D1*
X980138Y846105D1*
X977286Y848957D1*
X975827Y853268D1*
Y856120D1*
X977286Y860431D1*
X980138Y863316D1*
X983023Y864742D1*
X987334D1*
X937403Y874790D2*
Y844646D1*
X928140Y864742D2*
Y844646D1*
Y859005D2*
X923829Y863316D1*
X920944Y864742D1*
X916666D1*
X913781Y863316D1*
X912355Y859005D1*
Y844646D1*
X1095366Y764646D2*
Y794790D1*
X1106840Y764646D1*
X1118314Y794790D1*
Y764646D1*
X1078940Y784742D2*
X1081792Y783316D1*
X1084677Y780431D1*
X1086103Y776120D1*
Y773268D1*
X1084677Y768957D1*
X1081792Y766105D1*
X1078940Y764646D1*
X1074629D1*
X1071744Y766105D1*
X1068892Y768957D1*
X1067433Y773268D1*
Y776120D1*
X1068892Y780431D1*
X1071744Y783316D1*
X1074629Y784742D1*
X1078940D1*
X1058169D2*
Y764646D1*
Y779005D2*
X1053858Y783316D1*
X1050973Y784742D1*
X1046695D1*
X1043810Y783316D1*
X1042384Y779005D1*
Y764646D1*
X1025958Y784742D2*
X1028809Y783316D1*
X1031694Y780431D1*
X1033120Y776120D1*
Y773268D1*
X1031694Y768957D1*
X1028809Y766105D1*
X1025958Y764646D1*
X1021646D1*
X1018761Y766105D1*
X1015910Y768957D1*
X1014450Y773268D1*
Y776120D1*
X1015910Y780431D1*
X1018761Y783316D1*
X1021646Y784742D1*
X1025958D1*
X976026Y794790D2*
Y764646D1*
X966763Y784742D2*
Y764646D1*
Y779005D2*
X962452Y783316D1*
X959567Y784742D1*
X955289D1*
X952404Y783316D1*
X950978Y779005D1*
Y764646D1*
X178218Y-659521D2*
X181070Y-656636D1*
X185381Y-655210D1*
X191118D1*
X195429Y-656636D1*
X198314Y-659521D1*
Y-662373D1*
X196855Y-665258D1*
X195429Y-666684D1*
X192577Y-668110D1*
X183955Y-670995D1*
X181070Y-672421D1*
X179644Y-673880D1*
X178218Y-676732D1*
Y-681043D1*
X181070Y-683895D1*
X185381Y-685354D1*
X191118D1*
X195429Y-683895D1*
X198314Y-681043D1*
X168954Y-660980D2*
X166069Y-659521D1*
X161758Y-655243D1*
Y-685354D1*
X189692Y-735210D2*
X192577Y-736636D1*
X195429Y-739521D1*
X196888Y-742373D1*
X198314Y-746684D1*
Y-753880D1*
X196888Y-758158D1*
X195429Y-761043D1*
X192577Y-763895D1*
X189692Y-765354D1*
X183955D1*
X181103Y-763895D1*
X178218Y-761043D1*
X176792Y-758158D1*
X175366Y-753880D1*
Y-746684D1*
X176792Y-742373D1*
X178218Y-739521D1*
X181103Y-736636D1*
X183955Y-735210D1*
X189692D1*
X166103Y-745258D2*
Y-765354D1*
Y-750995D2*
X161792Y-746684D1*
X158906Y-745258D1*
X154629D1*
X151744Y-746684D1*
X150318Y-750995D1*
Y-765354D1*
X189692Y-815210D2*
X192577Y-816636D1*
X195429Y-819521D1*
X196888Y-822373D1*
X198314Y-826684D1*
Y-833880D1*
X196888Y-838158D1*
X195429Y-841043D1*
X192577Y-843895D1*
X189692Y-845354D1*
X183955D1*
X181103Y-843895D1*
X178218Y-841043D1*
X176792Y-838158D1*
X175366Y-833880D1*
Y-826684D1*
X176792Y-822373D1*
X178218Y-819521D1*
X181103Y-816636D1*
X183955Y-815210D1*
X189692D1*
X166103Y-825258D2*
Y-845354D1*
Y-830995D2*
X161792Y-826684D1*
X158906Y-825258D1*
X154629D1*
X151744Y-826684D1*
X150318Y-830995D1*
Y-845354D1*
X189692Y-895210D2*
X192577Y-896636D1*
X195429Y-899521D1*
X196888Y-902373D1*
X198314Y-906684D1*
Y-913880D1*
X196888Y-918158D1*
X195429Y-921043D1*
X192577Y-923895D1*
X189692Y-925354D1*
X183955D1*
X181103Y-923895D1*
X178218Y-921043D1*
X176792Y-918158D1*
X175366Y-913880D1*
Y-906684D1*
X176792Y-902373D1*
X178218Y-899521D1*
X181103Y-896636D1*
X183955Y-895210D1*
X189692D1*
X154629D2*
X157481D1*
X160366Y-896636D1*
X161792Y-900947D1*
Y-925354D1*
X166103Y-905258D2*
X156055D1*
X133891Y-895210D2*
X136743D1*
X139628Y-896636D1*
X141054Y-900947D1*
Y-925354D1*
X145365Y-905258D2*
X135317D1*
X189692Y-975210D2*
X192577Y-976636D1*
X195429Y-979521D1*
X196888Y-982373D1*
X198314Y-986684D1*
Y-993880D1*
X196888Y-998158D1*
X195429Y-1001043D1*
X192577Y-1003895D1*
X189692Y-1005354D1*
X183955D1*
X181103Y-1003895D1*
X178218Y-1001043D1*
X176792Y-998158D1*
X175366Y-993880D1*
Y-986684D1*
X176792Y-982373D1*
X178218Y-979521D1*
X181103Y-976636D1*
X183955Y-975210D1*
X189692D1*
X154629D2*
X157481D1*
X160366Y-976636D1*
X161792Y-980947D1*
Y-1005354D1*
X166103Y-985258D2*
X156055D1*
X133891Y-975210D2*
X136743D1*
X139628Y-976636D1*
X141054Y-980947D1*
Y-1005354D1*
X145365Y-985258D2*
X135317D1*
X28218Y-659521D2*
X31070Y-656636D1*
X35381Y-655210D1*
X41118D1*
X45429Y-656636D1*
X48314Y-659521D1*
Y-662373D1*
X46855Y-665258D1*
X45429Y-666684D1*
X42577Y-668110D1*
X33955Y-670995D1*
X31070Y-672421D1*
X29644Y-673880D1*
X28218Y-676732D1*
Y-681043D1*
X31070Y-683895D1*
X35381Y-685354D1*
X41118D1*
X45429Y-683895D1*
X48314Y-681043D1*
X17495Y-662406D2*
Y-660980D1*
X16069Y-658095D1*
X14643Y-656669D1*
X11758Y-655243D1*
X6021D1*
X3170Y-656669D1*
X1744Y-658095D1*
X284Y-660980D1*
Y-663832D1*
X1744Y-666717D1*
X4595Y-670995D1*
X18954Y-685354D1*
X-1142D1*
X39692Y-735210D2*
X42577Y-736636D1*
X45429Y-739521D1*
X46888Y-742373D1*
X48314Y-746684D1*
Y-753880D1*
X46888Y-758158D1*
X45429Y-761043D1*
X42577Y-763895D1*
X39692Y-765354D1*
X33955D1*
X31103Y-763895D1*
X28218Y-761043D1*
X26792Y-758158D1*
X25366Y-753880D1*
Y-746684D1*
X26792Y-742373D1*
X28218Y-739521D1*
X31103Y-736636D1*
X33955Y-735210D1*
X39692D1*
X16103Y-745258D2*
Y-765354D1*
Y-750995D2*
X11792Y-746684D1*
X8906Y-745258D1*
X4629D1*
X1744Y-746684D1*
X318Y-750995D1*
Y-765354D1*
X39692Y-815210D2*
X42577Y-816636D1*
X45429Y-819521D1*
X46888Y-822373D1*
X48314Y-826684D1*
Y-833880D1*
X46888Y-838158D1*
X45429Y-841043D1*
X42577Y-843895D1*
X39692Y-845354D1*
X33955D1*
X31103Y-843895D1*
X28218Y-841043D1*
X26792Y-838158D1*
X25366Y-833880D1*
Y-826684D1*
X26792Y-822373D1*
X28218Y-819521D1*
X31103Y-816636D1*
X33955Y-815210D1*
X39692D1*
X4629D2*
X7481D1*
X10366Y-816636D1*
X11792Y-820947D1*
Y-845354D1*
X16103Y-825258D2*
X6055D1*
X-16109Y-815210D2*
X-13257D1*
X-10372Y-816636D1*
X-8946Y-820947D1*
Y-845354D1*
X-4635Y-825258D2*
X-14683D1*
X39692Y-895210D2*
X42577Y-896636D1*
X45429Y-899521D1*
X46888Y-902373D1*
X48314Y-906684D1*
Y-913880D1*
X46888Y-918158D1*
X45429Y-921043D1*
X42577Y-923895D1*
X39692Y-925354D1*
X33955D1*
X31103Y-923895D1*
X28218Y-921043D1*
X26792Y-918158D1*
X25366Y-913880D1*
Y-906684D1*
X26792Y-902373D1*
X28218Y-899521D1*
X31103Y-896636D1*
X33955Y-895210D1*
X39692D1*
X16103Y-905258D2*
Y-925354D1*
Y-910995D2*
X11792Y-906684D1*
X8906Y-905258D1*
X4629D1*
X1744Y-906684D1*
X318Y-910995D1*
Y-925354D1*
X39692Y-975210D2*
X42577Y-976636D1*
X45429Y-979521D1*
X46888Y-982373D1*
X48314Y-986684D1*
Y-993880D1*
X46888Y-998158D1*
X45429Y-1001043D1*
X42577Y-1003895D1*
X39692Y-1005354D1*
X33955D1*
X31103Y-1003895D1*
X28218Y-1001043D1*
X26792Y-998158D1*
X25366Y-993880D1*
Y-986684D1*
X26792Y-982373D1*
X28218Y-979521D1*
X31103Y-976636D1*
X33955Y-975210D1*
X39692D1*
X4629D2*
X7481D1*
X10366Y-976636D1*
X11792Y-980947D1*
Y-1005354D1*
X16103Y-985258D2*
X6055D1*
X-16109Y-975210D2*
X-13257D1*
X-10372Y-976636D1*
X-8946Y-980947D1*
Y-1005354D1*
X-4635Y-985258D2*
X-14683D1*
X-120356Y-655210D2*
X-101686D1*
Y-685354D1*
Y-669569D2*
X-113160D1*
X-145405D2*
X-143979Y-666684D1*
X-139668Y-665258D1*
X-135357D1*
X-131046Y-666684D1*
X-129620Y-669569D1*
X-131046Y-672421D1*
X-133931Y-673880D1*
X-141094Y-675306D1*
X-143979Y-676732D1*
X-145405Y-679617D1*
Y-681043D1*
X-143979Y-683895D1*
X-139668Y-685354D1*
X-135357D1*
X-131046Y-683895D1*
X-129620Y-681043D1*
X-199614Y-662406D2*
X-195303D1*
X-192451Y-663832D1*
X-190992Y-665258D1*
X-189566Y-668143D1*
Y-673880D1*
X-190992Y-675306D1*
X-193877D1*
X-199614Y-673880D1*
X-201040Y-676732D1*
X-202466D1*
X-205351Y-673880D1*
X-206777Y-666717D1*
X-205351Y-662406D1*
X-203925Y-659521D1*
X-201040Y-656669D1*
X-198188Y-655243D1*
X-192451D1*
X-189566Y-656669D1*
X-186714Y-659521D1*
X-185255Y-662406D1*
X-183829Y-666717D1*
Y-673880D1*
X-185255Y-678191D1*
X-186714Y-681043D1*
X-189566Y-683928D1*
X-192451Y-685354D1*
X-198188D1*
X-201040Y-683928D1*
X-203925Y-681043D1*
X-199614Y-660980D2*
Y-673880D1*
X-266723Y-662373D2*
X-265297Y-659521D1*
X-262412Y-656636D1*
X-259560Y-655210D1*
X-253823D1*
X-250938Y-656636D1*
X-248086Y-659521D1*
X-246627Y-662373D1*
X-245201Y-666684D1*
Y-673880D1*
X-246627Y-678158D1*
X-248086Y-681043D1*
X-250938Y-683895D1*
X-253823Y-685354D1*
X-259560D1*
X-262412Y-683895D1*
X-265297Y-681043D1*
X-266723Y-678158D1*
X-275986Y-655210D2*
Y-685354D1*
X-293197D1*
X-302461Y-655210D2*
Y-685354D1*
X-322557Y-655210D2*
X-302461Y-675306D1*
X-309624Y-668110D2*
X-322557Y-685354D1*
X-360981Y-665987D2*
X-386814D1*
X-360981Y-674609D2*
X-386814D1*
X-425238Y-660980D2*
X-428123Y-659521D1*
X-432434Y-655243D1*
Y-685354D1*
X-443157Y-662406D2*
Y-660980D1*
X-444583Y-658095D1*
X-446009Y-656669D1*
X-448894Y-655243D1*
X-454631D1*
X-457483Y-656669D1*
X-458909Y-658095D1*
X-460368Y-660980D1*
Y-663832D1*
X-458909Y-666717D1*
X-456057Y-670995D1*
X-441698Y-685354D1*
X-461794D1*
X-472483Y-682469D2*
X-471057Y-683928D1*
X-472483Y-685354D1*
X-473942Y-683928D1*
X-472483Y-682469D1*
X-484665Y-662406D2*
Y-660980D1*
X-486091Y-658095D1*
X-487517Y-656669D1*
X-490402Y-655243D1*
X-496139D1*
X-498991Y-656669D1*
X-500417Y-658095D1*
X-501876Y-660980D1*
Y-663832D1*
X-500417Y-666717D1*
X-497565Y-670995D1*
X-483206Y-685354D1*
X-503302D1*
X-519728Y-655243D2*
X-515450Y-656669D1*
X-513991Y-659521D1*
Y-662406D1*
X-515450Y-665258D1*
X-518302Y-666717D1*
X-524039Y-668143D1*
X-528350Y-669569D1*
X-531202Y-672454D1*
X-532628Y-675306D1*
Y-679617D1*
X-531202Y-682469D1*
X-529776Y-683928D1*
X-525465Y-685354D1*
X-519728D1*
X-515450Y-683928D1*
X-513991Y-682469D1*
X-512565Y-679617D1*
Y-675306D1*
X-513991Y-672454D1*
X-516876Y-669569D1*
X-521154Y-668143D1*
X-526891Y-666717D1*
X-529776Y-665258D1*
X-531202Y-662406D1*
Y-659521D1*
X-529776Y-656669D1*
X-525465Y-655243D1*
X-519728D1*
X-549055D2*
X-544777Y-656669D1*
X-543318Y-659521D1*
Y-662406D1*
X-544777Y-665258D1*
X-547629Y-666717D1*
X-553366Y-668143D1*
X-557677Y-669569D1*
X-560529Y-672454D1*
X-561955Y-675306D1*
Y-679617D1*
X-560529Y-682469D1*
X-559103Y-683928D1*
X-554792Y-685354D1*
X-549055D1*
X-544777Y-683928D1*
X-543318Y-682469D1*
X-541892Y-679617D1*
Y-675306D1*
X-543318Y-672454D1*
X-546203Y-669569D1*
X-550481Y-668143D1*
X-556218Y-666717D1*
X-559103Y-665258D1*
X-560529Y-662406D1*
Y-659521D1*
X-559103Y-656669D1*
X-554792Y-655243D1*
X-549055D1*
X-594166Y-685354D2*
Y-655210D1*
X-582692Y-685354D1*
X-571218Y-655210D1*
Y-685354D1*
X-603430Y-655210D2*
Y-685354D1*
X-623526Y-655210D2*
Y-685354D1*
X-603430Y-669569D2*
X-623526D1*
X-632789Y-665258D2*
X-648574D1*
X-632789Y-685354D1*
X-648574D1*
X-101686Y-740980D2*
X-104571Y-739521D1*
X-108882Y-735243D1*
Y-765354D1*
X-119605Y-742406D2*
Y-740980D1*
X-121031Y-738095D1*
X-122457Y-736669D1*
X-125342Y-735243D1*
X-131079D1*
X-133931Y-736669D1*
X-135357Y-738095D1*
X-136816Y-740980D1*
Y-743832D1*
X-135357Y-746717D1*
X-132505Y-750995D1*
X-118146Y-765354D1*
X-138242D1*
X-147505Y-735210D2*
Y-765354D1*
X-167601Y-735210D2*
X-147505Y-755306D1*
X-154668Y-748110D2*
X-167601Y-765354D1*
X-176865Y-735210D2*
Y-765354D1*
X-196961Y-735210D2*
Y-765354D1*
X-176865Y-749569D2*
X-196961D1*
X-206224Y-745258D2*
X-222009D1*
X-206224Y-765354D1*
X-222009D1*
X-103145Y-822406D2*
Y-820980D1*
X-104571Y-818095D1*
X-105997Y-816669D1*
X-108882Y-815243D1*
X-114619D1*
X-117471Y-816669D1*
X-118897Y-818095D1*
X-120356Y-820980D1*
Y-823832D1*
X-118897Y-826717D1*
X-116045Y-830995D1*
X-101686Y-845354D1*
X-121782D1*
X-145405D2*
Y-815243D1*
X-131046Y-835306D1*
X-152567D1*
X-161831Y-815210D2*
Y-845354D1*
X-181927Y-815210D2*
X-161831Y-835306D1*
X-168994Y-828110D2*
X-181927Y-845354D1*
X-191191Y-815210D2*
Y-845354D1*
X-211287Y-815210D2*
Y-845354D1*
X-191191Y-829569D2*
X-211287D1*
X-220550Y-825258D2*
X-236335D1*
X-220550Y-845354D1*
X-236335D1*
X-104571Y-895243D2*
X-120323D1*
X-111734Y-906717D1*
X-116045D1*
X-118897Y-908143D1*
X-120323Y-909569D1*
X-121782Y-913880D1*
Y-916732D1*
X-120323Y-921043D1*
X-117471Y-923928D1*
X-113160Y-925354D1*
X-108849D1*
X-104571Y-923928D1*
X-103145Y-922469D1*
X-101686Y-919617D1*
X-132505Y-902406D2*
Y-900980D1*
X-133931Y-898095D1*
X-135357Y-896669D1*
X-138242Y-895243D1*
X-143979D1*
X-146830Y-896669D1*
X-148256Y-898095D1*
X-149716Y-900980D1*
Y-903832D1*
X-148256Y-906717D1*
X-145405Y-910995D1*
X-131046Y-925354D1*
X-151142D1*
X-160405Y-895210D2*
Y-925354D1*
X-180501Y-895210D2*
X-160405Y-915306D1*
X-167568Y-908110D2*
X-180501Y-925354D1*
X-189765Y-895210D2*
Y-925354D1*
X-209861Y-895210D2*
Y-925354D1*
X-189765Y-909569D2*
X-209861D1*
X-219124Y-905258D2*
X-234909D1*
X-219124Y-925354D1*
X-234909D1*
X-116045Y-1005354D2*
Y-975243D1*
X-101686Y-995306D1*
X-123208D1*
X-139634Y-975243D2*
X-135357Y-976669D1*
X-133897Y-979521D1*
Y-982406D1*
X-135357Y-985258D1*
X-138208Y-986717D1*
X-143945Y-988143D1*
X-148256Y-989569D1*
X-151108Y-992454D1*
X-152534Y-995306D1*
Y-999617D1*
X-151108Y-1002469D1*
X-149682Y-1003928D1*
X-145371Y-1005354D1*
X-139634D1*
X-135357Y-1003928D1*
X-133897Y-1002469D1*
X-132471Y-999617D1*
Y-995306D1*
X-133897Y-992454D1*
X-136782Y-989569D1*
X-141060Y-988143D1*
X-146797Y-986717D1*
X-149682Y-985258D1*
X-151108Y-982406D1*
Y-979521D1*
X-149682Y-976669D1*
X-145371Y-975243D1*
X-139634D1*
X-161798Y-975210D2*
Y-1005354D1*
X-181894Y-975210D2*
X-161798Y-995306D1*
X-168961Y-988110D2*
X-181894Y-1005354D1*
X-191157Y-975210D2*
Y-1005354D1*
X-211253Y-975210D2*
Y-1005354D1*
X-191157Y-989569D2*
X-211253D1*
X-220517Y-985258D2*
X-236302D1*
X-220517Y-1005354D1*
X-236302D1*
X-1031779Y-720999D2*
D124*
X-1040401D1*
X-1043253Y-720049D1*
X-1044226Y-719076D1*
X-1045176Y-717174D1*
Y-714300D1*
X-1044226Y-712399D1*
X-1043253Y-711426D1*
X-1040401Y-710476D1*
X-1031779D1*
Y-730572D1*
X-1052292Y-710476D2*
Y-730572D1*
X-1063766D1*
X-1070881Y-710476D2*
Y-730572D1*
X-1082355D1*
X-1109851Y-720049D2*
X-1118451D1*
X-1121325Y-719076D1*
X-1122297Y-718125D1*
X-1123248Y-716224D1*
Y-714300D1*
X-1122297Y-712399D1*
X-1121325Y-711426D1*
X-1118451Y-710476D1*
X-1109851D1*
Y-730572D1*
X-1116549Y-720049D2*
X-1123248Y-730572D1*
X-1145684D2*
X-1138013Y-710476D1*
X-1130364Y-730572D1*
X-1133238Y-723873D2*
X-1142810D1*
X-1166197Y-710476D2*
Y-730572D1*
X-1152800Y-710476D1*
Y-730572D1*
X-1187661Y-715251D2*
X-1186710Y-713350D1*
X-1184787Y-711426D1*
X-1182885Y-710476D1*
X-1179061D1*
X-1177137Y-711426D1*
X-1175236Y-713350D1*
X-1174263Y-715251D1*
X-1173313Y-718125D1*
Y-722923D1*
X-1174263Y-725774D1*
X-1175236Y-727698D1*
X-1177137Y-729599D1*
X-1179061Y-730572D1*
X-1182885D1*
X-1184787Y-729599D1*
X-1186710Y-727698D1*
X-1187661Y-725774D1*
Y-722923D1*
X-1182885D1*
X-1207201Y-710476D2*
X-1194776D1*
Y-730572D1*
X-1207201D1*
X-1194776Y-720049D2*
X-1202425D1*
X1228221Y1519524D2*
Y1499428D1*
X1207708Y1519524D2*
Y1499428D1*
X1221106Y1519524D1*
Y1499428D1*
X1200593Y1509001D2*
X1191971D1*
X1189119Y1509951D1*
X1188146Y1510924D1*
X1187195Y1512826D1*
Y1515700D1*
X1188146Y1517601D1*
X1189119Y1518574D1*
X1191971Y1519524D1*
X1200593D1*
Y1499428D1*
X1180080Y1519524D2*
Y1505176D1*
X1179129Y1502302D1*
X1177206Y1500401D1*
X1174332Y1499428D1*
X1172431D1*
X1169557Y1500401D1*
X1167633Y1502302D1*
X1166683Y1505176D1*
Y1519524D1*
X1152869D2*
Y1499428D1*
X1159567Y1519524D2*
X1146170D1*
X1109102D2*
Y1504226D1*
X1110052Y1501352D1*
X1111025Y1500401D1*
X1112926Y1499428D1*
X1114850D1*
X1116751Y1500401D1*
X1117701Y1501352D1*
X1118674Y1504226D1*
Y1506127D1*
X1086665Y1499428D2*
X1094337Y1519524D1*
X1101986Y1499428D1*
X1099112Y1506127D2*
X1089539D1*
X1065202Y1514749D2*
X1066152Y1516650D1*
X1068076Y1518574D1*
X1069977Y1519524D1*
X1073802D1*
X1075725Y1518574D1*
X1077626Y1516650D1*
X1078599Y1514749D1*
X1079550Y1511875D1*
Y1507077D1*
X1078599Y1504226D1*
X1077626Y1502302D1*
X1075725Y1500401D1*
X1073802Y1499428D1*
X1069977D1*
X1068076Y1500401D1*
X1066152Y1502302D1*
X1065202Y1504226D1*
X1058086Y1519524D2*
Y1499428D1*
X1044689Y1519524D2*
X1058086Y1506127D1*
X1053311Y1510924D2*
X1044689Y1499428D1*
X-1541335Y153920D2*
D123*
X-1544220Y156772D1*
X-1545646Y161083D1*
Y166820D1*
X-1544220Y171131D1*
X-1541335Y174016D1*
X-1538483D1*
X-1535598Y172557D1*
X-1534172Y171131D1*
X-1532746Y168279D1*
X-1529861Y159657D1*
X-1528435Y156772D1*
X-1526976Y155346D1*
X-1524124Y153920D1*
X-1519813D1*
X-1516962Y156772D1*
X-1515502Y161083D1*
Y166820D1*
X-1516962Y171131D1*
X-1519813Y174016D1*
X-1545646Y144657D2*
X-1515502D1*
Y134609D1*
X-1516962Y130297D1*
X-1519813Y127412D1*
X-1522698Y125986D1*
X-1526976Y124561D1*
X-1534172D1*
X-1538483Y125986D1*
X-1541335Y127412D1*
X-1544220Y130297D1*
X-1545646Y134609D1*
Y144657D1*
X-1515502Y92316D2*
X-1545646Y103823D1*
X-1515502Y115297D1*
X-1525550Y110986D2*
Y96627D1*
X-1441335Y149576D2*
X-1444220Y152428D1*
X-1445646Y156739D1*
Y162476D1*
X-1444220Y166787D1*
X-1441335Y169672D1*
X-1438483D1*
X-1435598Y168213D1*
X-1434172Y166787D1*
X-1432746Y163935D1*
X-1429861Y155313D1*
X-1428435Y152428D1*
X-1426976Y151002D1*
X-1424124Y149576D1*
X-1419813D1*
X-1416962Y152428D1*
X-1415502Y156739D1*
Y162476D1*
X-1416962Y166787D1*
X-1419813Y169672D1*
X-1438483Y118790D2*
X-1441335Y120216D1*
X-1444220Y123101D1*
X-1445646Y125953D1*
Y131690D1*
X-1444220Y134575D1*
X-1441335Y137427D1*
X-1438483Y138886D1*
X-1434172Y140312D1*
X-1426976D1*
X-1422698Y138886D1*
X-1419813Y137427D1*
X-1416962Y134575D1*
X-1415502Y131690D1*
Y125953D1*
X-1416962Y123101D1*
X-1419813Y120216D1*
X-1422698Y118790D1*
X-1445646Y109527D2*
X-1415502D1*
Y92316D1*
X-1345646Y295732D2*
X-1324124D1*
X-1319813Y294306D1*
X-1316962Y291421D1*
X-1315502Y287110D1*
Y284258D1*
X-1316962Y279947D1*
X-1319813Y277062D1*
X-1324124Y275636D1*
X-1345646D1*
X-1341335Y246277D2*
X-1344220Y249128D1*
X-1345646Y253440D1*
Y259176D1*
X-1344220Y263488D1*
X-1341335Y266373D1*
X-1338483D1*
X-1335598Y264913D1*
X-1334172Y263488D1*
X-1332746Y260636D1*
X-1329861Y252014D1*
X-1328435Y249128D1*
X-1326976Y247703D1*
X-1324124Y246277D1*
X-1319813D1*
X-1316962Y249128D1*
X-1315502Y253440D1*
Y259176D1*
X-1316962Y263488D1*
X-1319813Y266373D1*
X-1345646Y237013D2*
X-1315502D1*
Y224080D1*
X-1316962Y219769D1*
X-1318387Y218343D1*
X-1321239Y216917D1*
X-1325550D1*
X-1328435Y218343D1*
X-1329861Y219769D1*
X-1331287Y224080D1*
X-1332746Y219769D1*
X-1334172Y218343D1*
X-1337024Y216917D1*
X-1339909D1*
X-1342761Y218343D1*
X-1344220Y219769D1*
X-1345646Y224080D1*
Y237013D1*
X-1331287D2*
Y224080D1*
X-1310528Y207653D2*
Y180395D1*
X-1331287Y171131D2*
Y158231D1*
X-1332746Y153920D1*
X-1334172Y152461D1*
X-1337024Y151035D1*
X-1339909D1*
X-1342761Y152461D1*
X-1344220Y153920D1*
X-1345646Y158231D1*
Y171131D1*
X-1315502D1*
X-1331287Y161083D2*
X-1315502Y151035D1*
X-1341335Y121675D2*
X-1344220Y124527D1*
X-1345646Y128838D1*
Y134575D1*
X-1344220Y138886D1*
X-1341335Y141771D1*
X-1338483D1*
X-1335598Y140312D1*
X-1334172Y138886D1*
X-1332746Y136034D1*
X-1329861Y127412D1*
X-1328435Y124527D1*
X-1326976Y123101D1*
X-1324124Y121675D1*
X-1319813D1*
X-1316962Y124527D1*
X-1315502Y128838D1*
Y134575D1*
X-1316962Y138886D1*
X-1319813Y141771D1*
X-1345646Y102364D2*
X-1315502D1*
X-1345646Y112412D2*
Y92316D1*
X-602601Y51335D2*
X-599749Y54220D1*
X-595438Y55646D1*
X-589701D1*
X-585390Y54220D1*
X-582505Y51335D1*
Y48483D1*
X-583964Y45598D1*
X-585390Y44172D1*
X-588242Y42746D1*
X-596864Y39861D1*
X-599749Y38435D1*
X-601175Y36976D1*
X-602601Y34124D1*
Y29813D1*
X-599749Y26962D1*
X-595438Y25502D1*
X-589701D1*
X-585390Y26962D1*
X-582505Y29813D1*
X-611865Y55646D2*
Y25502D1*
X-621913D1*
X-626224Y26962D1*
X-629109Y29813D1*
X-630535Y32698D1*
X-631961Y36976D1*
Y44172D1*
X-630535Y48483D1*
X-629109Y51335D1*
X-626224Y54220D1*
X-621913Y55646D1*
X-611865D1*
X-641224D2*
Y25502D1*
X-650488Y49876D2*
X-653373Y51335D1*
X-657684Y55613D1*
Y25502D1*
X-536754Y161335D2*
X-533902Y164220D1*
X-529591Y165646D1*
X-523854D1*
X-519543Y164220D1*
X-516658Y161335D1*
Y158483D1*
X-518117Y155598D1*
X-519543Y154172D1*
X-522395Y152746D1*
X-531017Y149861D1*
X-533902Y148435D1*
X-535328Y146976D1*
X-536754Y144124D1*
Y139813D1*
X-533902Y136962D1*
X-529591Y135502D1*
X-523854D1*
X-519543Y136962D1*
X-516658Y139813D1*
X-546017Y165646D2*
Y135502D1*
X-556065D1*
X-560376Y136962D1*
X-563261Y139813D1*
X-564687Y142698D1*
X-566113Y146976D1*
Y154172D1*
X-564687Y158483D1*
X-563261Y161335D1*
X-560376Y164220D1*
X-556065Y165646D1*
X-546017D1*
X-583999D2*
X-581114Y164220D1*
X-578262Y161335D1*
X-576803Y158483D1*
X-575377Y154172D1*
Y146976D1*
X-576803Y142698D1*
X-578262Y139813D1*
X-581114Y136962D1*
X-583999Y135502D1*
X-589736D1*
X-592588Y136962D1*
X-595473Y139813D1*
X-596899Y142698D1*
X-598325Y146976D1*
Y154172D1*
X-596899Y158483D1*
X-595473Y161335D1*
X-592588Y164220D1*
X-589736Y165646D1*
X-583999D1*
X-616210Y165613D2*
X-611899Y164187D1*
X-609014Y159876D1*
X-607588Y152713D1*
Y148402D1*
X-609014Y141239D1*
X-611899Y136928D1*
X-616210Y135502D1*
X-619062D1*
X-623373Y136928D1*
X-626225Y141239D1*
X-627684Y148402D1*
Y152713D1*
X-626225Y159876D1*
X-623373Y164187D1*
X-619062Y165613D1*
X-616210D1*
X-626225Y159876D2*
X-609014Y141239D1*
X-1145646Y315077D2*
X-1124124D1*
X-1119813Y313651D1*
X-1116962Y310766D1*
X-1115502Y306455D1*
Y303603D1*
X-1116962Y299292D1*
X-1119813Y296407D1*
X-1124124Y294981D1*
X-1145646D1*
X-1115502Y262736D2*
X-1145646Y274243D1*
X-1115502Y285717D1*
X-1125550Y281406D2*
Y267047D1*
X-1131287Y253473D2*
Y240573D1*
X-1132746Y236262D1*
X-1134172Y234803D1*
X-1137024Y233377D1*
X-1139909D1*
X-1142761Y234803D1*
X-1144220Y236262D1*
X-1145646Y240573D1*
Y253473D1*
X-1115502D1*
X-1131287Y243425D2*
X-1115502Y233377D1*
X-1145646Y214065D2*
X-1115502D1*
X-1145646Y224113D2*
Y204017D1*
X-1139876Y194754D2*
X-1141335Y191868D1*
X-1145613Y187557D1*
X-1115502D1*
X-1110528Y178294D2*
Y151035D1*
X-1145646Y131723D2*
X-1115502D1*
X-1145646Y141771D2*
Y121675D1*
Y112412D2*
X-1115502Y92316D1*
X-1145646D2*
X-1115502Y112412D1*
X-1045646Y315077D2*
X-1024124D1*
X-1019813Y313651D1*
X-1016962Y310766D1*
X-1015502Y306455D1*
Y303603D1*
X-1016962Y299292D1*
X-1019813Y296407D1*
X-1024124Y294981D1*
X-1045646D1*
X-1015502Y262736D2*
X-1045646Y274243D1*
X-1015502Y285717D1*
X-1025550Y281406D2*
Y267047D1*
X-1031287Y253473D2*
Y240573D1*
X-1032746Y236262D1*
X-1034172Y234803D1*
X-1037024Y233377D1*
X-1039909D1*
X-1042761Y234803D1*
X-1044220Y236262D1*
X-1045646Y240573D1*
Y253473D1*
X-1015502D1*
X-1031287Y243425D2*
X-1015502Y233377D1*
X-1045646Y214065D2*
X-1015502D1*
X-1045646Y224113D2*
Y204017D1*
X-1039876Y194754D2*
X-1041335Y191868D1*
X-1045613Y187557D1*
X-1015502D1*
X-1010528Y178294D2*
Y151035D1*
X-1031287Y141771D2*
Y128872D1*
X-1032746Y124561D1*
X-1034172Y123101D1*
X-1037024Y121675D1*
X-1039909D1*
X-1042761Y123101D1*
X-1044220Y124561D1*
X-1045646Y128872D1*
Y141771D1*
X-1015502D1*
X-1031287Y131723D2*
X-1015502Y121675D1*
X-1045646Y112412D2*
X-1015502Y92316D1*
X-1045646D2*
X-1015502Y112412D1*
X-568180Y-148665D2*
X-565328Y-145780D1*
X-561017Y-144354D1*
X-555280D1*
X-550969Y-145780D1*
X-548084Y-148665D1*
Y-151517D1*
X-549543Y-154402D1*
X-550969Y-155828D1*
X-553820Y-157254D1*
X-562443Y-160139D1*
X-565328Y-161565D1*
X-566754Y-163024D1*
X-568180Y-165876D1*
Y-170187D1*
X-565328Y-173038D1*
X-561017Y-174498D1*
X-555280D1*
X-550969Y-173038D1*
X-548084Y-170187D1*
X-598965Y-151517D2*
X-597539Y-148665D1*
X-594654Y-145780D1*
X-591802Y-144354D1*
X-586065D1*
X-583180Y-145780D1*
X-580328Y-148665D1*
X-578869Y-151517D1*
X-577443Y-155828D1*
Y-163024D1*
X-578869Y-167302D1*
X-580328Y-170187D1*
X-583180Y-173038D1*
X-586065Y-174498D1*
X-591802D1*
X-594654Y-173038D1*
X-597539Y-170187D1*
X-598965Y-167302D1*
X-608229Y-144354D2*
Y-174498D1*
X-628325Y-144354D2*
X-608229Y-164450D1*
X-615391Y-157254D2*
X-628325Y-174498D1*
X-646210Y-144387D2*
X-641899Y-145813D1*
X-639014Y-150124D1*
X-637588Y-157287D1*
Y-161598D1*
X-639014Y-168761D1*
X-641899Y-173072D1*
X-646210Y-174498D1*
X-649062D1*
X-653373Y-173072D1*
X-656225Y-168761D1*
X-657684Y-161598D1*
Y-157287D1*
X-656225Y-150124D1*
X-653373Y-145813D1*
X-649062Y-144387D1*
X-646210D1*
X-656225Y-150124D2*
X-639014Y-168761D1*
X-550969Y-244354D2*
Y-274498D1*
X-568180D1*
X-577443Y-258713D2*
X-590343D1*
X-594654Y-257254D1*
X-596113Y-255828D1*
X-597539Y-252976D1*
Y-250091D1*
X-596113Y-247239D1*
X-594654Y-245780D1*
X-590343Y-244354D1*
X-577443D1*
Y-274498D1*
X-587491Y-258713D2*
X-597539Y-274498D1*
X-628325Y-251517D2*
X-626899Y-248665D1*
X-624014Y-245780D1*
X-621162Y-244354D1*
X-615425D1*
X-612540Y-245780D1*
X-609688Y-248665D1*
X-608229Y-251517D1*
X-606803Y-255828D1*
Y-263024D1*
X-608229Y-267302D1*
X-609688Y-270187D1*
X-612540Y-273038D1*
X-615425Y-274498D1*
X-621162D1*
X-624014Y-273038D1*
X-626899Y-270187D1*
X-628325Y-267302D1*
X-637588Y-244354D2*
Y-274498D1*
X-657684Y-244354D2*
X-637588Y-264450D1*
X-644751Y-257254D2*
X-657684Y-274498D1*
X-518757Y-360139D2*
X-531690D1*
X-535968Y-358713D1*
X-537427Y-357254D1*
X-538853Y-354402D1*
Y-350091D1*
X-537427Y-347239D1*
X-535968Y-345780D1*
X-531690Y-344354D1*
X-518757D1*
Y-374498D1*
X-548117Y-344354D2*
Y-374498D1*
X-565328D1*
X-574591Y-344354D2*
Y-374498D1*
X-591802D1*
X-601066Y-379472D2*
X-628325D1*
X-646210Y-344387D2*
X-641899Y-345813D1*
X-639014Y-350124D1*
X-637588Y-357287D1*
Y-361598D1*
X-639014Y-368761D1*
X-641899Y-373072D1*
X-646210Y-374498D1*
X-649062D1*
X-653373Y-373072D1*
X-656225Y-368761D1*
X-657684Y-361598D1*
Y-357287D1*
X-656225Y-350124D1*
X-653373Y-345813D1*
X-649062Y-344387D1*
X-646210D1*
X-656225Y-350124D2*
X-639014Y-368761D1*
X-531657Y-450139D2*
X-544590D1*
X-548868Y-448713D1*
X-550327Y-447254D1*
X-551753Y-444402D1*
Y-440091D1*
X-550327Y-437239D1*
X-548868Y-435780D1*
X-544590Y-434354D1*
X-531657D1*
Y-464498D1*
X-561017Y-434354D2*
Y-464498D1*
X-578228D1*
X-587491Y-434354D2*
Y-464498D1*
X-604702D1*
X-613966Y-469472D2*
X-641224D1*
X-650488Y-440124D2*
X-653373Y-438665D1*
X-657684Y-434387D1*
Y-464498D1*
X-586032Y-544354D2*
Y-574498D1*
X-575984Y-544354D2*
X-596080D1*
X-628325Y-574498D2*
X-616817Y-544354D1*
X-605343Y-574498D1*
X-609655Y-564450D2*
X-624014D1*
X-637588Y-560139D2*
X-650521D1*
X-654799Y-558713D1*
X-656258Y-557254D1*
X-657684Y-554402D1*
Y-550091D1*
X-656258Y-547239D1*
X-654799Y-545780D1*
X-650521Y-544354D1*
X-637588D1*
Y-574498D1*
X-1229861Y-395232D2*
Y-408165D1*
X-1231287Y-412443D1*
X-1232746Y-413902D1*
X-1235598Y-415328D1*
X-1239909D1*
X-1242761Y-413902D1*
X-1244220Y-412443D1*
X-1245646Y-408165D1*
Y-395232D1*
X-1215502D1*
X-1238483Y-446113D2*
X-1241335Y-444687D1*
X-1244220Y-441802D1*
X-1245646Y-438950D1*
Y-433213D1*
X-1244220Y-430328D1*
X-1241335Y-427476D1*
X-1238483Y-426017D1*
X-1234172Y-424591D1*
X-1226976D1*
X-1222698Y-426017D1*
X-1219813Y-427476D1*
X-1216962Y-430328D1*
X-1215502Y-433213D1*
Y-438950D1*
X-1216962Y-441802D1*
X-1219813Y-444687D1*
X-1222698Y-446113D1*
X-1226976D1*
Y-438950D1*
X-1215502Y-478325D2*
X-1245646D1*
X-1215502Y-466851D1*
X-1245646Y-455377D1*
X-1215502D1*
X-1245613Y-490473D2*
Y-506225D1*
X-1234139Y-497636D1*
Y-501947D1*
X-1232713Y-504799D1*
X-1231287Y-506225D1*
X-1226976Y-507684D1*
X-1224124D1*
X-1219813Y-506225D1*
X-1216928Y-503373D1*
X-1215502Y-499062D1*
Y-494751D1*
X-1216928Y-490473D1*
X-1218387Y-489047D1*
X-1221239Y-487588D1*
X-1129861Y-395232D2*
Y-408165D1*
X-1131287Y-412443D1*
X-1132746Y-413902D1*
X-1135598Y-415328D1*
X-1139909D1*
X-1142761Y-413902D1*
X-1144220Y-412443D1*
X-1145646Y-408165D1*
Y-395232D1*
X-1115502D1*
X-1138483Y-446113D2*
X-1141335Y-444687D1*
X-1144220Y-441802D1*
X-1145646Y-438950D1*
Y-433213D1*
X-1144220Y-430328D1*
X-1141335Y-427476D1*
X-1138483Y-426017D1*
X-1134172Y-424591D1*
X-1126976D1*
X-1122698Y-426017D1*
X-1119813Y-427476D1*
X-1116962Y-430328D1*
X-1115502Y-433213D1*
Y-438950D1*
X-1116962Y-441802D1*
X-1119813Y-444687D1*
X-1122698Y-446113D1*
X-1126976D1*
Y-438950D1*
X-1115502Y-478325D2*
X-1145646D1*
X-1115502Y-466851D1*
X-1145646Y-455377D1*
X-1115502D1*
X-1138450Y-489047D2*
X-1139876D1*
X-1142761Y-490473D1*
X-1144187Y-491899D1*
X-1145613Y-494784D1*
Y-500521D1*
X-1144187Y-503373D1*
X-1142761Y-504799D1*
X-1139876Y-506258D1*
X-1137024D1*
X-1134139Y-504799D1*
X-1129861Y-501947D1*
X-1115502Y-487588D1*
Y-507684D1*
X-1029861Y-398132D2*
Y-411065D1*
X-1031287Y-415342D1*
X-1032746Y-416802D1*
X-1035598Y-418228D1*
X-1039909D1*
X-1042761Y-416802D1*
X-1044220Y-415342D1*
X-1045646Y-411065D1*
Y-398132D1*
X-1015502D1*
X-1038483Y-449013D2*
X-1041335Y-447587D1*
X-1044220Y-444702D1*
X-1045646Y-441850D1*
Y-436113D1*
X-1044220Y-433228D1*
X-1041335Y-430376D1*
X-1038483Y-428917D1*
X-1034172Y-427491D1*
X-1026976D1*
X-1022698Y-428917D1*
X-1019813Y-430376D1*
X-1016962Y-433228D1*
X-1015502Y-436113D1*
Y-441850D1*
X-1016962Y-444702D1*
X-1019813Y-447587D1*
X-1022698Y-449013D1*
X-1026976D1*
Y-441850D1*
X-1015502Y-481224D2*
X-1045646D1*
X-1015502Y-469751D1*
X-1045646Y-458277D1*
X-1015502D1*
X-1039876Y-490488D2*
X-1041335Y-493373D1*
X-1045613Y-497684D1*
X-1015502D1*
X-929861Y-395232D2*
Y-408165D1*
X-931287Y-412443D1*
X-932746Y-413902D1*
X-935598Y-415328D1*
X-939909D1*
X-942761Y-413902D1*
X-944220Y-412443D1*
X-945646Y-408165D1*
Y-395232D1*
X-915502D1*
X-938483Y-446113D2*
X-941335Y-444687D1*
X-944220Y-441802D1*
X-945646Y-438950D1*
Y-433213D1*
X-944220Y-430328D1*
X-941335Y-427476D1*
X-938483Y-426017D1*
X-934172Y-424591D1*
X-926976D1*
X-922698Y-426017D1*
X-919813Y-427476D1*
X-916962Y-430328D1*
X-915502Y-433213D1*
Y-438950D1*
X-916962Y-441802D1*
X-919813Y-444687D1*
X-922698Y-446113D1*
X-926976D1*
Y-438950D1*
X-915502Y-478325D2*
X-945646D1*
X-915502Y-466851D1*
X-945646Y-455377D1*
X-915502D1*
X-945613Y-496210D2*
X-944187Y-491899D1*
X-939876Y-489014D1*
X-932713Y-487588D1*
X-928402D1*
X-921239Y-489014D1*
X-916928Y-491899D1*
X-915502Y-496210D1*
Y-499062D1*
X-916928Y-503373D1*
X-921239Y-506225D1*
X-928402Y-507684D1*
X-932713D1*
X-939876Y-506225D1*
X-944187Y-503373D1*
X-945613Y-499062D1*
Y-496210D1*
X-939876Y-506225D2*
X-921239Y-489014D1*
X-841335Y-438917D2*
X-844220Y-436065D1*
X-845646Y-431754D1*
Y-426017D1*
X-844220Y-421706D1*
X-841335Y-418821D1*
X-838483D1*
X-835598Y-420280D1*
X-834172Y-421706D1*
X-832746Y-424558D1*
X-829861Y-433180D1*
X-828435Y-436065D1*
X-826976Y-437491D1*
X-824124Y-438917D1*
X-819813D1*
X-816962Y-436065D1*
X-815502Y-431754D1*
Y-426017D1*
X-816962Y-421706D1*
X-819813Y-418821D1*
X-845646Y-448181D2*
X-815502Y-455377D1*
X-845646Y-462540D1*
X-815502Y-469703D1*
X-845646Y-476899D1*
X-815502Y-500521D2*
X-845613D1*
X-825550Y-486162D1*
Y-507684D1*
X-1345613Y-616754D2*
Y-632505D1*
X-1334139Y-623916D1*
Y-628228D1*
X-1332713Y-631079D1*
X-1331287Y-632505D1*
X-1326976Y-633964D1*
X-1324124D1*
X-1319813Y-632505D1*
X-1316928Y-629653D1*
X-1315502Y-625342D1*
Y-621031D1*
X-1316928Y-616754D1*
X-1318387Y-615328D1*
X-1321239Y-613868D1*
X-1318387Y-644654D2*
X-1316928Y-643228D1*
X-1315502Y-644654D1*
X-1316928Y-646113D1*
X-1318387Y-644654D1*
X-1345613Y-658262D2*
Y-674014D1*
X-1334139Y-665425D1*
Y-669736D1*
X-1332713Y-672588D1*
X-1331287Y-674014D1*
X-1326976Y-675473D1*
X-1324124D1*
X-1319813Y-674014D1*
X-1316928Y-671162D1*
X-1315502Y-666851D1*
Y-662540D1*
X-1316928Y-658262D1*
X-1318387Y-656836D1*
X-1321239Y-655377D1*
X-1345646Y-684736D2*
X-1315502Y-696210D1*
X-1345646Y-707684D1*
X-1438483Y-638965D2*
X-1441335Y-637539D1*
X-1444220Y-634654D1*
X-1445646Y-631802D1*
Y-626065D1*
X-1444220Y-623180D1*
X-1441335Y-620328D1*
X-1438483Y-618869D1*
X-1434172Y-617443D1*
X-1426976D1*
X-1422698Y-618869D1*
X-1419813Y-620328D1*
X-1416962Y-623180D1*
X-1415502Y-626065D1*
Y-631802D1*
X-1416962Y-634654D1*
X-1419813Y-637539D1*
X-1422698Y-638965D1*
X-1426976D1*
Y-631802D1*
X-1445646Y-668325D2*
X-1415502D1*
X-1445646Y-648229D1*
X-1415502D1*
X-1445646Y-677588D2*
X-1415502D1*
Y-687636D1*
X-1416962Y-691947D1*
X-1419813Y-694832D1*
X-1422698Y-696258D1*
X-1426976Y-697684D1*
X-1434172D1*
X-1438483Y-696258D1*
X-1441335Y-694832D1*
X-1444220Y-691947D1*
X-1445646Y-687636D1*
Y-677588D1*
X-1338483Y-738965D2*
X-1341335Y-737539D1*
X-1344220Y-734654D1*
X-1345646Y-731802D1*
Y-726065D1*
X-1344220Y-723180D1*
X-1341335Y-720328D1*
X-1338483Y-718869D1*
X-1334172Y-717443D1*
X-1326976D1*
X-1322698Y-718869D1*
X-1319813Y-720328D1*
X-1316962Y-723180D1*
X-1315502Y-726065D1*
Y-731802D1*
X-1316962Y-734654D1*
X-1319813Y-737539D1*
X-1322698Y-738965D1*
X-1326976D1*
Y-731802D1*
X-1345646Y-768325D2*
X-1315502D1*
X-1345646Y-748229D1*
X-1315502D1*
X-1345646Y-777588D2*
X-1315502D1*
Y-787636D1*
X-1316962Y-791947D1*
X-1319813Y-794832D1*
X-1322698Y-796258D1*
X-1326976Y-797684D1*
X-1334172D1*
X-1338483Y-796258D1*
X-1341335Y-794832D1*
X-1344220Y-791947D1*
X-1345646Y-787636D1*
Y-777588D1*
X-111065Y295502D2*
Y325646D1*
X-99591Y295502D1*
X-88117Y325646D1*
Y295502D1*
X-141850Y318483D2*
X-140424Y321335D1*
X-137539Y324220D1*
X-134687Y325646D1*
X-128950D1*
X-126065Y324220D1*
X-123213Y321335D1*
X-121754Y318483D1*
X-120328Y314172D1*
Y306976D1*
X-121754Y302698D1*
X-123213Y299813D1*
X-126065Y296962D1*
X-128950Y295502D1*
X-134687D1*
X-137539Y296962D1*
X-140424Y299813D1*
X-141850Y302698D1*
X-151114Y325646D2*
Y295502D1*
X-168325D1*
X-177588Y325646D2*
Y295502D1*
X-197684Y325646D2*
X-177588Y305550D1*
X-184751Y312746D2*
X-197684Y295502D1*
X230299Y11335D2*
X233150Y14220D1*
X237461Y15646D1*
X243198D1*
X247509Y14220D1*
X250395Y11335D1*
Y8483D1*
X248935Y5598D1*
X247509Y4172D1*
X244658Y2746D1*
X236036Y-139D1*
X233150Y-1565D1*
X231724Y-3024D1*
X230299Y-5876D1*
Y-10187D1*
X233150Y-13038D1*
X237461Y-14498D1*
X243198D1*
X247509Y-13038D1*
X250395Y-10187D1*
X221035Y15646D2*
Y-14498D1*
X210987D1*
X206676Y-13038D1*
X203791Y-10187D1*
X202365Y-7302D1*
X200939Y-3024D1*
Y4172D1*
X202365Y8483D1*
X203791Y11335D1*
X206676Y14220D1*
X210987Y15646D1*
X221035D1*
X191675D2*
Y-14498D1*
X173790Y15613D2*
X178101Y14187D1*
X180986Y9876D1*
X182412Y2713D1*
Y-1598D1*
X180986Y-8761D1*
X178101Y-13072D1*
X173790Y-14498D1*
X170938D1*
X166627Y-13072D1*
X163775Y-8761D1*
X162316Y-1598D1*
Y2713D1*
X163775Y9876D1*
X166627Y14187D1*
X170938Y15613D1*
X173790D1*
X163775Y9876D2*
X180986Y-8761D1*
X-1405598Y564527D2*
X-1401287Y565986D1*
X-1398402Y568838D1*
X-1396976Y573149D1*
Y574575D1*
X-1398402Y578886D1*
X-1401287Y581738D1*
X-1405598Y583197D1*
X-1407024D1*
X-1411335Y581738D1*
X-1414187Y578886D1*
X-1415613Y574575D1*
Y573149D1*
X-1414187Y568838D1*
X-1411335Y565986D1*
X-1405598Y564527D1*
X-1398402D1*
X-1391239Y565986D1*
X-1386928Y568838D1*
X-1385502Y573149D1*
Y576001D1*
X-1386928Y580312D1*
X-1389813Y581738D1*
X-1415646Y555264D2*
X-1385502Y543790D1*
X-1415646Y532316D1*
X-1308483Y591035D2*
X-1311335Y592461D1*
X-1314220Y595346D1*
X-1315646Y598198D1*
Y603935D1*
X-1314220Y606820D1*
X-1311335Y609672D1*
X-1308483Y611131D1*
X-1304172Y612557D1*
X-1296976D1*
X-1292698Y611131D1*
X-1289813Y609672D1*
X-1286962Y606820D1*
X-1285502Y603935D1*
Y598198D1*
X-1286962Y595346D1*
X-1289813Y592461D1*
X-1292698Y591035D1*
X-1296976D1*
Y598198D1*
X-1315646Y561675D2*
X-1285502D1*
X-1315646Y581771D1*
X-1285502D1*
X-1315646Y552412D2*
X-1285502D1*
Y542364D1*
X-1286962Y538053D1*
X-1289813Y535168D1*
X-1292698Y533742D1*
X-1296976Y532316D1*
X-1304172D1*
X-1308483Y533742D1*
X-1311335Y535168D1*
X-1314220Y538053D1*
X-1315646Y542364D1*
Y552412D1*
X-1108483Y591035D2*
X-1111335Y592461D1*
X-1114220Y595346D1*
X-1115646Y598198D1*
Y603935D1*
X-1114220Y606820D1*
X-1111335Y609672D1*
X-1108483Y611131D1*
X-1104172Y612557D1*
X-1096976D1*
X-1092698Y611131D1*
X-1089813Y609672D1*
X-1086962Y606820D1*
X-1085502Y603935D1*
Y598198D1*
X-1086962Y595346D1*
X-1089813Y592461D1*
X-1092698Y591035D1*
X-1096976D1*
Y598198D1*
X-1115646Y561675D2*
X-1085502D1*
X-1115646Y581771D1*
X-1085502D1*
X-1115646Y552412D2*
X-1085502D1*
Y542364D1*
X-1086962Y538053D1*
X-1089813Y535168D1*
X-1092698Y533742D1*
X-1096976Y532316D1*
X-1104172D1*
X-1108483Y533742D1*
X-1111335Y535168D1*
X-1114220Y538053D1*
X-1115646Y542364D1*
Y552412D1*
X-1215646Y587508D2*
X-1185502Y576034D1*
X-1215646Y564561D1*
X-1185502Y532316D2*
X-1215646Y543823D1*
X-1185502Y555297D1*
X-1195550Y550986D2*
Y536627D1*
X-1015613Y623246D2*
Y607495D1*
X-1004139Y616084D1*
Y611772D1*
X-1002713Y608921D1*
X-1001287Y607495D1*
X-996976Y606036D1*
X-994124D1*
X-989813Y607495D1*
X-986928Y610347D1*
X-985502Y614658D1*
Y618969D1*
X-986928Y623246D1*
X-988387Y624672D1*
X-991239Y626132D1*
X-988387Y595346D2*
X-986928Y596772D1*
X-985502Y595346D1*
X-986928Y593887D1*
X-988387Y595346D1*
X-1015613Y581738D2*
Y565986D1*
X-1004139Y574575D1*
Y570264D1*
X-1002713Y567412D1*
X-1001287Y565986D1*
X-996976Y564527D1*
X-994124D1*
X-989813Y565986D1*
X-986928Y568838D1*
X-985502Y573149D1*
Y577460D1*
X-986928Y581738D1*
X-988387Y583164D1*
X-991239Y584623D1*
X-1015646Y555264D2*
X-985502Y543790D1*
X-1015646Y532316D1*
X-579653Y-48665D2*
X-576802Y-45780D1*
X-572491Y-44354D1*
X-566754D1*
X-562443Y-45780D1*
X-559557Y-48665D1*
Y-51517D1*
X-561017Y-54402D1*
X-562443Y-55828D1*
X-565294Y-57254D1*
X-573916Y-60139D1*
X-576802Y-61565D1*
X-578228Y-63024D1*
X-579653Y-65876D1*
Y-70187D1*
X-576802Y-73038D1*
X-572491Y-74498D1*
X-566754D1*
X-562443Y-73038D1*
X-559557Y-70187D1*
X-588917Y-44354D2*
Y-74498D1*
X-598965D1*
X-603276Y-73038D1*
X-606161Y-70187D1*
X-607587Y-67302D1*
X-609013Y-63024D1*
Y-55828D1*
X-607587Y-51517D1*
X-606161Y-48665D1*
X-603276Y-45780D1*
X-598965Y-44354D1*
X-588917D1*
X-626899D2*
X-624014Y-45780D1*
X-621162Y-48665D1*
X-619703Y-51517D1*
X-618277Y-55828D1*
Y-63024D1*
X-619703Y-67302D1*
X-621162Y-70187D1*
X-624014Y-73038D1*
X-626899Y-74498D1*
X-632636D1*
X-635487Y-73038D1*
X-638373Y-70187D1*
X-639799Y-67302D1*
X-641224Y-63024D1*
Y-55828D1*
X-639799Y-51517D1*
X-638373Y-48665D1*
X-635487Y-45780D1*
X-632636Y-44354D1*
X-626899D1*
X-650488Y-50124D2*
X-653373Y-48665D1*
X-657684Y-44387D1*
Y-74498D1*
X-313072Y1035646D2*
Y1005502D1*
X-330283D1*
X-339546Y1016976D2*
X-356757D1*
Y1019861D1*
X-355331Y1022746D1*
X-353905Y1024172D1*
X-351020Y1025598D1*
X-346709D1*
X-343857Y1024172D1*
X-340972Y1021287D1*
X-339546Y1016976D1*
Y1014124D1*
X-340972Y1009813D1*
X-343857Y1006962D1*
X-346709Y1005502D1*
X-351020D1*
X-353905Y1006962D1*
X-356757Y1009813D1*
X-377495Y1035646D2*
X-374643D1*
X-371758Y1034220D1*
X-370332Y1029909D1*
Y1005502D1*
X-366021Y1025598D2*
X-376069D1*
X-391069Y1035646D2*
Y1011239D1*
X-392495Y1006962D1*
X-395380Y1005502D1*
X-398232D1*
X-386758Y1025598D2*
X-396806D1*
X-445279Y1035646D2*
X-442393Y1034220D1*
X-439542Y1031335D1*
X-438082Y1028483D1*
X-436657Y1024172D1*
Y1016976D1*
X-438082Y1012698D1*
X-439542Y1009813D1*
X-442393Y1006962D1*
X-445279Y1005502D1*
X-451016D1*
X-453867Y1006962D1*
X-456753Y1009813D1*
X-458178Y1012698D1*
X-459604Y1016976D1*
Y1024172D1*
X-458178Y1028483D1*
X-456753Y1031335D1*
X-453867Y1034220D1*
X-451016Y1035646D1*
X-445279D1*
X-468868Y1025598D2*
Y1011239D1*
X-470294Y1006962D1*
X-473179Y1005502D1*
X-477490D1*
X-480342Y1006962D1*
X-484653Y1011239D1*
Y1025598D2*
Y1005502D1*
X-498228Y1035646D2*
Y1011239D1*
X-499653Y1006962D1*
X-502539Y1005502D1*
X-505390D1*
X-493916Y1025598D2*
X-503964D1*
X-514654D2*
Y995454D1*
Y1021287D2*
X-517539Y1024139D1*
X-520391Y1025598D1*
X-524702D1*
X-527587Y1024139D1*
X-530439Y1021287D1*
X-531898Y1016976D1*
Y1014091D1*
X-530439Y1009813D1*
X-527587Y1006928D1*
X-524702Y1005502D1*
X-520391D1*
X-517539Y1006928D1*
X-514654Y1009813D1*
X-541162Y1025598D2*
Y1011239D1*
X-542588Y1006962D1*
X-545473Y1005502D1*
X-549784D1*
X-552636Y1006962D1*
X-556947Y1011239D1*
Y1025598D2*
Y1005502D1*
X-570521Y1035646D2*
Y1011239D1*
X-571947Y1006962D1*
X-574832Y1005502D1*
X-577684D1*
X-566210Y1025598D2*
X-576258D1*
X456273Y1021287D2*
X443373D1*
X439062Y1022746D1*
X437603Y1024172D1*
X436177Y1027024D1*
Y1029909D1*
X437603Y1032761D1*
X439062Y1034220D1*
X443373Y1035646D1*
X456273D1*
Y1005502D1*
X446225Y1021287D2*
X436177Y1005502D1*
X426913Y1035646D2*
X425487Y1034220D1*
X424028Y1035646D1*
X425487Y1037106D1*
X426913Y1035646D1*
X425487Y1025598D2*
Y1005502D1*
X397554Y1024172D2*
Y1001191D1*
X398980Y996914D1*
X400406Y995454D1*
X403291Y994028D1*
X407602D1*
X410454Y995454D1*
X397554Y1019861D2*
X400406Y1022713D1*
X403291Y1024172D1*
X407602D1*
X410454Y1022713D1*
X413339Y1019861D1*
X414765Y1015550D1*
Y1012665D1*
X413339Y1008387D1*
X410454Y1005502D1*
X407602Y1004076D1*
X403291D1*
X400406Y1005502D1*
X397554Y1008387D1*
X388290Y1035646D2*
Y1005502D1*
Y1019861D2*
X383979Y1024172D1*
X381094Y1025598D1*
X376783D1*
X373931Y1024172D1*
X372505Y1019861D1*
Y1005502D1*
X358931Y1035646D2*
Y1011239D1*
X357505Y1006962D1*
X354620Y1005502D1*
X351768D1*
X363242Y1025598D2*
X353194D1*
X304721Y1035646D2*
X307607Y1034220D1*
X310458Y1031335D1*
X311918Y1028483D1*
X313343Y1024172D1*
Y1016976D1*
X311918Y1012698D1*
X310458Y1009813D1*
X307607Y1006962D1*
X304721Y1005502D1*
X298984D1*
X296133Y1006962D1*
X293247Y1009813D1*
X291822Y1012698D1*
X290396Y1016976D1*
Y1024172D1*
X291822Y1028483D1*
X293247Y1031335D1*
X296133Y1034220D1*
X298984Y1035646D1*
X304721D1*
X281132Y1025598D2*
Y1011239D1*
X279706Y1006962D1*
X276821Y1005502D1*
X272510D1*
X269658Y1006962D1*
X265347Y1011239D1*
Y1025598D2*
Y1005502D1*
X251772Y1035646D2*
Y1011239D1*
X250347Y1006962D1*
X247461Y1005502D1*
X244610D1*
X256084Y1025598D2*
X246036D1*
X235346D2*
Y995454D1*
Y1021287D2*
X232461Y1024139D1*
X229609Y1025598D1*
X225298D1*
X222413Y1024139D1*
X219561Y1021287D1*
X218102Y1016976D1*
Y1014091D1*
X219561Y1009813D1*
X222413Y1006928D1*
X225298Y1005502D1*
X229609D1*
X232461Y1006928D1*
X235346Y1009813D1*
X208838Y1025598D2*
Y1011239D1*
X207412Y1006962D1*
X204527Y1005502D1*
X200216D1*
X197364Y1006962D1*
X193053Y1011239D1*
Y1025598D2*
Y1005502D1*
X179479Y1035646D2*
Y1011239D1*
X178053Y1006962D1*
X175168Y1005502D1*
X172316D1*
X183790Y1025598D2*
X173742D1*
X-783355Y-758364D2*
D128*
X-782784Y-758646D1*
X-782220Y-759217D1*
X-781931Y-759781D1*
X-781649Y-760635D1*
Y-762058D1*
X-781931Y-762905D1*
X-782220Y-763476D1*
X-782784Y-764040D1*
X-783355Y-764329D1*
X-784490D1*
X-785054Y-764040D1*
X-785625Y-763476D1*
X-785907Y-762905D1*
X-786190Y-762058D1*
Y-760635D1*
X-785907Y-759781D1*
X-785625Y-759217D1*
X-785054Y-758646D1*
X-784490Y-758364D1*
X-783355D1*
X-795502D2*
Y-764329D1*
X-791526Y-758364D1*
Y-764329D1*
X-793460Y-961278D2*
X-794031Y-960989D1*
X-794884Y-960142D1*
Y-966100D1*
X-893749Y-961560D2*
Y-961278D1*
X-894031Y-960707D1*
X-894313Y-960425D1*
X-894884Y-960142D1*
X-896019D1*
X-896583Y-960425D1*
X-896865Y-960707D1*
X-897154Y-961278D1*
Y-961842D1*
X-896865Y-962413D1*
X-896301Y-963259D1*
X-893460Y-966100D1*
X-897436D1*
X-1051147Y-830514D2*
D122*
X-1049246Y-828591D1*
X-1046372Y-827640D1*
X-1042547D1*
X-1039673Y-828591D1*
X-1037750Y-830514D1*
Y-832415D1*
X-1038722Y-834339D1*
X-1039673Y-835289D1*
X-1041574Y-836240D1*
X-1047322Y-838163D1*
X-1049246Y-839114D1*
X-1050196Y-840087D1*
X-1051147Y-841988D1*
Y-844862D1*
X-1049246Y-846763D1*
X-1046372Y-847736D1*
X-1042547D1*
X-1039673Y-846763D1*
X-1037750Y-844862D1*
X-1057323Y-831487D2*
X-1059246Y-830514D1*
X-1062120Y-827662D1*
Y-847736D1*
X-1074044Y-827662D2*
X-1071170Y-828613D1*
X-1069246Y-831487D1*
X-1068296Y-836262D1*
Y-839136D1*
X-1069246Y-843911D1*
X-1071170Y-846785D1*
X-1074044Y-847736D1*
X-1075945D1*
X-1078819Y-846785D1*
X-1080720Y-843911D1*
X-1081693Y-839136D1*
Y-836262D1*
X-1080720Y-831487D1*
X-1078819Y-828613D1*
X-1075945Y-827662D1*
X-1074044D1*
X-1080720Y-831487D2*
X-1069246Y-843911D1*
X-1093617Y-827662D2*
X-1090743Y-828613D1*
X-1088819Y-831487D1*
X-1087869Y-836262D1*
Y-839136D1*
X-1088819Y-843911D1*
X-1090743Y-846785D1*
X-1093617Y-847736D1*
X-1095518D1*
X-1098392Y-846785D1*
X-1100293Y-843911D1*
X-1101266Y-839136D1*
Y-836262D1*
X-1100293Y-831487D1*
X-1098392Y-828613D1*
X-1095518Y-827662D1*
X-1093617D1*
X-1100293Y-831487D2*
X-1088819Y-843911D1*
X1146645Y1329136D2*
D128*
X1147216Y1328854D1*
X1147780Y1328283D1*
X1148069Y1327719D1*
X1148351Y1326865D1*
Y1325442D1*
X1148069Y1324595D1*
X1147780Y1324024D1*
X1147216Y1323460D1*
X1146645Y1323171D1*
X1145510D1*
X1144946Y1323460D1*
X1144375Y1324024D1*
X1144093Y1324595D1*
X1143810Y1325442D1*
Y1326865D1*
X1144093Y1327719D1*
X1144375Y1328283D1*
X1144946Y1328854D1*
X1145510Y1329136D1*
X1146645D1*
X1134498D2*
Y1323171D1*
X1138474Y1329136D1*
Y1323171D1*
X1136540Y1126222D2*
X1135969Y1126511D1*
X1135116Y1127358D1*
Y1121400D1*
X1036251Y1125940D2*
Y1126222D1*
X1035969Y1126793D1*
X1035687Y1127075D1*
X1035116Y1127358D1*
X1033981D1*
X1033417Y1127075D1*
X1033135Y1126793D1*
X1032846Y1126222D1*
Y1125658D1*
X1033135Y1125087D1*
X1033699Y1124241D1*
X1036540Y1121400D1*
X1032564D1*
X1264553Y1216986D2*
D122*
X1266454Y1218909D1*
X1269328Y1219860D1*
X1273153D1*
X1276027Y1218909D1*
X1277950Y1216986D1*
Y1215085D1*
X1276978Y1213161D1*
X1276027Y1212211D1*
X1274126Y1211260D1*
X1268378Y1209337D1*
X1266454Y1208386D1*
X1265504Y1207413D1*
X1264553Y1205512D1*
Y1202638D1*
X1266454Y1200737D1*
X1269328Y1199764D1*
X1273153D1*
X1276027Y1200737D1*
X1277950Y1202638D1*
X1258377Y1216013D2*
X1256454Y1216986D1*
X1253580Y1219838D1*
Y1199764D1*
X1241656Y1219838D2*
X1244530Y1218887D1*
X1246454Y1216013D1*
X1247404Y1211238D1*
Y1208364D1*
X1246454Y1203589D1*
X1244530Y1200715D1*
X1241656Y1199764D1*
X1239755D1*
X1236881Y1200715D1*
X1234980Y1203589D1*
X1234007Y1208364D1*
Y1211238D1*
X1234980Y1216013D1*
X1236881Y1218887D1*
X1239755Y1219838D1*
X1241656D1*
X1234980Y1216013D2*
X1246454Y1203589D1*
X1227831Y1216013D2*
X1225908Y1216986D1*
X1223034Y1219838D1*
Y1199764D1*
X-1393429Y-452640D2*
Y-472736D1*
X-1386731Y-452640D2*
X-1400128D1*
X-1420652Y-457415D2*
X-1419701Y-455514D1*
X-1417778Y-453591D1*
X-1415876Y-452640D1*
X-1412052D1*
X-1410128Y-453591D1*
X-1408227Y-455514D1*
X-1407254Y-457415D1*
X-1406304Y-460289D1*
Y-465087D1*
X-1407254Y-467939D1*
X-1408227Y-469862D1*
X-1410128Y-471763D1*
X-1412052Y-472736D1*
X-1415876D1*
X-1417778Y-471763D1*
X-1419701Y-469862D1*
X-1420652Y-467939D1*
X-1426827Y-456487D2*
X-1428751Y-455514D1*
X-1431625Y-452662D1*
Y-472736D1*
X-1443548Y-452662D2*
X-1440674Y-453613D1*
X-1438751Y-456487D1*
X-1437800Y-461262D1*
Y-464136D1*
X-1438751Y-468911D1*
X-1440674Y-471785D1*
X-1443548Y-472736D1*
X-1445450D1*
X-1448324Y-471785D1*
X-1450225Y-468911D1*
X-1451198Y-464136D1*
Y-461262D1*
X-1450225Y-456487D1*
X-1448324Y-453613D1*
X-1445450Y-452662D1*
X-1443548D1*
X-1450225Y-456487D2*
X-1438751Y-468911D1*
X-1463121Y-452662D2*
X-1460247Y-453613D1*
X-1458324Y-456487D1*
X-1457373Y-461262D1*
Y-464136D1*
X-1458324Y-468911D1*
X-1460247Y-471785D1*
X-1463121Y-472736D1*
X-1465023D1*
X-1467897Y-471785D1*
X-1469798Y-468911D1*
X-1470771Y-464136D1*
Y-461262D1*
X-1469798Y-456487D1*
X-1467897Y-453613D1*
X-1465023Y-452662D1*
X-1463121D1*
X-1469798Y-456487D2*
X-1458324Y-468911D1*
M02*
