M48
INCH
T01C0.0118
T02C0.0236
T03C0.035
T04C0.0354
T05C0.0394
T06C0.04
T07C0.0591
T08C0.0787
%
T01
X-001600Y-006900
X-001000Y-005600
X-001600Y-005400
X-000650Y-005050
X-000050Y-004850
X+000250Y-004600
X+000250Y-005100
X+000250Y-003950
X+000200Y-003450
X+000000Y-002300
X-000400Y-002300
X-001100Y-002300
X-001675Y-002725
X-001500Y-003200
X-001300Y-004175
X-002900Y-003800
X-002800Y-002800
X-004400Y-003600
X-004300Y-004700
X-004300Y-005100
X-005900Y-005100
X-005900Y-003700
X-007800Y-006100
X-007900Y-009500
X-007300Y-009500
X-006700Y-009600
X-003000Y-008200
X-002900Y-007600
X-000600Y-009900
X+000200Y-009600
X+001600Y-009500
X+001900Y-008300
X+002900Y-007500
X+002600Y-007200
X+002300Y-006900
X+003200Y-007800
X+001300Y-006025
X+002150Y-003825
X+002400Y-003525
X+002650Y-003225
X+002875Y-002875
X+002400Y-001500
X+001200Y-000900
X+000600Y+000300
X-000400Y+000400
X-000900Y-000400
X-001600Y-000400
X-001400Y+000200
X-002400Y+000400
X-003200Y+000400
X-003200Y-000600
X-002600Y-001000
X-004000Y-000600
X-004500Y-000600
X-003900Y+002425
X-003100Y+002600
X-002600Y+002900
X-001400Y+002200
X-000400Y+002000
X+001200Y+002100
X+001800Y+003100
X+002100Y+003700
X+002700Y+003700
X+003600Y+003700
X+004000Y+003300
X+005000Y+002900
X+005000Y+004700
X+004400Y+004700
X+003500Y+006500
X+002700Y+006000
X+001200Y+004700
X+000600Y+004600
X-001500Y+004700
X-002200Y+004700
X-002900Y+004800
X-003500Y+004700
X-004700Y+003900
X-005500Y+003100
X-006050Y+003875
X-005900Y+004700
X-006600Y+004600
X-006600Y+006400
X-005900Y+007300
X-004100Y+007300
X-010300Y-001900
X-011200Y-004100
X-012600Y-004100
X-013800Y-002900
X-013800Y-002300
X-014300Y-002000
X-014900Y-002600
X-015300Y-002000
X-014300Y-004200
X-012200Y-000400
X+003700Y-004300
X+004400Y-004800
X+005500Y-005400
X+005700Y-002600
X+006200Y+000400
X+007100Y+001500
X+006900Y+003400
X+009300Y+004600
X+010500Y+004200
X+010700Y+002100
X+012000Y+000400
X+012900Y+000400
X+013700Y+003400
X+014300Y+004500
X+013300Y+006100
X+013700Y+006800
X+015400Y+008400
X+009200Y+007900
X+008100Y+008400
T02
X-009300Y+010400
X-007600Y+008100
X-009600Y+006400
X-010700Y+007200
X-009600Y+002000
X-000200Y+005800
T03
X-013288Y-003525
X-015288Y-003125
X-015288Y-003925
T04
X-004700Y+001500
X-000400Y+003100
X+003000Y+000000
T05
X-010894Y+014500G85X-010106Y+014500
X-012429Y+013693G85X-012429Y+012906
X-010992Y+012138G85X-010008Y+012138
X-010300Y+000400
X-011300Y+000400
X-012300Y+000400
X-013300Y+000400
X-014300Y+000400
X-015300Y+000400
X-009300Y+000400
X-008300Y+000400
X-007300Y+000400
X-007300Y-000600
X-007300Y-001600
X-007300Y-002600
X-007300Y-003600
X-007300Y-004600
X-007300Y-005600
X-008300Y-005600
X-009300Y-005600
X-010300Y-005600
X-011300Y-005600
X-012300Y-005600
X-013300Y-005600
X-014300Y-005600
X-015300Y-005600
T06
X-014000Y+004538
X-013000Y+004538
X-012000Y+004538
X-011000Y+004538
X-010000Y+004538
T07
X-002146Y+015827
X-002146Y+013327
X-002146Y+010827
X+000954Y+010727
X+000954Y+013227
X+000954Y+015727
X+005454Y+015727
X+005454Y+013227
X+005454Y+010727
X+008354Y+010727
X+008354Y+013227
X+008354Y+015727
X+012854Y+015727
X+012854Y+013227
X+012854Y+010727
X-006646Y+010827
X-006646Y+013327
X-006646Y+015827
T08
X-006646Y+014567
X-002146Y+014567
X+000954Y+014467
X+005454Y+014467
X+008354Y+014467
X+012854Y+014467
T00
M30
