G04 DipTrace 5.2.0.4*
G04 TopGlue.gbr*
%MOIN*%
G04 #@! TF.FileFunction,Drawing,Glue*
G04 #@! TF.Part,Single*
%FSLAX26Y26*%
G04*
G70*
G90*
G75*
G01*
G04 Top Glue*
%LPD*%
G36*
X-130995Y-74438D2*
X-115255D1*
Y-98060D1*
X-130995D1*
Y-74438D1*
G37*
G36*
X-122870Y-708189D2*
X-107130D1*
Y-731811D1*
X-122870D1*
Y-708189D1*
G37*
G36*
X161505Y-560689D2*
X177245D1*
Y-584311D1*
X161505D1*
Y-560689D1*
G37*
G36*
X-524745Y-498189D2*
X-509005D1*
Y-521811D1*
X-524745D1*
Y-498189D1*
G37*
G36*
Y-353189D2*
X-509005D1*
Y-376811D1*
X-524745D1*
Y-353189D1*
G37*
G36*
X260255Y-426940D2*
X275995D1*
Y-450562D1*
X260255D1*
Y-426940D1*
G37*
G36*
X39005Y-79438D2*
X54745D1*
Y-103062D1*
X39005D1*
Y-79438D1*
G37*
G36*
X305255Y-214248D2*
X320995D1*
Y-245752D1*
X305255D1*
Y-214248D1*
G37*
G36*
X469005Y-523814D2*
X484745D1*
Y-547436D1*
X469005D1*
Y-523814D1*
G37*
G36*
X-1228495Y-104248D2*
X-1212755D1*
Y-135752D1*
X-1228495D1*
Y-104248D1*
G37*
G36*
X-1128495Y-101123D2*
X-1112755D1*
Y-132627D1*
X-1128495D1*
Y-101123D1*
G37*
G36*
X-1032870Y-105064D2*
X-1017130D1*
Y-128686D1*
X-1032870D1*
Y-105064D1*
G37*
G36*
X-1332870Y-104248D2*
X-1317130D1*
Y-135752D1*
X-1332870D1*
Y-104248D1*
G37*
G36*
X54630Y137627D2*
X70370D1*
Y106123D1*
X54630D1*
Y137627D1*
G37*
G36*
X233381D2*
X249121D1*
Y106123D1*
X233381D1*
Y137627D1*
G37*
G36*
X-517870Y-107373D2*
X-502130D1*
Y-138877D1*
X-517870D1*
Y-107373D1*
G37*
G36*
X849005Y466811D2*
X864745D1*
Y443189D1*
X849005D1*
Y466811D1*
G37*
G36*
X838381Y807003D2*
X854121D1*
Y775499D1*
X838381D1*
Y807003D1*
G37*
G36*
X1065879Y375127D2*
X1081619D1*
Y343623D1*
X1065879D1*
Y375127D1*
G37*
G36*
X850879Y639501D2*
X866619D1*
Y607997D1*
X850879D1*
Y639501D1*
G37*
G36*
X841505Y725127D2*
X857245D1*
Y693623D1*
X841505D1*
Y725127D1*
G37*
G36*
X850879Y581811D2*
X866619D1*
Y558189D1*
X850879D1*
Y581811D1*
G37*
G36*
Y528877D2*
X866619D1*
Y497373D1*
X850879D1*
Y528877D1*
G37*
G36*
X-614121Y322001D2*
X-598381D1*
Y290499D1*
X-614121D1*
Y322001D1*
G37*
G36*
X-276619Y711811D2*
X-260879D1*
Y688189D1*
X-276619D1*
Y711811D1*
G37*
G36*
X-359119D2*
X-343381D1*
Y688189D1*
X-359119D1*
Y711811D1*
G37*
G36*
X-597870Y561811D2*
X-582130D1*
Y538189D1*
X-597870D1*
Y561811D1*
G37*
G36*
X-662690Y568252D2*
X-654808D1*
Y536748D1*
X-662690D1*
Y568252D1*
G37*
G36*
X-145192Y128252D2*
X-137310D1*
Y96748D1*
X-145192D1*
Y128252D1*
G37*
G36*
X-322690Y138252D2*
X-314808D1*
Y106748D1*
X-322690D1*
Y138252D1*
G37*
G36*
X-49121Y131811D2*
X-33381D1*
Y108189D1*
X-49121D1*
Y131811D1*
G37*
G36*
X-246619D2*
X-230881D1*
Y108189D1*
X-246619D1*
Y131811D1*
G37*
G36*
X-512870Y824501D2*
X-497130D1*
Y792997D1*
X-512870D1*
Y824501D1*
G37*
G36*
X-690370Y822003D2*
X-674630D1*
Y790499D1*
X-690370D1*
Y822003D1*
G37*
G36*
X-600370Y819311D2*
X-584630D1*
Y795689D1*
X-600370D1*
Y819311D1*
G37*
G36*
X-422870D2*
X-407130D1*
Y795689D1*
X-422870D1*
Y819311D1*
G37*
G36*
X1499630Y461811D2*
X1515370D1*
Y438189D1*
X1499630D1*
Y461811D1*
G37*
G36*
Y808252D2*
X1515370D1*
Y776748D1*
X1499630D1*
Y808252D1*
G37*
G36*
X1243381Y378252D2*
X1259119D1*
Y346748D1*
X1243381D1*
Y378252D1*
G37*
G36*
X1502130Y578252D2*
X1517870D1*
Y546748D1*
X1502130D1*
Y578252D1*
G37*
G36*
X1498381Y713252D2*
X1514121D1*
Y681748D1*
X1498381D1*
Y713252D1*
G37*
G36*
X1504630Y629311D2*
X1520370D1*
Y605689D1*
X1504630D1*
Y629311D1*
G37*
G36*
X1500879Y520752D2*
X1516619D1*
Y489248D1*
X1500879D1*
Y520752D1*
G37*
G36*
X-1099121Y227003D2*
X-1083381D1*
Y195499D1*
X-1099121D1*
Y227003D1*
G37*
G36*
X-1306621Y989503D2*
X-1290881D1*
Y957999D1*
X-1306621D1*
Y989503D1*
G37*
G36*
X-905370Y912003D2*
X-889630D1*
Y880499D1*
X-905370D1*
Y912003D1*
G37*
G36*
X-1492003Y1317367D2*
X-1460499D1*
Y1270131D1*
X-1492003D1*
Y1317367D1*
G37*
G36*
X56059Y559501D2*
X63941D1*
Y527997D1*
X56059D1*
Y559501D1*
G37*
G36*
X117130Y560562D2*
X132870D1*
Y536940D1*
X117130D1*
Y560562D1*
G37*
G36*
X502310Y569501D2*
X510192D1*
Y537999D1*
X502310D1*
Y569501D1*
G37*
G36*
X433381Y560562D2*
X449121D1*
Y536940D1*
X433381D1*
Y560562D1*
G37*
G36*
X121059Y314501D2*
X128941D1*
Y282997D1*
X121059D1*
Y314501D1*
G37*
G36*
X49630Y305560D2*
X65370D1*
Y281940D1*
X49630D1*
Y305560D1*
G37*
G36*
X-237870Y560562D2*
X-222130D1*
Y536940D1*
X-237870D1*
Y560562D1*
G37*
G36*
X-158941Y569501D2*
X-151059D1*
Y537999D1*
X-158941D1*
Y569501D1*
G37*
G36*
X-1537870Y-104248D2*
X-1522130D1*
Y-135752D1*
X-1537870D1*
Y-104248D1*
G37*
G36*
X-1437870D2*
X-1422130D1*
Y-135752D1*
X-1437870D1*
Y-104248D1*
G37*
G36*
X1282130Y691811D2*
X1297870D1*
Y668189D1*
X1282130D1*
Y691811D1*
G37*
M02*
